<svg width="15" height="14" viewBox="0 0 15 14" fill="none" xmlns="http://www.w3.org/2000/svg">
<g clip-path="url(#clip0_149_81)">
<path d="M8.5904 4.13005C7.8304 4.15005 7.0904 3.74005 6.7104 3.02005C6.1804 2.01005 6.5804 0.760046 7.5804 0.240046C8.0704 -0.00995427 8.6304 -0.0599543 9.1504 0.100046C9.6804 0.270046 10.1104 0.620046 10.3604 1.11005C10.8904 2.12005 10.5004 3.37005 9.4904 3.89005C9.2004 4.04005 8.8904 4.12005 8.5804 4.12005L8.5904 4.13005ZM8.5204 1.00005C8.3604 1.00005 8.2004 1.04005 8.0504 1.12005C7.8004 1.25005 7.6104 1.47005 7.5304 1.74005C7.4404 2.01005 7.4704 2.30005 7.6004 2.55005C7.7304 2.80005 7.9504 2.99005 8.2204 3.07005C8.4904 3.16005 8.7804 3.13005 9.0304 3.00005C9.2804 2.87005 9.4704 2.65005 9.5504 2.38005C9.6404 2.11005 9.6104 1.82005 9.4804 1.57005C9.3504 1.32005 9.1304 1.13005 8.8604 1.05005C8.7504 1.01005 8.6304 1.00005 8.5204 1.00005Z" fill="url(#paint0_linear_149_81)"/>
<path d="M11.2298 5.91996C11.0098 5.91996 10.7798 5.88996 10.5698 5.81996C10.0398 5.64996 9.60976 5.29996 9.35976 4.80996C9.09976 4.31996 9.05976 3.75996 9.21976 3.23996C9.38976 2.70996 9.73976 2.27996 10.2298 2.02996C11.2398 1.50996 12.4898 1.89996 13.0098 2.89996C13.5398 3.90996 13.1498 5.15996 12.1398 5.67996C11.8498 5.82996 11.5398 5.90996 11.2298 5.91996ZM11.1598 2.78996C10.9998 2.78996 10.8398 2.82996 10.6898 2.90996C10.4398 3.03996 10.2498 3.25996 10.1698 3.52996C10.0898 3.79996 10.1098 4.08996 10.2398 4.33996C10.3698 4.58996 10.5898 4.77996 10.8598 4.85996C11.1298 4.93996 11.4198 4.91996 11.6698 4.78996C11.9198 4.65996 12.1098 4.43996 12.1898 4.16996C12.2798 3.89996 12.2498 3.60996 12.1198 3.35996C11.9298 2.98996 11.5498 2.77996 11.1498 2.78996H11.1598Z" fill="url(#paint1_linear_149_81)"/>
<path d="M12.06 6.04004H0.51C0.228335 6.04004 0 6.26837 0 6.55004V12.6C0 12.8817 0.228335 13.11 0.51 13.11H12.06C12.3417 13.11 12.57 12.8817 12.57 12.6V6.55004C12.57 6.26837 12.3417 6.04004 12.06 6.04004Z" fill="url(#paint2_linear_149_81)"/>
<path d="M14.265 7.00569L3.37038 0.715693C3.12645 0.574861 2.81454 0.658437 2.67371 0.902366L1.93871 2.17542C1.79788 2.41935 1.88145 2.73126 2.12538 2.8721L13.02 9.1621C13.2639 9.30293 13.5758 9.21935 13.7167 8.97542L14.4517 7.70237C14.5925 7.45844 14.5089 7.14653 14.265 7.00569Z" fill="url(#paint3_linear_149_81)"/>
<path d="M7.18965 6.04004H5.38965V13.12H7.18965V6.04004Z" fill="url(#paint4_linear_149_81)"/>
<path d="M8.31727 3.57223L7.07227 5.72864L8.63111 6.62864L9.87611 4.47223L8.31727 3.57223Z" fill="url(#paint5_linear_149_81)"/>
</g>
<defs>
<linearGradient id="paint0_linear_149_81" x1="10.368" y1="-0.952236" x2="7.27605" y2="4.15475" gradientUnits="userSpaceOnUse">
<stop offset="0.06" stop-color="#FB5937"/>
<stop offset="1" stop-color="#FFCD0F"/>
</linearGradient>
<linearGradient id="paint1_linear_149_81" x1="13.093" y1="0.69002" x2="10.0112" y2="5.80679" gradientUnits="userSpaceOnUse">
<stop offset="0.06" stop-color="#FB5937"/>
<stop offset="1" stop-color="#FFCD0F"/>
</linearGradient>
<linearGradient id="paint2_linear_149_81" x1="6.05" y1="3.40004" x2="6.38" y2="11.98" gradientUnits="userSpaceOnUse">
<stop offset="0.06" stop-color="#EA45D9"/>
<stop offset="0.49" stop-color="#DF3F92"/>
<stop offset="1" stop-color="#E52B66"/>
</linearGradient>
<linearGradient id="paint3_linear_149_81" x1="9.11348" y1="2.79734" x2="8.00348" y2="5.39734" gradientUnits="userSpaceOnUse">
<stop offset="0.06" stop-color="#EA45D9"/>
<stop offset="0.49" stop-color="#DF3F92"/>
<stop offset="1" stop-color="#E52B66"/>
</linearGradient>
<linearGradient id="paint4_linear_149_81" x1="6.27965" y1="5.56004" x2="6.27965" y2="12.83" gradientUnits="userSpaceOnUse">
<stop offset="0.06" stop-color="#FB5937"/>
<stop offset="1" stop-color="#FFCD0F"/>
</linearGradient>
<linearGradient id="paint5_linear_149_81" x1="9.18369" y1="3.87155" x2="7.91144" y2="6.07515" gradientUnits="userSpaceOnUse">
<stop offset="0.06" stop-color="#FB5937"/>
<stop offset="1" stop-color="#FFCD0F"/>
</linearGradient>
<clipPath id="clip0_149_81">
<rect width="14.52" height="13.12" fill="white"/>
</clipPath>
</defs>
</svg>
