<svg id="i_crown" xmlns="http://www.w3.org/2000/svg" width="24" height="20.004" viewBox="0 0 24 20.004">
  <path id="路径_5564" data-name="路径 5564" d="M21.805,20.334H2.825a1.052,1.052,0,0,0-1.051,1.052V22.57a1.052,1.052,0,0,0,1.051,1.052h18.98a1.052,1.052,0,0,0,1.052-1.052V21.386a1.052,1.052,0,0,0-1.052-1.052" transform="translate(-0.315 -3.618)" fill="currentColor"/>
  <path id="路径_5565" data-name="路径 5565" d="M22.248,4.476l-4.719,6.29L13.439.952a1.564,1.564,0,0,0-2.878,0L6.47,10.767,1.751,4.476c-.693-.925-1.9-.459-1.735.659l1.31,8.715a1.062,1.062,0,0,0,1.014.886H21.66a1.062,1.062,0,0,0,1.015-.886l1.31-8.715c.168-1.118-1.042-1.584-1.736-.659" transform="translate(0)" fill="currentColor"/>
</svg>
