<svg id="i_rank2nd" xmlns="http://www.w3.org/2000/svg" width="24" height="28.813" viewBox="0 0 24 28.813">
  <path id="路径_5571" data-name="路径 5571" d="M11.632,22.36a11.18,11.18,0,1,1,11.18-11.18,11.193,11.193,0,0,1-11.18,11.18m0-20.863a9.683,9.683,0,1,0,9.683,9.683A9.695,9.695,0,0,0,11.632,1.5" transform="translate(-0.113)" fill="currentColor"/>
  <path id="路径_5572" data-name="路径 5572" d="M25.523,25.833a12.391,12.391,0,0,1-6.29,3.662l3.249,5.629a.374.374,0,0,0,.652-.01l1.712-3.176,3.606.106a.373.373,0,0,0,.334-.559Z" transform="translate(-4.837 -6.497)" fill="currentColor"/>
  <path id="路径_5573" data-name="路径 5573" d="M.05,31.668a.373.373,0,0,0,.334.559l3.606-.106L5.7,35.3a.373.373,0,0,0,.651.01l3.163-5.48A12.366,12.366,0,0,1,3,26.561Z" transform="translate(0.001 -6.68)" fill="currentColor"/>
  <path id="路径_5574" data-name="路径 5574" d="M12.474,3.346a8.675,8.675,0,1,0,8.674,8.675,8.675,8.675,0,0,0-8.674-8.675m3.279,13.883H9.92V15.756l3.493-4.625a3.044,3.044,0,0,0,.42-.732,1.928,1.928,0,0,0,.149-.705V9.681a1,1,0,0,0-.308-.785,1.273,1.273,0,0,0-.879-.278,1.2,1.2,0,0,0-.885.337,1.549,1.549,0,0,0-.406.955v.006H9.8V9.91a3.748,3.748,0,0,1,.486-1.555,2.623,2.623,0,0,1,1.028-.987,3.081,3.081,0,0,1,1.472-.341,3.672,3.672,0,0,1,1.576.309,2.227,2.227,0,0,1,1,.9A2.793,2.793,0,0,1,15.7,9.66v.006a3.56,3.56,0,0,1-.233,1.24,4.645,4.645,0,0,1-.642,1.177l-2.708,3.555h3.638Z" transform="translate(-0.955 -0.842)" fill="currentColor"/>
</svg>
