<svg id="i_rank1st" xmlns="http://www.w3.org/2000/svg" width="24" height="28.814" viewBox="0 0 24 28.814">
  <path id="路径_5566" data-name="路径 5566" d="M11.632,22.36a11.18,11.18,0,1,1,11.18-11.18,11.193,11.193,0,0,1-11.18,11.18m0-20.863a9.683,9.683,0,1,0,9.683,9.683A9.695,9.695,0,0,0,11.632,1.5" transform="translate(-0.113)" fill="currentColor"/>
  <path id="路径_5567" data-name="路径 5567" d="M25.523,25.833a12.391,12.391,0,0,1-6.29,3.662l3.249,5.629a.374.374,0,0,0,.652-.01l1.712-3.176,3.606.106a.373.373,0,0,0,.334-.559Z" transform="translate(-4.837 -6.496)" fill="currentColor"/>
  <path id="路径_5568" data-name="路径 5568" d="M.05,31.668a.373.373,0,0,0,.334.559l3.606-.106L5.7,35.3a.373.373,0,0,0,.651.01l3.163-5.48A12.366,12.366,0,0,1,3,26.561Z" transform="translate(0.001 -6.68)" fill="currentColor"/>
  <path id="路径_5569" data-name="路径 5569" d="M12.474,3.346a8.675,8.675,0,1,0,8.674,8.675,8.675,8.675,0,0,0-8.674-8.675m.834,13.883H11.5V8.669L10.143,9.3V7.346L11.466,6.6h1.842Z" transform="translate(-0.955 -0.841)" fill="currentColor"/>
</svg>
