<svg id="i_rank3rd" xmlns="http://www.w3.org/2000/svg" width="24" height="28.814" viewBox="0 0 24 28.814">
  <path id="路径_5576" data-name="路径 5576" d="M11.632,22.36a11.18,11.18,0,1,1,11.18-11.18,11.193,11.193,0,0,1-11.18,11.18m0-20.863a9.683,9.683,0,1,0,9.683,9.683A9.695,9.695,0,0,0,11.632,1.5" transform="translate(-0.113)" fill="currentColor"/>
  <path id="路径_5577" data-name="路径 5577" d="M25.523,25.833a12.391,12.391,0,0,1-6.29,3.662l3.249,5.629a.374.374,0,0,0,.652-.01l1.712-3.176,3.606.106a.373.373,0,0,0,.334-.559Z" transform="translate(-4.837 -6.496)" fill="currentColor"/>
  <path id="路径_5578" data-name="路径 5578" d="M.05,31.668a.373.373,0,0,0,.334.559l3.606-.106L5.7,35.3a.373.373,0,0,0,.651.01l3.163-5.48A12.366,12.366,0,0,1,3,26.561Z" transform="translate(0.001 -6.68)" fill="currentColor"/>
  <path id="路径_5579" data-name="路径 5579" d="M12.474,3.346a8.675,8.675,0,1,0,8.675,8.675,8.675,8.675,0,0,0-8.675-8.675m2.813,11.2a3.087,3.087,0,0,1-.344,1.507,2.259,2.259,0,0,1-1,.951,3.537,3.537,0,0,1-1.583.326,3.64,3.64,0,0,1-1.562-.319,2.609,2.609,0,0,1-1.088-.934,3.129,3.129,0,0,1-.482-1.469h1.7a1.424,1.424,0,0,0,.229.622,1.077,1.077,0,0,0,.451.371,1.564,1.564,0,0,0,.646.125,1.31,1.31,0,0,0,.965-.337,1.283,1.283,0,0,0,.341-.954v-.272a1.578,1.578,0,0,0-.3-1.031,1.061,1.061,0,0,0-.865-.365h-.784V11.187h.784a.907.907,0,0,0,.74-.316,1.359,1.359,0,0,0,.26-.885V9.743a1.13,1.13,0,0,0-.281-.823,1.063,1.063,0,0,0-.795-.287,1.159,1.159,0,0,0-.558.132,1.143,1.143,0,0,0-.421.4,1.841,1.841,0,0,0-.25.656H9.392A3.637,3.637,0,0,1,9.9,8.312a2.653,2.653,0,0,1,1.028-.958,3.036,3.036,0,0,1,1.421-.327,2.859,2.859,0,0,1,2.045.688,2.542,2.542,0,0,1,.725,1.938v.235a2.151,2.151,0,0,1-.382,1.272,2.217,2.217,0,0,1-1.083.8,1.913,1.913,0,0,1,1.2.788,2.678,2.678,0,0,1,.427,1.566Z" transform="translate(-0.955 -0.841)" fill="currentColor"/>
</svg>
