<svg width="14" height="14" viewBox="0 0 14 14" fill="currentColor" xmlns="http://www.w3.org/2000/svg">
<path d="M13.3333 6.57883L11.5067 5.51883C11.6667 5.37883 11.82 5.19883 11.9333 4.99883C12.4867 4.04549 12.16 2.81883 11.2 2.26549C10.6267 1.93216 9.95333 1.93216 9.38667 2.17216L9.39333 2.16549L8.80667 2.42549L8.73333 1.78549L8.72667 1.79216C8.66667 1.18549 8.31333 0.598827 7.74 0.265494C7.27881 0.00198648 6.73225 -0.0688005 6.21915 0.0685252C5.70605 0.205851 5.26791 0.540185 5 0.998827C4.88667 1.19883 4.81333 1.41883 4.77333 1.63216L2.94 0.578827C2.3 0.21216 1.48667 0.425494 1.12 1.06549L0.12 2.79883C0.0760735 2.87441 0.0475991 2.95796 0.0362301 3.04464C0.0248611 3.13131 0.0308238 3.21938 0.0537724 3.30373C0.0767211 3.38808 0.116198 3.46704 0.169912 3.53601C0.223625 3.60497 0.290504 3.66259 0.366667 3.70549L1.52 4.37216L4.33333 5.99883H0V12.6655C0 13.0191 0.140476 13.3583 0.390524 13.6083C0.640573 13.8584 0.979711 13.9988 1.33333 13.9988H12C12.74 13.9988 13.3333 13.4055 13.3333 12.6655V9.24549L13.82 8.39883C14.1867 7.75883 13.9733 6.94549 13.3333 6.57883ZM9.62667 3.66549C9.80667 3.33216 10.22 3.23883 10.5333 3.41883C10.8533 3.60549 10.9667 3.99883 10.78 4.33216C10.5933 4.66549 10.1867 4.75883 9.86667 4.57883C9.55333 4.39216 9.44 3.99883 9.62667 3.66549ZM8.04667 5.06549L12.6667 7.73216L12 8.88549L7.38 6.21883L8.04667 5.06549ZM6 12.6655H1.33333V7.33216H6V12.6655ZM6.22667 5.55216L1.60667 2.88549L2.27333 1.73216L6.89333 4.39883L6.22667 5.55216ZM6.40667 2.57883C6.08667 2.39216 5.98 1.99883 6.16 1.66549C6.33333 1.33216 6.75333 1.23883 7.07333 1.41883C7.39333 1.60549 7.5 1.99883 7.31333 2.33216C7.13333 2.66549 6.72667 2.75883 6.40667 2.57883ZM7.33333 12.6655V7.73216L12 10.4255V12.6655H7.33333Z" fill="currentColor"/>
</svg>
