<svg id="i_sound_off" xmlns="http://www.w3.org/2000/svg" xmlns:xlink="http://www.w3.org/1999/xlink" width="34.87" height="23.73" viewBox="0 0 34.87 23.73">
  <defs>
    <clipPath id="clip-path">
      <rect id="矩形_3581" data-name="矩形 3581" width="34.87" height="23.73" transform="translate(0 0)" fill="none"/>
    </clipPath>
  </defs>
  <g id="组_8553" data-name="组 8553" transform="translate(0 0)" clip-path="url(#clip-path)">
    <path id="路径_5546" data-name="路径 5546" d="M15.085,0a1.193,1.193,0,0,0-.646.191L6.105,5.567H3.032A3.035,3.035,0,0,0,0,8.6v6.532a3.035,3.035,0,0,0,3.032,3.032H6.105l8.334,5.376a1.193,1.193,0,0,0,.646.191A3.034,3.034,0,0,0,18.116,20.7V3.033A3.035,3.035,0,0,0,15.085,0m.649,20.7a.649.649,0,0,1-.385.593L7.1,15.972a1.191,1.191,0,0,0-.645-.19H3.032a.65.65,0,0,1-.649-.65V8.6a.65.65,0,0,1,.649-.65H6.457A1.191,1.191,0,0,0,7.1,7.76l8.247-5.321a.652.652,0,0,1,.385.594Z" fill="#fff"/>
    <path id="路径_5547" data-name="路径 5547" d="M30.5,11.865l3.961-4.219a1.489,1.489,0,1,0-2.171-2.038L28.462,9.69,24.63,5.608a1.488,1.488,0,1,0-2.17,2.038l3.961,4.219L22.46,16.084a1.488,1.488,0,1,0,2.17,2.038l3.832-4.082,3.833,4.082a1.489,1.489,0,1,0,2.171-2.038Z" fill="#fff"/>
  </g>
</svg>
