<svg id="i_sound_on" xmlns="http://www.w3.org/2000/svg" xmlns:xlink="http://www.w3.org/1999/xlink" width="43.914" height="28.958" viewBox="0 0 43.914 28.958">
  <defs>
    <clipPath id="clip-path">
      <rect id="矩形_3582" data-name="矩形 3582" width="43.914" height="28.958" transform="translate(0 0)" fill="none"/>
    </clipPath>
  </defs>
  <g id="组_8555" data-name="组 8555" transform="translate(0 0)" clip-path="url(#clip-path)">
    <path id="路径_5548" data-name="路径 5548" d="M15.085,3.158a1.192,1.192,0,0,0-.646.19L6.105,8.724H3.032A3.035,3.035,0,0,0,0,11.757v6.532a3.035,3.035,0,0,0,3.032,3.032H6.105L14.439,26.7a1.193,1.193,0,0,0,.646.191,3.034,3.034,0,0,0,3.031-3.032V6.19a3.034,3.034,0,0,0-3.031-3.032m.649,20.7a.649.649,0,0,1-.385.593L7.1,19.129a1.189,1.189,0,0,0-.645-.19H3.032a.65.65,0,0,1-.649-.65V11.757a.65.65,0,0,1,.649-.65H6.457a1.189,1.189,0,0,0,.645-.19L15.349,5.6a.652.652,0,0,1,.385.594Z" fill="#fff"/>
    <path id="路径_5549" data-name="路径 5549" d="M37.308.222a1.191,1.191,0,1,0-1.384,1.939c3.459,2.47,5.608,7.19,5.608,12.319S39.383,24.33,35.924,26.8a1.191,1.191,0,1,0,1.384,1.939c4.075-2.908,6.606-8.371,6.606-14.257S41.383,3.131,37.308.222" fill="#fff"/>
    <path id="路径_5550" data-name="路径 5550" d="M30.161,3.571A1.191,1.191,0,1,0,28.777,5.51c2.509,1.792,4.068,5.229,4.068,8.97s-1.559,7.178-4.068,8.969a1.192,1.192,0,0,0,1.384,1.94c3.125-2.232,5.067-6.411,5.067-10.909S33.286,5.8,30.161,3.571" fill="#fff"/>
    <path id="路径_5551" data-name="路径 5551" d="M23.013,6.92a1.191,1.191,0,1,0-1.384,1.939,6.9,6.9,0,0,1,2.529,5.621A6.9,6.9,0,0,1,21.629,20.1a1.191,1.191,0,1,0,1.384,1.939,9.3,9.3,0,0,0,3.528-7.56,9.3,9.3,0,0,0-3.528-7.56" fill="#fff"/>
  </g>
</svg>
