<svg fill="#fff" height="28" viewBox="0 0 28 28" width="28" xmlns="http://www.w3.org/2000/svg"><g fill="#fff"><path d="m0 0h28v28h-28z" opacity="0"/><path d="m12.7 24h-8.949a3.755 3.755 0 0 1 -3.751-3.751v-12.702a3.755 3.755 0 0 1 3.751-3.747h8.949a3.755 3.755 0 0 1 3.76 3.751v12.7a3.755 3.755 0 0 1 -3.748 3.749zm-8.949-18.329a1.878 1.878 0 0 0 -1.876 1.876v12.7a1.875 1.875 0 0 0 1.875 1.875h8.95a1.878 1.878 0 0 0 1.875-1.875v-12.7a1.878 1.878 0 0 0 -1.875-1.876zm16.463 12.235v-14.155a3.755 3.755 0 0 0 -3.751-3.751h-10.417a.938.938 0 0 0 0 1.875h10.417a1.878 1.878 0 0 1 1.875 1.875v14.156a.938.938 0 1 0 1.875 0z" transform="translate(4 2)"/></g></svg>