<svg height="28" viewBox="0 0 28 28" width="28" xmlns="http://www.w3.org/2000/svg"><g fill="#fff"><path d="m0 0h28v28h-28z" opacity="0"/><path d="m-3824.431 4541.282a3.893 3.893 0 0 0 3.888-3.89 3.891 3.891 0 0 0 -3.888-3.888 3.892 3.892 0 0 0 -3.888 3.888 3.893 3.893 0 0 0 3.888 3.89zm0-6.909a3.022 3.022 0 0 1 3.02 3.019 3.023 3.023 0 0 1 -3.02 3.02 3.023 3.023 0 0 1 -3.019-3.02 3.022 3.022 0 0 1 3.019-3.019z" transform="translate(3834.149 -4527.504)"/><path d="m-3785.466 4550.195a3.163 3.163 0 0 0 3.16-3.16 3.163 3.163 0 0 0 -3.16-3.159 3.163 3.163 0 0 0 -3.16 3.159 3.163 3.163 0 0 0 3.16 3.16zm0-5.451a2.293 2.293 0 0 1 2.291 2.291 2.293 2.293 0 0 1 -2.291 2.291 2.293 2.293 0 0 1 -2.291-2.291 2.293 2.293 0 0 1 2.291-2.291z" transform="translate(3805.954 -4534.871)"/><path d="m-3827.465 4568.149a.434.434 0 0 0 -.169.591 5.713 5.713 0 0 1 .663 2.764v.538h-13.7v-.538c0-2.4 1.29-4.814 4.171-4.814h5.354a4.2 4.2 0 0 1 1.556.285.434.434 0 0 0 .564-.242.435.435 0 0 0 -.243-.564 5.053 5.053 0 0 0 -1.877-.347h-5.354c-2.968 0-5.041 2.338-5.041 5.683v.973a.435.435 0 0 0 .435.434h14.566a.434.434 0 0 0 .435-.434v-.973a6.591 6.591 0 0 0 -.772-3.187.433.433 0 0 0 -.588-.169z" transform="translate(3843.538 -4550.458)"/><path d="m-3783.613 4569.594h-3.771a.436.436 0 0 0 -.393.249.435.435 0 0 0 .057.461c1.325 1.621 1.411 4.83 1.411 4.861a.435.435 0 0 0 .435.426h6.06a.435.435 0 0 0 .435-.435v-.8c-.003-2.804-1.743-4.762-4.234-4.762zm3.363 5.128h-5.212a11.036 11.036 0 0 0 -1.108-4.258h2.958c2.323 0 3.363 1.953 3.363 3.891z" transform="translate(3805.382 -4553.139)"/></g></svg>