<svg height="28" viewBox="0 0 28 28" width="28" xmlns="http://www.w3.org/2000/svg" xmlns:xlink="http://www.w3.org/1999/xlink"><linearGradient id="a" gradientUnits="objectBoundingBox" x1=".5" x2=".5" y1="-.011" y2="1.01"><stop offset="0" stop-color="#15e863"/><stop offset="1" stop-color="#00c852"/></linearGradient><path d="m0 0h28v28h-28z" fill="#fff" opacity="0"/><rect fill="url(#a)" height="28" rx="6" width="28"/><path d="m21.868 13.56c-6.108 0-11.078 4.061-11.078 9.049 0 4.471 3.943 8.215 9.266 8.926.361.078.85.241.975.549a2.319 2.319 0 0 1 .037 1l-.152.946c-.042.28-.222 1.1.967.6a35.827 35.827 0 0 0 8.717-6.475 8.035 8.035 0 0 0 2.353-5.546c-.004-4.988-4.972-9.049-11.085-9.049zm-4.335 12.027h-2.2a.586.586 0 0 1 -.58-.583v-4.445a.583.583 0 1 1 1.164 0v3.849h1.621a.586.586 0 0 1 0 1.169zm2.278-.587a.583.583 0 1 1 -1.164 0v-4.441a.583.583 0 1 1 1.164 0zm5.3 0a.588.588 0 0 1 -.408.544.62.62 0 0 1 -.183.026.57.57 0 0 1 -.471-.233l-2.249-3.075v2.73a.58.58 0 1 1 -1.161 0v-4.446a.583.583 0 0 1 .4-.539.546.546 0 0 1 .18-.031.6.6 0 0 1 .458.238l2.272 3.093v-2.748a.583.583 0 1 1 1.164 0zm3.559-2.813a.586.586 0 1 1 0 1.171h-1.614v1.046h1.621a.586.586 0 0 1 0 1.169h-2.21a.586.586 0 0 1 -.58-.583v-4.441a.588.588 0 0 1 .583-.586h2.2a.586.586 0 0 1 0 1.171h-1.614v1.046z" fill="#fff" transform="translate(-7.969 -10.015)"/></svg>