<svg height="28" viewBox="0 0 28 28" width="28" xmlns="http://www.w3.org/2000/svg"><g fill="#fff"><path d="m0 0h28v28h-28z" opacity="0"/><path d="m-2912.729 4528.416c0-2.842-2.687-2.842-4.465-2.842h-9.737c-1.779 0-4.465 0-4.465 2.842 0 2.306 1.743 4.965 4.057 5.25v.406a3.813 3.813 0 0 0 1.44 2.995l.039.033a2.994 2.994 0 0 1 1.118 2.054 3 3 0 0 1 -.684 2.236.4.4 0 0 0 -.093.232h-1.1a.407.407 0 0 0 -.408.407v2.423a.407.407 0 0 0 .408.407h9.219a.408.408 0 0 0 .408-.407v-2.423a.408.408 0 0 0 -.408-.407h-1.208a.41.41 0 0 0 -.092-.232 2.992 2.992 0 0 1 -.685-2.236 3 3 0 0 1 1.117-2.054l.042-.033a3.817 3.817 0 0 0 1.439-2.995v-.406c2.315-.285 4.058-2.944 4.058-5.25zm-17.852 0c0-1.625 1.048-1.987 3.242-2.023v6.449c-1.828-.298-3.242-2.542-3.242-4.426zm12.775 15.628h-8.4v-1.607h8.4zm.205-9.973a3.006 3.006 0 0 1 -1.133 2.357l-.042.033a3.805 3.805 0 0 0 -1.42 2.61 3.8 3.8 0 0 0 .652 2.55h-5.038a3.8 3.8 0 0 0 .652-2.55 3.807 3.807 0 0 0 -1.42-2.61l-.04-.032a3 3 0 0 1 -1.134-2.358v-7.683h8.923zm.815-1.23v-6.449c2.194.037 3.242.4 3.242 2.023 0 1.885-1.414 4.129-3.242 4.427z" transform="translate(2936.063 -4520.907)"/></g></svg>