<svg height="28" viewBox="0 0 28 28" width="28" xmlns="http://www.w3.org/2000/svg" xmlns:xlink="http://www.w3.org/1999/xlink"><linearGradient id="a" gradientUnits="objectBoundingBox" x1=".5" x2=".5" y1="1.028" y2=".066"><stop offset=".019" stop-color="#f00"/><stop offset="1" stop-color="#ff9d00"/></linearGradient><linearGradient id="b" gradientUnits="objectBoundingBox" x1=".5" x2=".5" y1="1.028" y2=".066"><stop offset=".019" stop-color="#de0000"/><stop offset=".516" stop-color="#a30000"/><stop offset="1" stop-color="#ff2b2b"/></linearGradient><linearGradient id="c" gradientUnits="objectBoundingBox" x1=".5" x2=".5" y1="1" y2=".065"><stop offset="0" stop-color="#dedede"/><stop offset="1" stop-color="#fff"/></linearGradient><linearGradient id="d" x1=".5" x2=".5" xlink:href="#c" y1="1" y2=".065"/><linearGradient id="e" x1=".5" x2=".5" xlink:href="#c" y1="15.336" y2=".115"/><linearGradient id="f" x1=".5" x2=".5" xlink:href="#c" y1="13.286" y2="-1.935"/><linearGradient id="g" x1=".5" x2=".5" xlink:href="#c" y1="3.386" y2="-11.835"/><linearGradient id="h" x1=".5" x2=".5" xlink:href="#c" y1="1.291" y2="-13.93"/><linearGradient id="i" x1=".5" x2=".5" xlink:href="#c" y1="8.336" y2="-6.885"/><path d="m0 0h28v28h-28z" fill="#fff" opacity="0"/><path d="m-3456.6 4755.79-3.165 3.166a.506.506 0 0 0 -.149.359v4.477a.842.842 0 0 1 -.842.841h-4.477a.51.51 0 0 0 -.36.15l-3.166 3.165a.865.865 0 0 1 -1.19 0l-3.165-3.165a.511.511 0 0 0 -.36-.149h-4.477a.843.843 0 0 1 -.842-.842v-4.476a.513.513 0 0 0 -.149-.361l-3.165-3.165a.836.836 0 0 1 -.247-.6.839.839 0 0 1 .247-.6l3.165-3.164a.511.511 0 0 0 .149-.36v-4.466a.843.843 0 0 1 .842-.842h4.477a.511.511 0 0 0 .36-.149l3.166-3.165a.863.863 0 0 1 1.191 0l3.165 3.166a.51.51 0 0 0 .36.149h4.477a.843.843 0 0 1 .842.842v4.477a.508.508 0 0 0 .149.36l3.165 3.165a.839.839 0 0 1 .246.6.838.838 0 0 1 -.247.587z" fill="#4b0000" transform="translate(3483.353 -4740.185)"/><path d="m-3456.6 4752.79-3.165 3.165a.507.507 0 0 0 -.149.36v4.477a.843.843 0 0 1 -.842.841h-4.477a.507.507 0 0 0 -.36.149l-3.166 3.165a.865.865 0 0 1 -1.19 0l-3.165-3.165a.511.511 0 0 0 -.36-.148h-4.477a.844.844 0 0 1 -.842-.843v-4.476a.511.511 0 0 0 -.149-.36l-3.165-3.164a.84.84 0 0 1 -.247-.6.836.836 0 0 1 .247-.6l3.165-3.165a.51.51 0 0 0 .149-.359v-4.467a.842.842 0 0 1 .842-.841h4.477a.508.508 0 0 0 .36-.15l3.166-3.166a.862.862 0 0 1 1.191 0l3.165 3.165a.5.5 0 0 0 .36.15h4.477a.843.843 0 0 1 .842.842v4.477a.506.506 0 0 0 .149.359l3.165 3.165a.837.837 0 0 1 .246.595.842.842 0 0 1 -.247.594z" fill="url(#a)" transform="translate(3483.353 -4738.202)"/><path d="m-3468.692 4765.506a.5.5 0 0 1 -.355-.139l-3.165-3.165a.854.854 0 0 0 -.6-.248h-4.477a.5.5 0 0 1 -.5-.5v-4.476a.853.853 0 0 0 -.249-.6l-3.165-3.165a.5.5 0 0 1 -.147-.355.5.5 0 0 1 .148-.356l3.165-3.165a.841.841 0 0 0 .249-.6v-4.477a.5.5 0 0 1 .5-.5h4.477a.853.853 0 0 0 .6-.249l3.165-3.165a.5.5 0 0 1 .355-.139.5.5 0 0 1 .356.139l3.165 3.165a.852.852 0 0 0 .6.249h4.477a.5.5 0 0 1 .5.5v4.477a.841.841 0 0 0 .248.6l3.165 3.165a.5.5 0 0 1 .147.355.5.5 0 0 1 -.147.355l-3.165 3.165a.86.86 0 0 0 -.248.6v4.477a.5.5 0 0 1 -.5.5h-4.477a.853.853 0 0 0 -.6.248l-3.167 3.165a.5.5 0 0 1 -.355.139z" fill="url(#b)" transform="translate(3482.692 -4738.863)"/><g fill="#4f4f4f"><path d="m-3463.253 4772.781-2.016-5.759h-1.45l2.742 7.647.049.134h1.348l2.7-7.51.1-.271h-1.451z" transform="translate(3473.024 -4756.582)"/><path d="m13.8 10.441h1.425v7.781h-1.425z"/><path d="m-3432.134 4767.6a2.921 2.921 0 0 0 -.965-.433 4.617 4.617 0 0 0 -1.164-.14h-1.985v7.781h1.425v-2.913h.307a4.681 4.681 0 0 0 1.274-.168 3.3 3.3 0 0 0 1.042-.491 2.392 2.392 0 0 0 .708-.793 2.174 2.174 0 0 0 .257-1.053 2.2 2.2 0 0 0 -.241-1.043 2.156 2.156 0 0 0 -.658-.747zm-.651 2.313a1.185 1.185 0 0 1 -.36.4 1.786 1.786 0 0 1 -.577.261 2.889 2.889 0 0 1 -.761.094h-.34v-2.419h.528a3.2 3.2 0 0 1 .671.068 1.523 1.523 0 0 1 .52.2 1 1 0 0 1 .327.34 1.017 1.017 0 0 1 .118.513 1.115 1.115 0 0 1 -.126.54z" transform="translate(3452.893 -4756.582)"/></g><path d="m-3463.253 4771.781-2.016-5.759h-1.45l2.742 7.646.049.136h1.348l2.7-7.51.1-.272h-1.451z" fill="url(#c)" transform="translate(3473.024 -4755.921)"/><path d="m0 0h1.425v7.781h-1.425z" fill="url(#d)" transform="translate(13.8 10.101)"/><path d="m-3432.134 4766.6a2.933 2.933 0 0 0 -.965-.435 4.685 4.685 0 0 0 -1.164-.14h-1.985v7.781h1.425v-2.912h.307a4.7 4.7 0 0 0 1.274-.168 3.342 3.342 0 0 0 1.042-.491 2.392 2.392 0 0 0 .708-.793 2.178 2.178 0 0 0 .257-1.055 2.2 2.2 0 0 0 -.241-1.042 2.141 2.141 0 0 0 -.658-.745zm-.651 2.313a1.179 1.179 0 0 1 -.36.4 1.765 1.765 0 0 1 -.577.261 2.889 2.889 0 0 1 -.761.094h-.34v-2.419h.528a3.233 3.233 0 0 1 .671.067 1.554 1.554 0 0 1 .52.2 1 1 0 0 1 .327.341 1.016 1.016 0 0 1 .118.513 1.113 1.113 0 0 1 -.126.54z" fill="url(#d)" transform="translate(3452.893 -4755.921)"/><path d="m-3445.357 4748.981a.675.675 0 0 0 .676-.675.676.676 0 0 0 -.676-.676.676.676 0 0 0 -.676.676.675.675 0 0 0 .676.675z" fill="url(#e)" transform="translate(3459.358 -4743.771)"/><circle cx=".675" cy=".675" fill="url(#f)" r=".675" transform="translate(6.638 6.63)"/><path d="m-3425.653 4795.2a.675.675 0 0 0 -.676.675.676.676 0 0 0 .676.676.676.676 0 0 0 .675-.676.675.675 0 0 0 -.675-.675z" fill="url(#g)" transform="translate(3446.34 -4775.2)"/><path d="m-3445.357 4803.543a.675.675 0 0 0 -.676.676.676.676 0 0 0 .676.675.676.676 0 0 0 .676-.675.676.676 0 0 0 -.676-.676z" fill="url(#h)" transform="translate(3459.358 -4780.709)"/><path d="m-3425.653 4757.143a.675.675 0 0 0 .675-.676.675.675 0 0 0 -.675-.675.675.675 0 0 0 -.676.675.675.675 0 0 0 .676.676z" fill="url(#f)" transform="translate(3446.34 -4749.163)"/><path d="m-3465.064 4795.2a.675.675 0 0 0 -.675.675.676.676 0 0 0 .675.676.676.676 0 0 0 .676-.676.675.675 0 0 0 -.676-.675z" fill="url(#g)" transform="translate(3472.376 -4775.2)"/><g fill="url(#i)"><path d="m-3417.491 4775.5a.676.676 0 0 0 -.676.675.676.676 0 0 0 .676.676.676.676 0 0 0 .675-.676.675.675 0 0 0 -.675-.675z" transform="translate(3440.947 -4762.181)"/><path d="m-3473.224 4775.5a.676.676 0 0 0 -.675.675.676.676 0 0 0 .675.676.676.676 0 0 0 .675-.676.675.675 0 0 0 -.675-.675z" transform="translate(3477.768 -4762.181)"/></g></svg>