<?xml version="1.0" encoding="UTF-8"?><svg id="b" xmlns="http://www.w3.org/2000/svg" xmlns:xlink="http://www.w3.org/1999/xlink" viewBox="0 0 106 106"><defs><linearGradient id="d" x1="64.95" y1="1.66" x2="40.43" y2="106.98" gradientUnits="userSpaceOnUse"><stop offset="0" stop-color="#15e863"/><stop offset="1" stop-color="#00b048"/></linearGradient></defs><g id="c"><rect width="106" height="106" rx="21" ry="21" style="fill:url(#d);"/><path d="m81.4,25.32c-7.2-7.1-16.73-11.01-26.84-11.02-21.07,0-38.22,17.14-38.23,38.21,0,6.57,1.69,13.04,4.9,18.74l-5.49,20.04,20.5-5.38c5.49,2.92,11.68,4.46,17.93,4.46,21.07,0,38.22-17.14,38.23-38.21,0-10.1-3.9-19.63-11-26.84Zm-26.85,57.15c-5.37,0-10.64-1.44-15.24-4.17l-1.49-.88-10.44,2.74.14-.52-.52.14,2.78-10.17-.97-1.54c-3-4.78-4.58-10.28-4.58-15.93,0-16.5,13.44-29.93,30.02-29.93,7.86,0,15.55,3.2,21.1,8.78l.19.2.19.18c5.65,5.66,8.76,13.18,8.76,21.18,0,16.5-13.44,29.93-29.95,29.93Z" style="fill:#fff;"/><path d="m72.1,59.28l-.5-.25c-.05-.03-5.44-2.7-6.46-3.07-.42-.15-.87-.3-1.34-.3-.77,0-1.42.39-1.93,1.15-.57.85-2.3,2.89-2.87,3.54-.17.19-.23.19-.25.19-.05,0-.22-.02-.57-.19-.16-.08-.39-.18-.66-.3-1.31-.57-3.75-1.62-6.6-4.17-2.56-2.28-4.33-5.09-4.98-6.2q-.16-.28.25-.69c.31-.31.65-.72.98-1.12.16-.19.32-.39.47-.57.48-.56.69-.99.93-1.49l.13-.26c.59-1.18.09-2.19-.08-2.52-.08-.17-.53-1.27-.93-2.25-.64-1.58-1.44-3.55-1.92-4.62-.88-1.95-1.99-2.16-2.99-2.2l-1.8-.02c-.56,0-1.99.15-3.22,1.49l-.18.19c-1,1.07-3.34,3.57-3.34,8.24,0,4.4,2.79,8.6,4,10.22.03.04.09.13.17.25,4.59,6.81,10.33,11.83,16.16,14.12,5.73,2.26,8.16,2.55,9.63,2.55.61,0,1.09-.06,1.52-.11.16-.02.31-.04.47-.05,1.93-.18,6.17-2.39,7.13-5.08.76-2.12.96-4.44.46-5.27-.34-.57-.94-.86-1.69-1.22Z" style="fill:#fff;"/></g></svg>