<svg id="btn_message" xmlns="http://www.w3.org/2000/svg" width="28" height="28" viewBox="0 0 28 28">
  <rect id="bg28x28" width="28" height="28" opacity="0"/>
  <path id="i_chat" d="M463.26,1105.368h-15.1a3.358,3.358,0,0,0-3.356,3.354V1125.5a.838.838,0,0,0,1.375.644l4.8-4H463.26a3.36,3.36,0,0,0,3.356-3.356v-10.066A3.359,3.359,0,0,0,463.26,1105.368Zm-5.872,10.065h-6.71a.839.839,0,1,1,0-1.677h6.71a.839.839,0,1,1,0,1.677Zm3.356-3.355H450.678a.839.839,0,0,1,0-1.678h10.066a.839.839,0,0,1,0,1.678Z" transform="translate(-441.806 -1101.368)" fill="#fff"/>
</svg>
