<svg xmlns="http://www.w3.org/2000/svg" width="8" height="18.401" viewBox="0 0 8 18.401">
  <g id="i_triangle_fillet2" transform="translate(0 0)">
    <g id="i_triangle_fillet" transform="translate(0 11.067)">
      <path id="tri01" d="M-449.753,2033.2h-5.888a1.063,1.063,0,0,0-.518.135,1.053,1.053,0,0,0-.4,1.435l2.944,5.226a1.06,1.06,0,0,0,.4.4,1.056,1.056,0,0,0,1.437-.4l2.944-5.226a1.058,1.058,0,0,0,.136-.517A1.054,1.054,0,0,0-449.753,2033.2Z" transform="translate(456.697 -2033.198)" fill="#fff"/>
    </g>
    <g id="i_triangle_fillet-2" data-name="i_triangle_fillet" transform="translate(8 7.333) rotate(180)">
      <path id="tri01-2" data-name="tri01" d="M-449.753,2033.2h-5.888a1.063,1.063,0,0,0-.518.135,1.053,1.053,0,0,0-.4,1.435l2.944,5.226a1.06,1.06,0,0,0,.4.4,1.056,1.056,0,0,0,1.437-.4l2.944-5.226a1.058,1.058,0,0,0,.136-.517A1.054,1.054,0,0,0-449.753,2033.2Z" transform="translate(456.697 -2033.198)" fill="#fff"/>
    </g>
  </g>
</svg>
