<svg id="i_pay_atm" xmlns="http://www.w3.org/2000/svg" width="28" height="28" viewBox="0 0 28 28">
  <rect id="bg28x28" width="28" height="28" fill="#fff" opacity="0"/>
  <g id="i_pay_atm-2" data-name="i_pay_atm" transform="translate(870.092 -1563.121)">
    <path id="li04" d="M-861.128,1575.129a2.712,2.712,0,0,0-2.709,2.709v5.146a.813.813,0,0,0,.813.813.813.813,0,0,0,.813-.813v-2.167h2.167v2.167a.813.813,0,0,0,.813.813.813.813,0,0,0,.813-.813v-5.146A2.712,2.712,0,0,0-861.128,1575.129Zm-1.083,4.063v-1.354a1.085,1.085,0,0,1,1.083-1.083,1.085,1.085,0,0,1,1.083,1.083v1.354Z" transform="translate(-2.005 -2.674)" fill="#fff"/>
    <path id="li03" d="M-848.721,1575.129h-3.792a.813.813,0,0,0-.812.813.813.813,0,0,0,.813.813h1.083v6.229a.813.813,0,0,0,.813.813.813.813,0,0,0,.813-.813v-6.229h1.083a.813.813,0,0,0,.813-.812A.813.813,0,0,0-848.721,1575.129Z" transform="translate(-6.016 -2.674)" fill="#fff"/>
    <path id="li02" d="M-836.582,1575.156a.814.814,0,0,0-.915.382l-1.461,2.557-1.461-2.557a.817.817,0,0,0-.915-.382.813.813,0,0,0-.6.785v7.042a.813.813,0,0,0,.813.813.813.813,0,0,0,.813-.813V1579l.647,1.135a.845.845,0,0,0,1.412,0l.649-1.135v3.982a.813.813,0,0,0,.813.813.813.813,0,0,0,.812-.813v-7.042A.813.813,0,0,0-836.582,1575.156Z" transform="translate(-10.362 -2.674)" fill="#fff"/>
    <path id="li01" d="M-846.071,1568.122h-20.041a2.982,2.982,0,0,0-2.979,2.979v11.375a2.982,2.982,0,0,0,2.979,2.979h20.041a2.982,2.982,0,0,0,2.979-2.979V1571.1A2.982,2.982,0,0,0-846.071,1568.122Zm1.354,14.354a1.356,1.356,0,0,1-1.354,1.354h-20.041a1.356,1.356,0,0,1-1.354-1.354V1571.1a1.356,1.356,0,0,1,1.354-1.354h20.041a1.356,1.356,0,0,1,1.354,1.354Z" transform="translate(0 0)" fill="#fff"/>
  </g>
</svg>
