<svg xmlns="http://www.w3.org/2000/svg" width="28" height="28" viewBox="0 0 28 28"><defs><style>.a{fill:#fff;opacity:0;}.b{fill:#bcbcbc;}</style></defs><rect class="a" width="28" height="28"/><g transform="translate(2.333 2.333)"><path class="b" d="M11.667,23.333A11.667,11.667,0,0,1,3.417,3.417a11.667,11.667,0,1,1,16.5,16.5A11.59,11.59,0,0,1,11.667,23.333Zm0-21.467a9.8,9.8,0,1,0,9.8,9.8A9.811,9.811,0,0,0,11.667,1.867Z" transform="translate(0 0)"/><path class="b" d="M6.239,5.452l-.674-.144c-1.872-.387-3.007-.692-3.007-1.679C2.557,2.123,4.092,1.9,5,1.9c1.658,0,2.58.727,2.737,2.163l.028.254h2.08v-.3C9.735,1.465,8,0,5.059,0,2.732,0,.377,1.154.377,3.75S2.861,6.807,4.5,7.159l.416.087c2.023.421,3.249.762,3.249,1.95,0,1.54-1.523,1.863-2.81,1.863-1.579,0-3.266-.675-3.266-2.556V8.215H0V8.5c0,2.752,2.035,4.459,5.312,4.459,2.507,0,5.059-1.154,5.059-3.813C10.348,6.346,7.678,5.769,6.239,5.452Z" transform="translate(6.481 5.185)"/></g></svg>