<svg id="i_pay__usdt" xmlns="http://www.w3.org/2000/svg" xmlns:xlink="http://www.w3.org/1999/xlink" width="28" height="24.535" viewBox="0 0 28 24.535">
  <defs>
    <clipPath id="clip-path">
      <rect id="矩形_3514" data-name="矩形 3514" width="28" height="24.535" fill="none"/>
    </clipPath>
  </defs>
  <g id="组_8458" data-name="组 8458" clip-path="url(#clip-path)">
    <path id="路径_5533" data-name="路径 5533" d="M14,24.535a.885.885,0,0,1-.615-.248L.276,11.725A.88.88,0,0,1,.091,10.7L4.941.509A.884.884,0,0,1,5.741,0H22.263a.883.883,0,0,1,.8.517L27.912,10.7a.878.878,0,0,1-.193,1.028l-13.1,12.557a.885.885,0,0,1-.614.248M1.481,10.976,14,22.972l12.519-12-4.571-9.6H6.051Zm25.188.316,0,.007ZM1.333,11.285l0,.008,0-.008m25.44-.552-.008.007Zm-25.55,0,.006.005-.006-.005M5.754,1.375h0Zm16.5,0h0Zm-.44-.277a.1.1,0,0,0,.007.014Z" transform="translate(0 0)" fill="#fff"/>
    <path id="路径_5534" data-name="路径 5534" d="M22.438,16.586h0c-.094.007-.58.036-1.665.036-.863,0-1.475-.026-1.69-.036-3.334-.147-5.823-.727-5.823-1.422s2.489-1.275,5.823-1.424v2.268c.218.016.842.053,1.705.053,1.035,0,1.554-.043,1.647-.052V13.742c3.327.148,5.81.728,5.81,1.422s-2.483,1.274-5.81,1.421Zm0-3.078V11.478h4.643V8.384H14.44v3.094h4.642v2.028c-3.773.173-6.611.921-6.611,1.817s2.838,1.642,6.611,1.817v6.5h3.355v-6.5c3.765-.173,6.6-.92,6.6-1.815s-2.83-1.642-6.6-1.816Z" transform="translate(-6.755 -4.541)" fill="#fff"/>
  </g>
</svg>
