<svg id="i_pay_little" xmlns="http://www.w3.org/2000/svg" xmlns:xlink="http://www.w3.org/1999/xlink" width="26" height="26.081" viewBox="0 0 26 26.081">
  <defs>
    <clipPath id="clip-path">
      <rect id="矩形_3515" data-name="矩形 3515" width="26" height="26.081" fill="none"/>
    </clipPath>
  </defs>
  <g id="组_8460" data-name="组 8460" clip-path="url(#clip-path)">
    <path id="路径_5535" data-name="路径 5535" d="M18.231,26.081H17.012l-.422-.062a8.338,8.338,0,0,1-5.467-3.056.3.3,0,0,0-.323-.117,15.2,15.2,0,0,1-5.843-.229,8.709,8.709,0,0,1-3.608-1.661A3.269,3.269,0,0,1,0,18.367Q0,11.506,0,4.644a3.091,3.091,0,0,1,.082-.7A3.6,3.6,0,0,1,1.6,1.872,10.308,10.308,0,0,1,6.288.154C6.712.091,7.14.051,7.567,0H9.4c.065.014.129.032.195.042.735.107,1.478.172,2.2.325A8.493,8.493,0,0,1,15.464,2a3.454,3.454,0,0,1,1.405,2.925c-.04,1.365-.009,2.731-.009,4.1v.286c.535,0,1.036-.035,1.531.006a8.358,8.358,0,0,1,7.359,6.352c.108.459.168.93.25,1.4v1.223a2.192,2.192,0,0,0-.044.221,8.394,8.394,0,0,1-6.089,7.259c-.535.144-1.09.211-1.635.314m6.246-8.406a6.855,6.855,0,1,0-6.867,6.878,6.878,6.878,0,0,0,6.867-6.878M8.6,1.524a13.039,13.039,0,0,0-4.308.67A5.3,5.3,0,0,0,1.948,3.608a1.331,1.331,0,0,0-.01,1.942,1.369,1.369,0,0,0,.267.271,11.943,11.943,0,0,0,1.324.838,10.212,10.212,0,0,0,3.441.9,13.091,13.091,0,0,0,5.561-.539,5.689,5.689,0,0,0,2.156-1.2,1.474,1.474,0,0,0,0-2.445A5.79,5.79,0,0,0,13.361,2.5,11.225,11.225,0,0,0,8.6,1.524M1.524,7.272c0,.588.026,1.147-.007,1.7a1.72,1.72,0,0,0,.731,1.564,7.227,7.227,0,0,0,1.514.909,12.9,12.9,0,0,0,7.522.59.608.608,0,0,0,.29-.176,8.451,8.451,0,0,1,3.085-2.044c.22-.083.531-.1.636-.264s.039-.474.041-.718c0-.5,0-1.008,0-1.54a11.758,11.758,0,0,1-6.9,1.868,11.973,11.973,0,0,1-6.913-1.89m0,4.7c0,.6.01,1.178,0,1.753A1.557,1.557,0,0,0,1.9,14.772,3.968,3.968,0,0,0,3.24,15.8,12.135,12.135,0,0,0,9.11,16.9c.145,0,.178-.067.193-.2a8.311,8.311,0,0,1,.816-2.764,1.125,1.125,0,0,0,.052-.156,13.341,13.341,0,0,1-8.646-1.816m0,4.575c0,.567.023,1.1-.006,1.631a1.65,1.65,0,0,0,.66,1.469,7.424,7.424,0,0,0,1.474.925,12.2,12.2,0,0,0,5.681.9c.251-.013.5-.042.781-.067a8.728,8.728,0,0,1-.841-2.966,12.884,12.884,0,0,1-7.747-1.894" transform="translate(0 0)" fill="#fff"/>
    <path id="路径_5536" data-name="路径 5536" d="M27.219,28.5v1.628H25.7c0-.429-.015-.859.006-1.287a.451.451,0,0,0-.3-.493,2.254,2.254,0,0,1-1.239-2.005h1.512c.018.065.033.13.053.193a.765.765,0,0,0,.862.544.778.778,0,0,0,.625-.786.759.759,0,0,0-.742-.727A2.293,2.293,0,0,1,25.5,21.2a.309.309,0,0,0,.212-.338c-.011-.458,0-.916,0-1.394h1.524c0,.457.01.921-.005,1.384a.32.32,0,0,0,.227.354,2.2,2.2,0,0,1,1.281,2.04H27.25c-.018-.06-.037-.131-.06-.2a.763.763,0,0,0-.845-.533.777.777,0,0,0-.639.8.812.812,0,0,0,.726.725,3.644,3.644,0,0,1,1.114.285,2.137,2.137,0,0,1,1.2,2.084,2.224,2.224,0,0,1-1.314,2c-.06.03-.123.055-.208.093" transform="translate(-8.844 -7.123)" fill="#fff"/>
  </g>
</svg>
