<svg id="i_pay_phpgopay" xmlns="http://www.w3.org/2000/svg" width="17.66" height="21.901" viewBox="0 0 17.66 21.901">
  <g id="组_8906" data-name="组 8906">
    <path id="路径_5720" data-name="路径 5720" d="M558.453,91.851V78.075a4.349,4.349,0,0,1,1.609,0c.005.171.015-.182.015,0q0,5.748,0,11.5c0,.72,0,.7.7.7.341,0,.681,0,1.022,0,.362-.008.414-.054.416-.415.006-1.107,0-2.214,0-3.321v-.555h.7a9.257,9.257,0,0,0,2.556-.306,7.08,7.08,0,0,0,2.462-1.268,6.97,6.97,0,0,0,2.091-2.7,6.016,6.016,0,0,0,.582-2.447,8.377,8.377,0,0,0-.3-2.508,6.259,6.259,0,0,0-.879-1.876,7.494,7.494,0,0,0-2.15-2.068,6.364,6.364,0,0,0-3.247-1.038,5.447,5.447,0,0,0-.749-.084c-.49.067-.971-.023-1.457,0s-.953,0-1.43,0h-1.906a4.48,4.48,0,0,1,0-1.624c.123-.008.254,0,.385,0,1.635,0,3.271-.05,4.9,0a8.716,8.716,0,0,1,3.282.757,9.4,9.4,0,0,1,3.155,2.362,8.716,8.716,0,0,1,1.49,2.471,9.22,9.22,0,0,1,.545,2.15A5.475,5.475,0,0,1,572.338,79a10.233,10.233,0,0,1-.612,3.011,9.117,9.117,0,0,1-2.712,3.631,5.754,5.754,0,0,1-2.13,1.253c-.239.071-.458.208-.694.294a10.181,10.181,0,0,1-2.329.457c-.009,1.394,0,2.821-.005,4.2A45.869,45.869,0,0,1,558.453,91.851Z" transform="translate(-554.685 -70.03)" fill="#fff"/>
    <path id="路径_5721" data-name="路径 5721" d="M523.487,108.954v12.659a12.622,12.622,0,0,1-1.6,0V107.361a2.442,2.442,0,0,1,.336,0c2.981,0,5.962-.018,8.944,0a3.013,3.013,0,0,1,1.135.189,5.933,5.933,0,0,1,1.462.812,5.2,5.2,0,0,1,1.552,1.927,4.807,4.807,0,0,1,0,4.075,5.158,5.158,0,0,1-.905,1.4,4.728,4.728,0,0,1-1.881,1.265,5.429,5.429,0,0,1-1.477.33c-.4.028-.807.074-1.212.072-.355,0-.406-.059-.412-.421-.007-.408,0-.816,0-1.211.181-.165.377-.091.556-.1a5.922,5.922,0,0,0,1.618-.108,3.252,3.252,0,0,0,2.4-2.571,3.335,3.335,0,0,0-.8-2.987,3.133,3.133,0,0,0-1.7-.969,7.042,7.042,0,0,0-1.26-.108c-2.044-.011-4.089,0-6.133,0Z" transform="translate(-521.883 -103.537)" fill="#fff"/>
  </g>
</svg>
