<svg id="i_pay_24h" xmlns="http://www.w3.org/2000/svg" width="28" height="28" viewBox="0 0 28 28">
  <rect id="bg28x28" width="28" height="28" fill="#fff" opacity="0"/>
  <g id="i_pay_24h-2" data-name="i_pay_24h" transform="translate(875.789 -1608.659)">
    <path id="li06" d="M-864.783,1620.228v-4.457a2.115,2.115,0,0,0-2.113-2.113h-5.781a2.115,2.115,0,0,0-2.113,2.113v4.457a2.115,2.115,0,0,0,2.113,2.113h2.157v9.895h1.466v-9.895h2.158A2.115,2.115,0,0,0-864.783,1620.228Zm-8.916,0v-4.457a1.024,1.024,0,0,1,1.023-1.023h5.781a1.024,1.024,0,0,1,1.023,1.023v4.457a1.024,1.024,0,0,1-1.023,1.023h-5.781A1.024,1.024,0,0,1-873.7,1620.228Z" transform="translate(0 0)" fill="#fff"/>
    <path id="li05" d="M-868.483,1622.043h-1.952a.808.808,0,0,1,.1-.172,3.185,3.185,0,0,1,1.038-.855,2.7,2.7,0,0,0,.924-.767,1.388,1.388,0,0,0,.234-.76,1.315,1.315,0,0,0-.39-.98,1.578,1.578,0,0,0-1.134-.423,1.612,1.612,0,0,0-1.048.371,1.665,1.665,0,0,0-.565.991.47.47,0,0,0,.051.338.374.374,0,0,0,.3.142.368.368,0,0,0,.291-.151.892.892,0,0,0,.095-.25,1,1,0,0,1,.307-.535.846.846,0,0,1,.568-.182.815.815,0,0,1,.588.214.608.608,0,0,1,.189.464.654.654,0,0,1-.1.374,2.564,2.564,0,0,1-.8.615,3.474,3.474,0,0,0-1.133,1,1.606,1.606,0,0,0-.338.846.4.4,0,0,0,.128.3.579.579,0,0,0,.442.132h2.2a.352.352,0,0,0,.4-.363A.349.349,0,0,0-868.483,1622.043Z" transform="translate(-1.775 -2.242)" fill="#fff"/>
    <path id="li04" d="M-861.133,1621.364a.349.349,0,0,0-.395-.357h-.378v-2.531a.365.365,0,0,0-.374-.412c-.125,0-.239.089-.394.307l-1.942,2.708a.366.366,0,0,0-.046.446.4.4,0,0,0,.36.2h1.676v.651c0,.3.179.412.346.412.084,0,.36-.029.374-.412v-.651h.378A.349.349,0,0,0-861.133,1621.364Zm-1.492-.357h-1.052l1.052-1.492Z" transform="translate(-5.102 -2.231)" fill="#fff"/>
    <path id="li03" d="M-856.383,1630.909v.143h16.917v-1.363H-854.79A2.662,2.662,0,0,1-856.383,1630.909Z" transform="translate(-9.323 -8.119)" fill="#fff"/>
    <path id="li02" d="M-852.546,1626.418a2.645,2.645,0,0,1-.132.824h15.088v-1.363h-14.956Z" transform="translate(-11.199 -6.19)" fill="#fff"/>
    <rect id="re01" width="14.956" height="1.362" transform="translate(-863.745 1617.809)" fill="#fff"/>
    <path id="li01" d="M-856.383,1642.285h1.436v-6.142h3.415v6.142h.609v-6.142h3.415v6.142h8.041V1633.5h-16.917Zm10.453-6.142h5.277v3.877h-5.277Z" transform="translate(-9.323 -10.049)" fill="#fff"/>
  </g>
</svg>
