<svg width="28" height="28" viewBox="0 0 28 28" fill="none" xmlns="http://www.w3.org/2000/svg">
<g clip-path="url(#clip0_101_6722)">
<path d="M10.4238 3.49249C14.8499 3.49271 18.5615 6.54449 19.5732 10.6585H18.0186C17.9322 10.3681 17.8314 10.0843 17.7139 9.8089C16.9993 9.93164 16.3316 10.0391 15.6982 10.1321C15.7427 10.3066 15.7814 10.4823 15.8174 10.6585H14.2822C14.2563 10.5493 14.2281 10.4406 14.1982 10.3323C12.9418 10.4785 11.7952 10.5552 10.6328 10.5569C9.46878 10.5587 8.29703 10.485 6.99121 10.3392C6.79486 11.1709 6.69531 12.0401 6.69531 12.9163C6.69538 13.7842 6.79353 14.6447 6.98633 15.4691C6.99089 15.4685 6.99544 15.4676 7 15.4671V19.3235C6.55452 18.636 6.19101 17.8931 5.91211 17.1146C5.28635 17.2002 4.62093 17.3012 3.90332 17.4183C4.68448 18.5473 5.752 19.4613 7 20.0599V21.6946C3.48893 20.3246 1.00036 16.9124 1 12.9163C1 7.71177 5.21928 3.49249 10.4238 3.49249ZM3.14355 9.78351C2.72962 10.7443 2.5 11.8038 2.5 12.9163C2.50012 14.0198 2.72514 15.0712 3.13281 16.0257C3.9787 15.8839 4.75942 15.7615 5.49219 15.6585C5.29375 14.7586 5.19537 13.8338 5.19531 12.9163C5.19531 11.9903 5.29593 11.0566 5.49805 10.1487C4.76672 10.0461 3.98751 9.92494 3.14355 9.78351ZM10.4043 5.12335C9.06106 6.01587 8.07004 7.34244 7.45215 8.88019C8.59395 8.99935 9.61903 9.05847 10.6309 9.05695C11.6172 9.05545 12.5972 8.9953 13.667 8.88116C12.9811 7.39955 11.8939 6.08243 10.4043 5.12335ZM7.7998 5.43781C6.21544 5.9937 4.86185 7.0388 3.91895 8.39191C4.6335 8.50833 5.29649 8.60742 5.91992 8.69269C6.35033 7.49966 6.97534 6.3872 7.7998 5.43781ZM13.1611 5.47784C14.0551 6.42762 14.7414 7.5186 15.2197 8.68585C15.7635 8.60856 16.3364 8.52111 16.9473 8.41925C16.0261 7.08541 14.7072 6.04713 13.1611 5.47784Z" fill="white"/>
<path d="M12.5732 15C13.1002 15.0004 13.6058 15.1966 13.9785 15.5459C14.3513 15.8953 14.5609 16.37 14.5615 16.8643V20.4043C14.5615 20.4777 14.5456 20.5504 14.5156 20.6182C14.4857 20.6859 14.442 20.748 14.3867 20.7998C14.3314 20.8517 14.2656 20.8928 14.1934 20.9209C14.121 20.949 14.0432 20.9629 13.9648 20.9629C13.8866 20.9629 13.8086 20.949 13.7363 20.9209C13.6641 20.8928 13.5983 20.8517 13.543 20.7998C13.4876 20.7479 13.444 20.686 13.4141 20.6182C13.3841 20.5504 13.3682 20.4777 13.3682 20.4043V18.9131H11.7793V20.4043C11.7793 20.4777 11.7633 20.5504 11.7334 20.6182C11.7034 20.686 11.6598 20.7479 11.6045 20.7998C11.5491 20.8518 11.4825 20.8928 11.4102 20.9209C11.338 20.9489 11.2607 20.9629 11.1826 20.9629C11.1043 20.9629 11.0265 20.949 10.9541 20.9209C10.8818 20.8929 10.8161 20.8517 10.7607 20.7998C10.7054 20.748 10.6618 20.6859 10.6318 20.6182C10.6019 20.5504 10.586 20.4777 10.5859 20.4043V16.8643C10.5865 16.3702 10.7964 15.8963 11.1689 15.5469C11.5415 15.1975 12.0464 15.0006 12.5732 15ZM18.9336 15C19.012 14.9999 19.0896 15.0149 19.1621 15.043C19.2346 15.0711 19.301 15.1121 19.3564 15.1641C19.4118 15.216 19.4554 15.2779 19.4854 15.3457C19.5153 15.4137 19.5304 15.487 19.5303 15.5605C19.53 15.7086 19.4672 15.8504 19.3555 15.9551C19.2437 16.0597 19.0925 16.1191 18.9346 16.1191H18.1396V20.4043C18.1396 20.5525 18.0766 20.695 17.9648 20.7998C17.853 20.9046 17.7011 20.9629 17.543 20.9629C17.3848 20.9629 17.2329 20.9047 17.1211 20.7998C17.0093 20.695 16.9464 20.5525 16.9463 20.4043V16.1191H16.1514C16.0733 16.1191 15.996 16.1042 15.9238 16.0762C15.8516 16.0481 15.7858 16.0069 15.7305 15.9551C15.6751 15.9031 15.6306 15.8413 15.6006 15.7734C15.5707 15.7056 15.5557 15.6329 15.5557 15.5596C15.5557 15.4114 15.6179 15.2689 15.7295 15.1641C15.8412 15.0592 15.9933 15.0002 16.1514 15H18.9336ZM23.7461 15.043C23.8563 14.9955 23.9792 14.987 24.0947 15.0185C24.2105 15.0498 24.3135 15.1202 24.3867 15.2178C24.4598 15.3153 24.4996 15.4353 24.5 15.5586V20.4033C24.5 20.5515 24.4433 20.694 24.3418 20.7989C24.2402 20.9037 24.1017 20.9627 23.958 20.9629C23.8144 20.9628 23.6768 20.9035 23.5752 20.7989C23.4735 20.694 23.416 20.5517 23.416 20.4033V17.6641L22.9834 18.4443C22.9321 18.5248 22.8615 18.591 22.7793 18.6367C22.6971 18.6824 22.6051 18.7061 22.5117 18.7061C22.4184 18.706 22.3263 18.6824 22.2441 18.6367C22.162 18.591 22.0923 18.5248 22.041 18.4443L21.6094 17.6641V20.4043C21.6093 20.5525 21.5518 20.695 21.4502 20.7998C21.3486 20.9044 21.2109 20.9628 21.0674 20.9629C20.9237 20.9629 20.7853 20.9046 20.6836 20.7998C20.582 20.695 20.5245 20.5525 20.5244 20.4043V15.5586C20.5244 15.4359 20.5635 15.3163 20.6357 15.2187C20.7081 15.1211 20.8098 15.0507 20.9248 15.0185C21.0404 14.9873 21.1631 14.9964 21.2734 15.0439C21.3835 15.0914 21.4755 15.1747 21.5352 15.2812L22.5098 17.041L23.4844 15.2812C23.5438 15.1744 23.6359 15.0905 23.7461 15.043ZM12.5732 16.1191C12.3627 16.1195 12.1606 16.1973 12.0117 16.3369C11.8628 16.4766 11.7797 16.6668 11.7793 16.8643V17.7949H13.3682V16.8643C13.3678 16.6668 13.2837 16.4766 13.1348 16.3369C12.9859 16.1974 12.7838 16.1195 12.5732 16.1191Z" fill="white"/>
<path fill-rule="evenodd" clip-rule="evenodd" d="M12.5732 15C13.1002 15.0004 13.6058 15.1966 13.9785 15.5459C14.3513 15.8953 14.5609 16.37 14.5615 16.8643V20.4043C14.5615 20.4777 14.5456 20.5504 14.5156 20.6182C14.4857 20.6859 14.442 20.748 14.3867 20.7998C14.3314 20.8517 14.2656 20.8928 14.1934 20.9209C14.121 20.949 14.0432 20.9629 13.9648 20.9629C13.8866 20.9629 13.8086 20.949 13.7363 20.9209C13.6641 20.8928 13.5983 20.8517 13.543 20.7998C13.4876 20.7479 13.444 20.686 13.4141 20.6182C13.3841 20.5504 13.3682 20.4777 13.3682 20.4043V18.9131H11.7793V20.4043C11.7793 20.4777 11.7633 20.5504 11.7334 20.6182C11.7034 20.686 11.6598 20.7479 11.6045 20.7998C11.5491 20.8518 11.4825 20.8928 11.4102 20.9209C11.338 20.9489 11.2607 20.9629 11.1826 20.9629C11.1043 20.9629 11.0265 20.949 10.9541 20.9209C10.8818 20.8929 10.8161 20.8517 10.7607 20.7998C10.7054 20.748 10.6618 20.6859 10.6318 20.6182C10.6019 20.5504 10.586 20.4777 10.5859 20.4043V16.8643C10.5865 16.3702 10.7964 15.8963 11.1689 15.5469C11.5415 15.1975 12.0464 15.0006 12.5732 15ZM18.9336 15C19.012 14.9999 19.0896 15.0149 19.1621 15.043C19.2346 15.0711 19.301 15.1121 19.3564 15.1641C19.4118 15.216 19.4554 15.2779 19.4854 15.3457C19.5153 15.4137 19.5304 15.487 19.5303 15.5605C19.53 15.7086 19.4672 15.8504 19.3555 15.9551C19.2437 16.0597 19.0925 16.1191 18.9346 16.1191H18.1396V20.4043C18.1396 20.5525 18.0766 20.695 17.9648 20.7998C17.853 20.9046 17.7011 20.9629 17.543 20.9629C17.3848 20.9629 17.2329 20.9047 17.1211 20.7998C17.0093 20.695 16.9464 20.5525 16.9463 20.4043V16.1191H16.1514C16.0733 16.1191 15.996 16.1042 15.9238 16.0762C15.8516 16.0481 15.7858 16.0069 15.7305 15.9551C15.6751 15.9031 15.6306 15.8413 15.6006 15.7734C15.5707 15.7056 15.5557 15.6329 15.5557 15.5596C15.5557 15.4114 15.6179 15.2689 15.7295 15.1641C15.8412 15.0592 15.9933 15.0002 16.1514 15H18.9336ZM23.7461 15.043C23.8563 14.9955 23.9792 14.987 24.0947 15.0185C24.2105 15.0498 24.3135 15.1202 24.3867 15.2178C24.4598 15.3153 24.4996 15.4353 24.5 15.5586V20.4033C24.5 20.5515 24.4433 20.694 24.3418 20.7989C24.2402 20.9037 24.1017 20.9627 23.958 20.9629C23.8144 20.9628 23.6768 20.9035 23.5752 20.7989C23.4735 20.694 23.416 20.5517 23.416 20.4033V17.6641L22.9834 18.4443C22.9321 18.5248 22.8615 18.591 22.7793 18.6367C22.6971 18.6824 22.6051 18.7061 22.5117 18.7061C22.4184 18.706 22.3263 18.6824 22.2441 18.6367C22.162 18.591 22.0923 18.5248 22.041 18.4443L21.6094 17.6641V20.4043C21.6093 20.5525 21.5518 20.695 21.4502 20.7998C21.3486 20.9044 21.2109 20.9628 21.0674 20.9629C20.9237 20.9629 20.7853 20.9046 20.6836 20.7998C20.582 20.695 20.5245 20.5525 20.5244 20.4043V15.5586C20.5244 15.4359 20.5635 15.3163 20.6357 15.2187C20.7081 15.1211 20.8098 15.0507 20.9248 15.0185C21.0404 14.9873 21.1631 14.9964 21.2734 15.0439C21.3835 15.0914 21.4755 15.1747 21.5352 15.2812L22.5098 17.041L23.4844 15.2812C23.5438 15.1744 23.6359 15.0905 23.7461 15.043ZM12.5732 16.1191C12.3627 16.1195 12.1606 16.1973 12.0117 16.3369C11.8628 16.4766 11.7797 16.6668 11.7793 16.8643V17.7949H13.3682V16.8643C13.3678 16.6668 13.2837 16.4766 13.1348 16.3369C12.9859 16.1974 12.7838 16.1195 12.5732 16.1191Z" fill="white"/>
<path fill-rule="evenodd" clip-rule="evenodd" d="M12.5732 15C13.1002 15.0004 13.6058 15.1966 13.9785 15.5459C14.3513 15.8953 14.5609 16.37 14.5615 16.8643V20.4043C14.5615 20.4777 14.5456 20.5504 14.5156 20.6182C14.4857 20.6859 14.442 20.748 14.3867 20.7998C14.3314 20.8517 14.2656 20.8928 14.1934 20.9209C14.121 20.949 14.0432 20.9629 13.9648 20.9629C13.8866 20.9629 13.8086 20.949 13.7363 20.9209C13.6641 20.8928 13.5983 20.8517 13.543 20.7998C13.4876 20.7479 13.444 20.686 13.4141 20.6182C13.3841 20.5504 13.3682 20.4777 13.3682 20.4043V18.9131H11.7793V20.4043C11.7793 20.4777 11.7633 20.5504 11.7334 20.6182C11.7034 20.686 11.6598 20.7479 11.6045 20.7998C11.5491 20.8518 11.4825 20.8928 11.4102 20.9209C11.338 20.9489 11.2607 20.9629 11.1826 20.9629C11.1043 20.9629 11.0265 20.949 10.9541 20.9209C10.8818 20.8929 10.8161 20.8517 10.7607 20.7998C10.7054 20.748 10.6618 20.6859 10.6318 20.6182C10.6019 20.5504 10.586 20.4777 10.5859 20.4043V16.8643C10.5865 16.3702 10.7964 15.8963 11.1689 15.5469C11.5415 15.1975 12.0464 15.0006 12.5732 15ZM18.9336 15C19.012 14.9999 19.0896 15.0149 19.1621 15.043C19.2346 15.0711 19.301 15.1121 19.3564 15.1641C19.4118 15.216 19.4554 15.2779 19.4854 15.3457C19.5153 15.4137 19.5304 15.487 19.5303 15.5605C19.53 15.7086 19.4672 15.8504 19.3555 15.9551C19.2437 16.0597 19.0925 16.1191 18.9346 16.1191H18.1396V20.4043C18.1396 20.5525 18.0766 20.695 17.9648 20.7998C17.853 20.9046 17.7011 20.9629 17.543 20.9629C17.3848 20.9629 17.2329 20.9047 17.1211 20.7998C17.0093 20.695 16.9464 20.5525 16.9463 20.4043V16.1191H16.1514C16.0733 16.1191 15.996 16.1042 15.9238 16.0762C15.8516 16.0481 15.7858 16.0069 15.7305 15.9551C15.6751 15.9031 15.6306 15.8413 15.6006 15.7734C15.5707 15.7056 15.5557 15.6329 15.5557 15.5596C15.5557 15.4114 15.6179 15.2689 15.7295 15.1641C15.8412 15.0592 15.9933 15.0002 16.1514 15H18.9336ZM23.7461 15.043C23.8563 14.9955 23.9792 14.987 24.0947 15.0185C24.2105 15.0498 24.3135 15.1202 24.3867 15.2178C24.4598 15.3153 24.4996 15.4353 24.5 15.5586V20.4033C24.5 20.5515 24.4433 20.694 24.3418 20.7989C24.2402 20.9037 24.1017 20.9627 23.958 20.9629C23.8144 20.9628 23.6768 20.9035 23.5752 20.7989C23.4735 20.694 23.416 20.5517 23.416 20.4033V17.6641L22.9834 18.4443C22.9321 18.5248 22.8615 18.591 22.7793 18.6367C22.6971 18.6824 22.6051 18.7061 22.5117 18.7061C22.4184 18.706 22.3263 18.6824 22.2441 18.6367C22.162 18.591 22.0923 18.5248 22.041 18.4443L21.6094 17.6641V20.4043C21.6093 20.5525 21.5518 20.695 21.4502 20.7998C21.3486 20.9044 21.2109 20.9628 21.0674 20.9629C20.9237 20.9629 20.7853 20.9046 20.6836 20.7998C20.582 20.695 20.5245 20.5525 20.5244 20.4043V15.5586C20.5244 15.4359 20.5635 15.3163 20.6357 15.2187C20.7081 15.1211 20.8098 15.0507 20.9248 15.0185C21.0404 14.9873 21.1631 14.9964 21.2734 15.0439C21.3835 15.0914 21.4755 15.1747 21.5352 15.2812L22.5098 17.041L23.4844 15.2812C23.5438 15.1744 23.6359 15.0905 23.7461 15.043ZM12.5732 16.1191C12.3627 16.1195 12.1606 16.1973 12.0117 16.3369C11.8628 16.4766 11.7797 16.6668 11.7793 16.8643V17.7949H13.3682V16.8643C13.3678 16.6668 13.2837 16.4766 13.1348 16.3369C12.9859 16.1974 12.7838 16.1195 12.5732 16.1191Z" fill="white"/>
<path fill-rule="evenodd" clip-rule="evenodd" d="M26.1544 23.2463C26.574 22.8389 26.8109 22.2859 26.8116 21.7082V13.8801C26.8108 13.3024 26.5741 12.7492 26.1544 12.342C25.7348 11.9349 25.166 11.7068 24.5743 11.7062H10.3663C9.77457 11.7069 9.20668 11.9358 8.78717 12.343C8.36754 12.7503 8.13054 13.3033 8.12994 13.881V21.7082C8.13062 22.2859 8.36749 22.8389 8.78717 23.2463C9.20667 23.6534 9.77459 23.8823 10.3663 23.883H24.5743C25.1661 23.8824 25.7347 23.6535 26.1544 23.2463ZM25.4092 13.8801C25.4088 13.6676 25.322 13.4631 25.1661 13.3117C25.0098 13.16 24.7968 13.0737 24.5743 13.0734H10.3672C10.1447 13.0737 9.93173 13.16 9.77545 13.3117C9.61946 13.4631 9.53273 13.6676 9.53229 13.8801V21.7072L9.53619 21.7873C9.55531 21.9708 9.63896 22.1441 9.77545 22.2765C9.93171 22.4282 10.1447 22.5145 10.3672 22.5148H24.5743C24.7969 22.5145 25.0098 22.4282 25.1661 22.2765C25.322 22.1252 25.4088 21.9206 25.4092 21.7082V13.8801Z" fill="white"/>
</g>
<defs>
<clipPath id="clip0_101_6722">
<rect width="28" height="28" fill="white"/>
</clipPath>
</defs>
</svg>
