<svg id="i_pay_card" xmlns="http://www.w3.org/2000/svg" width="28" height="28" viewBox="0 0 28 28">
  <rect id="bg28x28" width="28" height="28" fill="#fff" opacity="0"/>
  <g id="i_pay_card-2" data-name="i_pay_card" transform="translate(-539.361 -444.86)">
    <path id="li01" d="M-925.9,1503.6a2.156,2.156,0,0,0-1.477-.761l-17.948-1.5a2.155,2.155,0,0,0-1.582.506,2.154,2.154,0,0,0-.76,1.465l-.336,3.158h-1.211a2.173,2.173,0,0,0-2.171,2.171v11.235a2.173,2.173,0,0,0,2.171,2.171h18.01a2.174,2.174,0,0,0,2.171-2.171v-1.544l.361.03a2.187,2.187,0,0,0,2.344-1.982l.935-11.2A2.159,2.159,0,0,0-925.9,1503.6Zm-4.643,10.377v5.9a.663.663,0,0,1-.662.662h-18.01a.662.662,0,0,1-.662-.662v-5.9Zm0-3.061v1.552h-19.335v-1.552Zm0-2.276v.767h-19.335v-.767a.663.663,0,0,1,.662-.662h18.01A.663.663,0,0,1-930.539,1508.637Zm-.662-2.171h-15.282l.322-3.021a.668.668,0,0,1,.715-.6l17.948,1.5a.659.659,0,0,1,.45.233.655.655,0,0,1,.154.482l-.935,11.2a.66.66,0,0,1-.233.45.653.653,0,0,1-.483.154l-.486-.041v-8.177A2.173,2.173,0,0,0-931.2,1506.467Z" transform="translate(1491.744 -1052.469)" fill="#fff"/>
  </g>
</svg>
