<svg width="28" height="28" viewBox="0 0 28 28" fill="none" xmlns="http://www.w3.org/2000/svg">
<path d="M24.02 5H3.979C3.18917 5.00079 2.43191 5.31491 1.87341 5.87341C1.31491 6.43191 1.00079 7.18917 1 7.979V19.354C1.00079 20.1438 1.31491 20.9011 1.87341 21.4596C2.43191 22.0181 3.18917 22.3322 3.979 22.333H24.02C24.8099 22.3322 25.5671 22.0181 26.1256 21.4596C26.6841 20.9011 26.9982 20.1438 26.999 19.354V7.97803C26.998 7.18836 26.6837 6.43133 26.1252 5.87305C25.5668 5.31476 24.8097 5.00079 24.02 5ZM25.374 19.354C25.3735 19.7129 25.2307 20.0571 24.9769 20.3109C24.7231 20.5647 24.379 20.7075 24.02 20.708H3.979C3.62006 20.7075 3.27597 20.5647 3.02216 20.3109C2.76835 20.0571 2.62553 19.7129 2.625 19.354V7.97803C2.62553 7.61909 2.76835 7.27505 3.02216 7.02124C3.27597 6.76743 3.62006 6.62455 3.979 6.62402H24.02C24.379 6.62455 24.7231 6.76743 24.9769 7.02124C25.2307 7.27505 25.3735 7.61909 25.374 7.97803V19.354Z" fill="white"/>
<path d="M7.49862 10.1465C7.46632 10.564 7.35188 10.8772 7.155 11.0865C6.95812 11.2958 6.67886 11.4009 6.31739 11.4019C6.24657 11.4021 6.19737 11.3111 6.20168 11.2554C6.23397 10.838 6.34853 10.5247 6.5453 10.3154C6.74215 10.1062 7.02151 10 7.38291 10C7.49888 10 7.50394 10.0777 7.49862 10.1465Z" fill="white"/>
<path fill-rule="evenodd" clip-rule="evenodd" d="M7.14336 11.8528C7.36534 11.8106 7.59373 11.8158 7.81359 11.8679C8.03348 11.92 8.23987 12.0179 8.41932 12.1552C8.59876 12.2925 8.74726 12.4661 8.85506 12.6646C8.89065 12.7302 8.8951 12.8083 8.86716 12.8775C8.83921 12.9467 8.78181 12.9998 8.71066 13.0223C8.52626 13.0805 8.36527 13.1959 8.25082 13.3518C8.13643 13.5076 8.07458 13.6958 8.07423 13.8891V13.8931C8.07038 14.1146 8.14773 14.3298 8.29177 14.4981C8.43587 14.6664 8.63656 14.7761 8.85606 14.8065C8.92655 14.8162 8.9896 14.8556 9.0293 14.9147C9.06905 14.9738 9.08165 15.047 9.064 15.116C8.91785 15.6874 8.62201 16.2095 8.20692 16.6285C8.20312 16.6323 8.19912 16.6361 8.19502 16.6397C7.98078 16.8294 7.70621 16.937 7.42011 16.9435C7.13611 16.9499 6.85898 16.8562 6.63719 16.6789C6.57499 16.634 6.50021 16.6099 6.42343 16.6099C6.34559 16.6099 6.26979 16.6347 6.20708 16.6808C5.97602 16.8553 5.6906 16.9422 5.40149 16.9261C5.11183 16.91 4.8373 16.7916 4.62683 16.592C4.62353 16.5889 4.62032 16.5856 4.6172 16.5823C4.07358 16.0072 3.7329 15.2701 3.64693 14.4836C3.54285 13.896 3.64082 13.2904 3.92496 12.7655C4.03153 12.5568 4.18033 12.3725 4.36195 12.2243C4.54446 12.0754 4.75608 11.9663 4.98322 11.904C5.21037 11.8417 5.44804 11.8275 5.68098 11.8624C5.91182 11.897 6.13296 11.979 6.3305 12.1032C6.3625 12.1209 6.39848 12.1302 6.43509 12.1302C6.47031 12.1302 6.50497 12.1216 6.53604 12.1052C6.71887 11.9801 6.92564 11.8942 7.14336 11.8528Z" fill="white"/>
<path d="M12.9091 12.9412C12.9091 12.6801 12.8437 12.5373 12.7741 12.4504C12.7009 12.3589 12.5789 12.2751 12.3729 12.2084C12.041 12.1011 11.6066 12.0707 11.0909 12.0623V13.8194C11.6066 13.811 12.041 13.7813 12.3729 13.674C12.5789 13.6073 12.7009 13.5234 12.7741 13.432C12.8437 13.3451 12.9091 13.2023 12.9091 12.9412ZM14 12.9412C14 13.3857 13.8835 13.7725 13.6349 14.0827C13.3901 14.3882 13.0574 14.5692 12.718 14.679C12.2332 14.8359 11.647 14.8714 11.0909 14.8796V16.4706C11.0909 16.763 10.8467 17 10.5455 17C10.2442 17 10 16.763 10 16.4706V11.5294C10 11.237 10.2442 11 10.5455 11C11.2418 11 12.0703 10.9938 12.718 11.2034C13.0574 11.3132 13.3901 11.4942 13.6349 11.7996C13.8835 12.1099 14 12.4967 14 12.9412Z" fill="white"/>
<path d="M16.4996 11C15.9695 11.0005 15.4612 11.1983 15.0863 11.5498C14.7114 11.9014 14.5006 12.378 14.5 12.8752V16.4372C14.5 16.5111 14.5155 16.5844 14.5457 16.6526C14.5758 16.7209 14.62 16.7829 14.6758 16.8351C14.7315 16.8874 14.7976 16.9289 14.8704 16.9572C14.9432 16.9854 15.0213 17 15.1001 17C15.1789 17 15.2569 16.9854 15.3297 16.9572C15.4026 16.9289 15.4687 16.8874 15.5245 16.8351C15.5802 16.7829 15.6244 16.7209 15.6545 16.6526C15.6847 16.5844 15.7002 16.5111 15.7002 16.4372V14.9372H17.2998V16.4372C17.2998 16.5111 17.3153 16.5844 17.3455 16.6526C17.3756 16.7209 17.4198 16.7829 17.4755 16.8351C17.5313 16.8874 17.5974 16.9289 17.6703 16.9572C17.7431 16.9854 17.8211 17 17.8999 17C17.9787 17 18.0568 16.9854 18.1296 16.9572C18.2024 16.9289 18.2685 16.8874 18.3242 16.8351C18.38 16.7829 18.4242 16.7209 18.4544 16.6526C18.4845 16.5844 18.5 16.5111 18.5 16.4372V12.8752C18.4994 12.3779 18.2884 11.9011 17.9134 11.5496C17.5384 11.198 17.0299 11.0004 16.4996 11ZM15.7002 13.8124V12.8752C15.7006 12.6765 15.785 12.486 15.9348 12.3455C16.0846 12.2049 16.2877 12.1259 16.4996 12.1255C16.7115 12.1259 16.9146 12.2049 17.0645 12.3455C17.2143 12.486 17.2987 12.6765 17.2991 12.8752V13.8124H15.7002Z" fill="white"/>
<path d="M20.8872 16.5V14.3001L19.0822 11.75C18.913 11.5109 19.0134 11.2052 19.3064 11.0671C19.5995 10.929 19.9743 11.0109 20.1435 11.25L21.5 13.1667L22.8566 11.25C23.0259 11.011 23.4006 10.929 23.6936 11.0671C23.9865 11.2052 24.087 11.511 23.9179 11.75L22.1129 14.3001V16.5C22.1129 16.7761 21.8384 16.9999 21.5 17C21.1616 17 20.8872 16.7761 20.8872 16.5Z" fill="white"/>
</svg>
