<svg id="i_tick2_act" xmlns="http://www.w3.org/2000/svg" width="24" height="24" viewBox="0 0 24 24">
  <rect id="bg24x24" width="24" height="24" fill="#00dfb9" opacity="0"/>
  <g id="i_tick2" transform="translate(6.258 5.509)">
    <path id="li02" d="M-762.77,1689.681a10.012,10.012,0,0,1-10-10,10.012,10.012,0,0,1,10-10,9.926,9.926,0,0,1,5.873,1.906.476.476,0,0,1,.106.665.476.476,0,0,1-.665.105,8.986,8.986,0,0,0-5.314-1.723,9.058,9.058,0,0,0-9.048,9.048,9.058,9.058,0,0,0,9.048,9.048,9.058,9.058,0,0,0,9.048-9.048,9.154,9.154,0,0,0-.1-1.349.476.476,0,0,1,.4-.541.482.482,0,0,1,.541.4,10.14,10.14,0,0,1,.11,1.489A10.011,10.011,0,0,1-762.77,1689.681Z" transform="translate(768.512 -1673.19)" fill="#00dfb9"/>
    <path id="li01" d="M-758.523,1687.661a.475.475,0,0,1-.337-.14l-4.83-4.83a.476.476,0,0,1,0-.673.476.476,0,0,1,.673,0l4.493,4.493,9.323-9.322a.475.475,0,0,1,.673,0,.477.477,0,0,1,0,.673l-9.659,9.659A.475.475,0,0,1-758.523,1687.661Z" transform="translate(763.829 -1677.05)" fill="#00dfb9"/>
  </g>
</svg>
