<svg id="i_money_silver" xmlns="http://www.w3.org/2000/svg" xmlns:xlink="http://www.w3.org/1999/xlink" width="28" height="28" viewBox="0 0 28 28">
  <defs>
    <linearGradient id="linear-gradient" x1="0.368" y1="0.988" x2="0.629" y2="0.023" gradientUnits="objectBoundingBox">
      <stop offset="0" stop-color="#8a8275"/>
      <stop offset="0.573" stop-color="#c9c2a9"/>
      <stop offset="1" stop-color="#fffde6"/>
    </linearGradient>
    <linearGradient id="linear-gradient-2" x1="0.184" y1="0.1" x2="0.952" y2="1.08" gradientUnits="objectBoundingBox">
      <stop offset="0" stop-color="#d9d6c9"/>
      <stop offset="0.272" stop-color="#fff"/>
      <stop offset="0.581" stop-color="#c2c1b6"/>
      <stop offset="1" stop-color="#f6f6f6"/>
    </linearGradient>
    <linearGradient id="linear-gradient-3" x1="0.5" x2="0.5" y2="1" gradientUnits="objectBoundingBox">
      <stop offset="0" stop-color="#6b655b"/>
      <stop offset="0.494" stop-color="#85806f"/>
      <stop offset="1" stop-color="#fffde6"/>
    </linearGradient>
    <linearGradient id="linear-gradient-4" x1="0.229" y1="0.068" x2="0.833" y2="0.934" gradientUnits="objectBoundingBox">
      <stop offset="0" stop-color="#c9c8be"/>
      <stop offset="1" stop-color="#8f8e82"/>
    </linearGradient>
    <linearGradient id="linear-gradient-5" y1="0.5" x2="1" y2="0.5" gradientUnits="objectBoundingBox">
      <stop offset="0" stop-color="#fff"/>
      <stop offset="1" stop-color="#ded7c7"/>
    </linearGradient>
  </defs>
  <rect id="bg28x28" width="28" height="28" fill="#fff" opacity="0"/>
  <g id="coin_s" transform="translate(2.333 2.224)">
    <circle id="r301" cx="11.667" cy="11.667" r="11.667" transform="translate(0 0.243)" fill="#6a6862"/>
    <circle id="r202" cx="11.302" cy="11.302" r="11.302" transform="translate(0.245)" fill="url(#linear-gradient)"/>
    <circle id="r201" cx="11.059" cy="11.059" r="11.059" transform="translate(0.492 0.243)" fill="url(#linear-gradient-2)"/>
    <circle id="r102" cx="9.358" cy="9.358" r="9.358" transform="translate(2.21 1.944)" fill="url(#linear-gradient-3)"/>
    <circle id="r101" cx="8.871" cy="8.871" r="8.871" transform="translate(2.702 2.431)" fill="url(#linear-gradient-4)"/>
    <path id="i_s1" d="M-2134.8,4545.865h0l-.629-.138c-1.689-.364-2.715-.647-2.715-1.494,0-1.343,1.358-1.543,2.167-1.543,1.479,0,2.3.666,2.441,1.979l.039.372h2.172l-.017-.439c-.1-2.568-1.763-4.042-4.572-4.042-2.244,0-4.508,1.17-4.508,3.785,0,2.58,2.38,3.107,3.955,3.457l.386.084c1.829.4,2.939.713,2.939,1.757,0,1.382-1.36,1.672-2.5,1.672-1.417,0-2.932-.616-2.932-2.348v-.42h-2.2v.42c0,2.762,1.947,4.479,5.082,4.479,2.4,0,4.826-1.191,4.826-3.85C-2130.864,4546.773-2133.424,4546.183-2134.8,4545.865Z" transform="translate(2147.484 -4535.622)" fill="#57534f"/>
    <path id="i_s2" d="M-2134.8,4546.96h0c-.205-.047-.41-.09-.629-.139-1.689-.364-2.715-.646-2.715-1.493,0-1.343,1.358-1.544,2.167-1.544,1.479,0,2.3.666,2.441,1.979l.039.372h2.172l-.017-.439c-.1-2.568-1.763-4.042-4.572-4.042-2.244,0-4.508,1.171-4.508,3.786,0,2.58,2.38,3.106,3.955,3.456l.386.084c1.829.4,2.939.713,2.939,1.757,0,1.381-1.36,1.671-2.5,1.671-1.417,0-2.932-.616-2.932-2.348v-.421h-2.2v.421c0,2.762,1.947,4.478,5.082,4.478,2.4,0,4.826-1.19,4.826-3.85C-2130.864,4547.869-2133.424,4547.277-2134.8,4546.96Z" transform="translate(2147.484 -4536.434)" fill="url(#linear-gradient-5)"/>
  </g>
</svg>
