<svg xmlns="http://www.w3.org/2000/svg" xmlns:xlink="http://www.w3.org/1999/xlink" width="28" height="28" viewBox="0 0 28 28">
  <defs>
    <clipPath id="clip-path">
      <rect id="矩形_3286" data-name="矩形 3286" width="12.963" height="12.963" fill="#ffdf61"/>
    </clipPath>
  </defs>
  <g id="i_money_gold_line" transform="translate(-276 -682)">
    <rect id="bg28x28" width="28" height="28" transform="translate(276 682)" fill="#ffdf61" opacity="0"/>
    <g id="i_money_g_line" transform="translate(278.333 684.333)">
      <path id="ru2" d="M11.667,23.333A11.667,11.667,0,0,1,3.417,3.417a11.667,11.667,0,1,1,16.5,16.5A11.59,11.59,0,0,1,11.667,23.333Zm0-21.467a9.8,9.8,0,1,0,9.8,9.8A9.811,9.811,0,0,0,11.667,1.867Z" transform="translate(0 0)" fill="#ffdf61"/>
      <g id="组_8155" data-name="组 8155" transform="translate(5.185 5.185)">
        <g id="组_8154" data-name="组 8154" transform="translate(0 0)" clip-path="url(#clip-path)">
          <path id="路径_5426" data-name="路径 5426" d="M6.557,5.37V7.592h4.037a4.259,4.259,0,1,1-1.55-4.514h2.933l.016-.01a6.483,6.483,0,1,0,.97,3.413V5.37Z" transform="translate(0 0)" fill="#ffdf61"/>
        </g>
      </g>
    </g>
  </g>
</svg>
