<svg id="i_vip_color" xmlns="http://www.w3.org/2000/svg" xmlns:xlink="http://www.w3.org/1999/xlink" width="28" height="28" viewBox="0 0 28 28">
  <defs>
    <linearGradient id="linear-gradient" x1="0.5" y1="1.028" x2="0.5" y2="0.066" gradientUnits="objectBoundingBox">
      <stop offset="0.019" stop-color="red"/>
      <stop offset="1" stop-color="#ff9d00"/>
    </linearGradient>
    <linearGradient id="linear-gradient-2" x1="0.5" y1="1.028" x2="0.5" y2="0.066" gradientUnits="objectBoundingBox">
      <stop offset="0.019" stop-color="#de0000"/>
      <stop offset="0.516" stop-color="#a30000"/>
      <stop offset="1" stop-color="#ff2b2b"/>
    </linearGradient>
    <linearGradient id="linear-gradient-3" x1="0.5" y1="1" x2="0.5" y2="0.065" gradientUnits="objectBoundingBox">
      <stop offset="0" stop-color="#dedede"/>
      <stop offset="1" stop-color="#fff"/>
    </linearGradient>
    <linearGradient id="linear-gradient-4" x1="0.5" y1="1" x2="0.5" y2="0.065" xlink:href="#linear-gradient-3"/>
    <linearGradient id="linear-gradient-6" x1="0.5" y1="15.336" x2="0.5" y2="0.115" xlink:href="#linear-gradient-3"/>
    <linearGradient id="linear-gradient-7" x1="0.5" y1="13.286" x2="0.5" y2="-1.935" xlink:href="#linear-gradient-3"/>
    <linearGradient id="linear-gradient-8" x1="0.5" y1="3.386" x2="0.5" y2="-11.835" xlink:href="#linear-gradient-3"/>
    <linearGradient id="linear-gradient-9" x1="0.5" y1="1.291" x2="0.5" y2="-13.93" xlink:href="#linear-gradient-3"/>
    <linearGradient id="linear-gradient-12" x1="0.5" y1="8.336" x2="0.5" y2="-6.885" xlink:href="#linear-gradient-3"/>
    <linearGradient id="linear-gradient-13" x1="0.5" y1="8.336" x2="0.5" y2="-6.885" xlink:href="#linear-gradient-3"/>
  </defs>
  <rect id="bg28x28" width="28" height="28" fill="#fff" opacity="0"/>
  <g id="i_vip" transform="translate(1 1)">
    <path id="bo17" d="M-3456.6,4755.79l-3.165,3.166a.506.506,0,0,0-.149.359v4.477a.842.842,0,0,1-.842.841h-4.477a.51.51,0,0,0-.36.15l-3.166,3.165a.865.865,0,0,1-1.19,0l-3.165-3.165a.511.511,0,0,0-.36-.149h-4.477a.843.843,0,0,1-.842-.842v-4.476a.513.513,0,0,0-.149-.361l-3.165-3.165a.836.836,0,0,1-.247-.6.839.839,0,0,1,.247-.6l3.165-3.164a.511.511,0,0,0,.149-.36V4746.6a.843.843,0,0,1,.842-.842h4.477a.511.511,0,0,0,.36-.149l3.166-3.165a.863.863,0,0,1,1.191,0l3.165,3.166a.51.51,0,0,0,.36.149h4.477a.843.843,0,0,1,.842.842v4.477a.508.508,0,0,0,.149.36l3.165,3.165h0a.839.839,0,0,1,.246.6A.838.838,0,0,1-3456.6,4755.79Z" transform="translate(3482.353 -4741.185)" fill="#4b0000"/>
    <path id="bo16" d="M-3456.6,4752.79l-3.165,3.165a.507.507,0,0,0-.149.36v4.477a.843.843,0,0,1-.842.841h-4.477a.507.507,0,0,0-.36.149l-3.166,3.165a.865.865,0,0,1-1.19,0l-3.165-3.165a.511.511,0,0,0-.36-.148h-4.477a.844.844,0,0,1-.842-.843v-4.476a.511.511,0,0,0-.149-.36l-3.165-3.164a.84.84,0,0,1-.247-.6.836.836,0,0,1,.247-.6l3.165-3.165a.51.51,0,0,0,.149-.359V4743.6a.842.842,0,0,1,.842-.841h4.477a.508.508,0,0,0,.36-.15l3.166-3.166a.862.862,0,0,1,1.191,0l3.165,3.165a.5.5,0,0,0,.36.15h4.477a.843.843,0,0,1,.842.842v4.477a.506.506,0,0,0,.149.359l3.165,3.165h0a.837.837,0,0,1,.246.595A.842.842,0,0,1-3456.6,4752.79Z" transform="translate(3482.353 -4739.202)" fill="url(#linear-gradient)"/>
    <path id="bo15" d="M-3468.692,4765.506a.5.5,0,0,1-.355-.139l-3.165-3.165a.854.854,0,0,0-.6-.248h-4.477a.5.5,0,0,1-.5-.5v-4.476a.853.853,0,0,0-.249-.6l-3.165-3.165a.5.5,0,0,1-.147-.355.5.5,0,0,1,.148-.356l3.165-3.165a.841.841,0,0,0,.249-.6v-4.477a.5.5,0,0,1,.5-.5h4.477a.853.853,0,0,0,.6-.249l3.165-3.165a.5.5,0,0,1,.355-.139.5.5,0,0,1,.356.139l3.165,3.165a.852.852,0,0,0,.6.249h4.477a.5.5,0,0,1,.5.5v4.477a.841.841,0,0,0,.248.6l3.165,3.165a.5.5,0,0,1,.147.355.5.5,0,0,1-.147.355l-3.165,3.165a.86.86,0,0,0-.248.6v4.477a.5.5,0,0,1-.5.5h-4.477a.853.853,0,0,0-.6.248l-3.167,3.165A.5.5,0,0,1-3468.692,4765.506Z" transform="translate(3481.692 -4739.863)" fill="url(#linear-gradient-2)"/>
    <g id="word" transform="translate(5.305 9.101)">
      <path id="bo14" d="M-3463.253,4772.781l-2.016-5.759h-1.45l2.742,7.647.049.134h1.348l2.7-7.51.1-.271h-1.451Z" transform="translate(3466.719 -4766.683)" fill="#4f4f4f"/>
      <rect id="bo13" width="1.425" height="7.781" transform="translate(7.495 0.34)" fill="#4f4f4f"/>
      <path id="bo12" d="M-3432.134,4767.6a2.921,2.921,0,0,0-.965-.433,4.617,4.617,0,0,0-1.164-.14h-1.985v7.781h1.425v-2.913h.307a4.681,4.681,0,0,0,1.274-.168,3.3,3.3,0,0,0,1.042-.491,2.392,2.392,0,0,0,.708-.793,2.174,2.174,0,0,0,.257-1.053,2.2,2.2,0,0,0-.241-1.043A2.156,2.156,0,0,0-3432.134,4767.6Zm-.651,2.313a1.185,1.185,0,0,1-.36.4,1.786,1.786,0,0,1-.577.261,2.889,2.889,0,0,1-.761.094h-.34v-2.419h.528a3.2,3.2,0,0,1,.671.068,1.523,1.523,0,0,1,.52.2,1,1,0,0,1,.327.34,1.017,1.017,0,0,1,.118.513A1.115,1.115,0,0,1-3432.785,4769.91Z" transform="translate(3446.588 -4766.683)" fill="#4f4f4f"/>
      <path id="bo11" d="M-3463.253,4771.781l-2.016-5.759h-1.45l2.742,7.646.049.136h1.348l2.7-7.51.1-.272h-1.451Z" transform="translate(3466.719 -4766.022)" fill="url(#linear-gradient-3)"/>
      <rect id="bo10" width="1.425" height="7.781" transform="translate(7.495)" fill="url(#linear-gradient-4)"/>
      <path id="bo09" d="M-3432.134,4766.6a2.933,2.933,0,0,0-.965-.435,4.685,4.685,0,0,0-1.164-.14h-1.985v7.781h1.425v-2.912h.307a4.7,4.7,0,0,0,1.274-.168,3.342,3.342,0,0,0,1.042-.491,2.392,2.392,0,0,0,.708-.793,2.178,2.178,0,0,0,.257-1.055,2.2,2.2,0,0,0-.241-1.042A2.141,2.141,0,0,0-3432.134,4766.6Zm-.651,2.313a1.179,1.179,0,0,1-.36.4,1.765,1.765,0,0,1-.577.261,2.889,2.889,0,0,1-.761.094h-.34v-2.419h.528a3.233,3.233,0,0,1,.671.067,1.554,1.554,0,0,1,.52.2,1,1,0,0,1,.327.341,1.016,1.016,0,0,1,.118.513A1.113,1.113,0,0,1-3432.785,4768.91Z" transform="translate(3446.588 -4766.022)" fill="url(#linear-gradient-4)"/>
    </g>
    <path id="bo08" d="M-3445.357,4748.981a.675.675,0,0,0,.676-.675.676.676,0,0,0-.676-.676.676.676,0,0,0-.676.676A.675.675,0,0,0-3445.357,4748.981Z" transform="translate(3458.358 -4744.771)" fill="url(#linear-gradient-6)"/>
    <circle id="bo07" cx="0.675" cy="0.675" r="0.675" transform="translate(5.638 5.63)" fill="url(#linear-gradient-7)"/>
    <path id="bo06" d="M-3425.653,4795.2a.675.675,0,0,0-.676.675.676.676,0,0,0,.676.676.676.676,0,0,0,.675-.676A.675.675,0,0,0-3425.653,4795.2Z" transform="translate(3445.34 -4776.2)" fill="url(#linear-gradient-8)"/>
    <path id="bo05" d="M-3445.357,4803.543a.675.675,0,0,0-.676.676.676.676,0,0,0,.676.675.676.676,0,0,0,.676-.675A.676.676,0,0,0-3445.357,4803.543Z" transform="translate(3458.358 -4781.709)" fill="url(#linear-gradient-9)"/>
    <path id="bo04" d="M-3425.653,4757.143a.675.675,0,0,0,.675-.676.675.675,0,0,0-.675-.675.675.675,0,0,0-.676.675A.675.675,0,0,0-3425.653,4757.143Z" transform="translate(3445.34 -4750.163)" fill="url(#linear-gradient-7)"/>
    <path id="bo03" d="M-3465.064,4795.2a.675.675,0,0,0-.675.675.676.676,0,0,0,.675.676.676.676,0,0,0,.676-.676A.675.675,0,0,0-3465.064,4795.2Z" transform="translate(3471.376 -4776.2)" fill="url(#linear-gradient-8)"/>
    <path id="bo02" d="M-3417.491,4775.5a.676.676,0,0,0-.676.675.676.676,0,0,0,.676.676.676.676,0,0,0,.675-.676A.675.675,0,0,0-3417.491,4775.5Z" transform="translate(3439.947 -4763.181)" fill="url(#linear-gradient-12)"/>
    <path id="bo01" d="M-3473.224,4775.5a.676.676,0,0,0-.675.675.676.676,0,0,0,.675.676.676.676,0,0,0,.675-.676A.675.675,0,0,0-3473.224,4775.5Z" transform="translate(3476.768 -4763.181)" fill="url(#linear-gradient-13)"/>
  </g>
</svg>
