<svg height="19.399" viewBox="0 0 17.065 19.399" width="17.065" xmlns="http://www.w3.org/2000/svg"><g fill="#51455e"><path d="m273.316 969.924a2.07 2.07 0 0 1 -.566 1.419l-6.609 7.076a2.245 2.245 0 0 1 -3.1.154 2.066 2.066 0 0 1 -.159-2.992l5.284-5.657-6.226-6.666a2.068 2.068 0 0 1 .158-2.991 2.246 2.246 0 0 1 3.1.154l7.551 8.085a2.069 2.069 0 0 1 .567 1.418z" transform="translate(-256.251 -959.721)"/><path d="m269.056 966.283a1.331 1.331 0 0 1 -.364.913l-4.251 4.551a1.444 1.444 0 0 1 -1.991.1 1.329 1.329 0 0 1 -.1-1.924l3.4-3.639-4-4.287a1.33 1.33 0 0 1 .1-1.924 1.445 1.445 0 0 1 1.992.1l4.857 5.2a1.331 1.331 0 0 1 .357.91z" transform="translate(-261.378 -956.26)"/></g></svg>