<svg xmlns="http://www.w3.org/2000/svg" width="21.06" height="21.061" viewBox="0 0 21.06 21.061">
  <g id="i_reupdate" transform="translate(0.554 0.5)">
    <path id="arr" d="M4.421,10.822l-.9.9a.566.566,0,0,1-.965-.348l-.485-5.39,5.374.478a.566.566,0,0,1,.352.963l-.91.914A6.54,6.54,0,0,0,18.407,4.1c0-.027,0-.054,0-.082l3.489.214A10.028,10.028,0,0,1,4.421,10.822ZM1.9,3.01a10.03,10.03,0,0,1,16.637-6.4l.821-.825a.566.566,0,0,1,.965.348l.485,5.39L15.43,1.045a.566.566,0,0,1-.351-.963l.986-.993A6.539,6.539,0,0,0,5.386,3.224Z" transform="translate(-1.895 5.927)" fill="#fff" stroke="rgba(0,0,0,0)" stroke-width="1"/>
  </g>
</svg>
