<svg xmlns="http://www.w3.org/2000/svg" xmlns:xlink="http://www.w3.org/1999/xlink" data-name="组 13" viewBox="0 0 71.64 89.99"><defs><linearGradient id="a" x2="1" y1=".5" y2=".5" gradientUnits="objectBoundingBox"><stop offset="0" stop-color="#d5a413"/><stop offset="1" stop-color="#f5c53c"/></linearGradient><linearGradient xlink:href="#a" id="b" x1=".74" x2=".21" y1=".74" y2=".21"/><linearGradient xlink:href="#a" id="c" x1=".21" x2=".88" y1=".21" y2=".88"/><linearGradient xlink:href="#a" id="d" x1="1.11" x2="-.1" y1="1.11" y2="-.1"/><linearGradient id="e" x1=".75" x2=".46" y1=".47" y2=".56" gradientUnits="objectBoundingBox"><stop offset="0" stop-color="#fff"/><stop offset="1" stop-color="#001c7b"/></linearGradient></defs><path fill="url(#a)" d="M1245.88 889v-5.37a4.86 4.86 0 0 1 4.86-4.86h10.5a4.86 4.86 0 0 1 4.87 4.86v5.36h4.81v-5.36a9.69 9.69 0 0 0-9.68-9.68h-10.5a9.69 9.69 0 0 0-9.68 9.68v5.36Z" data-name="路径 14" transform="translate(-1220.17 -853.93)"/><circle cx="25.33" cy="25.33" r="25.33" fill="url(#b)" data-name="椭圆 6" transform="rotate(-45 65.39 27.08)"/><circle cx="24.05" cy="24.05" r="24.05" fill="url(#c)" data-name="椭圆 7" transform="rotate(-45 66.3 24.9)"/><g data-name="组 10" transform="translate(6.82 25.17)"><circle cx="20.51" cy="20.51" r="20.51" fill="url(#d)" data-name="椭圆 8" transform="rotate(-45 35 14.5)"/><path fill="#fff" d="M1223.88 941.17a20.48 20.48 0 0 1 34.3-15.15 20.48 20.48 0 1 0-28.94 28.94 20.4 20.4 0 0 1-5.36-13.79Z" data-name="路径 15" opacity=".45" style="mix-blend-mode:overlay;isolation:isolate" transform="translate(-1214.03 -910.81)"/><path fill="#f65328" d="M1266.8 934.74c2.9 3.54 5.62 9.02 5.62 13.96a20.5 20.5 0 0 1-20.5 20.5c-4.94 0-10.43-2.7-13.97-5.6a20.5 20.5 0 1 0 28.86-28.86Z" data-name="路径 16" opacity=".67" style="mix-blend-mode:multiply;isolation:isolate" transform="translate(-1224.82 -921.6)"/></g><g data-name="组 12"><path fill="#3954df" d="M38.54 0 29.4 24.76a1.98 1.98 0 0 0 1.86 2.66h1.9L43.28 0Z" data-name="路径 18"/><path fill="#fff" d="M43.28 0 33.16 27.42h4.74L48.02 0Z" data-name="路径 19"/><path fill="#e9301d" d="m48.02 0-7.73 20.95-2.37 6.43-.02.04h3.37a1.88 1.88 0 0 0 1.24-.46 1.93 1.93 0 0 0 .61-.83L52.76 0Z" data-name="路径 20"/><path fill="url(#e)" d="m1285.3 826.97-2.5 6.78a1.93 1.93 0 0 1-.62.83 1.88 1.88 0 0 1-1.24.46h-10.02a1.98 1.98 0 0 1-1.85-2.67l9.1-24.65Z" data-name="路径 21" opacity=".69" style="mix-blend-mode:multiply;isolation:isolate" transform="translate(-1239.67 -807.62)"/><path fill="#3954df" d="M32.55 0h-4.74l10.1 27.38.01.04h3.34a1.88 1.88 0 0 0 1.24-.46l-2.22-6.01Z" data-name="路径 22"/><path fill="#fff" d="M23.07 0 33.2 27.42h4.74L27.81 0Z" data-name="路径 23"/><path fill="#e9301d" d="m18.33 0 9.65 26.13a1.98 1.98 0 0 0 1.85 1.29h3.37L23.07 0Z" data-name="路径 24"/></g><g data-name="组 11" style="mix-blend-mode:normal;isolation:isolate"><path fill="#fff" d="M39.83 42.62v23.1h-6.02V47.56h-4.45v-4.94Z" data-name="路径 17"/></g></svg>