<svg xmlns="http://www.w3.org/2000/svg" xmlns:xlink="http://www.w3.org/1999/xlink" data-name="组 9" viewBox="0 0 59.33 83.83"><defs><linearGradient id="a" x2="1" y1=".5" y2=".5" gradientUnits="objectBoundingBox"><stop offset="0" stop-color="#b3a1a0"/><stop offset="1" stop-color="#fff"/></linearGradient><linearGradient xlink:href="#a" id="b" x1=".74" x2=".21" y1=".74" y2=".21"/><linearGradient xlink:href="#a" id="c" x1=".21" x2=".88" y1=".21" y2=".88"/><linearGradient xlink:href="#a" id="d" x1="1.11" x2="-.1" y1="1.11" y2="-.1"/><linearGradient id="e" x1=".75" x2=".46" y1=".47" y2=".56" gradientUnits="objectBoundingBox"><stop offset="0" stop-color="#fff"/><stop offset="1" stop-color="#001c7b"/></linearGradient></defs><path fill="url(#a)" d="M1245.88 1253v-5.36a4.86 4.86 0 0 1 4.86-4.86h10.5a4.86 4.86 0 0 1 4.87 4.86v5.36h4.81v-5.36a9.69 9.69 0 0 0-9.68-9.68h-10.5a9.69 9.69 0 0 0-9.68 9.68v5.36Z" data-name="路径 3" transform="translate(-1226.33 -1217.93)"/><circle cx="25.33" cy="25.33" r="25.33" fill="url(#b)" data-name="椭圆 3" transform="rotate(-79.1 44.96 37.13)"/><circle cx="24.05" cy="24.05" r="24.05" fill="url(#c)" data-name="椭圆 4" transform="rotate(-75.7 46.23 35.5)"/><g data-name="组 7" style="mix-blend-mode:normal;isolation:isolate" transform="translate(9.16 33.66)"><circle cx="20.51" cy="20.51" r="20.51" fill="url(#d)" data-name="椭圆 5"/><path fill="#fff" d="M1223.88 1305.17a20.48 20.48 0 0 1 34.3-15.14 20.48 20.48 0 1 0-28.94 28.93 20.4 20.4 0 0 1-5.36-13.79Z" data-name="路径 4" opacity=".45" style="mix-blend-mode:overlay;isolation:isolate" transform="translate(-1222.52 -1283.31)"/><path fill="#af9d99" d="M1266.8 1298.74c2.9 3.54 5.62 9.03 5.62 13.96a20.5 20.5 0 0 1-20.5 20.5c-4.94 0-10.43-2.7-13.97-5.6a20.5 20.5 0 1 0 28.86-28.86Z" data-name="路径 5" opacity=".67" style="mix-blend-mode:multiply;isolation:isolate" transform="translate(-1233.31 -1294.1)"/><g data-name="组 6" style="mix-blend-mode:normal;isolation:isolate"><path fill="#fff" d="M21.64 14.63c0-1.16-.88-1.82-2.43-1.82a10.06 10.06 0 0 0-5.9 2.7l-2.1-4.1a14.99 14.99 0 0 1 8.82-3.23c4.32 0 7.45 2.25 7.45 5.63 0 2.31-1.77 4.71-4.14 7.12l-4.38 4.38h9.13v4.47H11.85l-.03-3.68 7.75-7.97c1.19-1.22 2.07-2.59 2.07-3.5Z" data-name="路径 6"/></g></g><g data-name="组 8"><path fill="#3954df" d="m32.38 0-9.14 24.76a1.98 1.98 0 0 0 1.86 2.66H27L37.12 0Z" data-name="路径 7"/><path fill="#fff" d="M37.13 0 27 27.42h4.74L41.87 0Z" data-name="路径 8"/><path fill="#e9301d" d="m41.86 0-7.73 20.95-2.37 6.43-.01.04h3.36a1.88 1.88 0 0 0 1.24-.46 1.94 1.94 0 0 0 .61-.83L46.6 0Z" data-name="路径 9"/><path fill="url(#e)" d="m1285.3 1190.98-2.5 6.77a1.93 1.93 0 0 1-.62.84 1.88 1.88 0 0 1-1.24.45h-10.02a1.98 1.98 0 0 1-1.85-2.66l9.1-24.66Z" data-name="路径 10" opacity=".69" style="mix-blend-mode:multiply;isolation:isolate" transform="translate(-1245.83 -1171.62)"/><path fill="#3954df" d="M26.4 0h-4.75l10.1 27.38.02.04h3.33a1.88 1.88 0 0 0 1.24-.46l-2.22-6.01Z" data-name="路径 11"/><path fill="#fff" d="m16.91 0 10.13 27.42h4.74L21.65 0Z" data-name="路径 12"/><path fill="#e9301d" d="m12.17 0 9.65 26.13a1.98 1.98 0 0 0 1.85 1.29h3.37L16.9 0Z" data-name="路径 13"/></g></svg>