<svg xmlns="http://www.w3.org/2000/svg" xmlns:xlink="http://www.w3.org/1999/xlink" data-name="组 17" viewBox="0 0 59.3 83.8"><defs><linearGradient id="a" x2="1" y1=".5" y2=".5" gradientUnits="objectBoundingBox"><stop offset="0" stop-color="#b85100"/><stop offset="1" stop-color="#e48725"/></linearGradient><linearGradient xlink:href="#a" id="b" x1=".7" x2=".2" y1=".7" y2=".2"/><linearGradient xlink:href="#a" id="c" x1=".2" x2=".9" y1=".2" y2=".9"/><linearGradient xlink:href="#a" id="d" x1="1.1" x2="-.1" y1="1.1" y2="-.1"/><linearGradient id="e" x1=".8" x2=".5" y1=".5" y2=".6" gradientUnits="objectBoundingBox"><stop offset="0" stop-color="#fff"/><stop offset="1" stop-color="#001c7b"/></linearGradient></defs><path fill="url(#a)" d="M1245.9 1646.5v-5.4a4.9 4.9 0 0 1 4.8-4.8h10.5a4.9 4.9 0 0 1 5 4.8v5.4h4.7v-5.4a9.7 9.7 0 0 0-9.7-9.7h-10.5a9.7 9.7 0 0 0-9.6 9.7v5.4Z" data-name="路径 25" transform="translate(-1226.3 -1611.4)"/><circle cx="25.3" cy="25.3" r="25.3" fill="url(#b)" data-name="椭圆 9" transform="rotate(-79.1 45 37.1)"/><circle cx="24" cy="24" r="24" fill="url(#c)" data-name="椭圆 10" transform="rotate(-75.7 46.2 35.5)"/><g data-name="组 14" transform="translate(5.6 30.2)"><circle cx="20.5" cy="20.5" r="20.5" fill="url(#d)" data-name="椭圆 11" transform="rotate(-79.1 24.4 20.1)"/><path fill="#fff" d="M1223.9 1698.7a20.5 20.5 0 0 1 34.3-15.2 20.5 20.5 0 1 0-29 29 20.4 20.4 0 0 1-5.3-13.8Z" data-name="路径 26" opacity=".5" style="mix-blend-mode:overlay;isolation:isolate" transform="translate(-1219 -1673.3)"/><path fill="#c32000" d="M1266.8 1692.2a24 24 0 0 1 5.6 14 20.5 20.5 0 0 1-20.5 20.5c-5 0-10.4-2.7-14-5.6a20.5 20.5 0 1 0 29-28.9Z" data-name="路径 27" opacity=".7" style="mix-blend-mode:multiply;isolation:isolate" transform="translate(-1229.8 -1684)"/></g><g data-name="组 15"><path fill="#3954df" d="m32.4 0-9.2 24.8a2 2 0 0 0 1.9 2.6H27L37.1 0Z" data-name="路径 28"/><path fill="#fff" d="M37.1 0 27 27.4h4.7L42 0Z" data-name="路径 29"/><path fill="#e9301d" d="M41.9 0 34 21l-2.3 6.4H35a1.9 1.9 0 0 0 1.2-.4 2 2 0 0 0 .7-.9L46.6 0Z" data-name="路径 30"/><path fill="url(#e)" d="m1285.3 1584.5-2.5 6.7a2 2 0 0 1-.6.9 1.9 1.9 0 0 1-1.3.4h-10a2 2 0 0 1-1.8-2.6l9-24.7Z" data-name="路径 31" opacity=".7" style="mix-blend-mode:multiply;isolation:isolate" transform="translate(-1245.8 -1565.1)"/><path fill="#3954df" d="M26.4 0h-4.7l10 27.4h3.4a1.9 1.9 0 0 0 1.2-.4l-2.2-6Z" data-name="路径 32"/><path fill="#fff" d="m17 0 10 27.4h4.8L21.7 0Z" data-name="路径 33"/><path fill="#e9301d" d="m12.2 0 9.6 26.1a2 2 0 0 0 1.9 1.3H27L17 0Z" data-name="路径 34"/></g><g data-name="组 16"><path fill="#fff" d="M37.6 57.6c0 4-3.4 7-8.7 7a14.5 14.5 0 0 1-8.3-2.7l2.2-4.3a8 8 0 0 0 5.7 2.7c2.4 0 3.7-1 3.7-2.7 0-1.7-1.3-2.6-3.7-2.6h-3.6v-3l5-4.7h-8.2V43h14.8v3.2l-5.7 5.4 1 .1c3.4.5 5.8 2.6 5.8 5.9Z" data-name="路径 35"/></g></svg>