<svg width="56" height="37" viewBox="0 0 56 37" fill="none" xmlns="http://www.w3.org/2000/svg">
<rect width="55.1109" height="36.4704" rx="5" fill="white"/>
<path d="M51.7917 36.4599H3.31921C1.49514 36.4599 0 34.8875 0 32.9458V3.51408C0 1.58292 1.48517 0 3.31921 0H51.7917C53.6157 0 55.1109 1.57236 55.1109 3.51408V32.9563C55.1109 34.8875 53.6257 36.4704 51.7917 36.4704V36.4599ZM3.31921 1.03417C2.02342 1.03417 0.976825 2.14222 0.976825 3.51408V32.9563C0.976825 34.3282 2.02342 35.4363 3.31921 35.4363H51.7917C53.0874 35.4363 54.134 34.3282 54.134 32.9563V3.51408C54.134 2.14222 53.0874 1.03417 51.7917 1.03417H3.31921Z" fill="#7C7ED7"/>
<g clip-path="url(#clip0_1290_4534)">
<path d="M12.621 10.7163C13.1962 10.004 13.607 9.05424 13.4841 8.10449C12.621 8.14436 11.5941 8.65851 10.9775 9.33155C10.4431 9.92544 9.95005 10.9145 10.0736 11.8249C11.0597 11.944 12.005 11.4292 12.621 10.7169M13.4841 12.0624C12.0872 11.9832 10.8953 12.8146 10.238 12.8146C9.58058 12.8146 8.55312 12.1023 7.44409 12.1023C6.00576 12.1421 4.691 12.8937 3.95144 14.16C2.47234 16.6534 3.54058 20.3334 5.01969 22.3519C5.71847 23.3416 6.58097 24.4496 7.69061 24.4097C8.75886 24.3705 9.16972 23.7367 10.4437 23.7367C11.7177 23.7367 12.0872 24.4097 13.2376 24.3699C14.388 24.33 15.1275 23.3802 15.8263 22.3513C16.6481 21.2034 16.9767 20.0954 16.9767 20.0561C16.936 20.0162 14.7167 19.2248 14.7167 16.7713C14.6753 14.7135 16.4423 13.7238 16.5245 13.6846C15.5792 12.2599 14.0179 12.1017 13.4841 12.0618" fill="#7C7ED7"/>
<path d="M25.5634 9.25195C28.6038 9.25195 30.6995 11.2705 30.6995 14.159C30.6995 17.0475 28.563 19.1059 25.4812 19.1059H22.1529V24.2111H19.7285V9.25195H25.5628H25.5634ZM22.1529 17.1665H24.906C27.0017 17.1665 28.1929 16.0585 28.1929 14.1983C28.1929 12.338 27.0011 11.23 24.906 11.23H22.1121V17.1659H22.1529V17.1665ZM31.3155 21.1637C31.3155 19.2642 32.836 18.077 35.5477 17.9187L38.6703 17.7604V16.9291C38.6703 15.702 37.8071 14.9897 36.4102 14.9897C35.0133 14.9897 34.2323 15.6229 34.0272 16.5726H31.8085C31.9321 14.594 33.6985 13.1295 36.4924 13.1295C39.2862 13.1295 41.0119 14.5149 41.0119 16.7309V24.2498H38.7932V22.4687H38.7524C38.095 23.6958 36.6567 24.4474 35.1776 24.4474C32.8768 24.4474 31.3155 23.1019 31.3155 21.1625V21.1637ZM38.6703 20.1741V19.3035L35.8764 19.4618C34.4794 19.5409 33.6985 20.1348 33.6985 21.0846C33.6985 22.0343 34.5202 22.6675 35.7528 22.6675C37.3963 22.6675 38.6703 21.5987 38.6703 20.1741ZM43.0668 28.2868V26.4665C43.2311 26.5058 43.642 26.5058 43.8064 26.5058C44.8746 26.5058 45.4498 26.0702 45.8199 24.9621C45.8199 24.9228 46.0256 24.2891 46.0256 24.2891L41.917 13.3669H44.4236L47.2996 22.2712H47.3404L50.2164 13.3669H52.6816L48.4494 24.883C47.4634 27.5347 46.3537 28.3654 44.0121 28.3654C43.8478 28.3261 43.2725 28.3261 43.0668 28.2862V28.2868Z" fill="#7C7ED7"/>
</g>
<defs>
<clipPath id="clip0_1290_4534">
<rect width="49.4377" height="20.2613" fill="white" transform="translate(3.24219 8.10449)"/>
</clipPath>
</defs>
</svg>
