<svg width="38" height="38" viewBox="0 0 38 38" fill="none" xmlns="http://www.w3.org/2000/svg">
<g clip-path="url(#clip0_1273_3257)">
<path d="M9.69363 37.9942L11.4224 30.8126C22.9714 29.9269 30.0797 27.2454 31.6224 20.2513C33.3311 12.4873 22.3746 4.70471 0.0136719 5.31713V11.8892C5.05687 11.3798 9.75803 11.3927 13.8825 11.789L7.41103 37.9942H9.6922H9.69363ZM15.9361 12.0294C25.3055 13.2972 31.1601 16.6569 30.2686 20.2842C29.3097 24.1862 20.3897 26.5543 12.5358 26.178L15.9361 12.0294Z" fill="white"/>
<path d="M7.39736 37.9943H5.61993C2.52875 37.9943 0 35.4659 0 32.3752V11.8892C5.0432 11.3798 9.74436 11.3927 13.8688 11.7891L7.39736 37.9943ZM30.2535 20.2842C31.145 16.6569 25.2904 13.2972 15.921 12.0294L12.5207 26.178C20.3746 26.5529 29.2932 24.1862 30.2535 20.2842ZM32.3786 0H5.61993C2.62893 0 0.174594 2.36668 0.0128799 5.31717C22.4196 4.68615 33.3174 12.4787 31.6073 20.2499C30.0645 27.244 22.9563 29.9255 11.4073 30.8112L9.6771 38H32.3786C35.4698 38 37.9986 35.4716 37.9986 32.3809V5.61908C37.9986 2.52837 35.4698 0 32.3786 0Z" fill="#7C7ED7"/>
</g>
<defs>
<clipPath id="clip0_1273_3257">
<rect width="38" height="38" fill="white"/>
</clipPath>
</defs>
</svg>
