<svg width="53" height="37" viewBox="0 0 53 37" fill="none" xmlns="http://www.w3.org/2000/svg">
<path d="M42.7654 36.4356H2.74074C1.23457 36.4356 0 35.2017 0 33.678V10.5827C0 9.06732 1.22634 7.8252 2.74074 7.8252H42.7654C44.2716 7.8252 45.5062 9.05904 45.5062 10.5827V33.6863C45.5062 35.2017 44.2798 36.4439 42.7654 36.4439V36.4356ZM2.74074 8.63672C1.67078 8.63672 0.806584 9.50621 0.806584 10.5827V33.6863C0.806584 34.7628 1.67078 35.6323 2.74074 35.6323H42.7654C43.8354 35.6323 44.6996 34.7628 44.6996 33.6863V10.5827C44.6996 9.50621 43.8354 8.63672 42.7654 8.63672H2.74074Z" fill="#7C7ED7"/>
<path d="M47.704 31.5996C47.6382 31.5996 47.5641 31.5996 47.4982 31.5996L45.0785 31.4174L45.1361 30.6142L47.5559 30.7963C48.6176 30.8792 49.5476 30.0759 49.6299 28.9994L51.3748 5.96204C51.4159 5.44034 51.2513 4.94349 50.9139 4.54601C50.5764 4.14853 50.1073 3.91666 49.597 3.87526L9.67932 0.811341C8.60936 0.728532 7.68755 1.53178 7.60524 2.60829L7.17726 8.26412L6.37891 8.20615L6.80689 2.55032C6.91389 1.03492 8.23899 -0.107835 9.74516 0.00809718L49.6546 3.06374C50.3871 3.1217 51.0456 3.46122 51.5229 4.01604C52.0003 4.57085 52.2308 5.28301 52.1731 6.02L50.4283 29.0574C50.3213 30.4982 49.1197 31.5996 47.6958 31.5996H47.704Z" fill="#7C7ED7"/>
<path d="M45.1102 13.2158H0.402344V19.0455H45.1102V13.2158Z" fill="#7C7ED7"/>
<path d="M27.3416 21.8283H0.403292C0.18107 21.8283 0 21.6461 0 21.4225C0 21.1988 0.18107 21.0166 0.403292 21.0166H27.3416C27.5638 21.0166 27.7449 21.1988 27.7449 21.4225C27.7449 21.6461 27.5638 21.8283 27.3416 21.8283Z" fill="#7C7ED7"/>
<path d="M41.3669 34.0264H34.8648C33.9595 34.0264 33.2188 33.2811 33.2188 32.3703V30.2255C33.2188 29.3146 33.9595 28.5693 34.8648 28.5693H41.3669C42.2722 28.5693 43.013 29.3146 43.013 30.2255V32.3703C43.013 33.2811 42.2722 34.0264 41.3669 34.0264ZM34.8648 29.3726C34.4039 29.3726 34.0253 29.7535 34.0253 30.2172V32.362C34.0253 32.8257 34.4039 33.2066 34.8648 33.2066H41.3669C41.8278 33.2066 42.2064 32.8257 42.2064 32.362V30.2172C42.2064 29.7535 41.8278 29.3726 41.3669 29.3726H34.8648Z" fill="#7C7ED7"/>
</svg>
