<svg width="14" height="17" viewBox="0 0 14 17" fill="none" xmlns="http://www.w3.org/2000/svg">
<g clip-path="url(#clip0_593_42867)">
<path d="M12.2287 0.17334H1.77128C0.79394 0.17334 0 0.939026 0 1.879V10.1971C0 10.7127 0.237355 11.1941 0.653182 11.5207L5.88186 15.6181C6.1972 15.8636 6.59303 15.999 7 15.999C7.40573 15.999 7.8028 15.8636 8.11814 15.6168L13.3468 11.5207C13.7626 11.1941 14 10.7127 14 10.1971V1.879C14 0.939026 13.2062 0.17334 12.2287 0.17334Z" fill="#707070"/>
<path d="M12.0893 10.4972L7.43081 14.1773C7.18016 14.3751 6.81972 14.3751 6.569 14.1773L1.91053 10.4972C1.75048 10.3721 1.65869 10.1829 1.65869 9.98312V2.51161C1.65869 2.14529 1.96427 1.84863 2.34139 1.84863H11.6584C12.0356 1.84863 12.3412 2.14529 12.3412 2.51161V9.98312C12.3412 10.1829 12.2483 10.3721 12.0893 10.4972Z" fill="white"/>
<path d="M11.8607 5.17894L7.13166 10.9429C7.02133 11.0769 6.85953 11.1598 6.6849 11.1711C6.67071 11.1721 6.65698 11.1729 6.64294 11.1729C6.4825 11.1729 6.3275 11.1121 6.21067 11.003L3.19596 8.18909C2.94421 7.95403 2.93364 7.56356 3.17227 7.31592C3.41074 7.0689 3.80829 7.05788 4.0602 7.2931L6.58136 9.64604L10.8835 4.40296C11.1013 4.13747 11.4965 4.09524 11.7663 4.31012C12.0362 4.52406 12.0786 4.91299 11.8607 5.17894Z" fill="#5AE65A"/>
</g>
<defs>
<clipPath id="clip0_593_42867">
<rect width="14" height="16.4346" fill="white" transform="translate(0 0.17334)"/>
</clipPath>
</defs>
</svg>
