<svg id="i_qr_code" data-name="i_qr code" xmlns="http://www.w3.org/2000/svg" width="28" height="28" viewBox="0 0 28 28">
  <rect id="bg28x28" width="28" height="28" fill="#fff" opacity="0"/>
  <g id="i_qr" transform="translate(1 1)">
    <path id="re24" d="M-804.867,1144H-813.5v8.633h8.633Zm-2.031,6.6h-4.57v-4.57h4.57Z" transform="translate(813.5 -1144)" fill="#fff"/>
    <rect id="re23" width="2.031" height="2.031" transform="translate(3.301 3.301)" fill="#fff"/>
    <path id="re22" d="M-763.4,1144v8.633h8.633V1144Zm6.6,6.6h-4.571v-4.57h4.571Z" transform="translate(780.769 -1144)" fill="#fff"/>
    <rect id="re21" width="2.031" height="2.031" transform="translate(20.668 3.301)" fill="#fff"/>
    <path id="re20" d="M-813.5,1202.731h8.633V1194.1H-813.5Zm2.031-6.6h4.57v4.571h-4.57Z" transform="translate(813.5 -1176.731)" fill="#fff"/>
    <rect id="re19" width="2.031" height="2.031" transform="translate(3.301 20.668)" fill="#fff"/>
    <rect id="re18" width="2.031" height="2.031" transform="translate(2.031 10.004)" fill="#fff"/>
    <path id="re17" d="M-801.781,1180.748h1.98v2.031h2.031v-2.031h-1.98v-2.031h-2.031Z" transform="translate(805.844 -1166.682)" fill="#fff"/>
    <rect id="re16" width="2.031" height="2.031" transform="translate(14.219 3.91)" fill="#fff"/>
    <rect id="re15" width="2.031" height="3.91" transform="translate(10.156 2.031)" fill="#fff"/>
    <rect id="re14" width="2.031" height="2.031" transform="translate(12.187)" fill="#fff"/>
    <path id="re13" d="M-782.172,1161.139v2.031H-784.2v2.031h4.063v-4.062Z" transform="translate(794.359 -1155.197)" fill="#fff"/>
    <path id="re12" d="M-782.172,1182.779v1.98h2.031v1.98h4.063v-2.031h-4.062v-1.981h-2.031v-4.012H-784.2v4.063Z" transform="translate(794.359 -1166.682)" fill="#fff"/>
    <rect id="re11" width="2.031" height="4.062" transform="translate(14.219 10.004)" fill="#fff"/>
    <path id="re10" d="M-755.078,1172.857h-3.707v2.031h-1.981v2.031h2.031v1.98h5.687v-4.063h-2.031Zm0,4.012h-3.656v-1.981h3.656Z" transform="translate(779.047 -1162.853)" fill="#fff"/>
    <rect id="re09" width="2.031" height="4.062" transform="translate(23.969 18.027)" fill="#fff"/>
    <rect id="re08" width="2.031" height="2.031" transform="translate(16.25 14.066)" fill="#fff"/>
    <rect id="re07" width="2.031" height="2.031" transform="translate(18.281 20.059)" fill="#fff"/>
    <rect id="re06" width="2.031" height="2.031" transform="translate(20.312 18.027)" fill="#fff"/>
    <path id="re05" d="M-752.875,1211.631v-1.879h1.625v-2.031h-3.656v3.91Z" transform="translate(775.219 -1185.631)" fill="#fff"/>
    <rect id="re04" width="2.031" height="3.859" transform="translate(10.156 18.078)" fill="#fff"/>
    <path id="re03" d="M-776.312,1211.344v-2.031h1.98v2.031h2.031v-2.031h-1.98v-2.031h-4.062v4.063Z" transform="translate(790.531 -1185.344)" fill="#fff"/>
    <rect id="re02" width="4.062" height="2.031" transform="translate(6.094 10.004)" fill="#fff"/>
    <rect id="re01" width="2.031" height="4.062" transform="translate(0 12.035)" fill="#fff"/>
  </g>
</svg>
