<svg id="i_search" xmlns="http://www.w3.org/2000/svg" width="28" height="28" viewBox="0 0 28 28">
  <rect id="bg28x28" width="28" height="28" fill="#fff" opacity="0"/>
  <path id="i_search-2" data-name="i_search" d="M15.939,19.37l-4.623-4.864a7.235,7.235,0,0,1-3.778,1.082A7.492,7.492,0,0,1,.584,10.808,8.021,8.021,0,0,1,2.181,2.3,7.286,7.286,0,0,1,10.354.589a7.8,7.8,0,0,1,4.637,7.206,7.938,7.938,0,0,1-1.809,5.085l4.465,4.671a1.307,1.307,0,0,1,0,1.787,1.132,1.132,0,0,1-1.708.032ZM2.848,5.765a5.418,5.418,0,0,0,1.082,5.742,4.919,4.919,0,0,0,5.517,1.151,5.268,5.268,0,0,0,3.129-4.863A5.154,5.154,0,0,0,7.538,2.532h-.02A5.062,5.062,0,0,0,2.848,5.765Z" transform="translate(5 4)" fill="#fff"/>
</svg>
