<svg xmlns="http://www.w3.org/2000/svg" viewBox="0 0 50.4 50.4"><g fill="#3e3a39" data-name="圖層 2" style="mix-blend-mode:normal;isolation:isolate"><path d="M1.24 0a1.24 1.24 0 0 0 0 2.48h6.94a1.24 1.24 0 0 0 0-2.48Z" style="mix-blend-mode:normal;isolation:isolate" transform="translate(18.01 26.79)"/><path d="M1.24 0a1.24 1.24 0 0 0 0 2.48h11.89a1.24 1.24 0 0 0 0-2.48Z" data-name="Vector" style="mix-blend-mode:normal;isolation:isolate" transform="translate(18.01 21.84)"/><path d="M11.2 4.25A25.2 25.2 0 1 0 25.2 0a25.2 25.2 0 0 0-14 4.25Zm25.17 29.2A13.94 13.94 0 0 1 19 37.37a1.18 1.18 0 0 0-.92-.08l-5.37 1.79a1.2 1.2 0 0 1-1.52-1.52L13 32.21a1.2 1.2 0 0 0-.08-.91 13.94 13.94 0 1 1 23.45 2.15Z" data-name="Vector" style="mix-blend-mode:normal;isolation:isolate"/></g></svg>