<svg xmlns="http://www.w3.org/2000/svg" xmlns:xlink="http://www.w3.org/1999/xlink" viewBox="0 0 50.4 50.4"><defs><path id="a" fill="none" d="M0 0h50.4v50.4H0z" style="mix-blend-mode:normal;isolation:isolate"/></defs><defs><clipPath id="b"><use xlink:href="#a" style="mix-blend-mode:normal;isolation:isolate"/></clipPath></defs><g clip-path="url(#b)" data-name="ICON_10" style="mix-blend-mode:normal;isolation:isolate"><use xlink:href="#a" data-name="ICON_10" style="mix-blend-mode:normal;isolation:isolate"/><path fill="#3e3a39" d="M11.2 4.25A25.2 25.2 0 1 0 25.2 0a25.2 25.2 0 0 0-14 4.25Zm15.38 35.04a2 2 0 0 1-2.76 0l-9.67-9.22a2 2 0 1 1 2.76-2.89l8.29 7.9 8.29-7.9a2 2 0 1 1 2.76 2.89Zm0-11.96a2 2 0 0 1-2.76 0l-9.67-9.21a2 2 0 0 1 2.76-2.9l8.29 7.9 8.29-7.9a2 2 0 1 1 2.76 2.9Z" data-name="圖層 2" style="mix-blend-mode:normal;isolation:isolate"/></g></svg>