<svg xmlns="http://www.w3.org/2000/svg" viewBox="0 0 106.05 82.49"><g fill="#b5b2a4" data-name="组 144"><path d="M64.14 82.49H.07c-.66-12.07 3.15-22.24 13.25-29.12C24.8 45.55 37.1 45.3 49.07 52.1c11.16 6.34 16.16 18.23 15.07 30.39Z" data-name="路径 77"/><path d="M56 49.11c7.53-7.67 22.26-9.88 32.83-4.96 12.24 5.7 18.5 17.65 17 32.68-.46.02-.95.07-1.44.07-10.8 0-21.58-.02-32.37.04-1.37 0-1.64-.42-1.77-1.7A37.09 37.09 0 0 0 56.97 50l-.82-.69a1.53 1.53 0 0 1-.14-.2Z" data-name="路径 78"/><path d="M32.2 41.17a17.43 17.43 0 0 1-5.24-.7A20.35 20.35 0 0 1 14.61 29.1q-.36-.8-.64-1.64a21.04 21.04 0 0 1 7.52-24.02C29.97-2.6 41.3-.5 47.6 8.25c6.26 8.67 4.56 21.56-3.55 28.47a18.87 18.87 0 0 1-11.85 4.45Z" data-name="路径 79"/><path d="M59.5 21.64c.16-7.07 2.43-12.12 7.44-15.72a15.88 15.88 0 0 1 20.81 2.1 18.4 18.4 0 0 1 .21 24.94c-8.38 9.12-23.3 5.8-27.33-6.14a39.28 39.28 0 0 1-1.14-5.18Z" data-name="路径 80"/></g></svg>