<?xml version="1.0" encoding="utf-8"?>
<!-- Generator: Adobe Illustrator 27.0.0, SVG Export Plug-In . SVG Version: 6.00 Build 0)  -->
<svg version="1.1" id="i_apple_ios" xmlns="http://www.w3.org/2000/svg" xmlns:xlink="http://www.w3.org/1999/xlink" x="0px"
	 y="0px" viewBox="0 0 50 50" style="enable-background:new 0 0 50 50;" xml:space="preserve">
<style type="text/css">
	.st0{fill:#51455E;}
	.st1{clip-path:url(#SVGID_00000052789569012840115740000006831461267304329119_);}
	.st2{fill:#141414;}
</style>
<path id="re01" class="st0" d="M10.7,0h28.6C45.2,0,50,4.8,50,10.7v28.6C50,45.2,45.2,50,39.3,50H10.7C4.8,50,0,45.2,0,39.3V10.7
	C0,4.8,4.8,0,10.7,0z"/>
<g id="组_8934" transform="translate(4.932 2.545)">
	<g>
		<defs>
			<rect id="SVGID_1_" x="3.9" y="2" width="32.4" height="37.9"/>
		</defs>
		<clipPath id="SVGID_00000171692682311392027830000010893338777659179399_">
			<use xlink:href="#SVGID_1_"  style="overflow:visible;"/>
		</clipPath>
		<g id="组_8933" style="clip-path:url(#SVGID_00000171692682311392027830000010893338777659179399_);">
			<path id="路径_5743" class="st2" d="M27.2,2c-2.2,0.3-4.3,1.4-5.8,3.1c-1.5,1.6-2.1,3.8-1.9,6c2.3-0.1,4.4-1.1,5.8-3
				C26.7,6.4,27.4,4.2,27.2,2"/>
			<path id="路径_5744" class="st2" d="M35.2,14.7c-1.7-2.3-4.4-3.7-7.2-3.8c-3.4,0-4.8,1.6-7.2,1.6c-2.4,0-4.3-1.6-7.2-1.6
				c-3.3,0.2-6.2,2-7.9,4.8c-2.7,4.3-2.3,12.2,2.2,19.1c1.6,2.4,3.7,5.2,6.5,5.2c2.5,0,3.2-1.6,6.5-1.6s4,1.6,6.5,1.6
				c2.8,0,5-3.1,6.6-5.5c1-1.5,1.8-3,2.4-4.6c-4.3-1.7-6.5-6.5-4.8-10.8C32.1,17.2,33.5,15.7,35.2,14.7"/>
		</g>
	</g>
</g>
</svg>
