<svg xmlns="http://www.w3.org/2000/svg" viewBox="0 0 28 28"><defs><clipPath id="a"><path fill="none" d="M0 0h18.1v21.2H0z" data-name="矩形 3753"/></clipPath></defs><rect width="28" height="28" fill="#8e8e92" rx="6"/><g data-name="组 8934"><g fill="#fff" clip-path="url(#a)" data-name="组 8933" transform="translate(5 2.5)"><path d="M13 0a5 5 0 0 0-3.2 1.7 4.3 4.3 0 0 0-1 3.4A4.2 4.2 0 0 0 12 3.4 4.7 4.7 0 0 0 13 0" data-name="路径 5743"/><path d="M17.5 7.1a5.4 5.4 0 0 0-4-2.1c-2 0-2.7.9-4 .9-1.4 0-2.5-1-4.1-1A5.5 5.5 0 0 0 1 7.8C-.6 10-.3 14.5 2.2 18.3c.9 1.4 2 3 3.6 3 1.4 0 1.8-1 3.7-1s2.2 1 3.6 1c1.5 0 2.8-1.8 3.7-3.1a15.3 15.3 0 0 0 1.3-2.6 4.7 4.7 0 0 1-.6-8.5" data-name="路径 5744"/></g></g></svg>