<svg xmlns="http://www.w3.org/2000/svg" viewBox="0 0 28 28"><defs><clipPath id="a"><path fill="#fff" d="M0 0h26v26H0z" data-name="矩形 3414"/></clipPath></defs><g data-name="组 8337"><g fill="#fff" clip-path="url(#a)" data-name="组 8336" transform="translate(1 1)"><path d="M13 26a13 13 0 1 1 13-13 13 13 0 0 1-13 13m0-24.4A11.4 11.4 0 1 0 24.4 13 11.4 11.4 0 0 0 13 1.6" data-name="路径 5461"/><path d="M12 16.3a.7.7 0 0 1-.2-.5 3.5 3.5 0 0 1 .3-1.6 4.4 4.4 0 0 1 .7-1 10 10 0 0 1 1.1-1.1 6.6 6.6 0 0 0 1.2-1 1.5 1.5 0 0 0 .3-1q0-2.1-2.8-2.1a5.4 5.4 0 0 0-1.3.1 4.2 4.2 0 0 0-1.2.5 1 1 0 0 1-.5.2.8.8 0 0 1-.8-.8.9.9 0 0 1 .5-.8 5.8 5.8 0 0 1 1.6-.7 7.3 7.3 0 0 1 1.9-.2 4.9 4.9 0 0 1 3.2 1 3.4 3.4 0 0 1 1.2 2.7 3.2 3.2 0 0 1-.3 1.3 3.4 3.4 0 0 1-.6 1 11.5 11.5 0 0 1-1 1 7 7 0 0 0-1.4 1.2 2 2 0 0 0-.4 1.3.7.7 0 0 1-.2.5.9.9 0 0 1-.7.3 1 1 0 0 1-.6-.3m-.2 3.6a1.2 1.2 0 0 1-.4-.8 1.2 1.2 0 0 1 1.2-1.2 1.2 1.2 0 0 1 .9.4 1.1 1.1 0 0 1 .3.8 1.2 1.2 0 0 1-1.2 1.2 1.1 1.1 0 0 1-.8-.4" data-name="路径 5462"/></g></g></svg>