<svg id="i_email" xmlns="http://www.w3.org/2000/svg" width="28" height="28" viewBox="0 0 28 28">
  <rect id="矩形_3614" data-name="矩形 3614" width="28" height="28" opacity="0"/>
  <g id="组_8870" data-name="组 8870" transform="translate(-1096.125 168.996)">
    <path id="路径_5656" data-name="路径 5656" d="M1099.67-151.084a.546.546,0,0,1-.545-.546v-11.82l.017-.073a.571.571,0,0,1,.024-.127.261.261,0,0,1,.032-.052l.049-.08a.3.3,0,0,1,.084-.083l.071-.05a.376.376,0,0,1,.051-.034l.088-.019a.593.593,0,0,1,.108-.028h16.191a.576.576,0,0,1,.22.049l.063.045a.577.577,0,0,1,.109.076l.058.09a.592.592,0,0,1,.055.086.441.441,0,0,1,.021.1l.015.077,0,11.843a.546.546,0,0,1-.545.546Zm.663-10.967a.12.12,0,0,0-.047.01.117.117,0,0,0-.07.107v9.641a.118.118,0,0,0,.117.117h14.843a.118.118,0,0,0,.117-.117v-9.643a.117.117,0,0,0-.07-.107.118.118,0,0,0-.047-.01.117.117,0,0,0-.08.032l-6.972,6.441a.537.537,0,0,1-.37.145.541.541,0,0,1-.372-.146l-6.97-6.439A.117.117,0,0,0,1100.333-162.051Zm1.032-.853a.117.117,0,0,0-.109.075.117.117,0,0,0,.029.128l6.389,5.9a.117.117,0,0,0,.08.031.117.117,0,0,0,.079-.031l6.389-5.9a.118.118,0,0,0,.03-.128.119.119,0,0,0-.11-.075Z" fill="#fff"/>
    <path id="路径_5657" data-name="路径 5657" d="M1124.966-156.09a.473.473,0,0,0-.005-.1.648.648,0,0,0-.042-.093l-.045-.1a.587.587,0,0,0-.1-.091l-.056-.053a.553.553,0,0,0-.211-.081l-5.529-.828c0,.371.011.74.033,1.109l3.657.547a.117.117,0,0,1,.1.09.117.117,0,0,1-.048.123l-3.638,2.475v.005c0,.418.089.833.1,1.244l4.3-2.923a.118.118,0,0,1,.083-.019.119.119,0,0,1,.045.017.117.117,0,0,1,.053.116l-1.427,9.536a.117.117,0,0,1-.134.1l-14.679-2.2a.119.119,0,0,1-.1-.134l.174-1.162h-1.1l-.248,1.656a.547.547,0,0,0,.459.621l15.99,2.394a.546.546,0,0,0,.62-.459l1.749-11.713Z" transform="translate(-2.904 -2.713)" fill="#fff"/>
  </g>
</svg>
