<svg xmlns="http://www.w3.org/2000/svg" viewBox="0 0 28 28"><defs><clipPath id="a"><path fill="none" d="M0 0h26v26H0z" data-name="矩形 3417"/></clipPath></defs><g data-name="组 8339"><g fill="#fff" clip-path="url(#a)" data-name="组 8338" transform="translate(1 1)"><path d="M17.4 26h-15A2.8 2.8 0 0 1 0 23V3a2.8 2.8 0 0 1 3-3h10.8a1 1 0 0 1 .8.3l4.9 4.9a1 1 0 0 1 .3.8v3.3a.3.3 0 0 0 .2.4 5.3 5.3 0 0 1 2.1 7.8l-.1.2.2.2 3.4 3.4a5 5 0 0 1 .4.5v.4c-.4.7-.9.8-1.4.2L21 18.9a1.1 1.1 0 0 1-.1-.2l-1 .6a.3.3 0 0 0-.2.3v3.7a2.8 2.8 0 0 1-2 2.6l-.4.1M13.2 1.5H3A1.3 1.3 0 0 0 1.5 3v20.2A1.3 1.3 0 0 0 3 24.5h14a1.3 1.3 0 0 0 1.4-1.4v-3.3a5.4 5.4 0 0 1-6-5 5.2 5.2 0 0 1 1.3-3.8 5.3 5.3 0 0 1 4.7-1.8V6.6H14c-.6 0-.9-.3-.9-1v-4m8.3 13a3.8 3.8 0 1 0-3.8 3.8 3.8 3.8 0 0 0 3.8-3.8M14.7 5h2.4l-2.4-2.4Z" data-name="路径 5463"/><path d="M8.1 8.1h4.3a.8.8 0 1 1 0 1.5H3.9a.8.8 0 0 1-.8-1A.8.8 0 0 1 4 8h4" data-name="路径 5464"/><path d="M7 12.7H4c-.6 0-1-.3-1-.8a.8.8 0 0 1 1-.7h6.3a.8.8 0 1 1 0 1.5H7.2" data-name="路径 5465"/><path d="M7.1 14.2h3.2a.8.8 0 1 1 0 1.5H4a.8.8 0 1 1 0-1.5h3.2" data-name="路径 5466"/><path d="M7.1 17.3h3.2a.8.8 0 1 1 0 1.5H4a.8.8 0 1 1 0-1.5h3" data-name="路径 5467"/></g></g></svg>