<svg id="i_linelogo2" xmlns="http://www.w3.org/2000/svg" xmlns:xlink="http://www.w3.org/1999/xlink" width="28" height="28" viewBox="0 0 28 28">
  <defs>
    <linearGradient id="linear-gradient" x1="0.5" y1="-0.011" x2="0.5" y2="1.01" gradientUnits="objectBoundingBox">
      <stop offset="0" stop-color="#15e863"/>
      <stop offset="1" stop-color="#00c852"/>
    </linearGradient>
  </defs>
  <rect id="bg28x28" width="28" height="28" fill="#fff" opacity="0"/>
  <g id="i_linelogo" transform="translate(-1563 -794)">
    <rect id="re01" width="28" height="28" rx="6" transform="translate(1563 794)" fill="url(#linear-gradient)"/>
    <path id="re02" d="M21.868,13.56c-6.108,0-11.078,4.061-11.078,9.049,0,4.471,3.943,8.215,9.266,8.926.361.078.85.241.975.549a2.319,2.319,0,0,1,.037,1l-.152.946c-.042.28-.222,1.1.967.6A35.827,35.827,0,0,0,30.6,28.155a8.035,8.035,0,0,0,2.353-5.546C32.949,17.621,27.981,13.56,21.868,13.56ZM17.533,25.587h-2.2a.586.586,0,0,1-.58-.583V20.559a.583.583,0,1,1,1.164,0v3.849h1.621a.586.586,0,0,1,0,1.169ZM19.811,25a.583.583,0,1,1-1.164,0V20.559a.583.583,0,1,1,1.164,0Zm5.3,0a.588.588,0,0,1-.408.544.62.62,0,0,1-.183.026.57.57,0,0,1-.471-.233L21.8,22.262v2.73a.58.58,0,1,1-1.161,0V20.546a.583.583,0,0,1,.4-.539.546.546,0,0,1,.18-.031.6.6,0,0,1,.458.238l2.272,3.093V20.559a.583.583,0,1,1,1.164,0Zm3.559-2.813a.586.586,0,1,1,0,1.171H27.056v1.046h1.621a.586.586,0,0,1,0,1.169H26.467a.586.586,0,0,1-.58-.583V20.549a.588.588,0,0,1,.583-.586h2.2a.586.586,0,0,1,0,1.171H27.056V22.18Z" transform="translate(1555.031 783.985)" fill="#fff"/>
  </g>
</svg>
