<svg height="28" viewBox="0 0 28 28" width="28" xmlns="http://www.w3.org/2000/svg"><g fill="#fff"><path d="m0 0h28v28h-28z" opacity="0"/><path d="m-2455.174 2149.208h-24v-2.66a7.6 7.6 0 0 1 7.471-7.7h9.059a7.6 7.6 0 0 1 7.47 7.7zm-22.531-1.513h21.063v-1.146a6.1 6.1 0 0 0 -6-6.185h-9.059a6.1 6.1 0 0 0 -6 6.185z" transform="translate(2481.173 -2123.208)"/><path d="m-2464.942 2132.853a5.936 5.936 0 0 1 -5.838-6.017 5.936 5.936 0 0 1 5.838-6.017 5.936 5.936 0 0 1 5.838 6.017 5.936 5.936 0 0 1 -5.838 6.017zm0-10.521a4.443 4.443 0 0 0 -4.37 4.5 4.443 4.443 0 0 0 4.37 4.5 4.443 4.443 0 0 0 4.369-4.5 4.443 4.443 0 0 0 -4.369-4.5z" transform="translate(2478.941 -2118.819)"/></g></svg>