<svg xmlns="http://www.w3.org/2000/svg" data-name="组 122" viewBox="0 0 89 89"><defs><linearGradient id="a" x1=".1" x2="1" y1=".1" y2="1" gradientUnits="objectBoundingBox"><stop offset="0" stop-color="#ffe185"/><stop offset=".2" stop-color="#ffbb36"/><stop offset=".4" stop-color="#ff5176"/><stop offset=".5" stop-color="#f63395"/><stop offset=".7" stop-color="#a436d2"/><stop offset="1" stop-color="#5f4eed"/></linearGradient></defs><rect width="89" height="89" fill="url(#a)" data-name="矩形 105" rx="30"/><g data-name="组 121"><g fill="#fff" data-name="组 120"><path d="M56.4 30a2.6 2.6 0 1 0 2.7 2.7 2.6 2.6 0 0 0-2.7-2.7Z" data-name="路径 67"/><path d="M44.7 33.4a11 11 0 1 0 11 11.1 11.1 11.1 0 0 0-11-11Zm0 18.2a7.1 7.1 0 1 1 7.1-7 7.1 7.1 0 0 1-7.1 7Z" data-name="路径 68"/><path d="M53.5 67h-18A13.5 13.5 0 0 1 22 53.5v-18A13.5 13.5 0 0 1 35.5 22h18A13.5 13.5 0 0 1 67 35.5v18A13.5 13.5 0 0 1 53.5 67Zm-18-40.8a9.3 9.3 0 0 0-9.3 9.3v18a9.3 9.3 0 0 0 9.3 9.3h18a9.3 9.3 0 0 0 9.3-9.3v-18a9.3 9.3 0 0 0-9.3-9.3Z" data-name="路径 69"/></g></g></svg>