<svg xmlns="http://www.w3.org/2000/svg" viewBox="0 0 44 44"><path fill="#fff" d="M19.06 29.23c-.97-.01-1.94 0-2.91-.03a5.15 5.15 0 0 1-4.49-2.54 4.33 4.33 0 0 1-.64-2.25c-.04-2.14-.01-4.27 0-6.41v-2.86c0-2.02 2.45-3.98 4.67-4.09 2.47-.12 4.95.02 7.42 0 1.64 0 3.29-.12 4.93 0a5.1 5.1 0 0 1 4.53 4.75q.12 2.8.15 5.59c.01 1.05-.07 2.1-.13 3.14a5.03 5.03 0 0 1-3.81 4.5 6.17 6.17 0 0 1-1.34.17c-.86.03-1.71 0-2.57.02a1.24 1.24 0 0 0-.6.18 399.2 399.2 0 0 0-4.83 3.13l-.33.2-.05-3.5a1.98 1.98 0 0 0 .27-.13l4.82-3.13a1.4 1.4 0 0 1 .83-.26c.8.02 1.61.02 2.41 0a1.67 1.67 0 0 0 1.69-1.23 5.1 5.1 0 0 0 .05-.85 67.32 67.32 0 0 0 0-7.38 1.64 1.64 0 0 0-1.7-1.66c-.73-.03-1.46-.08-2.18-.1a87.07 87.07 0 0 0-9.25.11 1.57 1.57 0 0 0-1.5 1.45 62 62 0 0 0 0 7.97 1.64 1.64 0 0 0 1.75 1.7h2.33l.46.03v.49l.02 2.99Z" data-name="路径 5717"/></svg>