<svg xmlns="http://www.w3.org/2000/svg" xmlns:xlink="http://www.w3.org/1999/xlink" viewBox="0 0 50 50"><defs><path id="a" fill="none" d="M0 0h50v50H0z" data-name="ICON_06 2" style="mix-blend-mode:normal;isolation:isolate"/></defs><defs><clipPath id="b"><use xlink:href="#a" data-name="ICON_06 2" style="mix-blend-mode:normal;isolation:isolate"/></clipPath></defs><g clip-path="url(#b)" data-name="ICON_06 2" style="mix-blend-mode:normal;isolation:isolate"><use xlink:href="#a" data-name="ICON_06 2" style="mix-blend-mode:normal;isolation:isolate"/><path fill="#3e3a39" d="M11.11 4.21A25 25 0 1 0 25 0a25 25 0 0 0-13.89 4.21Zm11.1 6.67a7.34 7.34 0 0 1 8 1.6 7.14 7.14 0 0 1 2.16 5.19 7.36 7.36 0 1 1-14.71-.02 7.14 7.14 0 0 1 2.16-5.17 7.35 7.35 0 0 1 2.38-1.6Zm10.4 29.94H17.87A5.38 5.38 0 0 1 14 39.4a5.06 5.06 0 0 1-1.51-3.83v-1.8a12.44 12.44 0 0 1 .25-1.93 16.54 16.54 0 0 1 .47-1.94 9.22 9.22 0 0 1 .8-1.8 7.04 7.04 0 0 1 1.2-1.57 5.19 5.19 0 0 1 1.72-1.08 5.95 5.95 0 0 1 2.2-.4 2.19 2.19 0 0 1 1.19.5l1.19.8a6.84 6.84 0 0 0 1.6.72 6.36 6.36 0 0 0 1.98.32 6.29 6.29 0 0 0 1.97-.32 6.63 6.63 0 0 0 1.6-.72l1.25-.8a2.19 2.19 0 0 1 1.2-.5 5.95 5.95 0 0 1 2.2.4 5.32 5.32 0 0 1 1.72 1.08 7.04 7.04 0 0 1 1.19 1.57 9.99 9.99 0 0 1 .8 1.8 16.54 16.54 0 0 1 .47 1.94 17.7 17.7 0 0 1 .24 1.93c0 .58.06 1.19.06 1.8a5.06 5.06 0 0 1-1.35 3.83h.06a5.4 5.4 0 0 1-3.87 1.42Z" data-name="圖層 2" style="mix-blend-mode:normal;isolation:isolate"/></g></svg>