<svg xmlns="http://www.w3.org/2000/svg" viewBox="0 0 60 60"><g data-name="组 208"><g fill="#b5b2a4" data-name="组 207"><path d="M24.2 20.5a1.7 1.7 0 0 0-1.7 1.7 1.7 1.7 0 0 0 1.7 1.6 1.7 1.7 0 0 0 1.7-1.6 1.7 1.7 0 0 0-1.7-1.7Z" data-name="路径 115"/><path d="M30 0A30 30 0 0 0 0 30a30 30 0 0 0 30 30 30 30 0 0 0 30-30A30 30 0 0 0 30 0Zm16.3 40.6a4.8 4.8 0 0 1-4.8 4.9h-4.8a1.4 1.4 0 0 0-1.3 1.3 2.2 2.2 0 0 1-2.2 2.3H28a2.2 2.2 0 0 1-2.2-2.3 1.3 1.3 0 0 0-1.4-1.3h-2.7a4.8 4.8 0 0 1-4.9-4.9V28.8a.4.4 0 0 0-.3-.4h-1.1a1.8 1.8 0 0 1-1.8-1.8v-2.1a1.8 1.8 0 0 1 1.8-1.8h1a.4.4 0 0 0 .4-.4v-3.6a4.8 4.8 0 0 1 4.9-4.9h10.8a4.8 4.8 0 0 1 4.8 4.9v7a1.8 1.8 0 0 0 1.8 1.9h2.3a4.8 4.8 0 0 1 4.8 4.8Z" data-name="路径 116"/></g></g></svg>