<svg xmlns="http://www.w3.org/2000/svg" xmlns:xlink="http://www.w3.org/1999/xlink" viewBox="0 0 50.4 50.4"><defs><path id="a" fill="none" d="M0 0h50.4v50.4H0z" style="mix-blend-mode:normal;isolation:isolate"/></defs><defs><clipPath id="b"><use xlink:href="#a" style="mix-blend-mode:normal;isolation:isolate"/></clipPath></defs><g clip-path="url(#b)" data-name="ICON_08" style="mix-blend-mode:normal;isolation:isolate"><use xlink:href="#a" data-name="ICON_08" style="mix-blend-mode:normal;isolation:isolate"/><path fill="#3e3a39" d="M11.2 4.25A25.2 25.2 0 1 0 25.2 0a25.2 25.2 0 0 0-14 4.25Zm23.16 30.42A4.24 4.24 0 0 1 31.58 36c-2.69.26-5.41-1.19-5.41-4.18a4.2 4.2 0 0 1 4.2-4.21h2.34v-9.35L20.56 22v14a4.23 4.23 0 0 1-3.32 3.63c-2.82.6-6-.91-6-4.1a4.2 4.2 0 0 1 4.2-4.2h2.34V16.9a1.87 1.87 0 0 1 1.39-1.81l14-3.69a1.87 1.87 0 0 1 2.34 1.81v18.6a4.24 4.24 0 0 1-1.15 2.86Z" data-name="圖層 2" style="mix-blend-mode:normal;isolation:isolate"/></g></svg>