<svg xmlns="http://www.w3.org/2000/svg" viewBox="0 0 60 60"><g data-name="组 206"><g fill="#b5b2a4" data-name="组 205"><path d="M34.1 30.7a2.3 2.3 0 0 0-1.2.6l-4.3 4.3-1.6-1.7a1.4 1.4 0 0 0-2-.1 1.3 1.3 0 0 0 .2 2l2.3 2.4a1.4 1.4 0 0 0 2.3 0l3.5-3.5 1.7-1.8a1.3 1.3 0 0 0 .3-1.3 1.1 1.1 0 0 0-1.2-.9Z" data-name="路径 113"/><path d="M30 0A30 30 0 0 0 0 30a30 30 0 0 0 30 30 30 30 0 0 0 30-30A30 30 0 0 0 30 0Zm-7.1 14.6c0-1 .4-1.3 1.3-1.3h2a.8.8 0 0 0 .6-.4 3.5 3.5 0 0 1 3.2-2 3.4 3.4 0 0 1 3.2 2 .6.6 0 0 0 .6.4h2a1.1 1.1 0 0 1 1.3 1.2V19a1.1 1.1 0 0 1-1.2 1.3H24.3c-1 0-1.4-.4-1.4-1.4v-4.4Zm21.4 31.6a3.8 3.8 0 0 1-.5 1.8 2.2 2.2 0 0 1-2.1 1H18.5c-1.9 0-2.8-1-2.8-2.8V18.4a2.5 2.5 0 0 1 2.8-2.8h2v3.2a3.7 3.7 0 0 0 4 4h11.2a3.5 3.5 0 0 0 3.5-2 5.2 5.2 0 0 0 .3-2v-3.1a21.8 21.8 0 0 1 2.8 0 2.3 2.3 0 0 1 2 2.2v28.3Z" data-name="路径 114"/></g></g></svg>