<svg xmlns="http://www.w3.org/2000/svg" viewBox="0 0 94.9 94.8"><g data-name="组 145"><path fill="#b5b2a4" d="M23.8 94.8c0-3.8-.3-7.6.1-11.2.5-4.3 3.6-7 8-7.7.3 0 1-.3 1-.6l4-13.9-6.2-1.3A37.6 37.6 0 0 1 5.4 38.7 59.2 59.2 0 0 1 .2 17.9a14.2 14.2 0 0 1 .5-6.6 10 10 0 0 1 9.2-6.5h9V0h57v4.8h9a9.6 9.6 0 0 1 8.9 5.6 10.3 10.3 0 0 1 1 4.8 57.8 57.8 0 0 1-7 26.6A37.8 37.8 0 0 1 60.2 61l-1.7.2a2.2 2.2 0 0 0-.4.2l1.8 6.5 2 6.9a1.4 1.4 0 0 0 1.3 1.2 9 9 0 0 1 8 9.2v9.6Zm4.5-45.3.3-.4a81.3 81.3 0 0 1-9.2-34.7h-9c-1 0-1 .7-.9 1.3.7 4.2 1.1 8.5 2.2 12.6 1.8 6.8 5.1 13 10.8 17.4 1.8 1.4 3.9 2.5 5.8 3.8Zm37.8-.1a22.6 22.6 0 0 0 7.3-4.5c8.6-8 11.1-18.5 12-29.7a1.2 1.2 0 0 0-.8-.8h-9a81.1 81.1 0 0 1-9.5 35Z" data-name="路径 81"/></g></svg>