<svg xmlns="http://www.w3.org/2000/svg" xmlns:xlink="http://www.w3.org/1999/xlink" viewBox="0 0 50.4 50.4"><defs><path id="a" fill="none" d="M0 0h50.4v50.4H0z" style="mix-blend-mode:normal;isolation:isolate"/></defs><defs><clipPath id="b"><use xlink:href="#a" style="mix-blend-mode:normal;isolation:isolate"/></clipPath></defs><g clip-path="url(#b)" data-name="ICON_09" style="mix-blend-mode:normal;isolation:isolate"><use xlink:href="#a" data-name="ICON_09" style="mix-blend-mode:normal;isolation:isolate"/><g fill="#3e3a39" data-name="圖層 2" style="mix-blend-mode:normal;isolation:isolate"><path d="M11.2 4.25A25.2 25.2 0 1 0 25.2 0a25.2 25.2 0 0 0-14 4.25Zm27.92 23.87A3 3 0 0 1 37 29a.69.69 0 0 0-.63.47l-.26.61a.66.66 0 0 0 .12.75 3 3 0 0 1 0 4.29l-1.09 1.09a3 3 0 0 1-4.29 0 .66.66 0 0 0-.75-.12l-.61.26A.69.69 0 0 0 29 37a3 3 0 0 1-3 3h-1.59a3 3 0 0 1-3-3 .69.69 0 0 0-.47-.63l-.61-.26a.66.66 0 0 0-.75.12 3 3 0 0 1-4.29 0l-1.09-1.09a3.05 3.05 0 0 1 0-4.29.66.66 0 0 0 .12-.75l-.26-.61a.69.69 0 0 0-.63-.47 3 3 0 0 1-3-3v-1.61a3 3 0 0 1 3-3 .69.69 0 0 0 .63-.47l.26-.61a.66.66 0 0 0-.12-.75 3.05 3.05 0 0 1 0-4.29l1.09-1.09a3 3 0 0 1 4.29 0 .66.66 0 0 0 .75.12l.61-.26a.69.69 0 0 0 .47-.63 3 3 0 0 1 3-3H26a3 3 0 0 1 3 3 .69.69 0 0 0 .47.63l.61.26a.66.66 0 0 0 .75-.12 3 3 0 0 1 4.29 0l1.09 1.09a3 3 0 0 1 0 4.29.66.66 0 0 0-.12.75l.26.61a.69.69 0 0 0 .63.47 3 3 0 0 1 3 3L40 26a3 3 0 0 1-.88 2.12Z" style="mix-blend-mode:normal;isolation:isolate"/><path d="M1.9.72A4.26 4.26 0 1 0 4.25 0a4.26 4.26 0 0 0-2.37.72Z" data-name="Vector" style="mix-blend-mode:normal;isolation:isolate" transform="translate(20.94 20.94)"/></g></g></svg>