<svg xmlns="http://www.w3.org/2000/svg" viewBox="0 0 89 89"><g data-name="组 124" transform="translate(-.3)"><rect width="89" height="89" data-name="矩形 107" rx="30" transform="translate(.3)"/><g data-name="组 8942"><path fill="#fff" d="m46.8 40.2 3.1-4 7.3-8.9a1 1 0 0 1 .7-.3h2.5l-1.8 2.2-10.3 12.6a.5.5 0 0 0 0 .8l12.9 19.8.3.4H52a.7.7 0 0 1-.7-.4l-8.4-13-.3-.4-3.7 4.4-7.4 9.2-.4.2h-2.8l13-15.9-13-19.8a2.3 2.3 0 0 1 .4-.1H38a.7.7 0 0 1 .6.4l8 12.3c0 .2.2.3.3.5Zm10.7 20.4-.3-.4L37 29.7a.9.9 0 0 0-.6-.4h-3.6a3.8 3.8 0 0 0-.4 0c0 .3.2.4.3.6l11 16.8q4.6 6.7 9 13.5c.2.2.3.4.5.4h4.3Z" data-name="路径 5623"/></g></g></svg>