<svg id="i_googlemap" xmlns="http://www.w3.org/2000/svg" width="30" height="26.567" viewBox="0 0 30 26.567">
  <path id="路径_5610" data-name="路径 5610" d="M-447.022,322.244c-.132-.754-.265-1.508-.409-2.26-.062-.321-.152-.636-.229-.954a2.119,2.119,0,0,0-.006-.349c-.105-.593-.223-1.184-.331-1.777-.429-2.362-.88-4.721-1.268-7.09a1.194,1.194,0,0,0-.841-1.056l-2.822-1.572c-.835-.468-1.668-.94-2.508-1.4a1.193,1.193,0,0,0-.356-.069c-.133.049-.268.092-.4.147-.237.1-.472.207-.708.312-.075.136-.149.274-.226.41a18.743,18.743,0,0,1-1.942,2.7c-.78.764-1.554,1.536-2.346,2.288a3.045,3.045,0,0,1-.593.352l-.766-.583-1.1-.99a20.293,20.293,0,0,1-2.521-3.067c-.224-.341-.44-.688-.659-1.033-.2-.1-.393-.2-.594-.295s-.383-.163-.574-.243a1.227,1.227,0,0,0-.36.073c-1.911,1.059-3.818,2.127-5.728,3.188a.682.682,0,0,0-.365.527c-.126.751-.272,1.5-.4,2.248-.085.489-.157.98-.235,1.47h0l-.041.053-.482,2.637a1.029,1.029,0,0,0-.057.165c-.085.5-.16.993-.249,1.488q-.314,1.742-.638,3.482c-.068.367-.153.732-.23,1.1v.47c.263.329.353.358.743.184q2.527-1.128,5.05-2.262c.647-.289,1.3-.574,1.943-.861q2.838,1.272,5.677,2.542c.524.233,1.055.449,1.583.673.279-.111.564-.211.837-.334.665-.3,1.325-.608,1.987-.912.267-.116.535-.231.8-.349l3.644-1.625c.091.033.185.06.273.1q1.507.675,3.012,1.354l3.651,1.642a.579.579,0,0,0,.634.009A.47.47,0,0,0-447.022,322.244Zm-21.485-12.55h0l-.063.046Z" transform="translate(477.002 -296.334)" fill="#45c767"/>
  <g id="组_8647" data-name="组 8647" transform="translate(0 9.38)">
    <path id="路径_5611" data-name="路径 5611" d="M-469.266,401.929c-.648.287-1.3.571-1.943.861q-2.526,1.13-5.05,2.262c-.39.174-.48.146-.743-.184v-.47c.077-.366.162-.73.23-1.1q.324-1.74.638-3.482c.089-.495.165-.992.249-1.488a1.029,1.029,0,0,1,.057-.165c.036-.015.073-.026.107-.044q2.95-1.558,5.9-3.115c.351-.185.712-.349,1.069-.523-.014.125-.03.251-.04.376q-.148,1.894-.294,3.788c-.077,1-.157,2-.23,3A1.147,1.147,0,0,0-469.266,401.929Z" transform="translate(477.002 -387.97)" fill="#a7edfa"/>
    <path id="路径_5612" data-name="路径 5612" d="M-265.336,387.373-268.98,389c-.266.118-.534.233-.8.349q-.778-.808-1.557-1.616c-.419-.432-.84-.861-1.261-1.291a.3.3,0,0,1,0-.057l.006-5.824c0-.013,0-.025,0-.038a1.416,1.416,0,0,0,.194-.054c1.241-.54,2.484-1.076,3.721-1.627a.378.378,0,0,1,.471.051c.174.156.365.293.55.435l1.853,1.425.06.127c.039.532.081,1.065.116,1.6.043.65.078,1.3.12,1.949.018.281.042.562.066.842.054.618.114,1.236.163,1.854A.9.9,0,0,1-265.336,387.373Z" transform="translate(287.6 -373.42)" fill="#4ce066"/>
    <path id="路径_5613" data-name="路径 5613" d="M-177.751,347.2a1.194,1.194,0,0,1,.841,1.056c.389,2.369.839,4.728,1.268,7.09.108.593.225,1.184.331,1.777a2.121,2.121,0,0,1,.006.349c-.083-.095-.166-.189-.248-.284q-2.858-3.323-5.716-6.645c-.6-.7-1.206-1.384-1.81-2.076l0-.011.074-.074a1.591,1.591,0,0,0,.2-.019c1.139-.253,2.278-.505,3.416-.765C-178.84,347.478-178.3,347.338-177.751,347.2Z" transform="translate(204.647 -344.161)" fill="#1fa4e7"/>
    <path id="路径_5614" data-name="路径 5614" d="M-372.205,401.552a1.149,1.149,0,0,1-.049-.279c.073-1,.152-2,.23-3q.147-1.894.294-3.788c.01-.126.027-.251.04-.376l.014-.012,0-.018c.057.078.118.154.172.235q2.617,3.982,5.233,7.965c.438.666.886,1.326,1.33,1.989q0,.25,0,.5c-.528-.224-1.059-.439-1.583-.673Q-369.369,402.827-372.205,401.552Z" transform="translate(379.941 -387.593)" fill="#1fa4e7"/>
    <path id="路径_5615" data-name="路径 5615" d="M-453.879,313.219c.078-.49.15-.981.235-1.47.131-.75.277-1.5.4-2.248a.682.682,0,0,1,.365-.527c1.91-1.061,3.817-2.129,5.728-3.188a1.227,1.227,0,0,1,.36-.073c-.019.2-.043.4-.057.6-.024.347-.038.694-.062,1.041-.055.779-.115,1.557-.173,2.336l-.063.046a.755.755,0,0,0-.138.042q-2.789,1.473-5.577,2.947C-453.193,312.906-453.539,313.057-453.879,313.219Z" transform="translate(455.576 -305.714)" fill="#4de066"/>
    <path id="路径_5616" data-name="路径 5616" d="M-178.77,413.852a.9.9,0,0,0,.053-.252c-.049-.618-.109-1.236-.163-1.854-.025-.28-.048-.561-.066-.842-.042-.65-.077-1.3-.12-1.949-.035-.533-.077-1.065-.116-1.6a.287.287,0,0,1,.071.046q2.313,2.794,4.625,5.589,1.642,1.983,3.286,3.963a.579.579,0,0,1-.634-.009l-3.651-1.642q-1.506-.677-3.012-1.354C-178.585,413.913-178.679,413.885-178.77,413.852Z" transform="translate(201.035 -399.9)" fill="#45c768"/>
    <path id="路径_5617" data-name="路径 5617" d="M-174.781,377.219q-1.643-1.982-3.286-3.963-2.313-2.794-4.625-5.589a.287.287,0,0,0-.071-.046l-.06-.127q-.027-.363-.055-.726-.085-1.147-.169-2.293c.6.692,1.211,1.38,1.81,2.076q2.86,3.321,5.716,6.645c.082.1.165.189.248.284.077.318.167.633.229.954.144.752.277,1.506.409,2.26A.47.47,0,0,1-174.781,377.219Z" transform="translate(204.615 -360.162)" fill="#fcba25"/>
    <path id="路径_5618" data-name="路径 5618" d="M-460.474,364.068c.34-.162.686-.314,1.02-.489q2.791-1.469,5.577-2.947a.755.755,0,0,1,.138-.042c0,.156.008.312,0,.466-.052.664-.111,1.327-.168,1.991l0,.018-.014.012c-.357.174-.718.338-1.069.523q-2.952,1.554-5.9,3.115a1.153,1.153,0,0,1-.107.044l.482-2.637.043-.056Z" transform="translate(462.17 -356.563)" fill="#fcda56"/>
    <path id="路径_5619" data-name="路径 5619" d="M-361.226,309.695c.058-.779.117-1.557.173-2.336.025-.347.039-.694.062-1.041.014-.2.038-.4.057-.6.192.081.386.156.574.243s.4.2.594.295c.219.344.435.692.659,1.033a20.293,20.293,0,0,0,2.521,3.067c-.126-.009-.253-.01-.378-.028q-1.168-.165-2.334-.337C-359.941,309.893-360.583,309.792-361.226,309.695Z" transform="translate(369.721 -305.714)" fill="#45c767"/>
    <path id="路径_5620" data-name="路径 5620" d="M-179.325,327.349c-.545.133-1.089.273-1.636.4-1.138.259-2.277.512-3.416.765a1.591,1.591,0,0,1-.2.019l-.073-.007-.126-2.1c.084-.023.168-.05.253-.07l2.379-.572Z" transform="translate(206.221 -324.305)" fill="#fcba25"/>
    <path id="路径_5621" data-name="路径 5621" d="M-272.652,487.306q0-.25,0-.5l.008-3.653c.42.43.842.859,1.261,1.291q.781.806,1.557,1.616c-.662.3-1.322.614-1.987.912C-272.088,487.1-272.372,487.2-272.652,487.306Z" transform="translate(287.647 -470.133)" fill="#fcda56"/>
    <path id="路径_5622" data-name="路径 5622" d="M-232.552,309.322a18.741,18.741,0,0,0,1.942-2.7c.076-.136.151-.273.226-.41.236-.1.47-.211.708-.312.13-.055.265-.1.4-.147l.174,2.1q-1.624.724-3.248,1.446A.7.7,0,0,1-232.552,309.322Z" transform="translate(250.489 -305.75)" fill="#4ee066"/>
    <path id="路径_5623" data-name="路径 5623" d="M-187.769,307.851l-.174-2.1a1.194,1.194,0,0,1,.356.069c.84.46,1.673.932,2.508,1.4l-2.379.572c-.085.02-.169.047-.253.07Z" transform="translate(209.153 -305.75)" fill="#46c868"/>
    <path id="路径_5624" data-name="路径 5624" d="M-454.387,407.957l-.043.056Z" transform="translate(456.086 -400.455)" fill="#4de066"/>
    <path id="路径_5625" data-name="路径 5625" d="M-357.688,369l-.008,3.653c-.444-.663-.892-1.323-1.33-1.989q-2.619-3.981-5.233-7.965c-.053-.081-.114-.157-.172-.235.056-.664.115-1.327.168-1.991.012-.155,0-.311,0-.466l.063-.046c.643.1,1.285.2,1.928.293q1.167.172,2.334.337c.125.018.252.019.378.027l1.1.99.766.583,0,.889c0,.013,0,.025,0,.038l-4.011-.487c.07.122.1.181.136.237q1.112,1.757,2.225,3.513c.544.855,1.095,1.707,1.643,2.56A.3.3,0,0,0-357.688,369Z" transform="translate(372.69 -355.983)" fill="#fdba24"/>
    <path id="路径_5626" data-name="路径 5626" d="M-272.6,339.348l0-.889a3.045,3.045,0,0,0,.593-.352c.792-.752,1.566-1.523,2.346-2.288a.7.7,0,0,0,.2-.024q1.626-.719,3.248-1.446l.058.014.126,2.1v.082l0,.011q.084,1.147.169,2.293.027.363.055.726l-1.853-1.425c-.185-.143-.377-.279-.55-.435a.378.378,0,0,0-.471-.051c-1.236.551-2.479,1.087-3.721,1.627A1.422,1.422,0,0,1-272.6,339.348Z" transform="translate(287.605 -332.247)" fill="#fdda56"/>
    <path id="路径_5627" data-name="路径 5627" d="M-323.174,402.679c-.548-.853-1.1-1.705-1.643-2.56q-1.116-1.754-2.225-3.513c-.036-.056-.067-.116-.136-.237l4.011.487Z" transform="translate(338.172 -389.717)" fill="#45c767"/>
    <path id="路径_5628" data-name="路径 5628" d="M-183.08,363.288v-.082l.073.007Z" transform="translate(204.647 -358.987)" fill="#fcba25"/>
  </g>
  <g id="组_8649" data-name="组 8649" transform="translate(8.879 0)">
    <path id="路径_5629" data-name="路径 5629" d="M-344.508,180.969a6,6,0,0,0-6.012-3.066,5.867,5.867,0,0,0-3.191,1.331,6.081,6.081,0,0,0-2.244,5.62,8.257,8.257,0,0,0,.871,2.81c.064.128.108.267.162.4.219.344.435.692.659,1.033a20.294,20.294,0,0,0,2.521,3.067l1.1.99.766.583a3.05,3.05,0,0,0,.593-.352c.792-.752,1.566-1.523,2.346-2.288A18.744,18.744,0,0,0-345,188.4c.076-.136.151-.273.226-.41a8.96,8.96,0,0,0,1.065-3.545A5.771,5.771,0,0,0-344.508,180.969Zm-7.613,3.045a2.264,2.264,0,0,1,2.273-2.262,2.265,2.265,0,0,1,2.267,2.27,2.264,2.264,0,0,1-2.289,2.277A2.263,2.263,0,0,1-352.121,184.014Z" transform="translate(355.999 -177.874)" fill="#e63540"/>
    <g id="组_8648" data-name="组 8648" transform="translate(0 0)">
      <path id="路径_5630" data-name="路径 5630" d="M-354.922,188.429c-.053-.134-.1-.272-.162-.4a8.257,8.257,0,0,1-.871-2.81,6.081,6.081,0,0,1,2.244-5.62,5.866,5.866,0,0,1,3.191-1.331,3.284,3.284,0,0,0,.328.1,5.959,5.959,0,0,1,3.93,2.691,6.217,6.217,0,0,1,.811,4.848,9.55,9.55,0,0,1-1.585,3.549,24.384,24.384,0,0,1-1.708,2.172c-.593.666-1.265,1.263-1.9,1.89l-1.1-.99a20.292,20.292,0,0,1-2.521-3.067C-354.487,189.121-354.7,188.774-354.922,188.429Zm5.074-6.313a2.264,2.264,0,0,0-2.273,2.262,2.263,2.263,0,0,0,2.251,2.284,2.264,2.264,0,0,0,2.289-2.277A2.265,2.265,0,0,0-349.847,182.117Z" transform="translate(355.999 -178.239)" fill="#fe4a4a"/>
      <path id="路径_5631" data-name="路径 5631" d="M-283.047,193.155c.637-.627,1.309-1.224,1.9-1.89a24.384,24.384,0,0,0,1.708-2.172,9.55,9.55,0,0,0,1.585-3.549,6.217,6.217,0,0,0-.811-4.848,5.959,5.959,0,0,0-3.93-2.691,3.284,3.284,0,0,1-.328-.1,6,6,0,0,1,6.012,3.066,5.771,5.771,0,0,1,.8,3.474,8.962,8.962,0,0,1-1.065,3.545c-.075.137-.149.274-.226.41a18.744,18.744,0,0,1-1.942,2.7c-.78.764-1.554,1.536-2.346,2.288a3.05,3.05,0,0,1-.593.352Z" transform="translate(288.4 -177.875)" fill="#e63540"/>
    </g>
  </g>
</svg>
