<svg id="i_rank01_color" xmlns="http://www.w3.org/2000/svg" xmlns:xlink="http://www.w3.org/1999/xlink" width="28" height="28" viewBox="0 0 28 28">
  <defs>
    <linearGradient id="linear-gradient" x1="0.5" y1="1.01" x2="0.5" y2="0.024" gradientUnits="objectBoundingBox">
      <stop offset="0" stop-color="#d87000"/>
      <stop offset="0.588" stop-color="#ffde00"/>
      <stop offset="1" stop-color="#ffec6b"/>
    </linearGradient>
    <linearGradient id="linear-gradient-2" x1="0.5" y1="1.5" x2="0.5" y2="-0.325" gradientUnits="objectBoundingBox">
      <stop offset="0" stop-color="#d87000"/>
      <stop offset="1" stop-color="#ffde00"/>
    </linearGradient>
    <linearGradient id="linear-gradient-3" x1="-0.084" y1="0.5" x2="1.086" y2="0.5" xlink:href="#linear-gradient-2"/>
    <linearGradient id="linear-gradient-4" x1="-0.682" y1="0.5" x2="0.488" y2="0.5" xlink:href="#linear-gradient-2"/>
    <linearGradient id="linear-gradient-5" x1="0.5" y1="1.067" x2="0.5" y2="-1.435" xlink:href="#linear-gradient-2"/>
  </defs>
  <rect id="bg28x28" width="28" height="28" fill="#fff" opacity="0"/>
  <g id="i_rank" transform="translate(4 3)">
    <path id="so06" d="M-2911.4,4747.042c0-3.044-2.879-3.044-4.783-3.044h-10.433c-1.9,0-4.784,0-4.784,3.044,0,2.471,1.867,5.32,4.347,5.625v.436a4.086,4.086,0,0,0,1.542,3.208l.042.036a3.2,3.2,0,0,1,1.2,2.2,3.21,3.21,0,0,1-.733,2.4.431.431,0,0,0-.1.248h-1.178a.438.438,0,0,0-.437.437v2.6a.437.437,0,0,0,.437.437h9.878a.437.437,0,0,0,.436-.437v-2.6a.437.437,0,0,0-.436-.437h-1.295a.435.435,0,0,0-.1-.248,3.208,3.208,0,0,1-.734-2.4,3.208,3.208,0,0,1,1.2-2.2l.044-.036a4.089,4.089,0,0,0,1.542-3.208v-.436C-2913.264,4752.361-2911.4,4749.513-2911.4,4747.042Zm-19.126,0c0-1.742,1.123-2.128,3.474-2.168v6.911C-2929.008,4751.464-2930.522,4749.059-2930.522,4747.042Zm14.779,4.743v-6.911c2.351.04,3.474.427,3.474,2.168C-2912.269,4749.059-2913.784,4751.464-2915.743,4751.784Z" transform="translate(2931.396 -4743.412)" fill="#743e00"/>
    <path id="so05" d="M-2911.4,4745.042c0-3.045-2.879-3.045-4.783-3.045h-10.433c-1.9,0-4.784,0-4.784,3.045,0,2.471,1.867,5.319,4.347,5.625v.435a4.089,4.089,0,0,0,1.542,3.209l.042.034a3.207,3.207,0,0,1,1.2,2.2,3.21,3.21,0,0,1-.733,2.4.433.433,0,0,0-.1.249h-1.178a.437.437,0,0,0-.437.436v2.6a.438.438,0,0,0,.437.438h9.878a.438.438,0,0,0,.436-.437v-2.6a.437.437,0,0,0-.436-.436h-1.295a.437.437,0,0,0-.1-.249,3.208,3.208,0,0,1-.734-2.4,3.21,3.21,0,0,1,1.2-2.2l.044-.035a4.091,4.091,0,0,0,1.542-3.208v-.435C-2913.264,4750.361-2911.4,4747.512-2911.4,4745.042Zm-19.126,0c0-1.742,1.123-2.129,3.474-2.168v6.911C-2929.008,4749.464-2930.522,4747.058-2930.522,4745.042Zm14.779,4.743v-6.911c2.351.039,3.474.426,3.474,2.168C-2912.269,4747.058-2913.784,4749.464-2915.743,4749.784Z" transform="translate(2931.396 -4741.995)" fill="url(#linear-gradient)"/>
    <rect id="so04" width="10.751" height="3.165" rx="1.337" transform="translate(4.683 17.184)" fill="url(#linear-gradient-2)"/>
    <path id="so03" d="M-2877.623,4741.988v.876c2.351.038,3.474.425,3.474,2.167,0,2.017-1.516,4.422-3.474,4.742v.882c2.479-.305,4.347-3.153,4.347-5.624C-2873.276,4742.212-2875.745,4742-2877.623,4741.988Z" transform="translate(2893.276 -4741.988)" fill="url(#linear-gradient-3)"/>
    <path id="so02" d="M-2927.049,4741.988v.876c-2.351.038-3.474.425-3.474,2.167,0,2.017,1.515,4.422,3.474,4.742v.882c-2.48-.305-4.347-3.153-4.347-5.624C-2931.4,4742.212-2928.927,4742-2927.049,4741.988Z" transform="translate(2931.396 -4741.988)" fill="url(#linear-gradient-4)"/>
    <path id="so01" d="M-2902.881,4784.415c-1.91,1.548-6.1,1.513-8.135,0a3.171,3.171,0,0,1,1.2,2.2,3.211,3.211,0,0,1-.734,2.4.43.43,0,0,0-.1.236h7.4a.431.431,0,0,0-.1-.236,3.212,3.212,0,0,1-.734-2.4A3.314,3.314,0,0,1-2902.881,4784.415Z" transform="translate(2916.949 -4772.065)" fill="url(#linear-gradient-5)"/>
  </g>
</svg>
