<svg id="i_gift" xmlns="http://www.w3.org/2000/svg" xmlns:xlink="http://www.w3.org/1999/xlink" width="60" height="60" viewBox="0 0 60 60">
  <defs>
    <linearGradient id="linear-gradient" y1="0.65" x2="1" y2="0.65" gradientUnits="objectBoundingBox">
      <stop offset="0" stop-color="#6e4ef2"/>
      <stop offset="1" stop-color="#ff4060"/>
    </linearGradient>
  </defs>
  <path id="i_gift_title" d="M33.714,60V33h21V56.143c0,2.129-2.269,3.857-4.2,3.857ZM7.3,60c-1.928,0-2.8-1.728-2.8-3.857V33h21V60ZM33.751,27V19.264H25.335V27H1.875C.841,27,0,25.227,0,24.158V19.264A3.816,3.816,0,0,1,3.75,15.4H15.614a15.313,15.313,0,0,1-2.1-1.729,8.277,8.277,0,0,1,0-11.379,7.757,7.757,0,0,1,11,0c1.624,1.681,5.936,8.532,5.343,13.108h.27c-.6-4.576,3.716-11.428,5.343-13.108a7.751,7.751,0,0,1,11,0,8.265,8.265,0,0,1,0,11.379A14.949,14.949,0,0,1,44.385,15.4H56.251A3.813,3.813,0,0,1,60,19.264v5.8A1.906,1.906,0,0,1,58.125,27ZM38.137,5.015C35.61,7.639,33.1,14.337,33.971,15.268c0,.005.157.13.69.13,2.6,0,7.542-2.778,9.157-4.456a4.3,4.3,0,0,0,0-5.926,4,4,0,0,0-5.681,0Zm-21.956,0a4.317,4.317,0,0,0,0,5.926C17.8,12.619,22.745,15.4,25.335,15.4a1.186,1.186,0,0,0,.693-.13c.876-.931-1.638-7.629-4.165-10.253a3.917,3.917,0,0,0-5.682,0Z" transform="translate(0 0)" fill="url(#linear-gradient)"/>
</svg>
