<svg id="i_lock" xmlns="http://www.w3.org/2000/svg" width="15" height="17.813" viewBox="0 0 15 17.813">
  <path id="i_lock-2" data-name="i_lock" d="M1079.593,533.361a.725.725,0,0,0,.024-.178,6.172,6.172,0,0,0-12.339,0,.762.762,0,0,0,.024.178,2.679,2.679,0,0,0-1.355,2.31v6.646a2.743,2.743,0,0,0,2.782,2.7h9.436a2.743,2.743,0,0,0,2.782-2.7v-6.646A2.679,2.679,0,0,0,1079.593,533.361Zm-4.96,8.5a.19.19,0,0,1,.015.073.2.2,0,0,1-.2.192h-1.994a.2.2,0,0,1-.148-.063.189.189,0,0,1-.049-.149l.272-2.511a1.418,1.418,0,0,1-.571-1.129,1.49,1.49,0,0,1,2.979,0,1.418,1.418,0,0,1-.572,1.129Zm-5.754-8.885a4.582,4.582,0,0,1,9.137,0Z" transform="translate(-1065.948 -527.201)" fill="#9378ff"/>
</svg>
