<svg id="i_next_arrow" xmlns="http://www.w3.org/2000/svg" width="28" height="28" viewBox="0 0 28 28">
  <rect id="bg" width="28" height="28" fill="#fff" opacity="0"/>
  <g id="i_next_arrow-2" data-name="i_next_arrow" transform="translate(-591 -242.835)">
    <path id="li01" d="M-1448.686,5054.835l-9.844-9.844a1.264,1.264,0,0,0-1.789,0,1.265,1.265,0,0,0,0,1.79l6.8,6.8h-19.9a1.266,1.266,0,0,0-1.266,1.266,1.266,1.266,0,0,0,1.266,1.265h19.9l-6.8,6.8a1.266,1.266,0,0,0,0,1.79,1.265,1.265,0,0,0,1.789,0l9.844-9.844-.014-.014Z" transform="translate(2066.686 -4797.786)" fill="#fff"/>
  </g>
</svg>
