<svg height="28" viewBox="0 0 28 28" width="28" xmlns="http://www.w3.org/2000/svg"><g fill="#ff4181"><path d="m0 0h28v28h-28z" opacity="0"/><path d="m-1692.9 4920.3h-2.961a2.5 2.5 0 0 0 .285-1.144 2.368 2.368 0 0 0 -2.337-2.4 3.944 3.944 0 0 0 -3.34 2.416 3.949 3.949 0 0 0 -3.345-2.416 2.367 2.367 0 0 0 -2.331 2.4 2.5 2.5 0 0 0 .285 1.144h-2.962a.647.647 0 0 0 -.647.646v4.123a.647.647 0 0 0 .647.648h.453v9.237a.647.647 0 0 0 .648.647h14.5a.647.647 0 0 0 .647-.647v-9.237h.453a.647.647 0 0 0 .647-.648v-4.123a.647.647 0 0 0 -.642-.646zm-.648 4.122h-5.762v-2.822h5.762zm-8.352 0v-2.822h1.295v2.827zm1.295 1.295v8.59h-1.295v-8.59zm2.7-7.662a1.072 1.072 0 0 1 1.036 1.1 1.109 1.109 0 0 1 -1.036 1.144h-2.44c.373-.889 1.15-2.23 2.438-2.241zm-7.727 1.1a1.071 1.071 0 0 1 1.031-1.1c1.3.012 2.078 1.352 2.45 2.245h-2.445a1.109 1.109 0 0 1 -1.038-1.141zm-3.324 2.439h5.763v2.827h-5.763zm1.1 4.122h4.662v8.59h-4.662zm13.209 8.59h-4.662v-8.59h4.662z" transform="translate(1715.253 -4912.163)"/></g></svg>