<svg height="28" viewBox="0 0 28 28" width="28" xmlns="http://www.w3.org/2000/svg"><g fill="#5fe2e8"><path d="m0 0h28v28h-28z" opacity="0"/><path d="m-1504.228 4909.1 2.81-2.823a.524.524 0 0 1 .725 0 .528.528 0 0 1 .141.231v.019l.525 1.95 1.95.525.012.005h.006a.415.415 0 0 1 .226.134.512.512 0 0 1 0 .725l-2.8 2.81a.526.526 0 0 1 -.506.134l-1.578-.421-.805.817a6.643 6.643 0 0 1 1.4 4.108 6.706 6.706 0 0 1 -1.969 4.748l-.024.019a6.671 6.671 0 0 1 -4.73 1.961 6.679 6.679 0 0 1 -4.754-1.98 6.715 6.715 0 0 1 -1.974-4.748 6.723 6.723 0 0 1 1.974-4.76 6.692 6.692 0 0 1 4.754-1.969 6.688 6.688 0 0 1 4.108 1.4l.811-.8-.426-1.591a.493.493 0 0 1 .133-.494zm4.09 5.571a.857.857 0 0 1 .573-1.08.857.857 0 0 1 1.067.573 10.172 10.172 0 0 1 .348 1.554 11.4 11.4 0 0 1 .116 1.6 10.77 10.77 0 0 1 -3.163 7.643 10.851 10.851 0 0 1 -7.655 3.182 10.847 10.847 0 0 1 -7.654-3.182 10.806 10.806 0 0 1 -3.176-7.643 10.86 10.86 0 0 1 3.176-7.667 10.824 10.824 0 0 1 7.654-3.157 9.119 9.119 0 0 1 1.584.122 9.876 9.876 0 0 1 1.561.335.859.859 0 0 1 .573 1.072.864.864 0 0 1 -1.072.572 8.8 8.8 0 0 0 -1.3-.292 8.567 8.567 0 0 0 -1.341-.1 9.036 9.036 0 0 0 -6.436 2.681 9.029 9.029 0 0 0 -2.67 6.437 9.092 9.092 0 0 0 2.67 6.436 9.1 9.1 0 0 0 6.436 2.664 9.107 9.107 0 0 0 6.437-2.664 9.116 9.116 0 0 0 2.669-6.436 9.367 9.367 0 0 0 -.1-1.341 7.853 7.853 0 0 0 -.293-1.3zm-8.716-.451a3.152 3.152 0 0 1 1.5.377l1.877-1.882a5.718 5.718 0 0 0 -3.376-1.091 5.651 5.651 0 0 0 -4.022 1.657 5.665 5.665 0 0 0 -1.67 4.035 5.648 5.648 0 0 0 1.67 4.016 5.637 5.637 0 0 0 4.022 1.676 5.678 5.678 0 0 0 4-1.645l.025-.031a5.64 5.64 0 0 0 1.67-4.016 5.62 5.62 0 0 0 -1.1-3.376l-1.889 1.865a3.18 3.18 0 0 1 .39 1.511 3.123 3.123 0 0 1 -.908 2.182h-.006a3.135 3.135 0 0 1 -2.182.908 3.113 3.113 0 0 1 -2.182-.908 3.079 3.079 0 0 1 -.914-2.182 3.046 3.046 0 0 1 .914-2.182v-.012a3.056 3.056 0 0 1 2.182-.9zm.713 1.146a2.077 2.077 0 0 0 -.713-.122 2.05 2.05 0 0 0 -1.462.609 2.077 2.077 0 0 0 -.6 1.463 2.06 2.06 0 0 0 .6 1.45 2.075 2.075 0 0 0 1.462.61 2.093 2.093 0 0 0 1.457-.6v-.013a2.034 2.034 0 0 0 .6-1.45 2.064 2.064 0 0 0 -.121-.719l-1.329 1.323a.876.876 0 0 1 -1.219 0 .869.869 0 0 1 0-1.213l1.323-1.34zm6.82-7.715-1.975 1.968.305 1.1 1.974-1.974-.3-1.1zm1.024 1.821-1.962 1.981 1.1.292 1.975-1.968-1.11-.306z" transform="translate(1522.683 -4902.529)"/></g></svg>