<svg height="28" viewBox="0 0 28 28" width="28" xmlns="http://www.w3.org/2000/svg"><g fill="#fff"><path d="m0 0h28v28h-28z" opacity="0"/><path d="m-1701.4 5040.969a1.143 1.143 0 0 0 .83.348 1.147 1.147 0 0 0 .837-.348 1.152 1.152 0 0 0 .345-.83 1.191 1.191 0 0 0 -.345-.833h-.005a1.166 1.166 0 0 0 -.831-.345 1.184 1.184 0 0 0 -.83.345h-.005a1.2 1.2 0 0 0 -.345.833 1.2 1.2 0 0 0 .345.83zm.585-1.076a.366.366 0 0 1 .244-.1.362.362 0 0 1 .248.1.311.311 0 0 1 .1.246.306.306 0 0 1 -.1.246.338.338 0 0 1 -.248.105.327.327 0 0 1 -.244-.105.328.328 0 0 1 -.1-.246.334.334 0 0 1 .1-.246zm-.585 4.215a1.166 1.166 0 0 0 .83.341 1.149 1.149 0 0 0 .831-.341h.005a1.194 1.194 0 0 0 .345-.826 1.207 1.207 0 0 0 -.345-.837h-.005a1.149 1.149 0 0 0 -.831-.341 1.166 1.166 0 0 0 -.83.341h-.005a1.215 1.215 0 0 0 -.345.837 1.2 1.2 0 0 0 .345.826zm.585-1.072v-.011a.363.363 0 0 1 .244-.095.359.359 0 0 1 .248.095v.011a.292.292 0 0 1 .1.246.324.324 0 0 1 -.1.243.347.347 0 0 1 -.248.1.35.35 0 0 1 -.244-.1.35.35 0 0 1 -.1-.243.312.312 0 0 1 .1-.246zm5.8-2.067a1.164 1.164 0 0 0 .835.348 1.16 1.16 0 0 0 .842-.348 1.17 1.17 0 0 0 .339-.83 1.172 1.172 0 0 0 -.339-.833 1.211 1.211 0 0 0 -.842-.345 1.17 1.17 0 0 0 -.826.345h-.009a1.214 1.214 0 0 0 -.345.833 1.212 1.212 0 0 0 .345.83zm.589-1.076a.39.39 0 0 1 .246-.1.39.39 0 0 1 .253.1.361.361 0 0 1 .1.246.355.355 0 0 1 -.1.246.347.347 0 0 1 -.253.105.346.346 0 0 1 -.246-.105.329.329 0 0 1 -.091-.246.334.334 0 0 1 .091-.246zm-3.776 1.076a1.131 1.131 0 0 0 .828.348 1.146 1.146 0 0 0 .835-.348 1.167 1.167 0 0 0 .345-.83 1.169 1.169 0 0 0 -.345-.833h-.005a1.166 1.166 0 0 0 -.83-.345 1.18 1.18 0 0 0 -.828.345h-.009a1.213 1.213 0 0 0 -.343.833 1.211 1.211 0 0 0 .343.83zm.582-1.076a.378.378 0 0 1 .246-.1.346.346 0 0 1 .244.1.318.318 0 0 1 .1.246.331.331 0 0 1 -.1.246.311.311 0 0 1 -.244.105.337.337 0 0 1 -.246-.105.334.334 0 0 1 -.1-.246.339.339 0 0 1 .1-.246zm-3.781 7.354a1.165 1.165 0 0 0 .83.341 1.148 1.148 0 0 0 .831-.341h.005a1.186 1.186 0 0 0 .345-.836 1.194 1.194 0 0 0 -.345-.826h-.005a1.146 1.146 0 0 0 -.831-.355 1.163 1.163 0 0 0 -.83.355h-.005a1.2 1.2 0 0 0 -.345.826 1.193 1.193 0 0 0 .345.836zm.585-1.079a.351.351 0 0 1 .244-.1.347.347 0 0 1 .248.1.324.324 0 0 1 .1.243.3.3 0 0 1 -.1.246v.01a.357.357 0 0 1 -.248.1.361.361 0 0 1 -.244-.1v-.01a.323.323 0 0 1 -.1-.246.35.35 0 0 1 .1-.243zm10.158-13.946h-16.623a.684.684 0 0 0 -.689.689v16.625a.689.689 0 0 0 .689.7h16.623a.688.688 0 0 0 .687-.7v-16.625a.684.684 0 0 0 -.687-.689zm-.689 16.625h-15.247v-11.193h15.247zm0-12.03h-15.247v-3.217h1.368v1.034a.69.69 0 0 0 .7.689.691.691 0 0 0 .687-.689v-1.034h2.317v1.034a.7.7 0 0 0 .7.689.689.689 0 0 0 .693-.689v-1.034h2.331v1.034a.682.682 0 0 0 .689.689.689.689 0 0 0 .693-.689v-1.034h2.32v1.034a.69.69 0 0 0 .694.689.7.7 0 0 0 .7-.689v-1.034h1.362v3.213zm-6.855 10.431a1.161 1.161 0 0 0 .828.341 1.147 1.147 0 0 0 .83-.341h.005a1.164 1.164 0 0 0 .345-.836 1.171 1.171 0 0 0 -.345-.826h-.005a1.145 1.145 0 0 0 -.83-.355 1.159 1.159 0 0 0 -.828.355h-.009a1.216 1.216 0 0 0 -.343.826 1.207 1.207 0 0 0 .343.836zm.582-1.079a.362.362 0 0 1 .246-.1.333.333 0 0 1 .244.1.332.332 0 0 1 .1.243.308.308 0 0 1 -.1.246v.01a.342.342 0 0 1 -.244.1.373.373 0 0 1 -.246-.1v-.01a.328.328 0 0 1 -.1-.246.356.356 0 0 1 .1-.243zm-6.982-2.06a1.189 1.189 0 0 0 .837.341 1.148 1.148 0 0 0 .824-.341h.01a1.178 1.178 0 0 0 .343-.826 1.191 1.191 0 0 0 -.343-.837h-.01a1.148 1.148 0 0 0 -.824-.341 1.189 1.189 0 0 0 -.837.341 1.192 1.192 0 0 0 -.345.837 1.179 1.179 0 0 0 .345.826zm.591-1.072v-.011a.365.365 0 0 1 .246-.095.358.358 0 0 1 .246.095v.011a.316.316 0 0 1 .1.246.354.354 0 0 1 -.1.243.345.345 0 0 1 -.246.1.352.352 0 0 1 -.246-.1.354.354 0 0 1 -.1-.243.314.314 0 0 1 .1-.246zm-.591 4.211a1.187 1.187 0 0 0 .837.341 1.147 1.147 0 0 0 .824-.341h.01a1.17 1.17 0 0 0 .343-.836 1.178 1.178 0 0 0 -.343-.826h-.01a1.145 1.145 0 0 0 -.824-.355 1.186 1.186 0 0 0 -.837.355 1.179 1.179 0 0 0 -.345.826 1.171 1.171 0 0 0 .345.836zm.591-1.079a.352.352 0 0 1 .246-.1.346.346 0 0 1 .246.1.354.354 0 0 1 .1.243.327.327 0 0 1 -.1.246v.01a.356.356 0 0 1 -.246.1.363.363 0 0 1 -.246-.1v-.01a.326.326 0 0 1 -.1-.246.354.354 0 0 1 .1-.243zm5.809-2.06a1.162 1.162 0 0 0 .828.341 1.148 1.148 0 0 0 .83-.341h.005a1.171 1.171 0 0 0 .345-.826 1.185 1.185 0 0 0 -.345-.837h-.005a1.148 1.148 0 0 0 -.83-.341 1.162 1.162 0 0 0 -.828.341h-.009a1.23 1.23 0 0 0 -.343.837 1.216 1.216 0 0 0 .343.826zm.582-1.072v-.011a.375.375 0 0 1 .246-.095.344.344 0 0 1 .244.095v.011a.3.3 0 0 1 .1.246.332.332 0 0 1 -.1.243.332.332 0 0 1 -.244.1.361.361 0 0 1 -.246-.1.356.356 0 0 1 -.1-.243.317.317 0 0 1 .1-.246zm2.614 1.072a1.152 1.152 0 0 0 .826.341 1.193 1.193 0 0 0 .842-.341 1.175 1.175 0 0 0 .339-.826 1.188 1.188 0 0 0 -.339-.837 1.193 1.193 0 0 0 -.842-.341 1.152 1.152 0 0 0 -.826.341h-.009a1.231 1.231 0 0 0 -.345.837 1.218 1.218 0 0 0 .345.826zm.58-1.072v-.011a.386.386 0 0 1 .246-.095.387.387 0 0 1 .253.095v.011a.336.336 0 0 1 .1.246.381.381 0 0 1 -.1.243.373.373 0 0 1 -.253.1.372.372 0 0 1 -.246-.1.349.349 0 0 1 -.091-.243.313.313 0 0 1 .091-.246z" transform="translate(1712.968 -5027.223)"/></g></svg>