<svg height="28" viewBox="0 0 28 28" width="28" xmlns="http://www.w3.org/2000/svg"><g fill="#b164ff"><path d="m0 0h28v28h-28z" opacity="0"/><path d="m-2023.851 5013.46 1.213 1.75-.468 1.1a.26.26 0 0 0 .055.283.446.446 0 0 0 .325.131h.053a.384.384 0 0 0 .4-.268l.224-1.167 2.2-.492-1.8 3.636a21.1 21.1 0 0 0 -2.2-.152 21.1 21.1 0 0 0 -2.2.152l-1.8-3.636 2.2.492.224 1.167a.385.385 0 0 0 .4.268h.053a.445.445 0 0 0 .325-.131.26.26 0 0 0 .055-.283l-.469-1.1z" transform="translate(2037.6 -5013.46)"/><path d="m-2033.1 5058.9a10.18 10.18 0 0 1 -10.168-10.167 10.179 10.179 0 0 1 10.168-10.168 10.179 10.179 0 0 1 10.167 10.168 10.18 10.18 0 0 1 -10.167 10.167zm0-18.809a8.651 8.651 0 0 0 -8.641 8.642 8.65 8.65 0 0 0 8.641 8.64 8.65 8.65 0 0 0 8.641-8.64 8.651 8.651 0 0 0 -8.641-8.639z" transform="translate(2047.099 -5032.904)"/><circle cx="17.75" cy="13.365" r="1.551"/><circle cx="10.731" cy="13.365" r="1.551"/><path d="m-2021.534 5079.81c-2.852 0-5.085-1.61-5.085-3.666a.611.611 0 0 1 .61-.611.611.611 0 0 1 .61.611c0 1.325 1.77 2.444 3.864 2.444s3.864-1.12 3.864-2.444a.611.611 0 0 1 .61-.611.611.611 0 0 1 .61.611c.001 2.056-2.232 3.666-5.083 3.666z" transform="translate(2035.534 -5058.583)"/></g></svg>