<svg id="i_ticketbox" xmlns="http://www.w3.org/2000/svg" width="28" height="25.484" viewBox="0 0 28 25.484">
  <g id="组_8864" data-name="组 8864">
    <path id="路径_5637" data-name="路径 5637" d="M-936.028,1753.422a2.915,2.915,0,0,1-2.46-1.336l-1.347-2.084a.746.746,0,0,1,.222-1.03,2.2,2.2,0,0,0,.962-1.394,2.2,2.2,0,0,0-.3-1.667,2.209,2.209,0,0,0-1.864-1.011,2.2,2.2,0,0,0-1.2.354.745.745,0,0,1-.4.119.745.745,0,0,1-.626-.34l-1.346-2.086a2.926,2.926,0,0,1,.869-4.042l16.25-10.5a2.911,2.911,0,0,1,1.582-.467,2.916,2.916,0,0,1,2.46,1.336l1.349,2.087a.749.749,0,0,1-.211,1.023,2.224,2.224,0,0,0-.625,3.038,2.208,2.208,0,0,0,1.866,1.007,2.192,2.192,0,0,0,1.16-.331.747.747,0,0,1,.393-.112.742.742,0,0,1,.626.34l1.349,2.087a2.9,2.9,0,0,1,.4,2.2,2.9,2.9,0,0,1-1.27,1.841l-16.249,10.5A2.906,2.906,0,0,1-936.028,1753.422Zm-1.208-2.145a1.429,1.429,0,0,0,1.206.655h0a1.427,1.427,0,0,0,.775-.229l16.249-10.5a1.434,1.434,0,0,0,.426-1.981l-.991-1.534a3.663,3.663,0,0,1-1.28.228,3.7,3.7,0,0,1-3.121-1.687,3.743,3.743,0,0,1,.479-4.613l-.992-1.535a1.429,1.429,0,0,0-1.207-.655,1.426,1.426,0,0,0-.775.229l-16.249,10.5a1.421,1.421,0,0,0-.623.9,1.422,1.422,0,0,0,.2,1.079l.983,1.522a3.661,3.661,0,0,1,1.339-.251,3.693,3.693,0,0,1,3.116,1.693,3.731,3.731,0,0,1-.516,4.654Z" transform="translate(944.86 -1727.938)" fill="#fff"/>
    <path id="路径_5638" data-name="路径 5638" d="M-918.125,1742.465l-16.249,10.5a2.713,2.713,0,0,1-3.748-.806l-1.346-2.084a.532.532,0,0,1,.158-.736,2.431,2.431,0,0,0,.722-3.356,2.43,2.43,0,0,0-3.356-.721.532.532,0,0,1-.735-.159l-1.348-2.085a2.714,2.714,0,0,1,.806-3.748l16.249-10.5a2.713,2.713,0,0,1,3.747.806l1.349,2.087a.533.533,0,0,1-.151.731,2.437,2.437,0,0,0-.685,3.33,2.437,2.437,0,0,0,3.316.742.533.533,0,0,1,.728.163l1.349,2.087A2.713,2.713,0,0,1-918.125,1742.465Zm-20.182,7.443,1.08,1.672a1.648,1.648,0,0,0,2.276.489l16.249-10.5a1.648,1.648,0,0,0,.49-2.276l-1.087-1.681a3.509,3.509,0,0,1-4.306-1.312,3.51,3.51,0,0,1,.574-4.466l-1.087-1.681a1.648,1.648,0,0,0-2.276-.49l-16.249,10.5a1.649,1.649,0,0,0-.49,2.276l1.08,1.672a3.5,3.5,0,0,1,4.359,1.292A3.5,3.5,0,0,1-938.308,1749.909Z" transform="translate(944.673 -1728.125)" fill="#fff"/>
  </g>
  <g id="组_8865" data-name="组 8865" transform="translate(14.245 2.636)">
    <path id="路径_5639" data-name="路径 5639" d="M-909,1746.671a.532.532,0,0,1-.736-.158l-8.27-12.8a.533.533,0,0,1,.158-.736.532.532,0,0,1,.736.159l8.27,12.8A.533.533,0,0,1-909,1746.671Z" transform="translate(918.093 -1732.892)" fill="#fff"/>
  </g>
  <g id="组_8866" data-name="组 8866" transform="translate(7.814 8.085)">
    <path id="路径_5640" data-name="路径 5640" d="M-922.859,1744.11l-6.5,4.2a.532.532,0,0,1-.736-.159.531.531,0,0,1,.158-.735l6.5-4.2a.532.532,0,0,1,.736.158A.532.532,0,0,1-922.859,1744.11Z" transform="translate(930.176 -1743.131)" fill="#fff"/>
  </g>
  <g id="组_8867" data-name="组 8867" transform="translate(9.579 12.454)">
    <path id="路径_5641" data-name="路径 5641" d="M-922.078,1752.318l-3.962,2.56a.532.532,0,0,1-.736-.158.532.532,0,0,1,.159-.736l3.962-2.56a.532.532,0,0,1,.736.158A.532.532,0,0,1-922.078,1752.318Z" transform="translate(926.861 -1751.339)" fill="#fff"/>
  </g>
  <g id="组_8868" data-name="组 8868" transform="translate(11.343 14.366)">
    <path id="路径_5642" data-name="路径 5642" d="M-917.495,1755.911l-5.23,3.379a.532.532,0,0,1-.736-.158.532.532,0,0,1,.158-.736l5.229-3.379a.533.533,0,0,1,.736.158A.532.532,0,0,1-917.495,1755.911Z" transform="translate(923.545 -1754.932)" fill="#fff"/>
  </g>
</svg>
