<svg width="24" height="24" viewBox="0 0 24 24" fill="none" xmlns="http://www.w3.org/2000/svg">
<g clip-path="url(#clip0_1146_2740)">
<path d="M12.1516 6.896C11.2036 6.896 9.73662 5.818 8.19162 5.856C6.15162 5.883 4.28162 7.039 3.23062 8.87C1.11362 12.545 2.68462 17.973 4.74962 20.96C5.76262 22.414 6.95762 24.05 8.54162 23.999C10.0616 23.934 10.6316 23.012 12.4766 23.012C14.3076 23.012 14.8266 23.999 16.4366 23.96C18.0736 23.934 19.1126 22.48 20.1126 21.012C21.2686 19.324 21.7486 17.687 21.7746 17.597C21.7356 17.584 18.5926 16.376 18.5546 12.74C18.5286 9.7 21.0346 8.246 21.1516 8.181C19.7226 6.091 17.5286 5.857 16.7616 5.805C14.7616 5.649 13.0866 6.896 12.1516 6.896ZM15.5296 3.83C16.3726 2.818 16.9296 1.403 16.7746 0C15.5676 0.052 14.1126 0.805 13.2426 1.818C12.4626 2.714 11.7886 4.156 11.9696 5.532C13.3076 5.636 14.6846 4.844 15.5286 3.831" fill="currentColor"/>
</g>
<defs>
<clipPath id="clip0_1146_2740">
<rect width="24" height="24" fill="white"/>
</clipPath>
</defs>
</svg>
