<svg width="35" height="35" viewBox="0 0 35 35" fill="none" xmlns="http://www.w3.org/2000/svg">
<g clip-path="url(#clip0_996_13942)">
<path d="M3.65999 22.5816C3.25277 22.5816 2.92188 22.2511 2.92188 21.8438V5.8689L2.94484 5.76984C2.95657 5.67949 2.96317 5.63514 2.97738 5.59868C2.98614 5.57727 3.00117 5.55428 3.02033 5.52815L3.08608 5.42036C3.14638 5.34349 3.171 5.32763 3.19958 5.30861C3.20354 5.30705 3.29324 5.24364 3.29556 5.24126C3.32199 5.22225 3.34561 5.204 3.36461 5.1953L3.48355 5.16991C3.5797 5.14141 3.60828 5.13267 3.62959 5.13191L25.5411 5.1311C25.6474 5.13428 25.7458 5.15568 25.8387 5.19689L25.9236 5.2571C26.0014 5.30466 26.0419 5.32922 26.0713 5.35934C26.0734 5.3633 26.1473 5.47821 26.1497 5.48138C26.2004 5.55508 26.2163 5.57727 26.2242 5.59709C26.2394 5.63514 26.2449 5.68108 26.252 5.73499L26.2728 5.8388L26.2791 21.8438C26.2791 22.2511 25.9482 22.5816 25.5411 22.5816H3.65999ZM4.55735 7.75978C4.53587 7.75978 4.5144 7.76452 4.49391 7.77325C4.43593 7.79859 4.39876 7.85485 4.39876 7.91828V20.9475C4.39876 21.0347 4.47012 21.106 4.55735 21.106H24.6443C24.7315 21.106 24.803 21.0347 24.803 20.9475V7.91589C24.803 7.85328 24.7659 7.79624 24.7077 7.77088C24.6879 7.76215 24.6657 7.75739 24.6443 7.75739C24.6046 7.75739 24.5666 7.77244 24.5364 7.8002L15.1017 16.5048C14.9666 16.6317 14.7888 16.7006 14.6008 16.7006C14.412 16.7006 14.2341 16.6308 14.0976 16.5033L4.66539 7.80177C4.63532 7.77403 4.597 7.75978 4.55735 7.75978ZM5.95411 6.6067C5.88902 6.6067 5.83037 6.64712 5.80659 6.70816C5.78263 6.76838 5.79866 6.83734 5.84623 6.88171L14.4931 14.8589C14.5232 14.8866 14.562 14.9008 14.6008 14.9008C14.639 14.9008 14.6778 14.8866 14.7079 14.8589L23.3547 6.88171C23.4023 6.83734 23.4182 6.76838 23.3952 6.70816C23.3706 6.64712 23.3118 6.6067 23.2468 6.6067H5.95411Z" fill="currentColor"/>
<path d="M33.9952 12.1783C33.9961 12.1244 33.9969 12.0776 33.9883 12.0388C33.9833 12.0181 33.9706 11.9936 33.9318 11.9127C33.9301 11.9095 33.8729 11.7843 33.8713 11.7803C33.8468 11.7462 33.8105 11.7161 33.7412 11.6575L33.6659 11.5861C33.5801 11.5306 33.4864 11.495 33.3808 11.4767L25.8964 10.3574C25.8981 10.8584 25.9116 11.3578 25.9417 11.8572L30.8931 12.5968C30.9572 12.6063 31.0097 12.6547 31.0239 12.7189C31.0382 12.7823 31.0127 12.8481 30.9588 12.8846L26.0332 16.2298L26.0346 16.2369C26.0379 16.8013 26.1545 17.3633 26.1744 17.919L31.9917 13.9682C32.0257 13.9452 32.0654 13.9365 32.1044 13.942C32.1257 13.9452 32.1464 13.9531 32.1655 13.965C32.2187 13.9983 32.2472 14.0601 32.2377 14.122L30.3054 27.0137C30.2922 27.1001 30.2111 27.1604 30.1246 27.1469L10.253 24.1766C10.1666 24.1631 10.1063 24.0823 10.1188 23.9959L10.3548 22.4255H8.86073L8.52477 24.6641C8.46462 25.0668 8.74324 25.4434 9.14563 25.5036L30.7929 28.7394C31.1961 28.7997 31.5726 28.5214 31.6327 28.1187L34 12.2853L33.9952 12.1783Z" fill="currentColor"/>
</g>
<defs>
<clipPath id="clip0_996_13942">
<rect width="35" height="35" fill="white"/>
</clipPath>
</defs>
</svg>
