<svg width="37" height="37" viewBox="0 0 37 37" fill="none" xmlns="http://www.w3.org/2000/svg">
<g clip-path="url(#clip0_996_13789)">
<path d="M28.0305 33H8.96912C5.67752 33 3 30.3416 3 27.0743V13.5993C3 10.3319 5.67752 7.67346 8.96912 7.67346H11.4089C12.3509 6.03219 14.1099 5 16.0445 5H21.0085C22.942 5 24.7023 6.03219 25.6439 7.67346H28.0305C31.3225 7.67346 34 10.3319 34 13.5993V27.0743C34 30.3416 31.3225 33 28.0305 33ZM8.96912 9.45948C6.6696 9.45948 4.79875 11.3169 4.79875 13.5993V27.0743C4.79875 29.3567 6.6696 31.214 8.96912 31.214H28.0305C30.3304 31.214 32.201 29.3567 32.201 27.0743V13.5993C32.201 11.3169 30.3304 9.45948 28.0305 9.45948H24.4944L24.2606 8.91751C23.7028 7.62263 22.4259 6.78592 21.0085 6.78592H16.0445C14.6265 6.78592 13.3502 7.62263 12.7916 8.91751L12.5588 9.45948H8.96912ZM18.5 27.3903C14.3063 27.3903 10.8946 24.0023 10.8946 19.8385C10.8946 15.6755 14.3063 12.2875 18.5 12.2875C22.6937 12.2875 26.1054 15.6755 26.1054 19.8385C26.1054 24.0023 22.6937 27.3903 18.5 27.3903ZM18.5 14.0733C15.2982 14.0733 12.6934 16.6594 12.6934 19.8385C12.6934 23.0173 15.2982 25.6043 18.5 25.6043C21.7016 25.6043 24.3066 23.0173 24.3066 19.8385C24.3066 16.6594 21.7016 14.0733 18.5 14.0733Z" fill="currentColor"/>
</g>
<defs>
<clipPath id="clip0_996_13789">
<rect width="37" height="37" fill="white"/>
</clipPath>
</defs>
</svg>
