<svg height="28" viewBox="0 0 28 28" width="28" xmlns="http://www.w3.org/2000/svg"><g fill="#69557d"><path d="m0 0h28v28h-28z" opacity="0"/><path d="m1086.1 1264.486a1.243 1.243 0 0 1 -1.049-.7l-2.237-3.875h-3.078a3.641 3.641 0 0 1 -3.637-3.636v-6.875a3.641 3.641 0 0 1 3.637-3.637h12.726a3.641 3.641 0 0 1 3.637 3.637v6.872a3.641 3.641 0 0 1 -3.637 3.636h-3.078l-2.237 3.875a1.243 1.243 0 0 1 -1.047.703zm-.3-1.132a.667.667 0 0 0 .189.223l.108.074.107-.075a.678.678 0 0 0 .187-.223l2.488-4.309h3.579a2.771 2.771 0 0 0 2.768-2.768v-6.876a2.771 2.771 0 0 0 -2.768-2.768h-12.726a2.771 2.771 0 0 0 -2.768 2.768v6.872a2.771 2.771 0 0 0 2.768 2.768h3.579z" transform="translate(-1072.1 -1240.768)"/><path d="m1099.127 1254.835a1.925 1.925 0 1 1 -1.925-1.925 1.925 1.925 0 0 1 1.925 1.925z" transform="translate(-1083.201 -1244.902)"/><path d="m1096.492 1263.452h-3.146a2.324 2.324 0 0 0 -2.013 2.541v.7h7.172v-.7a2.324 2.324 0 0 0 -2.013-2.541z" transform="translate(-1080.918 -1251.005)"/></g></svg>