<svg width="33" height="35" viewBox="0 0 33 35" fill="none" xmlns="http://www.w3.org/2000/svg">
<g clip-path="url(#clip0_996_13747)">
<path d="M28.7152 32H4.28489C3.88737 32 3.56445 31.6793 3.56445 31.2835V29.6608C3.56445 24.0832 7.03777 20.1873 12.0108 20.1873H20.9906C25.9631 20.1873 29.4356 24.0832 29.4356 29.6608V31.2835C29.4356 31.6793 29.1141 32 28.7152 32ZM5.00534 30.5672H27.9949V29.6608C27.9949 25.6582 25.829 21.6207 20.9906 21.6207H12.0108C7.171 21.6207 5.00534 25.6582 5.00534 29.6608V30.5672Z" fill="currentColor"/>
<path d="M16.5 18.8685C12.1074 18.8685 8.5332 15.2946 8.5332 10.901C8.5332 6.50788 12.1074 2.93457 16.5 2.93457C20.8925 2.93457 24.4657 6.50788 24.4657 10.901C24.4657 15.2946 20.8925 18.8685 16.5 18.8685ZM16.5 4.37133C12.9005 4.37133 9.96997 7.30116 9.96997 10.901C9.96997 14.5023 12.9005 17.4317 16.5 17.4317C20.1002 17.4317 23.0293 14.5023 23.0293 10.901C23.0293 7.30116 20.1002 4.37133 16.5 4.37133Z" fill="currentColor"/>
</g>
<defs>
<clipPath id="clip0_996_13747">
<rect width="33" height="35" fill="white"/>
</clipPath>
</defs>
</svg>
