<svg height="28" viewBox="0 0 28 28" width="28" xmlns="http://www.w3.org/2000/svg"><g fill="currentColor"><path d="m0 0h28v28h-28z" opacity="0"/><g transform="translate(-1144.838 -1239.741)"><path d="m1164.556 1239.741h-11.3a2.42 2.42 0 0 0 -2.417 2.418v23.164a2.42 2.42 0 0 0 2.417 2.418h11.3a2.421 2.421 0 0 0 2.418-2.418v-23.164a2.421 2.421 0 0 0 -2.418-2.418zm-12.75 3.868h14.2v18.329h-14.2zm14.2 21.714a1.451 1.451 0 0 1 -1.451 1.451h-11.3a1.45 1.45 0 0 1 -1.45-1.451v-2.417h14.2zm-14.2-22.681v-.484a1.45 1.45 0 0 1 1.45-1.45h11.3a1.45 1.45 0 0 1 1.451 1.45v.484z"/><path d="m1164.472 1288.251a1.45 1.45 0 1 0 -1.45-1.451 1.45 1.45 0 0 0 1.45 1.451zm0-1.934a.483.483 0 1 1 -.483.483.484.484 0 0 1 .483-.483z" transform="translate(-5.597 -21.961)"/><path d="m1165.367 1242.424h-.967a.484.484 0 0 0 0 .967h.967a.484.484 0 0 0 0-.967z" transform="translate(-6.008 -1.233)"/></g></g></svg>