<svg height="28" viewBox="0 0 28 28" width="28" xmlns="http://www.w3.org/2000/svg" xmlns:xlink="http://www.w3.org/1999/xlink"><linearGradient id="a" gradientUnits="objectBoundingBox" x1=".5" x2=".5" y2="1"><stop offset="0" stop-color="#15baff"/><stop offset="1" stop-color="#0095ff"/></linearGradient><path d="m0 0h28v28h-28z" fill="#fff" opacity="0"/><rect fill="url(#a)" height="28" rx="6" width="28"/><path d="m-865.715-59.845a.5.5 0 0 0 -.163.392.5.5 0 0 0 .2.374l5.77 4.245c.711.4 1.214.188 1.406-.656l2.549-11.947c.226-1.053-.381-1.465-1.075-1.207l-14.985 5.744c-1.023.4-1.007.967-.174 1.226l3.583 1.115a.567.567 0 0 0 .469-.061l8.68-5.432c.419-.277.8-.123.486.153zm-.452.406" fill="#fff" transform="translate(877.797 75.717)"/></svg>