<svg height="28" viewBox="0 0 28 28" width="28" xmlns="http://www.w3.org/2000/svg"><g fill="currentColor"><path d="m0 0h28v28h-28z" opacity="0"/><g transform="translate(2300.854 -2226.957)"><path d="m-2286.854 2253.957a13.015 13.015 0 0 1 -13-13 13.015 13.015 0 0 1 13-13 13.015 13.015 0 0 1 13 13 13.015 13.015 0 0 1 -13 13zm0-24.5a11.515 11.515 0 0 0 -11.5 11.5 11.514 11.514 0 0 0 11.5 11.5 11.514 11.514 0 0 0 11.5-11.5 11.514 11.514 0 0 0 -11.5-11.501z"/><path d="m-2278.516 2237.126-8.468 10.494a1.126 1.126 0 0 1 -.8.416h-.075a1.124 1.124 0 0 1 -.774-.309l-5.4-5.123a1.125 1.125 0 0 1 -.043-1.59 1.125 1.125 0 0 1 1.59-.042l4.515 4.284 7.7-9.546a1.123 1.123 0 0 1 1.581-.169 1.124 1.124 0 0 1 .174 1.585z" transform="translate(-.529 -.709)"/></g></g></svg>
