<svg width="20" height="20" viewBox="0 0 20 20" fill="none" xmlns="http://www.w3.org/2000/svg">
<path d="M2.5 8.33317C2.5 5.19067 2.5 3.619 3.47667 2.64317C4.45333 1.66734 6.02417 1.6665 9.16667 1.6665H10.8333C13.9758 1.6665 15.5475 1.6665 16.5233 2.64317C17.4992 3.61984 17.5 5.19067 17.5 8.33317V11.6665C17.5 14.809 17.5 16.3807 16.5233 17.3565C15.5467 18.3323 13.9758 18.3332 10.8333 18.3332H9.16667C6.02417 18.3332 4.4525 18.3332 3.47667 17.3565C2.50083 16.3798 2.5 14.809 2.5 11.6665V8.33317Z" fill="#8492AA"/>
<path fill-rule="evenodd" clip-rule="evenodd" d="M6.04175 8.3335C6.04175 8.16774 6.1076 8.00876 6.22481 7.89155C6.34202 7.77434 6.50099 7.7085 6.66675 7.7085H13.3334C13.4992 7.7085 13.6581 7.77434 13.7754 7.89155C13.8926 8.00876 13.9584 8.16774 13.9584 8.3335C13.9584 8.49926 13.8926 8.65823 13.7754 8.77544C13.6581 8.89265 13.4992 8.9585 13.3334 8.9585H6.66675C6.50099 8.9585 6.34202 8.89265 6.22481 8.77544C6.1076 8.65823 6.04175 8.49926 6.04175 8.3335ZM6.04175 11.6668C6.04175 11.5011 6.1076 11.3421 6.22481 11.2249C6.34202 11.1077 6.50099 11.0418 6.66675 11.0418H10.8334C10.9992 11.0418 11.1581 11.1077 11.2754 11.2249C11.3926 11.3421 11.4584 11.5011 11.4584 11.6668C11.4584 11.8326 11.3926 11.9916 11.2754 12.1088C11.1581 12.226 10.9992 12.2918 10.8334 12.2918H6.66675C6.50099 12.2918 6.34202 12.226 6.22481 12.1088C6.1076 11.9916 6.04175 11.8326 6.04175 11.6668Z" fill="#CAD6EA"/>
</svg>
