<svg width="20" height="20" viewBox="0 0 20 20" fill="none" xmlns="http://www.w3.org/2000/svg">
<path d="M2.5 8.33317C2.5 5.19067 2.5 3.619 3.47667 2.64317C4.45333 1.66734 6.02417 1.6665 9.16667 1.6665H10.8333C13.9758 1.6665 15.5475 1.6665 16.5233 2.64317C17.4992 3.61984 17.5 5.19067 17.5 8.33317V11.6665C17.5 14.809 17.5 16.3807 16.5233 17.3565C15.5467 18.3323 13.9758 18.3332 10.8333 18.3332H9.16667C6.02417 18.3332 4.4525 18.3332 3.47667 17.3565C2.50083 16.3798 2.5 14.809 2.5 11.6665V8.33317Z" fill="#B4C9EE"/>
<path fill-rule="evenodd" clip-rule="evenodd" d="M6.04163 8.3335C6.04163 8.16774 6.10747 8.00876 6.22468 7.89155C6.34189 7.77434 6.50087 7.7085 6.66663 7.7085H13.3333C13.4991 7.7085 13.658 7.77434 13.7752 7.89155C13.8924 8.00876 13.9583 8.16774 13.9583 8.3335C13.9583 8.49926 13.8924 8.65823 13.7752 8.77544C13.658 8.89265 13.4991 8.9585 13.3333 8.9585H6.66663C6.50087 8.9585 6.34189 8.89265 6.22468 8.77544C6.10747 8.65823 6.04163 8.49926 6.04163 8.3335ZM6.04163 11.6668C6.04163 11.5011 6.10747 11.3421 6.22468 11.2249C6.34189 11.1077 6.50087 11.0418 6.66663 11.0418H10.8333C10.9991 11.0418 11.158 11.1077 11.2752 11.2249C11.3924 11.3421 11.4583 11.5011 11.4583 11.6668C11.4583 11.8326 11.3924 11.9916 11.2752 12.1088C11.158 12.226 10.9991 12.2918 10.8333 12.2918H6.66663C6.50087 12.2918 6.34189 12.226 6.22468 12.1088C6.10747 11.9916 6.04163 11.8326 6.04163 11.6668Z" fill="white"/>
</svg>
