<svg width="20" height="20" viewBox="0 0 20 20" fill="none" xmlns="http://www.w3.org/2000/svg">
<path d="M7.65718 14.3144C5.79659 14.3144 4.22208 13.6698 2.93366 12.3807C1.64524 11.0916 1.00068 9.5171 1 7.65718C0.999318 5.79727 1.64387 4.22276 2.93366 2.93366C4.22344 1.64455 5.79795 1 7.65718 1C9.51642 1 11.0913 1.64455 12.3817 2.93366C13.6722 4.22276 14.3164 5.79727 14.3144 7.65718C14.3144 8.40825 14.1949 9.11664 13.9559 9.78236C13.7169 10.4481 13.3926 11.037 12.9829 11.5491L18.7183 17.2845C18.9061 17.4723 19 17.7112 19 18.0014C19 18.2916 18.9061 18.5306 18.7183 18.7183C18.5306 18.9061 18.2916 19 18.0014 19C17.7112 19 17.4723 18.9061 17.2845 18.7183L11.5491 12.9829C11.037 13.3926 10.4481 13.7169 9.78236 13.9559C9.11664 14.1949 8.40825 14.3144 7.65718 14.3144ZM7.65718 12.266C8.93741 12.266 10.0258 11.8181 10.9223 10.9223C11.8188 10.0265 12.2667 8.93809 12.266 7.65718C12.2653 6.37627 11.8174 5.28825 10.9223 4.39312C10.0271 3.49798 8.93878 3.04973 7.65718 3.04836C6.37559 3.047 5.28757 3.49525 4.39312 4.39312C3.49866 5.29098 3.05041 6.379 3.04836 7.65718C3.04632 8.93536 3.49457 10.0237 4.39312 10.9223C5.29167 11.8208 6.37969 12.2687 7.65718 12.266Z" fill="#7C7ED7"/>
</svg>
