<svg id="icon_h5" xmlns="http://www.w3.org/2000/svg" width="28" height="28" viewBox="0 0 28 28">
  <rect id="bg28x28" width="28" height="28" fill="#fff" opacity="0"/>
  <path id="i_h5" d="M.346,0A.345.345,0,0,0,.107.081.3.3,0,0,0,0,.3H0L1.744,18.6a.575.575,0,0,0,.406.451l7.4,2.07a2.165,2.165,0,0,0,.737,0L17.719,19.2a.559.559,0,0,0,.391-.451L19.851.349a.3.3,0,0,0-.071-.234A.338.338,0,0,0,19.551,0ZM16.129,4.225V6.253H6.782a.345.345,0,0,0-.239.081.3.3,0,0,0-.107.215h0L6.6,8.239a.411.411,0,0,0,.406.349h8.379a.291.291,0,0,1,.3.281h0v.66l-.646,5.521v.55c0,.116-.18.239-.391.3l-4.376,1.127-.361.1-.372-.1L5.163,15.881a.551.551,0,0,1-.391-.394l-.256-3.014a.282.282,0,0,1,.06-.222.321.321,0,0,1,.211-.116h1.8a.411.411,0,0,1,.406.349L7.1,13.653a.566.566,0,0,0,.421.423l2.045.521.364.107.372-.1,2.03-.521a.562.562,0,0,0,.406-.437l.211-2.38a.282.282,0,0,0-.06-.222.321.321,0,0,0-.211-.116H4.721a.411.411,0,0,1-.406-.349L3.759,4.872V4.225a.3.3,0,0,1,.3-.31H15.788a.311.311,0,0,1,.341.268h0Z" transform="translate(4 3.275)" fill="#fff"/>
</svg>
