<svg id="icon_ios" xmlns="http://www.w3.org/2000/svg" width="28" height="28" viewBox="0 0 28 28">
  <rect id="bg28x28" width="28" height="28" fill="#fff" opacity="0"/>
  <path id="i_mac" d="M-685.855-282.677a3.823,3.823,0,0,1-2.161-1.584A14.525,14.525,0,0,1-691-292.2v-.982a6.558,6.558,0,0,1,2.641-5.239,4.2,4.2,0,0,1,2.984-.733,6.274,6.274,0,0,1,1.456.445,4.176,4.176,0,0,0,1.51.418,3.453,3.453,0,0,0,1.033-.34,6.056,6.056,0,0,1,3.3-.63,4.554,4.554,0,0,1,3.36,2.149,4.7,4.7,0,0,0-2.185,4.571,4.673,4.673,0,0,0,2.688,4.06,13.2,13.2,0,0,1-1.719,3.522c-.651.957-1.448,2.254-2.886,2.254-1.232,0-2.051-.852-3.327-.877s-2.075.72-3.3.9Zm3.472-16.828a4.137,4.137,0,0,1,1.03-3.055,4.434,4.434,0,0,1,2.61-1.44h.124a4.226,4.226,0,0,1-1.008,3.148,3.1,3.1,0,0,1-2.546,1.354q-.106,0-.212-.006Z" transform="translate(696 306.274)" fill="#fff"/>
</svg>
