<svg id="icon_android" xmlns="http://www.w3.org/2000/svg" width="28" height="28" viewBox="0 0 28 28">
  <rect id="bg28x28" width="28" height="28" fill="#fff" opacity="0"/>
  <path id="i_android" d="M3.737,16.779a.884.884,0,0,0,.83.928h1.07v3.247A1.4,1.4,0,0,0,6.329,22.2a1.417,1.417,0,0,0,1.432,0,1.4,1.4,0,0,0,.692-1.245V17.646h1.812v3.247a1.409,1.409,0,0,0,2.816,0V17.646h.933a.885.885,0,0,0,.916-.8V7.457H3.661ZM1.408,7.453A1.4,1.4,0,0,0,0,8.852v6.53a1.4,1.4,0,0,0,.692,1.245,1.417,1.417,0,0,0,1.432,0,1.4,1.4,0,0,0,.692-1.245V8.852a1.4,1.4,0,0,0-1.407-1.4Zm15.869,0a1.4,1.4,0,0,0-1.408,1.4v6.53a1.4,1.4,0,0,0,.692,1.245,1.417,1.417,0,0,0,1.432,0,1.4,1.4,0,0,0,.692-1.245V8.852a1.4,1.4,0,0,0-1.408-1.4Zm-4.69-5.365L13.813.882a.473.473,0,0,0,0-.644h0a.481.481,0,0,0-.648,0h0l-1.407,1.4A4.246,4.246,0,0,0,9.336.965a5.582,5.582,0,0,0-2.52.5L5.505.071a.992.992,0,0,0-.746,0,.972.972,0,0,0,0,.741l1.211,1.2A5.648,5.648,0,0,0,3.737,6.53H15a5.332,5.332,0,0,0-2.414-4.442ZM7.462,4.671H6.528V3.743h.934Zm4.661,0h-.858V3.743H12.2Z" transform="translate(5.001 3.277)" fill="#fff"/>
</svg>
