<svg xmlns="http://www.w3.org/2000/svg" xmlns:xlink="http://www.w3.org/1999/xlink" width="80" height="80" viewBox="0 0 80 80">
  <defs>
    <clipPath id="clip-path">
      <rect id="矩形_3632" data-name="矩形 3632" width="54.545" height="11.57" fill="#fff"/>
    </clipPath>
  </defs>
  <g id="i_livechat1" transform="translate(-760 -874)">
    <rect id="矩形_3631" data-name="矩形 3631" width="80" height="80" rx="9" transform="translate(760 874)" fill="#ff4e00"/>
    <path id="路径_5717" data-name="路径 5717" d="M128.623,85.391c-1.952-.013-3.9,0-5.855-.045a10.349,10.349,0,0,1-9.013-5.118,8.693,8.693,0,0,1-1.292-4.509c-.08-4.294-.022-8.588,0-12.882.01-1.918,0-3.508,0-5.748,0-4.058,4.926-7.991,9.382-8.206,4.964-.24,9.935.025,14.9,0,3.3-.017,6.608-.238,9.9,0a10.258,10.258,0,0,1,9.093,9.528q.26,5.614.311,11.237c.02,2.105-.145,4.213-.254,6.318a10.109,10.109,0,0,1-7.663,9.011,12.387,12.387,0,0,1-2.695.352c-1.717.054-3.437-.007-5.155.033a2.489,2.489,0,0,0-1.227.365c-3.243,2.076-6.465,4.184-9.694,6.282-.174.113-.353.217-.65.4-.039-2.4-.076-4.716-.114-7.032a3.978,3.978,0,0,0,.554-.252q4.846-3.141,9.681-6.3a2.806,2.806,0,0,1,1.673-.506c1.614.034,3.229.026,4.843.005a3.351,3.351,0,0,0,3.382-2.477,10.245,10.245,0,0,0,.11-1.706,135.26,135.26,0,0,0,0-14.827,3.3,3.3,0,0,0-3.439-3.337c-1.456-.065-2.911-.156-4.367-.212a174.906,174.906,0,0,0-18.575.242,3.156,3.156,0,0,0-3.011,2.911,124.54,124.54,0,0,0,0,16,3.29,3.29,0,0,0,3.511,3.423c1.562.025,3.124.006,4.687.012.278,0,.556.03.917.05,0,.371,0,.676,0,.981Q128.6,82.387,128.623,85.391Z" transform="translate(663.943 836.589)" fill="#fff"/>
    <g id="组_8292" data-name="组 8292" transform="translate(772.727 932.182)">
      <g id="组_8291" data-name="组 8291" transform="translate(0 0)" clip-path="url(#clip-path)">
        <path id="路径_5718" data-name="路径 5718" d="M0,10.566H6.643V8.952H2.027V.546H0v10.02Zm7.581,0H9.532V3.173H7.581v7.393Zm-.15-9.382A1.127,1.127,0,1,0,8.5,0a1.127,1.127,0,0,0-1.07,1.182m9.757,1.951H15.237L13.623,8.614,12.047,3.135H10.058L12.572,10.6H14.6L17.15,3.135Zm3.49,7.618a3.086,3.086,0,0,0,3.227-2.327H22.217a1.519,1.519,0,0,1-1.539.938A1.477,1.477,0,0,1,19.1,7.714v-.15h4.879V6.288a3.119,3.119,0,0,0-3.34-3.3,3.211,3.211,0,0,0-3.415,3.49V7.489a3.136,3.136,0,0,0,3.453,3.3ZM19.1,6.1c0-1.013.413-1.764,1.539-1.764a1.47,1.47,0,0,1,1.539,1.651v.188H19.1V6.1Zm10.1,4.691a3.942,3.942,0,0,0,4.166-3.753H31.486a2.181,2.181,0,0,1-2.327,2.1c-1.689,0-2.4-1.126-2.4-2.74V4.749c0-1.614.751-2.74,2.4-2.74a2.181,2.181,0,0,1,2.327,2.1h1.876A3.953,3.953,0,0,0,29.16.358c-3,0-4.391,1.914-4.391,4.5V6.288c0,2.589,1.351,4.5,4.391,4.5Zm5.254-.225h1.914V6.213a1.336,1.336,0,0,1,1.464-1.5c.938,0,1.351.6,1.351,1.464v4.391h1.951V5.837A2.579,2.579,0,0,0,38.5,2.948a2.476,2.476,0,0,0-2.139,1.088V.133H34.451Zm10.4.188a2.83,2.83,0,0,0,2.139-.863V10.6h1.876V5.837a2.842,2.842,0,0,0-3.115-2.89A3.044,3.044,0,0,0,42.557,5.2h1.8a1.289,1.289,0,0,1,1.276-.713,1.2,1.2,0,0,1,1.313,1.2V6.7a3,3,0,0,0-1.914-.638c-1.8,0-3,.751-3,2.364C42.032,9.928,43.158,10.753,44.846,10.753Zm.525-1.276c-.826,0-1.464-.375-1.464-1.126,0-.638.6-1.013,1.5-1.013.863,0,1.5.375,1.5,1.051S46.2,9.478,45.372,9.478m7.168,1.088h1.351v-1.5H53.1c-.525,0-.751-.225-.751-.713v-3.6h1.614V3.173H52.39V1.109H50.438V3.135H49.387V4.711h1.051V8.464a1.91,1.91,0,0,0,2.1,2.139Z" transform="translate(0 0.778)" fill="#fff"/>
      </g>
    </g>
  </g>
</svg>
