<svg id="i_livechat2" xmlns="http://www.w3.org/2000/svg" width="28" height="28" viewBox="0 0 28 28">
  <rect id="矩形_3630" data-name="矩形 3630" width="28" height="28" rx="6" fill="#ff5100"/>
  <path id="路径_5717" data-name="路径 5717" d="M119.29,64.3c-.827-.005-1.655,0-2.482-.019a4.388,4.388,0,0,1-3.822-2.17,3.686,3.686,0,0,1-.548-1.912c-.034-1.82-.009-3.641,0-5.462,0-.813,0-1.487,0-2.437,0-1.72,2.088-3.388,3.978-3.479,2.1-.1,4.212.011,6.319,0,1.4-.007,2.8-.1,4.2,0a4.349,4.349,0,0,1,3.855,4.04q.11,2.38.132,4.764c.008.893-.061,1.786-.108,2.679a4.286,4.286,0,0,1-3.249,3.821,5.251,5.251,0,0,1-1.143.149c-.728.023-1.457,0-2.186.014a1.055,1.055,0,0,0-.52.155c-1.375.88-2.741,1.774-4.11,2.664-.074.048-.15.092-.275.169-.016-1.018-.032-2-.048-2.981a1.687,1.687,0,0,0,.235-.107q2.054-1.332,4.1-2.67a1.19,1.19,0,0,1,.709-.215c.684.015,1.369.011,2.053,0a1.421,1.421,0,0,0,1.434-1.05,4.343,4.343,0,0,0,.047-.723,57.34,57.34,0,0,0,0-6.286,1.4,1.4,0,0,0-1.458-1.415c-.617-.027-1.234-.066-1.852-.09a74.159,74.159,0,0,0-7.876.1,1.338,1.338,0,0,0-1.277,1.234,52.806,52.806,0,0,0,0,6.783,1.4,1.4,0,0,0,1.488,1.451c.662.01,1.325,0,1.987,0,.118,0,.236.013.389.021,0,.157,0,.287,0,.416Q119.279,63.026,119.29,64.3Z" transform="translate(-107.421 -42.774)" fill="#fff"/>
</svg>
