<svg xmlns="http://www.w3.org/2000/svg" xmlns:xlink="http://www.w3.org/1999/xlink" width="80" height="80" viewBox="0 0 80 80">
  <defs>
    <linearGradient id="linear-gradient" x1="0.925" x2="0.213" y2="1" gradientUnits="objectBoundingBox">
      <stop offset="0" stop-color="#6e00ff"/>
      <stop offset="1" stop-color="#b7239e"/>
    </linearGradient>
    <clipPath id="clip-path">
      <rect id="矩形_3640" data-name="矩形 3640" width="46.292" height="46.364" fill="none"/>
    </clipPath>
    <clipPath id="clip-path-2">
      <rect id="矩形_3641" data-name="矩形 3641" width="47.857" height="16.214" fill="none"/>
    </clipPath>
  </defs>
  <g id="i_livechat1" transform="translate(-760 -874)">
    <rect id="矩形_3631" data-name="矩形 3631" width="80" height="80" rx="9" transform="translate(760 874)" fill="url(#linear-gradient)"/>
    <g id="组_8929" data-name="组 8929" transform="translate(776.854 881.818)">
      <g id="组_8929-2" data-name="组 8929" transform="translate(0 0)" clip-path="url(#clip-path)">
        <path id="路径_5726" data-name="路径 5726" d="M4.848,14.5C6.322,6.227,14.128.069,23.013,0c9.008-.069,17,6.2,18.427,14.459.625.038,1.261.028,1.881.124a3.445,3.445,0,0,1,2.952,3.4q.037,5.215,0,10.428a3.52,3.52,0,0,1-3.494,3.47c-.429.02-.859,0-1.353,0-.083.34-.152.664-.243.982-2.044,7.176-6.879,11.377-14,13.073a21.655,21.655,0,0,1-3.909.423A2.042,2.042,0,0,1,21.056,44.3a2.1,2.1,0,0,1,2.168-2.139,14.613,14.613,0,0,0,7.527-2.008,12.789,12.789,0,0,0,6.694-11.547c.006-3.522-.085-7.046.02-10.565A13.389,13.389,0,0,0,26.251,4.55c-5.726-1.066-10.709.431-14.559,4.968a11.886,11.886,0,0,0-2.841,7.841c-.015,3.521,0,7.043-.006,10.565a3.618,3.618,0,0,1-3.983,3.959,12.942,12.942,0,0,1-1.831-.069,3.461,3.461,0,0,1-3.019-3.48q-.026-5.111,0-10.224a3.54,3.54,0,0,1,3.5-3.6c.427-.02.859,0,1.333,0" transform="translate(0 0)" fill="#fff"/>
        <path id="路径_5727" data-name="路径 5727" d="M19.886,24.918c1.29,0,2.582-.031,3.869.017a2.836,2.836,0,0,1,1.27.374,1.364,1.364,0,0,1,.572,1.715,6.079,6.079,0,0,1-11.436-.011,1.622,1.622,0,0,1,1.719-2.089c1.335-.027,2.671,0,4.006-.006" transform="translate(3.264 5.776)" fill="#fff"/>
      </g>
    </g>
    <g id="组_8931" data-name="组 8931" transform="translate(776 932.182)">
      <g id="组_8930" data-name="组 8930" transform="translate(0 0)" clip-path="url(#clip-path-2)">
        <path id="路径_5728" data-name="路径 5728" d="M3.126,6.694a2.636,2.636,0,0,1-2.044-.869A3.527,3.527,0,0,1,.258,3.369,3.565,3.565,0,0,1,1.1.895,2.679,2.679,0,0,1,3.171,0a2.415,2.415,0,0,1,1.07.246A2.446,2.446,0,0,1,5,.816l-.553.649A1.721,1.721,0,0,0,3.188.887a1.652,1.652,0,0,0-1.36.657A2.813,2.813,0,0,0,1.3,3.334a2.939,2.939,0,0,0,.5,1.812,1.614,1.614,0,0,0,1.36.663,1.9,1.9,0,0,0,1.431-.684l.543.64a2.547,2.547,0,0,1-2.009.93" transform="translate(0.079 0)" fill="#fff"/>
        <path id="路径_5729" data-name="路径 5729" d="M7.257,6.665q-2.405,0-2.4-2.887V.094H5.871V3.849q0,1.931,1.386,1.931,1.413,0,1.413-1.931V.094h.982V3.779q0,2.888-2.395,2.887" transform="translate(1.495 0.029)" fill="#fff"/>
        <path id="路径_5730" data-name="路径 5730" d="M11.806,6.694a3.236,3.236,0,0,1-2.3-.948l.6-.7a2.686,2.686,0,0,0,.8.553,2.207,2.207,0,0,0,.921.211,1.429,1.429,0,0,0,.9-.255.791.791,0,0,0,.317-.658.771.771,0,0,0-.29-.63,3.392,3.392,0,0,0-.719-.4.069.069,0,0,0-.026-.008l-.447-.194-.447-.194A1.807,1.807,0,0,1,9.8,1.781,1.6,1.6,0,0,1,10.4.509,2.275,2.275,0,0,1,11.92,0,2.736,2.736,0,0,1,13,.22a2.827,2.827,0,0,1,.878.6l-.535.649A2.094,2.094,0,0,0,11.92.887a1.28,1.28,0,0,0-.794.222.728.728,0,0,0-.294.611.742.742,0,0,0,.324.613,3.635,3.635,0,0,0,.719.36l.887.377a2.577,2.577,0,0,1,.948.642,1.661,1.661,0,0,1,.368,1.1,1.68,1.68,0,0,1-.606,1.326,2.444,2.444,0,0,1-1.666.552" transform="translate(2.928 0)" fill="#fff"/>
        <path id="路径_5731" data-name="路径 5731" d="M15.38,6.572V.966h-.947q-.422,0-.948.043a1.977,1.977,0,0,1-.026-.477,2.43,2.43,0,0,1,.026-.5q.993.088,2.4.088H17.1c.409,0,.81-.017,1.2-.054a1.964,1.964,0,0,1,.026.475,1.948,1.948,0,0,1-.026.473,8.9,8.9,0,0,0-.948-.043H16.4V6.572Z" transform="translate(4.145 0.008)" fill="#fff"/>
        <path id="路径_5732" data-name="路径 5732" d="M20.5,6.694a2.536,2.536,0,0,1-2.026-.9,3.67,3.67,0,0,1-.781-2.462A3.6,3.6,0,0,1,18.473.886a2.762,2.762,0,0,1,4.053,0,3.582,3.582,0,0,1,.789,2.441,3.681,3.681,0,0,1-.789,2.464,2.524,2.524,0,0,1-2.027.9m0-.886a1.509,1.509,0,0,0,1.29-.676,3.047,3.047,0,0,0,.483-1.806,2.947,2.947,0,0,0-.483-1.787,1.593,1.593,0,0,0-2.574,0,2.962,2.962,0,0,0-.479,1.789,3.041,3.041,0,0,0,.479,1.808,1.5,1.5,0,0,0,1.284.672" transform="translate(5.449 0)" fill="#fff"/>
        <path id="路径_5733" data-name="路径 5733" d="M23.629,6.6a1.733,1.733,0,0,1-.544-.043q.088-1.1.088-2.633V.094h1.167l1.185,3.265c.052.153.128.386.229.7.086.269.154.471.2.6H26c.047-.14.114-.347.2-.623.094-.3.167-.531.22-.684L27.586.094h1.176V4.938a15.345,15.345,0,0,0,.071,1.615,1.625,1.625,0,0,1-.544.043,1.631,1.631,0,0,1-.544-.043,14.831,14.831,0,0,0,.071-1.6v-1.6q0-.536.122-1.877a1.022,1.022,0,0,0,.009-.123H27.91L27.394,2.85,26.27,5.929h-.632L24.507,2.85,24,1.359h-.035c.005.082.017.213.035.4q.086,1.15.088,1.6v1.6a15.228,15.228,0,0,0,.069,1.6,1.528,1.528,0,0,1-.526.043" transform="translate(7.11 0.029)" fill="#fff"/>
        <path id="路径_5734" data-name="路径 5734" d="M32.784,6.65a18.968,18.968,0,0,0-1.957-.08h-.985a8.789,8.789,0,0,0-.972.044c-.048,0-.069-.014-.069-.044a6.966,6.966,0,0,0,.069-1.324V1.727A15.763,15.763,0,0,0,28.8.112c0-.029.021-.043.069-.043a8.975,8.975,0,0,0,.955.043h.957q.955,0,1.9-.078a2.293,2.293,0,0,1,.027.5,1.988,1.988,0,0,1-.027.487A13.9,13.9,0,0,0,31.291.964h-1.4v1.8h1.185c.4,0,.791-.017,1.182-.052a1.867,1.867,0,0,1,.027.479,2,2,0,0,1-.027.487,10.251,10.251,0,0,0-1.182-.052H29.888V5.711h1.448c.4,0,.886-.02,1.448-.061a2.31,2.31,0,0,1,.025.491,2.641,2.641,0,0,1-.025.51" transform="translate(8.871 0.01)" fill="#fff"/>
        <path id="路径_5735" data-name="路径 5735" d="M33.029,6.562V1.718A15.351,15.351,0,0,0,32.958.1q0-.043.071-.043C33.32.09,33.672.1,34.082.1h1.061q2.335,0,2.335,1.869a1.9,1.9,0,0,1-.369,1.2,1.906,1.906,0,0,1-.982.649L37.7,6.562h-1.15L35.09,3.956H34.046V6.562ZM34.046,3.14h.974q1.446,0,1.448-1.167a.907.907,0,0,0-.369-.816A1.953,1.953,0,0,0,35.021.92h-.974V3.14Z" transform="translate(10.151 0.019)" fill="#fff"/>
        <path id="路径_5736" data-name="路径 5736" d="M2.708,14.21a3.893,3.893,0,0,1-1.458-.281A3.787,3.787,0,0,1,0,13.126L.853,12.1a3.17,3.17,0,0,0,.9.593,2.348,2.348,0,0,0,.982.23,1.462,1.462,0,0,0,.878-.226.735.735,0,0,0,.306-.627.721.721,0,0,0-.29-.591,3.877,3.877,0,0,0-.753-.382l-.069-.029-.993-.422a2.087,2.087,0,0,1-1.5-1.995A1.929,1.929,0,0,1,1.033,7.12a2.76,2.76,0,0,1,1.844-.612,3.314,3.314,0,0,1,1.264.251,3.188,3.188,0,0,1,1.063.7l-.752.933a2.435,2.435,0,0,0-1.575-.612,1.306,1.306,0,0,0-.781.211.667.667,0,0,0-.292.572.684.684,0,0,0,.322.572,3.6,3.6,0,0,0,.772.37l.071.031.972.411a2.711,2.711,0,0,1,1.083.743,1.966,1.966,0,0,1,.411,1.273,2.006,2.006,0,0,1-.722,1.574,2.893,2.893,0,0,1-2.005.672" transform="translate(0 2.004)" fill="#fff"/>
        <path id="路径_5737" data-name="路径 5737" d="M10.761,14.159a23.173,23.173,0,0,0-2.326-.1H7.262q-.683,0-1.163.05c-.054,0-.081-.017-.081-.05A7.837,7.837,0,0,0,6.1,12.546V8.494a17.685,17.685,0,0,0-.081-1.855c0-.033.027-.05.081-.05a11.121,11.121,0,0,0,1.133.05H8.375q1.022,0,2.276-.1a3.98,3.98,0,0,1,.03.712,3.579,3.579,0,0,1-.03.692,14.631,14.631,0,0,0-1.534-.071H7.582V9.588h1.3c.442,0,.876-.021,1.3-.06a3.2,3.2,0,0,1,.03.678,3.384,3.384,0,0,1-.03.685,11.251,11.251,0,0,0-1.3-.06h-1.3v1.987H9.177c.447,0,.976-.025,1.584-.071a3.483,3.483,0,0,1,.03.7,3.887,3.887,0,0,1-.03.717" transform="translate(1.854 2.014)" fill="#fff"/>
        <path id="路径_5738" data-name="路径 5738" d="M11.733,14.05V8.485a17.685,17.685,0,0,0-.081-1.855c0-.039.027-.06.081-.06a11.1,11.1,0,0,0,1.292.06h1.294q2.788,0,2.789,2.246a2.094,2.094,0,0,1-1.414,2.136l1.734,3.038H15.774L14.25,11.242H13.216V14.05Zm1.483-3.98h.963q1.473,0,1.474-1.194a.948.948,0,0,0-.381-.842,2.041,2.041,0,0,0-1.093-.23h-.963V10.07Z" transform="translate(3.589 2.023)" fill="#fff"/>
        <path id="路径_5739" data-name="路径 5739" d="M19.323,14.036l-2.265-7.42h1.554l.982,3.61q.11.39.29,1.122.2.834.331,1.274h.05c.075-.267.175-.655.3-1.163.141-.542.251-.952.332-1.233l.961-3.61h1.5l-1.143,3.711-1.133,3.709Z" transform="translate(5.254 2.038)" fill="#fff"/>
        <path id="路径_5740" data-name="路径 5740" d="M23.45,14.036V6.616h1.483v7.42Z" transform="translate(7.223 2.038)" fill="#fff"/>
        <path id="路径_5741" data-name="路径 5741" d="M30.015,14.21a3.19,3.19,0,0,1-2.407-.982,3.942,3.942,0,0,1-.993-2.833,3.975,3.975,0,0,1,1.023-2.862,3.21,3.21,0,0,1,2.428-1.024,2.909,2.909,0,0,1,2.175.954L31.46,8.4A1.939,1.939,0,0,0,30.1,7.782a1.713,1.713,0,0,0-1.4.681,2.919,2.919,0,0,0-.561,1.876,3.059,3.059,0,0,0,.526,1.894,1.677,1.677,0,0,0,1.41.693,2.054,2.054,0,0,0,1.533-.732l.782.922a2.989,2.989,0,0,1-2.366,1.093" transform="translate(8.198 2.004)" fill="#fff"/>
        <path id="路径_5742" data-name="路径 5742" d="M37.538,14.159a23.173,23.173,0,0,0-2.326-.1H34.039q-.683,0-1.163.05c-.054,0-.081-.017-.081-.05a7.837,7.837,0,0,0,.081-1.513V8.494a17.685,17.685,0,0,0-.081-1.855c0-.033.027-.05.081-.05a11.121,11.121,0,0,0,1.133.05h1.143q1.022,0,2.276-.1a3.98,3.98,0,0,1,.03.712,3.58,3.58,0,0,1-.03.692,14.631,14.631,0,0,0-1.534-.071H34.359V9.588h1.3c.442,0,.876-.021,1.3-.06a3.2,3.2,0,0,1,.03.678,3.384,3.384,0,0,1-.03.685,11.251,11.251,0,0,0-1.3-.06h-1.3v1.987h1.594c.447,0,.976-.025,1.584-.071a3.483,3.483,0,0,1,.03.7,3.888,3.888,0,0,1-.03.717" transform="translate(10.101 2.014)" fill="#fff"/>
      </g>
    </g>
  </g>
</svg>
