<svg id="i_twitter2" xmlns="http://www.w3.org/2000/svg" width="28" height="28" viewBox="0 0 28 28">
  <path id="路径_5540" data-name="路径 5540" d="M22.471,28H5.529A5.529,5.529,0,0,1,0,22.471V5.529A5.529,5.529,0,0,1,5.529,0H22.471A5.529,5.529,0,0,1,28,5.529V22.471A5.529,5.529,0,0,1,22.471,28" fill="#00b1ff"/>
  <path id="i_twitter" d="M778,221.924a8.549,8.549,0,0,1-2.362.647,4.077,4.077,0,0,0,1.8-2.266,8.191,8.191,0,0,1-2.6.993,4.1,4.1,0,0,0-7.092,2.8,4.226,4.226,0,0,0,.095.935,11.606,11.606,0,0,1-8.451-4.289,4.1,4.1,0,0,0,1.26,5.48,4.05,4.05,0,0,1-1.853-.505v.045a4.119,4.119,0,0,0,3.285,4.029,4.091,4.091,0,0,1-1.075.135,3.628,3.628,0,0,1-.776-.07,4.14,4.14,0,0,0,3.831,2.856,8.239,8.239,0,0,1-5.084,1.749,7.688,7.688,0,0,1-.981-.056,11.67,11.67,0,0,0,17.96-9.828c0-.181-.006-.356-.015-.53A8.182,8.182,0,0,0,778,221.924Z" transform="translate(-753 -213.833)" fill="#fff"/>
</svg>
