<svg id="btn_sendgift" xmlns="http://www.w3.org/2000/svg" xmlns:xlink="http://www.w3.org/1999/xlink" width="40" height="44" viewBox="0 0 40 44">
  <defs>
    <linearGradient id="linear-gradient" x1="0.5" x2="0.5" y2="1" gradientUnits="objectBoundingBox">
      <stop offset="0" stop-color="#ff4060"/>
      <stop offset="1" stop-color="#ff4060"/>
    </linearGradient>
  </defs>
  <rect id="bg02" width="40" height="41" rx="10" transform="translate(0 3)" fill="#a5001c"/>
  <rect id="bg01" width="40" height="40" rx="10" fill="url(#linear-gradient)"/>
  <path id="i_gift" d="M19.077,29.147V17.975h9.576v9.576a1.6,1.6,0,0,1-1.6,1.6Zm-11.172,0a1.6,1.6,0,0,1-1.6-1.6V17.975h9.575V29.147ZM19.077,16.379V13.187H15.885v3.192H5.512a.8.8,0,0,1-.8-.8V13.187a1.6,1.6,0,0,1,1.6-1.6h5.049a6.465,6.465,0,0,1-.892-.714,3.316,3.316,0,0,1,4.683-4.7c.69.693,2.526,3.521,2.274,5.409h.114c-.254-1.888,1.582-4.716,2.274-5.409a3.372,3.372,0,0,1,4.682,0,3.336,3.336,0,0,1,0,4.7,6.344,6.344,0,0,1-.891.714h5.05a1.6,1.6,0,0,1,1.6,1.6V15.58a.8.8,0,0,1-.8.8Zm1.868-9.073c-1.076,1.083-2.146,3.847-1.774,4.231,0,0,.068.054.294.054a7.85,7.85,0,0,0,3.9-1.839,1.739,1.739,0,0,0,0-2.446,1.741,1.741,0,0,0-2.417,0Zm-9.345,0a1.742,1.742,0,0,0,0,2.446,7.851,7.851,0,0,0,3.9,1.839.514.514,0,0,0,.3-.054c.373-.384-.7-3.148-1.772-4.231a1.7,1.7,0,0,0-2.418,0ZM3.118,8.412,0,7.633l3.118-.65L3.9,3.866l.909,3.118,2.6.65-2.6.779-.909,3.9ZM29.682,2.865l-1.965-.491,1.965-.409L30.173,0l.573,1.965,1.637.409-1.637.491L30.173,5.32Z" transform="translate(2.286 3.201)" fill="#fff"/>
</svg>
