<svg height="26" viewBox="0 0 44 26" width="44" xmlns="http://www.w3.org/2000/svg"><g fill="#48424e"><path d="m267.817 973.4a2.724 2.724 0 0 1 -.786 1.9l-9.205 9.484a3.214 3.214 0 0 1 -4.312.206 2.7 2.7 0 0 1 -.22-4.009l7.356-7.583-8.669-8.935a2.7 2.7 0 0 1 .221-4.009 3.214 3.214 0 0 1 4.312.206l10.517 10.84a2.723 2.723 0 0 1 .786 1.9z" transform="translate(-237.194 -959.72)"/><path d="m267.194 973.4a2.779 2.779 0 0 1 -.757 1.9l-8.86 9.484a3.009 3.009 0 0 1 -4.15.206 2.77 2.77 0 0 1 -.212-4.009l7.08-7.583-8.344-8.935a2.77 2.77 0 0 1 .213-4.009 3.009 3.009 0 0 1 4.15.206l10.124 10.84a2.779 2.779 0 0 1 .756 1.9z" transform="translate(-251.194 -959.72)"/><path d="m277.378 973.4a2.774 2.774 0 0 1 -.758 1.9l-8.858 9.484a3.009 3.009 0 0 1 -4.15.206 2.769 2.769 0 0 1 -.213-4.009l7.082-7.583-8.344-8.935a2.771 2.771 0 0 1 .212-4.009 3.011 3.011 0 0 1 4.151.206l10.12 10.84a2.774 2.774 0 0 1 .758 1.9z" transform="translate(-233.379 -959.72)"/></g></svg>