<svg id="i_chooseback" xmlns="http://www.w3.org/2000/svg" width="36" height="36" viewBox="0 0 36 36">
  <rect id="bg28x28" width="36" height="36" fill="#a246ff" opacity="0"/>
  <path id="i_chooseback-2" data-name="i_chooseback" d="M13,26A13,13,0,0,1,3.808,3.807,13,13,0,1,1,22.192,22.192,12.915,12.915,0,0,1,13,26Zm.263-9.672h0l3.064,3.064a2.167,2.167,0,1,0,3.064-3.064l-3.064-3.064L19.391,10.2a2.167,2.167,0,1,0-3.064-3.064L13.263,10.2,10.2,7.134A2.167,2.167,0,1,0,7.134,10.2L10.2,13.262,7.134,16.327A2.167,2.167,0,1,0,10.2,19.391l3.063-3.063Z" transform="translate(1 1)" fill="#a246ff" stroke="rgba(0,0,0,0)" stroke-width="1"/>
</svg>
