<svg height="60" viewBox="0 0 60 60" width="60" xmlns="http://www.w3.org/2000/svg" xmlns:xlink="http://www.w3.org/1999/xlink"><linearGradient id="a" gradientUnits="objectBoundingBox" x2="1" y1=".65" y2=".65"><stop offset="0" stop-color="#6e4ef2"/><stop offset="1" stop-color="#ff4060"/></linearGradient><g fill="url(#a)"><path d="m0 0h60v60h-60z" opacity="0"/><path d="m31.306 55.714v-25.071h19.5v21.49c0 1.977-2.107 3.581-3.9 3.581zm-24.528 0c-1.79 0-2.6-1.6-2.6-3.581v-21.49h19.5v25.071zm24.562-30.643v-7.183h-7.815v7.183h-21.784c-.96 0-1.741-1.646-1.741-2.639v-4.544a3.543 3.543 0 0 1 3.482-3.588h11.018a14.219 14.219 0 0 1 -1.946-1.606 7.686 7.686 0 0 1 0-10.566 7.2 7.2 0 0 1 10.213 0c1.508 1.561 5.512 7.922 4.962 12.172h.251c-.554-4.25 3.451-10.611 4.962-12.172a7.2 7.2 0 0 1 10.214 0 7.675 7.675 0 0 1 0 10.566 13.881 13.881 0 0 1 -1.942 1.606h11.019a3.54 3.54 0 0 1 3.481 3.59v5.387a1.77 1.77 0 0 1 -1.741 1.8zm4.073-20.414c-2.347 2.437-4.68 8.656-3.868 9.521 0 .005.145.12.641.12 2.411 0 7-2.58 8.5-4.138a4 4 0 0 0 0-5.5 3.716 3.716 0 0 0 -5.275 0zm-20.388 0a4.009 4.009 0 0 0 0 5.5c1.5 1.558 6.095 4.138 8.5 4.138a1.1 1.1 0 0 0 .643-.12c.814-.865-1.521-7.084-3.867-9.521a3.637 3.637 0 0 0 -5.276 0z" transform="translate(2.143 2.143)"/></g></svg>