<svg xmlns="http://www.w3.org/2000/svg" width="28.002" height="29.458" viewBox="0 0 28.002 29.458">
  <path id="i_index" d="M31.7,16.18,18.79,3.59a1.14,1.14,0,0,0-1.58,0L4.3,16.18A1.14,1.14,0,0,0,4,17V31.05a1.66,1.66,0,0,0,1.6,1.68h8.21a1.65,1.65,0,0,0,1.59-1.34V23.05c0-.52.77-.8,1.31-.8h2.48c.52,0,1.31.26,1.31.81,0,8,0,8.19.05,8.34a1.64,1.64,0,0,0,1.59,1.33H30.4A1.66,1.66,0,0,0,32,31.05V17A1.14,1.14,0,0,0,31.7,16.18ZM13.25,23.05v7.47h-7V17.41L18,5.94,29.81,17.41V30.52h-7V23.05c0-1.95-1.81-3-3.51-3H16.76A3.211,3.211,0,0,0,13.25,23.05Z" transform="translate(-3.999 -3.272)" fill="#fff"/>
</svg>
