<svg id="i_m_user" xmlns="http://www.w3.org/2000/svg" width="28" height="28" viewBox="0 0 28 28">
  <rect id="bg28x28" width="28" height="28" fill="#fff" opacity="0"/>
  <g id="i_user" transform="translate(2481.173 -2118.819)">
    <path id="li02" d="M-2455.174,2149.208h-24v-2.66a7.6,7.6,0,0,1,7.471-7.7h9.059a7.6,7.6,0,0,1,7.47,7.7Zm-22.531-1.513h21.063v-1.146a6.1,6.1,0,0,0-6-6.185h-9.059a6.1,6.1,0,0,0-6,6.185Z" transform="translate(0 -4.389)" fill="#fff"/>
    <path id="li01" d="M-2464.942,2132.853a5.936,5.936,0,0,1-5.838-6.017,5.936,5.936,0,0,1,5.838-6.017,5.936,5.936,0,0,1,5.838,6.017A5.936,5.936,0,0,1-2464.942,2132.853Zm0-10.521a4.443,4.443,0,0,0-4.37,4.5,4.443,4.443,0,0,0,4.37,4.5,4.443,4.443,0,0,0,4.369-4.5A4.443,4.443,0,0,0-2464.942,2122.332Z" transform="translate(-2.232)" fill="#fff"/>
  </g>
</svg>
