<svg id="i_more" xmlns="http://www.w3.org/2000/svg" width="40" height="40" viewBox="0 0 40 40">
  <rect id="bg28x28" width="40" height="40" fill="#c164ff" opacity="0"/>
  <g id="i_more-2" data-name="i_more" transform="translate(1.429 1.429)">
    <path id="li03" d="M-1831.241,1778.646a18.593,18.593,0,0,1-18.571-18.572,18.593,18.593,0,0,1,18.571-18.571,18.593,18.593,0,0,1,18.572,18.571A18.593,18.593,0,0,1-1831.241,1778.646Zm0-34.822a16.268,16.268,0,0,0-16.25,16.25,16.268,16.268,0,0,0,16.25,16.25,16.268,16.268,0,0,0,16.25-16.25A16.268,16.268,0,0,0-1831.241,1743.824Z" transform="translate(1849.812 -1741.503)" fill="#c164ff"/>
    <path id="li02" d="M-1824.383,1758.825h-16.283a1.16,1.16,0,0,1-1.161-1.161,1.16,1.16,0,0,1,1.161-1.161h16.283a1.16,1.16,0,0,1,1.161,1.161A1.16,1.16,0,0,1-1824.383,1758.825Z" transform="translate(1851.096 -1739.093)" fill="#c164ff"/>
    <path id="li01" d="M-1833.651,1768.093a1.161,1.161,0,0,1-1.161-1.161v-16.284a1.161,1.161,0,0,1,1.161-1.161,1.161,1.161,0,0,1,1.161,1.161v16.284A1.161,1.161,0,0,1-1833.651,1768.093Z" transform="translate(1852.223 -1740.22)" fill="#c164ff"/>
  </g>
</svg>
