<svg width="40" height="40" viewBox="0 0 40 40" fill="none" xmlns="http://www.w3.org/2000/svg">
<path d="M13.6005 11.9707C13.176 11.9707 12.7689 12.1393 12.4688 12.4395C12.1686 12.7396 12 13.1467 12 13.5712C12 13.9957 12.1686 14.4028 12.4688 14.703C12.7689 15.0031 13.176 15.1717 13.6005 15.1717H26.4047C26.8292 15.1717 27.2363 15.0031 27.5364 14.703C27.8366 14.4028 28.0052 13.9957 28.0052 13.5712C28.0052 13.1467 27.8366 12.7396 27.5364 12.4395C27.2363 12.1393 26.8292 11.9707 26.4047 11.9707H13.6005ZM12 20.0005C12 19.576 12.1686 19.1689 12.4688 18.8688C12.7689 18.5686 13.176 18.4 13.6005 18.4H26.4047C26.8292 18.4 27.2363 18.5686 27.5364 18.8688C27.8366 19.1689 28.0052 19.576 28.0052 20.0005C28.0052 20.425 27.8366 20.8321 27.5364 21.1323C27.2363 21.4324 26.8292 21.601 26.4047 21.601H13.6005C13.176 21.601 12.7689 21.4324 12.4688 21.1323C12.1686 20.8321 12 20.425 12 20.0005ZM13.6005 24.8293C13.176 24.8293 12.7689 24.9979 12.4688 25.2981C12.1686 25.5982 12 26.0053 12 26.4298C12 26.8543 12.1686 27.2614 12.4688 27.5615C12.7689 27.8617 13.176 28.0303 13.6005 28.0303H26.4047C26.8292 28.0303 27.2363 27.8617 27.5364 27.5615C27.8366 27.2614 28.0052 26.8543 28.0052 26.4298C28.0052 26.0053 27.8366 25.5982 27.5364 25.2981C27.2363 24.9979 26.8292 24.8293 26.4047 24.8293H13.6005Z" fill="#374151"/>
<path d="M5 20C5 28.2845 11.7155 35 20 35C28.2845 35 35 28.2845 35 20C35 11.7155 28.2845 5 20 5C11.7155 5 5 11.7155 5 20Z" stroke="#374151" stroke-width="3" stroke-linecap="round" stroke-linejoin="round"/>
</svg>
