<svg width="40" height="40" viewBox="0 0 40 40" fill="none" xmlns="http://www.w3.org/2000/svg">
<path d="M6.66797 36.666C6.66797 33.1298 8.07273 29.7384 10.5732 27.2379C13.0737 24.7374 16.4651 23.3327 20.0013 23.3327C23.5375 23.3327 26.9289 24.7374 29.4294 27.2379C31.9299 29.7384 33.3346 33.1298 33.3346 36.666H30.0013C30.0013 34.0139 28.9477 31.4703 27.0724 29.5949C25.197 27.7196 22.6535 26.666 20.0013 26.666C17.3491 26.666 14.8056 27.7196 12.9302 29.5949C11.0549 31.4703 10.0013 34.0139 10.0013 36.666H6.66797ZM20.0013 21.666C14.4763 21.666 10.0013 17.191 10.0013 11.666C10.0013 6.14102 14.4763 1.66602 20.0013 1.66602C25.5263 1.66602 30.0013 6.14102 30.0013 11.666C30.0013 17.191 25.5263 21.666 20.0013 21.666ZM20.0013 18.3327C23.6846 18.3327 26.668 15.3493 26.668 11.666C26.668 7.98268 23.6846 4.99935 20.0013 4.99935C16.318 4.99935 13.3346 7.98268 13.3346 11.666C13.3346 15.3493 16.318 18.3327 20.0013 18.3327Z" fill="#374151"/>
</svg>
