<svg height="28" viewBox="0 0 28 28" width="28" xmlns="http://www.w3.org/2000/svg" xmlns:xlink="http://www.w3.org/1999/xlink"><linearGradient id="a" gradientUnits="objectBoundingBox" x1=".576" x2=".334" y1=".026" y2=".962"><stop offset="0" stop-color="#fff0a2"/><stop offset=".725" stop-color="#ffcf39"/><stop offset="1" stop-color="#946800"/></linearGradient><linearGradient id="b" gradientUnits="objectBoundingBox" x1=".338" x2=".633" y1=".022" y2="1"><stop offset="0" stop-color="#fff8d2"/><stop offset=".272" stop-color="#ffc400"/><stop offset=".502" stop-color="#fff99e"/><stop offset=".816" stop-color="#ffc800"/><stop offset="1" stop-color="#fa0"/></linearGradient><linearGradient id="c" gradientUnits="objectBoundingBox" x1=".782" x2=".231" y1=".088" y2=".927"><stop offset="0" stop-color="#c57d00"/><stop offset=".573" stop-color="#ffc104"/><stop offset="1" stop-color="#fff7ac"/></linearGradient><linearGradient id="d" gradientUnits="objectBoundingBox" x1=".338" x2=".633" y1=".022" y2="1"><stop offset="0" stop-color="#fb0"/><stop offset="1" stop-color="#e58200"/></linearGradient><linearGradient id="e" gradientUnits="objectBoundingBox" x1=".207" x2=".773" y2="1"><stop offset="0" stop-color="#ffefb0"/><stop offset="1" stop-color="#ffcc0d"/></linearGradient><path d="m0 0h28v28h-28z" fill="#fff" opacity="0"/><circle cx="14" cy="14.243" fill="#8a4e00" r="11.667"/><circle cx="11.302" cy="11.302" fill="url(#a)" r="11.302" transform="translate(2.576 2.333)"/><circle cx="11.059" cy="11.059" fill="url(#b)" r="11.059" transform="translate(2.819 2.576)"/><circle cx="9.358" cy="9.358" fill="url(#c)" r="9.358" transform="translate(4.521 4.277)"/><circle cx="8.872" cy="8.872" fill="url(#d)" r="8.872" transform="translate(5.007 4.764)"/><path d="m6.621 5.539v2.587h4.088a4.368 4.368 0 0 1 -4.02 3.364 4.328 4.328 0 0 1 -4.222-3.074 4.7 4.7 0 0 1 1.545-5.166 4.129 4.129 0 0 1 5.128.05h2.969a6.378 6.378 0 0 0 -8.231-2.692 7.057 7.057 0 0 0 -3.657 8.241 6.569 6.569 0 0 0 7.221 4.965 6.82 6.82 0 0 0 5.652-6.869v-1.4z" fill="#e17f00" transform="translate(7.226 6.626)"/><path d="m6.5 5.493v2.27h4.013a4.259 4.259 0 0 1 -3.947 3.213 4.24 4.24 0 0 1 -4.145-2.937 4.421 4.421 0 0 1 1.517-4.939 4.142 4.142 0 0 1 5.035.045h2.915a6.35 6.35 0 0 0 -8.081-2.564 6.679 6.679 0 0 0 -3.591 7.872 6.443 6.443 0 0 0 7.084 4.747 6.565 6.565 0 0 0 5.549-6.561v-1.139z" fill="url(#e)" transform="translate(7.226 6.944)"/></svg>