<svg id="icon_twitter" xmlns="http://www.w3.org/2000/svg" width="28" height="28" viewBox="0 0 28 28">
  <rect id="bg28x28" width="28" height="28" opacity="0"/>
  <path id="i_twitter" d="M782,222.309a10.259,10.259,0,0,1-2.835.777,4.892,4.892,0,0,0,2.164-2.72,9.829,9.829,0,0,1-3.12,1.191,4.92,4.92,0,0,0-8.511,3.364,5.071,5.071,0,0,0,.114,1.122,13.927,13.927,0,0,1-10.141-5.147,4.921,4.921,0,0,0,1.512,6.576,4.86,4.86,0,0,1-2.223-.606v.054a4.943,4.943,0,0,0,3.942,4.835,4.909,4.909,0,0,1-1.29.162,4.354,4.354,0,0,1-.932-.084,4.967,4.967,0,0,0,4.6,3.428,9.887,9.887,0,0,1-6.1,2.1,9.222,9.222,0,0,1-1.177-.067A14,14,0,0,0,779.552,225.5c0-.218-.007-.428-.018-.636A9.818,9.818,0,0,0,782,222.309Z" transform="translate(-756 -216)" fill="#03a9f4"/>
</svg>
