<svg xmlns="http://www.w3.org/2000/svg" viewBox="0 0 29.5 26.2"><g fill="#fff" data-name="i_cashplus2"><path d="M12.9 8.7a4.5 4.5 0 0 1 2.7 1h2.8c.6 0 .6-.3 0-1A7.4 7.4 0 0 0 13 6.4a7 7 0 1 0 7 6.9V12h-7v2.4h4.4A4.6 4.6 0 1 1 13 8.6"/><path d="M24.1 13v.3A11.3 11.3 0 1 1 17.8 3a2.4 2.4 0 0 1 1.4-.5h1a12.9 12.9 0 1 0 5.7 10.7v-.9a3.1 3.1 0 0 1-1.7.5"/><path d="M28.8 4.5H25V.7c0-.4-.5-.7-1-.7s-1 .3-1 .7v3.8h-4c-.4 0-.7.5-.7 1s.3 1 .7 1h3.8v3.9c0 .4.5.7 1 .7s1-.3 1-.7V6.6h4c.3 0 .6-.5.6-1s-.3-1-.7-1"/></g></svg>