<svg xmlns="http://www.w3.org/2000/svg" width="19.551" height="15.01" viewBox="0 0 19.551 15.01">
  <g id="i_arrow_d" transform="translate(0 0)">
    <g id="i_arr_d" transform="translate(2232.704 -1756.138)">
      <path id="i_arr_d-2" data-name="i_arr_d" d="M-5341.146,9524.761l-7.435-3.628a2,2,0,0,1-.92-2.672,2,2,0,0,1,2.673-.921l6.9,3.363,6.9-3.363a2,2,0,0,1,2.675.921,2,2,0,0,1-.92,2.675l-7.436,3.624a2.011,2.011,0,0,1-1.188.386l-.063,0A2.011,2.011,0,0,1-5341.146,9524.761Zm1.062-7.678a1.508,1.508,0,0,1-.876-.269l-7.85-3.828a1.5,1.5,0,0,1-.691-2.006,1.5,1.5,0,0,1,2.006-.691l7.412,3.616,7.412-3.616a1.5,1.5,0,0,1,2.006.691,1.5,1.5,0,0,1-.691,2.006l-7.851,3.827a1.5,1.5,0,0,1-.858.27Z" transform="translate(3117 -7754)" fill="#fff"/>
    </g>
  </g>
</svg>
