<svg id="i_cashplus2" xmlns="http://www.w3.org/2000/svg" width="29.499" height="26.173" viewBox="0 0 29.499 26.173">
  <g id="i_cashplus2-2" data-name="i_cashplus2" transform="translate(0 0)">
    <path id="i_g02" d="M14.326,10.263a4.529,4.529,0,0,1,2.74.916h2.777c.625,0,.556-.239,0-.907a7.361,7.361,0,0,0-5.517-2.385,6.932,6.932,0,1,0,6.931,6.932V13.631H14.407v2.376h4.318a4.556,4.556,0,1,1-4.4-5.744" transform="translate(-1.438 -1.534)" fill="#fff"/>
    <path id="i_g01" d="M24.148,13.041c0,.114.017.225.017.339A11.319,11.319,0,1,1,17.7,3.2,2.353,2.353,0,0,1,19.1,2.737h1.046A12.883,12.883,0,1,0,25.776,13.38c0-.29-.024-.574-.043-.859a3.127,3.127,0,0,1-1.584.52" transform="translate(0 -0.096)" fill="#fff"/>
    <path id="i_pp" d="M33.251,4.509H29.434V.692C29.434.309,28.969,0,28.4,0s-1.038.309-1.038.692V4.509H23.541c-.382,0-.692.465-.692,1.038s.31,1.038.692,1.038h3.816V10.4c0,.383.466.693,1.038.693s1.038-.31,1.038-.693V6.586h3.817c.382,0,.692-.465.692-1.038s-.31-1.038-.692-1.038" transform="translate(-4.444 0)" fill="#fff"/>
  </g>
</svg>
