<svg id="i_cashinfo" xmlns="http://www.w3.org/2000/svg" xmlns:xlink="http://www.w3.org/1999/xlink" width="28" height="28" viewBox="0 0 28 28">
  <defs>
    <clipPath id="clip-path">
      <rect id="矩形_3414" data-name="矩形 3414" width="26" height="26" fill="#fff"/>
    </clipPath>
  </defs>
  <rect id="矩形_3415" data-name="矩形 3415" width="28" height="28" fill="#fff" opacity="0"/>
  <g id="组_8337" data-name="组 8337" transform="translate(1 1)">
    <g id="组_8336" data-name="组 8336" clip-path="url(#clip-path)">
      <path id="路径_5461" data-name="路径 5461" d="M13,26A13,13,0,1,1,26,13,13.015,13.015,0,0,1,13,26M13,1.625A11.375,11.375,0,1,0,24.375,13,11.387,11.387,0,0,0,13,1.625" fill="#fff"/>
      <path id="路径_5462" data-name="路径 5462" d="M14.058,17.779a.7.7,0,0,1-.265-.56,3.51,3.51,0,0,1,.314-1.551,4.418,4.418,0,0,1,.687-1.072,10.053,10.053,0,0,1,1.178-1.07A6.57,6.57,0,0,0,17.1,12.476a1.5,1.5,0,0,0,.324-.933q0-2.122-2.789-2.121a5.361,5.361,0,0,0-1.335.167,4.19,4.19,0,0,0-1.159.482,1.042,1.042,0,0,1-.51.158.842.842,0,0,1-.805-.806.9.9,0,0,1,.491-.766,5.781,5.781,0,0,1,1.631-.727,7.334,7.334,0,0,1,1.846-.215,4.872,4.872,0,0,1,3.231,1.012,3.365,3.365,0,0,1,1.207,2.72,3.205,3.205,0,0,1-.275,1.336,3.4,3.4,0,0,1-.628.963,11.459,11.459,0,0,1-1.081.962,6.929,6.929,0,0,0-1.306,1.257,2.093,2.093,0,0,0-.383,1.257.715.715,0,0,1-.265.55.9.9,0,0,1-.618.236.922.922,0,0,1-.619-.226m-.245,3.6a1.153,1.153,0,0,1-.353-.844,1.208,1.208,0,0,1,1.178-1.179,1.154,1.154,0,0,1,.845.353,1.132,1.132,0,0,1,.353.826,1.208,1.208,0,0,1-1.2,1.2,1.131,1.131,0,0,1-.825-.354" transform="translate(-2.03 -1.446)" fill="#fff"/>
    </g>
  </g>
</svg>
