<svg id="i_checkin" xmlns="http://www.w3.org/2000/svg" xmlns:xlink="http://www.w3.org/1999/xlink" width="26" height="26" viewBox="0 0 26 26">
  <defs>
    <clipPath id="clip-path">
      <rect id="矩形_3409" data-name="矩形 3409" width="26" height="26" fill="none"/>
    </clipPath>
  </defs>
  <g id="组_8326" data-name="组 8326" clip-path="url(#clip-path)">
    <path id="路径_5452" data-name="路径 5452" d="M13,26A13,13,0,1,1,20.636,2.477a1.008,1.008,0,0,1-1.185,1.631A10.985,10.985,0,1,0,23.985,13a11.248,11.248,0,0,0-.121-1.638,1.008,1.008,0,0,1,.848-1.145.942.942,0,0,1,.145-.01,1,1,0,0,1,1,.858A13.181,13.181,0,0,1,26,13,13.014,13.014,0,0,1,13,26" fill="#fff"/>
    <path id="路径_5453" data-name="路径 5453" d="M12.863,18.936a1,1,0,0,1-.712-.3L6.068,12.56a1.008,1.008,0,0,1,1.425-1.424l5.233,5.233a.229.229,0,0,0,.136.056A.19.19,0,0,0,13,16.371L24.314,5.054a1.007,1.007,0,0,1,1.424,1.424L13.575,18.642a1,1,0,0,1-.712.294" transform="translate(-0.412 -0.34)" fill="#fff"/>
  </g>
</svg>
