<svg height="28" viewBox="0 0 28 28" width="28" xmlns="http://www.w3.org/2000/svg"><g fill="#fff"><path d="m0 0h28v28h-28z" opacity="0"/><path d="m-2392.484 2146.829h-17.709l2.969-.942a1.777 1.777 0 0 0 1.106-.508l12.842-12.842a1.789 1.789 0 0 0 0-2.526l-3.053-3.053a1.788 1.788 0 0 0 -2.526 0l-12.845 12.842a1.763 1.763 0 0 0 -.508 1.106l-1.794 5.656a.894.894 0 0 0 .221.9.888.888 0 0 0 .537.249.434.434 0 0 0 .068.014h20.688a.446.446 0 0 0 .446-.447.445.445 0 0 0 -.442-.449zm-5.108-18.607 3.052 3.053-12.525 12.525-3.052-3.052zm-13.02 13.444a.95.95 0 0 0 .025-.124l2.728 2.728a.8.8 0 0 0 -.124.025l-3.807 1.179z" transform="translate(2417.039 -2121.741)"/></g></svg>