<svg height="28" viewBox="0 0 28 28" width="28" xmlns="http://www.w3.org/2000/svg"><g fill="#fff"><path d="m0 0h28v28h-28z" opacity="0"/><g transform="translate(2303.342 -2116.666)"><path d="m-2278.511 2133.067a2.6 2.6 0 0 1 -1.365-2.321 2.575 2.575 0 0 1 1.406-2.291 2.022 2.022 0 0 0 1-2.514 12.952 12.952 0 0 0 -1.793-3.229 1.9 1.9 0 0 0 -1.521-.751 2.025 2.025 0 0 0 -1.107.333 2.5 2.5 0 0 1 -1.364.409 2.5 2.5 0 0 1 -1.287-.36 2.592 2.592 0 0 1 -1.244-2.387 2 2 0 0 0 -1.633-2.14 12.424 12.424 0 0 0 -1.925-.151 12.456 12.456 0 0 0 -1.712.119 1.992 1.992 0 0 0 -1.668 2.11 2.58 2.58 0 0 1 -1.281 2.366 2.527 2.527 0 0 1 -1.257.338 2.5 2.5 0 0 1 -1.395-.428 2.026 2.026 0 0 0 -1.134-.353 1.891 1.891 0 0 0 -1.5.728 13.117 13.117 0 0 0 -1.031 1.529 13.255 13.255 0 0 0 -.808 1.659 2.023 2.023 0 0 0 .955 2.531 2.6 2.6 0 0 1 1.365 2.32 2.576 2.576 0 0 1 -1.406 2.292 2.02 2.02 0 0 0 -1 2.513 12.967 12.967 0 0 0 1.793 3.229 1.9 1.9 0 0 0 1.521.751 2.023 2.023 0 0 0 1.106-.333 2.512 2.512 0 0 1 1.366-.407 2.5 2.5 0 0 1 1.284.358 2.592 2.592 0 0 1 1.244 2.388 2 2 0 0 0 1.634 2.14 12.446 12.446 0 0 0 1.925.15 12.5 12.5 0 0 0 1.712-.118 1.992 1.992 0 0 0 1.668-2.111 2.581 2.581 0 0 1 1.281-2.366 2.532 2.532 0 0 1 1.256-.337 2.507 2.507 0 0 1 1.4.427 2.02 2.02 0 0 0 1.133.352 1.9 1.9 0 0 0 1.5-.728 13.306 13.306 0 0 0 1.031-1.527 13.212 13.212 0 0 0 .807-1.66 2.019 2.019 0 0 0 -.956-2.53zm-21.045 1.155a4.077 4.077 0 0 0 2.221-3.626 4.094 4.094 0 0 0 -2.156-3.661.516.516 0 0 1 -.274-.63 11.648 11.648 0 0 1 .714-1.468 11.575 11.575 0 0 1 .913-1.351.436.436 0 0 1 .349-.162.58.58 0 0 1 .323.1 3.939 3.939 0 0 0 2.2.676 3.982 3.982 0 0 0 1.979-.531 4.087 4.087 0 0 0 2.03-3.742.507.507 0 0 1 .4-.555 10.958 10.958 0 0 1 1.516-.1 10.851 10.851 0 0 1 1.7.133.51.51 0 0 1 .389.564 4.1 4.1 0 0 0 1.966 3.772 3.956 3.956 0 0 0 2.033.568 3.949 3.949 0 0 0 2.156-.644.575.575 0 0 1 .314-.1.441.441 0 0 1 .358.169 11.43 11.43 0 0 1 1.585 2.853.513.513 0 0 1 -.285.623 4.075 4.075 0 0 0 -2.221 3.626 4.094 4.094 0 0 0 2.155 3.661.515.515 0 0 1 .275.629 11.541 11.541 0 0 1 -.715 1.469 11.65 11.65 0 0 1 -.911 1.351.432.432 0 0 1 -.349.162.588.588 0 0 1 -.323-.1 3.947 3.947 0 0 0 -2.207-.678 3.978 3.978 0 0 0 -1.977.532 4.087 4.087 0 0 0 -2.03 3.743.507.507 0 0 1 -.4.555 10.978 10.978 0 0 1 -1.515.105 10.9 10.9 0 0 1 -1.7-.134.511.511 0 0 1 -.389-.564 4.1 4.1 0 0 0 -1.967-3.773 3.943 3.943 0 0 0 -2.032-.568 3.949 3.949 0 0 0 -2.156.644.588.588 0 0 1 -.315.1.444.444 0 0 1 -.358-.169 11.445 11.445 0 0 1 -1.583-2.851.514.514 0 0 1 .286-.628z"/><path d="m-2288.046 2137.619a3.94 3.94 0 0 0 2.026.564 4.015 4.015 0 0 0 3.462-2.015 4.142 4.142 0 0 0 -1.421-5.6 3.947 3.947 0 0 0 -2.028-.567 3.983 3.983 0 0 0 -1.012.133 3.993 3.993 0 0 0 -2.449 1.885 4.144 4.144 0 0 0 1.422 5.6zm2.039-6.115a2.491 2.491 0 0 1 1.281.357 2.574 2.574 0 0 1 1.169 1.582 2.618 2.618 0 0 1 -.27 1.961 2.541 2.541 0 0 1 -2.192 1.274 2.494 2.494 0 0 1 -1.281-.355 2.622 2.622 0 0 1 -.9-3.544 2.53 2.53 0 0 1 1.551-1.193 2.519 2.519 0 0 1 .641-.086z" transform="translate(-3.329 -3.426)"/></g></g></svg>