<svg id="i_friend" xmlns="http://www.w3.org/2000/svg" width="40" height="40" viewBox="0 0 40 40">
  <rect id="bg28x28" width="40" height="40" fill="#fff" opacity="0"/>
  <g id="i_friend-2" data-name="i_friend" transform="translate(2.857 8.571)">
    <path id="li04" d="M-3822.765,4544.615a5.561,5.561,0,0,0,5.554-5.557,5.559,5.559,0,0,0-5.554-5.554,5.56,5.56,0,0,0-5.554,5.554A5.562,5.562,0,0,0-3822.765,4544.615Zm0-9.87a4.318,4.318,0,0,1,4.314,4.313,4.319,4.319,0,0,1-4.314,4.314,4.319,4.319,0,0,1-4.313-4.314A4.318,4.318,0,0,1-3822.765,4534.745Z" transform="translate(3833.79 -4533.504)" fill="#fff"/>
    <path id="li03" d="M-3784.112,4552.9a4.519,4.519,0,0,0,4.514-4.514,4.519,4.519,0,0,0-4.514-4.514,4.52,4.52,0,0,0-4.514,4.514A4.519,4.519,0,0,0-3784.112,4552.9Zm0-7.787a3.277,3.277,0,0,1,3.273,3.272,3.277,3.277,0,0,1-3.273,3.272,3.276,3.276,0,0,1-3.272-3.272A3.276,3.276,0,0,1-3784.112,4545.116Z" transform="translate(3810.524 -4539.583)" fill="#fff"/>
    <path id="li02" d="M-3821.433,4569.147a.62.62,0,0,0-.242.844,8.165,8.165,0,0,1,.947,3.949v.768H-3840.3v-.768c0-3.424,1.842-6.878,5.959-6.878h7.649a6,6,0,0,1,2.222.407.621.621,0,0,0,.806-.345.621.621,0,0,0-.347-.807,7.216,7.216,0,0,0-2.682-.5h-7.649c-4.24,0-7.2,3.34-7.2,8.119v1.39a.621.621,0,0,0,.621.62h20.809a.62.62,0,0,0,.621-.62v-1.39a9.413,9.413,0,0,0-1.1-4.553A.619.619,0,0,0-3821.433,4569.147Z" transform="translate(3841.538 -4552.446)" fill="#fff"/>
    <path id="li01" d="M-3781.811,4569.594h-5.388a.623.623,0,0,0-.562.355.622.622,0,0,0,.081.659c1.893,2.315,2.015,6.9,2.015,6.945a.621.621,0,0,0,.621.609h8.656a.621.621,0,0,0,.621-.621v-1.146C-3775.766,4572.39-3778.251,4569.594-3781.811,4569.594Zm4.8,7.326h-7.446a15.762,15.762,0,0,0-1.583-6.083h4.226c3.318,0,4.8,2.791,4.8,5.558Z" transform="translate(3810.052 -4554.658)" fill="#fff"/>
  </g>
</svg>
