<svg id="i_gpgchat" xmlns="http://www.w3.org/2000/svg" width="28" height="28" viewBox="0 0 28 28">
  <rect id="bg28x28" width="28" height="28" fill="#fff" opacity="0"/>
  <g id="i_talk" transform="translate(-929 -127)">
    <path id="i_chat" d="M463.169,1105.368H448.145a3.352,3.352,0,0,0-3.339,3.359v15.115a.837.837,0,0,0,.834.841.831.831,0,0,0,.534-.2l4.776-4h12.218a3.354,3.354,0,0,0,3.339-3.36v-8.4A3.353,3.353,0,0,0,463.169,1105.368Zm-5.843,10.078h-6.677a.84.84,0,0,1,0-1.679h6.677a.84.84,0,0,1,0,1.679Zm3.339-3.359H450.649a.84.84,0,0,1,0-1.68h10.016a.84.84,0,0,1,0,1.68Z" transform="translate(487.794 -970.683)" fill="#fff"/>
    <path id="i_rou" d="M-2459.417,459.668c-4.362,0-7.9,1.07-7.9,2.39s3.536,2.39,7.9,2.39,7.9-1.07,7.9-2.39S-2455.055,459.668-2459.417,459.668Zm0,3.539c-2.963,0-5.365-.514-5.365-1.149s2.4-1.148,5.365-1.148,5.365.514,5.365,1.148S-2456.455,463.207-2459.417,463.207Z" transform="translate(3403.28 -331.551)" fill="#fff"/>
  </g>
</svg>
