<svg xmlns="http://www.w3.org/2000/svg" width="27" height="27" viewBox="0 0 27 27">
  <g id="i_system_info2" transform="translate(0.5 0.5)">
    <path id="i_info" d="M-3115,8207a12.921,12.921,0,0,1-9.192-3.807A12.915,12.915,0,0,1-3128,8194a12.916,12.916,0,0,1,3.808-9.194A12.911,12.911,0,0,1-3115,8181a12.911,12.911,0,0,1,9.192,3.807A12.916,12.916,0,0,1-3102,8194a12.915,12.915,0,0,1-3.808,9.193A12.921,12.921,0,0,1-3115,8207Zm.5-16a2.5,2.5,0,0,0-2.5,2.5v7a2.5,2.5,0,0,0,2.5,2.5,2.5,2.5,0,0,0,2.5-2.5v-7A2.5,2.5,0,0,0-3114.5,8191Zm0-6a2.5,2.5,0,0,0-2.5,2.5,2.5,2.5,0,0,0,2.5,2.5,2.5,2.5,0,0,0,2.5-2.5A2.5,2.5,0,0,0-3114.5,8185Z" transform="translate(3128 -8181.001)" fill="#fff" stroke="rgba(0,0,0,0)" stroke-width="1"/>
  </g>
</svg>
