<svg id="i_tick3" xmlns="http://www.w3.org/2000/svg" width="26" height="26.002" viewBox="0 0 26 26.002">
  <g id="i_tick3-2" data-name="i_tick3" transform="translate(0 0)">
    <path id="bo01" d="M-495.015,1636.672a13,13,0,0,0-13,13,13,13,0,0,0,13,13,13,13,0,0,0,13-13A13,13,0,0,0-495.015,1636.672Zm8.735,8.842-8.754,10.847a2.031,2.031,0,0,1-1.433.746l-.135,0a2,2,0,0,1-1.387-.554l-5.581-5.294a2.02,2.02,0,0,1-.075-2.849,2.026,2.026,0,0,1,1.462-.627,2,2,0,0,1,1.387.552l4,3.793,7.383-9.15a2,2,0,0,1,1.568-.75,2.017,2.017,0,0,1,1.265.449,1.993,1.993,0,0,1,.737,1.352A2,2,0,0,1-486.28,1645.515Z" transform="translate(508.016 -1636.673)" fill="#fff"/>
  </g>
</svg>
