<svg width="24" height="24" viewBox="0 0 24 24" fill="none" xmlns="http://www.w3.org/2000/svg">
<path d="M12.0024 21.1653C10.1894 21.1652 8.41726 20.6276 6.90988 19.6203C5.4025 18.6131 4.22763 17.1815 3.53381 15.5066C2.84 13.8317 2.6584 11.9887 3.01197 10.2105C3.36555 8.43243 4.23843 6.79908 5.52023 5.51702C7.2394 3.79785 9.5711 2.83203 12.0024 2.83203C14.4337 2.83203 16.7653 3.79785 18.4845 5.51702C20.2037 7.23619 21.1695 9.56789 21.1695 11.9992C21.1695 14.4304 20.2037 16.7621 18.4845 18.4813C17.6352 19.3351 16.625 20.0119 15.5123 20.4726C14.3996 20.9333 13.2066 21.1688 12.0024 21.1653ZM12.0024 4.29838C10.4795 4.29838 8.99074 4.74998 7.72448 5.59606C6.45823 6.44215 5.4713 7.64473 4.8885 9.05172C4.30571 10.4587 4.15322 12.0069 4.45033 13.5006C4.74744 14.9942 5.48079 16.3662 6.55765 17.4431C7.63452 18.52 9.00653 19.2533 10.5002 19.5504C11.9938 19.8475 13.542 19.695 14.949 19.1123C16.356 18.5295 17.5586 17.5425 18.4047 16.2763C19.2508 15.01 19.7024 13.5213 19.7024 11.9984C19.6999 9.95705 18.8878 8.00006 17.4443 6.55669C16.0008 5.11333 14.0437 4.30067 12.0024 4.29838Z" fill="#3336EB"/>
<mask id="mask0_2775_8244" style="mask-type:luminance" maskUnits="userSpaceOnUse" x="6" y="6" width="12" height="12">
<path d="M17.0915 6.90625H6.90625V17.0915H17.0915V6.90625Z" fill="white"/>
</mask>
<g mask="url(#mask0_2775_8244)">
<path d="M12.0605 11.1246V12.8705H15.2325C15.0456 13.562 14.6417 14.1752 14.0803 14.6201C13.5189 15.0649 12.8296 15.3179 12.1137 15.3418C11.3979 15.3657 10.6932 15.1593 10.1034 14.7529C9.51355 14.3465 9.0697 13.7615 8.83708 13.0841C8.60446 12.4066 8.59535 11.6724 8.81109 10.9894C9.02683 10.3064 9.45603 9.7106 10.0356 9.28968C10.6151 8.86877 11.3145 8.64492 12.0307 8.65106C12.747 8.6572 13.4424 8.893 14.0146 9.32378H16.3191L16.3317 9.31592C15.685 8.27077 14.6822 7.49467 13.5083 7.13076C12.3343 6.76684 11.0684 6.83965 9.94395 7.33575C8.81947 7.83185 7.91229 8.71779 7.38968 9.8302C6.86708 10.9426 6.7643 12.2064 7.1003 13.3887C7.4363 14.5709 8.18841 15.5918 9.21795 16.2631C10.2475 16.9343 11.485 17.2107 12.7023 17.0413C13.9196 16.8718 15.0346 16.268 15.8417 15.341C16.6488 14.4141 17.0935 13.2266 17.0938 11.9976V11.1246H12.0605Z" fill="#3336EB"/>
</g>
</svg>
