<svg width="24" height="24" viewBox="0 0 24 24" fill="none" xmlns="http://www.w3.org/2000/svg">
<path d="M21.251 7.50697V14.114C21.2513 14.6346 21.1489 15.1503 20.9498 15.6314C20.7507 16.1125 20.4587 16.5497 20.0906 16.9179C19.7225 17.2861 19.2854 17.5782 18.8043 17.7774C18.3233 17.9766 17.8077 18.0791 17.287 18.079H14.644L12.464 20.259C12.4046 20.3219 12.3329 20.3721 12.2533 20.4064C12.1738 20.4407 12.0881 20.4584 12.0015 20.4584C11.9149 20.4584 11.8292 20.4407 11.7497 20.4064C11.6701 20.3721 11.5985 20.3219 11.539 20.259L9.359 18.079H6.714C6.19336 18.079 5.67781 17.9764 5.19681 17.7771C4.71581 17.5779 4.27878 17.2858 3.91068 16.9176C3.54257 16.5494 3.25061 16.1123 3.05145 15.6312C2.8523 15.1502 2.74987 14.6346 2.75 14.114V7.50697C2.75 6.45565 3.16763 5.44739 3.91103 4.704C4.65442 3.9606 5.66268 3.54297 6.714 3.54297H17.286C18.3373 3.54297 19.3456 3.9606 20.089 4.704C20.8324 5.44739 21.251 6.45565 21.251 7.50697Z" stroke="#3336EB" stroke-width="1.5" stroke-linecap="round" stroke-linejoin="round"/>
<path d="M9.75 8.23733C9.97165 7.80826 10.3482 7.45705 10.82 7.23928C11.2918 7.02151 11.832 6.94962 12.3551 7.03499C12.7133 7.08393 13.0537 7.20665 13.3489 7.39332C13.6441 7.57999 13.886 7.82542 14.0552 8.10996C14.1772 8.33767 14.2434 8.58575 14.2495 8.83784C14.2557 9.08992 14.2015 9.3403 14.0907 9.57248C13.9799 9.80465 13.815 10.0134 13.6067 10.1848C13.3984 10.3563 13.1516 10.4867 12.8825 10.5674C12.6083 10.6598 12.3711 10.8223 12.2008 11.0342C12.0305 11.2462 11.9347 11.4981 11.9254 11.7584V12.25" stroke="#3336EB" stroke-width="1.5" stroke-miterlimit="10" stroke-linecap="round"/>
<path d="M11.8984 14.627H11.9044" stroke="#3336EB" stroke-width="2" stroke-linecap="round" stroke-linejoin="round"/>
</svg>
