<svg width="24" height="24" viewBox="0 0 24 24" fill="none" xmlns="http://www.w3.org/2000/svg">
<path d="M18.4004 4.59622H16.6124V3.6351C16.6124 3.28471 16.3233 3 15.9666 3C15.61 3 15.3207 3.28471 15.3207 3.6351V4.59622H8.34818V3.6351C8.34818 3.28471 8.05886 3 7.70253 3C7.34599 3 7.05666 3.28471 7.05666 3.6351V4.59622H5.26845C4.01713 4.59622 3 5.59665 3 6.8271V18.733C3 19.9628 4.01713 20.9637 5.26845 20.9637H18.4004C19.652 20.9637 20.6691 19.9628 20.6691 18.733V6.8271C20.6691 5.59665 19.652 4.59622 18.4004 4.59622ZM5.26845 5.86664H7.05666V6.8271C7.05666 7.17771 7.34599 7.4622 7.70253 7.4622C8.05886 7.4622 8.34818 7.17771 8.34818 6.8271V5.86664H15.3207V6.8271C15.3207 7.17771 15.61 7.4622 15.9666 7.4622C16.3233 7.4622 16.6124 7.17771 16.6124 6.8271V5.86664H18.4004C18.9393 5.86664 19.3771 6.29722 19.3771 6.8271V8.74756H4.29174V6.8271C4.29174 6.29722 4.72956 5.86664 5.26845 5.86664ZM18.4004 19.6933H5.26845C4.72956 19.6933 4.29174 19.2627 4.29174 18.733V10.0182H19.3771V18.733C19.3771 19.2627 18.9393 19.6933 18.4004 19.6933Z" fill="#3336EB"/>
<path d="M14.5413 13.2927L13.0151 13.0613L12.3326 11.62C12.127 11.1866 11.5345 11.1866 11.3295 11.62L10.6465 13.0613L9.12082 13.2927C8.66146 13.3616 8.47803 13.9495 8.81019 14.2867L9.91497 15.4084L9.65399 16.9928C9.57578 17.4688 10.0556 17.8322 10.4659 17.607L11.8308 16.859L13.1964 17.607C13.607 17.8322 14.0865 17.4688 14.0081 16.9928L13.7471 15.4084L14.8515 14.2867C15.1834 13.9495 15.0006 13.3616 14.5413 13.2927Z" fill="#3336EB"/>
</svg>
