<svg width="24" height="24" viewBox="0 0 24 24" fill="none" xmlns="http://www.w3.org/2000/svg">
<path d="M21.2541 11.4545H13.1042C12.8309 11.4541 12.5791 11.3149 12.4452 11.0904C12.3099 10.8696 12.3099 10.5974 12.4452 10.3766L16.5278 3.65186C16.6623 3.43231 16.9102 3.29645 17.1792 3.29492C17.4481 3.29645 17.6961 3.43231 17.8306 3.65186L21.9055 10.3551C22.0408 10.576 22.0408 10.8481 21.9055 11.069C21.7789 11.2996 21.5295 11.4472 21.2541 11.4545ZM14.4373 10.0268H19.9514L17.1792 5.4651L14.4373 10.0268Z" fill="#374151"/>
<path d="M13.8556 21.7903C13.5479 21.792 13.2697 21.6181 13.1517 21.3502C13.0337 21.0824 13.0993 20.7739 13.3178 20.5696L19.9908 14.2875C20.1712 14.0719 20.4667 13.9729 20.751 14.0329C21.0353 14.0929 21.2579 14.3012 21.3235 14.5687C21.3892 14.8361 21.2862 15.1154 21.0588 15.2869L14.3858 21.5833C14.2447 21.7152 14.0543 21.7896 13.8556 21.7903Z" fill="#374151"/>
<path d="M20.5187 21.7923C20.32 21.7915 20.1295 21.7172 19.9885 21.5853L13.3155 15.2889C13.0881 15.1174 12.9851 14.8381 13.0508 14.5706C13.1164 14.3031 13.339 14.0948 13.6233 14.0348C13.9075 13.9749 14.2031 14.0739 14.3835 14.2895L21.0564 20.5716C21.1998 20.7056 21.2805 20.8881 21.2805 21.0784C21.2805 21.2688 21.1998 21.4512 21.0564 21.5853C20.9135 21.7189 20.72 21.7934 20.5187 21.7923Z" fill="#374151"/>
<path d="M8.97726 21.8693H2.3043C1.88599 21.8693 1.54688 21.5497 1.54688 21.1555V14.8662C1.54688 14.472 1.88599 14.1523 2.3043 14.1523H8.97726C9.39558 14.1523 9.73469 14.472 9.73469 14.8662V21.1555C9.73469 21.5497 9.39558 21.8693 8.97726 21.8693ZM3.06173 20.4416H8.21983V15.5801H3.06173V20.4416Z" fill="#374151"/>
<path d="M9.26762 6.9003H7.0635C6.64519 6.9003 6.30607 7.21991 6.30607 7.61417C6.30607 8.00843 6.64519 8.32805 7.0635 8.32805H8.47232C7.93221 9.6932 6.38823 10.4562 4.88968 10.0985C3.83781 9.83984 3.02081 9.05886 2.7613 8.06391C2.5614 7.22978 2.76866 6.35511 3.32611 5.68039C3.88356 5.00568 4.73251 4.60195 5.63953 4.5802C6.45815 4.58061 7.23987 4.90118 7.79821 5.46541C7.9215 5.6836 8.13879 5.84095 8.39423 5.89704C8.64968 5.95312 8.91838 5.90247 9.13129 5.75809C9.76753 5.29408 9.22975 4.5802 9.06312 4.41601C7.57307 2.88701 5.14822 2.55521 3.25836 3.62173C1.3685 4.68824 0.533844 6.8595 1.26031 8.81942C1.98677 10.7793 4.07438 11.9884 6.25776 11.7138C8.44114 11.4392 10.1193 9.75644 10.275 7.68556C10.275 6.96454 9.91901 6.9003 9.26762 6.9003Z" fill="#374151"/>
</svg>
