<svg width="24" height="24" viewBox="0 0 24 24" fill="none" xmlns="http://www.w3.org/2000/svg">
<path d="M19.9683 13.3388C20.1492 13.3388 20.3228 13.4107 20.4507 13.5387C20.5787 13.6667 20.6506 13.8403 20.6506 14.0213V19.7485C20.6769 20.5402 20.5814 21.0599 20.2275 21.3865C19.8981 21.6897 19.4205 21.7765 18.8015 21.7434H5.3142C4.68648 21.7122 4.19911 21.4577 3.97298 20.9439C3.82287 20.6055 3.75269 20.2058 3.75269 19.7465V14.0203C3.75269 13.8393 3.82457 13.6657 3.95253 13.5377C4.08049 13.4097 4.25404 13.3378 4.435 13.3378C4.61596 13.3378 4.78951 13.4097 4.91746 13.5377C5.04542 13.6657 5.11731 13.8393 5.11731 14.0203V19.7465C5.11861 19.9734 5.14135 20.156 5.18554 20.2945L5.22063 20.39L5.2177 20.3803C5.21868 20.3676 5.24695 20.3725 5.34637 20.3783H18.8366C19.0754 20.392 19.2275 20.3783 19.2811 20.3774L19.285 20.3764C19.2723 20.3247 19.2967 20.1131 19.285 19.7699V14.0203C19.285 13.9306 19.3027 13.8418 19.337 13.7589C19.3714 13.676 19.4217 13.6008 19.4852 13.5374C19.5486 13.474 19.624 13.4237 19.7069 13.3895C19.7897 13.3552 19.8786 13.3377 19.9683 13.3378M12.42 2.25C12.6773 2.25 12.9073 2.3514 13.1237 2.53958L21.5308 10.4752C21.5971 10.5365 21.6505 10.6103 21.6881 10.6924C21.7257 10.7745 21.7466 10.8633 21.7496 10.9535C21.7526 11.0438 21.7378 11.1337 21.7058 11.2182C21.6738 11.3026 21.6254 11.3799 21.5634 11.4455C21.5013 11.5111 21.4269 11.5637 21.3444 11.6003C21.2619 11.6369 21.1729 11.6568 21.0827 11.6588C20.9924 11.6608 20.9027 11.6448 20.8186 11.6119C20.7346 11.5789 20.6579 11.5296 20.5931 11.4668L12.3888 3.72129L3.37839 11.4872C3.24138 11.6055 3.063 11.6646 2.88248 11.6513C2.70197 11.638 2.53412 11.5536 2.41585 11.4166C2.29758 11.2795 2.23858 11.1011 2.25183 10.9205C2.26509 10.7399 2.3495 10.572 2.48652 10.4537L11.6938 2.52008L11.7776 2.45768C11.9862 2.32703 12.1948 2.25098 12.4209 2.25098" fill="#3336EB"/>
<path d="M19.9683 13.3388C20.1492 13.3388 20.3228 13.4107 20.4507 13.5387C20.5787 13.6667 20.6506 13.8403 20.6506 14.0213V19.7485C20.6769 20.5402 20.5814 21.0599 20.2275 21.3865C19.8981 21.6897 19.4205 21.7765 18.8015 21.7434H5.3142C4.68648 21.7122 4.19911 21.4577 3.97298 20.9439C3.82287 20.6055 3.75269 20.2058 3.75269 19.7465V14.0203C3.75269 13.8393 3.82457 13.6657 3.95253 13.5377C4.08049 13.4097 4.25404 13.3378 4.435 13.3378C4.61596 13.3378 4.78951 13.4097 4.91746 13.5377C5.04542 13.6657 5.11731 13.8393 5.11731 14.0203V19.7465C5.11861 19.9734 5.14135 20.156 5.18554 20.2945L5.22063 20.39L5.2177 20.3803C5.21868 20.3676 5.24695 20.3725 5.34637 20.3783H18.8366C19.0754 20.392 19.2275 20.3783 19.2811 20.3774L19.285 20.3764C19.2723 20.3247 19.2967 20.1131 19.285 19.7699V14.0203C19.285 13.9306 19.3027 13.8418 19.337 13.7589C19.3714 13.676 19.4217 13.6008 19.4852 13.5374C19.5486 13.474 19.624 13.4237 19.7069 13.3895C19.7897 13.3552 19.8786 13.3377 19.9683 13.3378M12.42 2.25C12.6773 2.25 12.9073 2.3514 13.1237 2.53958L21.5308 10.4752C21.5971 10.5365 21.6505 10.6103 21.6881 10.6924C21.7257 10.7745 21.7466 10.8633 21.7496 10.9535C21.7526 11.0438 21.7378 11.1337 21.7058 11.2182C21.6738 11.3026 21.6254 11.3799 21.5634 11.4455C21.5013 11.5111 21.4269 11.5637 21.3444 11.6003C21.2619 11.6369 21.1729 11.6568 21.0827 11.6588C20.9924 11.6608 20.9027 11.6448 20.8186 11.6119C20.7346 11.5789 20.6579 11.5296 20.5931 11.4668L12.3888 3.72129L3.37839 11.4872C3.24138 11.6055 3.063 11.6646 2.88248 11.6513C2.70197 11.638 2.53412 11.5536 2.41585 11.4166C2.29758 11.2795 2.23858 11.1011 2.25183 10.9205C2.26509 10.7399 2.3495 10.572 2.48652 10.4537L11.6938 2.52008L11.7776 2.45768C11.9862 2.32703 12.1948 2.25098 12.4209 2.25098" stroke="#3336EB"/>
</svg>
