<svg width="24" height="24" viewBox="0 0 24 24" fill="none" xmlns="http://www.w3.org/2000/svg">
<path d="M3 11.6667C3 16.4534 6.8801 20.3335 11.6667 20.3335C16.4534 20.3335 20.3335 16.4534 20.3335 11.6667C20.3335 6.8801 16.4534 3 11.6667 3C6.8801 3 3 6.8801 3 11.6667Z" stroke="#374151" stroke-width="2" stroke-linecap="round" stroke-linejoin="round"/>
<path d="M12.5343 3.04297C12.5343 3.04297 15.1343 6.46633 15.1343 11.6664C15.1343 16.8664 12.5343 20.2898 12.5343 20.2898M10.8009 20.2898C10.8009 20.2898 8.20092 16.8664 8.20092 11.6664C8.20092 6.46633 10.8009 3.04297 10.8009 3.04297M3.54688 14.6997H19.7884M3.54688 8.63302H19.7884" stroke="#374151" stroke-width="1.5" stroke-linecap="round" stroke-linejoin="round"/>
</svg>
