<svg width="24" height="24" viewBox="0 0 24 24" fill="none" xmlns="http://www.w3.org/2000/svg">
<path d="M12.0514 0.5H8.94859C7.92481 0.5 7.09874 0.5 6.43007 0.556514C5.74252 0.615657 5.13807 0.740514 4.57896 1.03754C3.68983 1.50986 2.96686 2.26396 2.51378 3.19166C2.22919 3.7752 2.11082 4.40606 2.05415 5.12366C2 5.82154 2 6.68371 2 7.75223V16.2478C2 17.3163 2 18.1785 2.05415 18.8763C2.11082 19.5939 2.23044 20.2248 2.51504 20.8083C2.96758 21.7363 3.6901 22.4909 4.57896 22.9638C5.13807 23.2608 5.74252 23.3843 6.43007 23.4435C7.09874 23.5 7.92481 23.5 8.94859 23.5H12.0514C13.0752 23.5 13.9013 23.5 14.5699 23.4435C15.2575 23.3843 15.8619 23.2595 16.421 22.9625C17.3102 22.4901 18.0331 21.736 18.4862 20.8083C18.7708 20.2248 18.8892 19.5939 18.9459 18.8763C19 18.1785 19 17.3163 19 16.2478V15.9429C19 15.6814 18.9005 15.4307 18.7234 15.2459C18.5463 15.061 18.306 14.9571 18.0556 14.9571C17.8051 14.9571 17.5648 15.061 17.3877 15.2459C17.2106 15.4307 17.1111 15.6814 17.1111 15.9429V16.2057C17.1111 17.3255 17.1111 18.1075 17.0633 18.716C17.0154 19.3114 16.9285 19.6544 16.8026 19.9146C16.5306 20.4706 16.0974 20.9227 15.5647 21.2066C15.3154 21.338 14.9867 21.43 14.415 21.4786C13.8333 21.5273 13.0853 21.5286 12.0111 21.5286H8.98889C7.916 21.5286 7.16674 21.5286 6.5837 21.4786C6.01326 21.4287 5.68459 21.338 5.43652 21.2066C4.90311 20.9233 4.46934 20.4711 4.19741 19.9146C4.07148 19.6544 3.98333 19.3114 3.93674 18.7147C3.89015 18.1075 3.88889 17.3255 3.88889 16.2057V7.79429C3.88889 6.67451 3.88889 5.89251 3.93674 5.284C3.98333 4.68863 4.07148 4.3456 4.19741 4.08669C4.46913 3.52977 4.90292 3.07702 5.43652 2.79343C5.68459 2.662 6.01326 2.57 6.58496 2.52137C7.16674 2.47274 7.916 2.47143 8.98889 2.47143H12.0111C13.0853 2.47143 13.8333 2.47143 14.4163 2.52137C14.9867 2.57 15.3154 2.662 15.5647 2.79343C16.0974 3.07731 16.5306 3.52943 16.8026 4.08669C16.9285 4.3456 17.0167 4.68863 17.0633 5.28531C17.1099 5.89251 17.1111 6.67451 17.1111 7.79429V8.05714C17.1111 8.31857 17.2106 8.56929 17.3877 8.75415C17.5648 8.939 17.8051 9.04286 18.0556 9.04286C18.306 9.04286 18.5463 8.939 18.7234 8.75415C18.9005 8.56929 19 8.31857 19 8.05714V7.75223C19 6.68371 19 5.82154 18.9459 5.12366C18.8892 4.40606 18.7696 3.7752 18.485 3.19166C18.0324 2.26367 17.3099 1.50911 16.421 1.03623C15.8619 0.7392 15.2575 0.615657 14.5699 0.556514C13.9013 0.5 13.0752 0.5 12.0514 0.5Z" fill="#3336EB"/>
<path d="M12.1994 7.78503C12.2889 7.69704 12.397 7.62647 12.517 7.57753C12.637 7.52858 12.7665 7.50226 12.8979 7.50014C13.0292 7.49802 13.1597 7.52014 13.2815 7.56518C13.4033 7.61022 13.514 7.67726 13.6069 7.7623C13.6998 7.84733 13.773 7.94863 13.8222 8.06014C13.8714 8.17165 13.8956 8.29109 13.8933 8.41133C13.891 8.53157 13.8622 8.65016 13.8088 8.76001C13.7553 8.86986 13.6782 8.96873 13.5821 9.05071L11.3385 11.1045H22.0217C22.2811 11.1045 22.53 11.1988 22.7135 11.3668C22.8969 11.5347 23 11.7625 23 12C23 12.2375 22.8969 12.4653 22.7135 12.6332C22.53 12.8012 22.2811 12.8955 22.0217 12.8955H11.3385L13.5821 14.9493C13.6782 15.0313 13.7553 15.1301 13.8088 15.24C13.8622 15.3498 13.891 15.4684 13.8933 15.5887C13.8956 15.7089 13.8714 15.8284 13.8222 15.9399C13.773 16.0514 13.6998 16.1527 13.6069 16.2377C13.514 16.3227 13.4033 16.3898 13.2815 16.4348C13.1597 16.4799 13.0292 16.502 12.8979 16.4999C12.7665 16.4977 12.637 16.4714 12.517 16.4225C12.397 16.3735 12.2889 16.303 12.1994 16.215L8.28611 12.6328C8.10291 12.4649 8 12.2373 8 12C8 11.7627 8.10291 11.5351 8.28611 11.3672L12.1994 7.78503Z" fill="#3336EB"/>
</svg>
