<svg width="24" height="24" viewBox="0 0 24 24" fill="none" xmlns="http://www.w3.org/2000/svg">
<g clip-path="url(#clip0_2980_4253)">
<path d="M11.9486 23.5L15.0514 23.5C16.0752 23.5 16.9013 23.5 17.5699 23.4435C18.2575 23.3843 18.8619 23.2595 19.421 22.9625C20.3102 22.4901 21.0331 21.736 21.4862 20.8083C21.7708 20.2248 21.8892 19.5939 21.9459 18.8763C22 18.1785 22 17.3163 22 16.2478L22 7.75223C22 6.68372 22 5.82154 21.9459 5.12366C21.8892 4.40606 21.7696 3.7752 21.485 3.19166C21.0324 2.26367 20.3099 1.50912 19.421 1.03623C18.8619 0.739202 18.2575 0.615658 17.5699 0.556515C16.9013 0.5 16.0752 0.500002 15.0514 0.500001L11.9486 0.500001C10.9248 0.500001 10.0987 0.499999 9.43008 0.556514C8.74252 0.615657 8.13808 0.740516 7.57897 1.03754C6.68983 1.50986 5.96687 2.26396 5.51378 3.19166C5.22919 3.7752 5.11082 4.40606 5.05415 5.12366C5 5.82154 5 6.68371 5 7.75223L5 8.05714C5 8.31857 5.0995 8.56929 5.27662 8.75415C5.45374 8.93901 5.69396 9.04286 5.94445 9.04286C6.19493 9.04286 6.43515 8.93901 6.61227 8.75415C6.78939 8.56929 6.88889 8.31857 6.88889 8.05714L6.88889 7.79429C6.88889 6.67452 6.88889 5.89251 6.93674 5.284C6.9846 4.68863 7.07148 4.3456 7.19741 4.08537C7.46941 3.52943 7.90259 3.07732 8.43526 2.79343C8.68459 2.662 9.01326 2.57 9.58496 2.52137C10.1667 2.47274 10.9147 2.47143 11.9889 2.47143L15.0111 2.47143C16.084 2.47143 16.8333 2.47143 17.4163 2.52137C17.9867 2.57132 18.3154 2.662 18.5635 2.79343C19.0969 3.07668 19.5307 3.52895 19.8026 4.08537C19.9285 4.3456 20.0167 4.68863 20.0633 5.28532C20.1099 5.89252 20.1111 6.67452 20.1111 7.79429L20.1111 16.2057C20.1111 17.3255 20.1111 18.1075 20.0633 18.716C20.0167 19.3114 19.9285 19.6544 19.8026 19.9133C19.5309 20.4702 19.0971 20.923 18.5635 21.2066C18.3154 21.338 17.9867 21.43 17.415 21.4786C16.8333 21.5273 16.084 21.5286 15.0111 21.5286L11.9889 21.5286C10.9147 21.5286 10.1667 21.5286 9.58371 21.4786C9.01326 21.43 8.68459 21.338 8.43526 21.2066C7.90259 20.9227 7.46941 20.4706 7.19741 19.9133C7.07148 19.6544 6.98333 19.3114 6.93674 18.7147C6.89015 18.1075 6.88889 17.3255 6.88889 16.2057L6.88889 15.9429C6.88889 15.6814 6.78939 15.4307 6.61227 15.2459C6.43515 15.061 6.19493 14.9571 5.94445 14.9571C5.69396 14.9571 5.45374 15.061 5.27662 15.2459C5.0995 15.4307 5 15.6814 5 15.9429L5 16.2478C5 17.3163 5 18.1785 5.05415 18.8763C5.11082 19.5939 5.23045 20.2248 5.51504 20.8083C5.96758 21.7363 6.6901 22.4909 7.57896 22.9638C8.13807 23.2608 8.74252 23.3843 9.43007 23.4435C10.0987 23.5 10.9248 23.5 11.9486 23.5Z" fill="white"/>
<path d="M11.8006 16.215C11.7111 16.303 11.603 16.3735 11.483 16.4225C11.363 16.4714 11.2335 16.4977 11.1021 16.4999C10.9708 16.502 10.8403 16.4799 10.7185 16.4348C10.5967 16.3898 10.486 16.3227 10.3931 16.2377C10.3002 16.1527 10.227 16.0514 10.1778 15.9399C10.1286 15.8284 10.1044 15.7089 10.1067 15.5887C10.109 15.4684 10.1378 15.3498 10.1912 15.24C10.2447 15.1301 10.3218 15.0313 10.4179 14.9493L12.6615 12.8955L1.97832 12.8955C1.71885 12.8955 1.47001 12.8012 1.28654 12.6332C1.10307 12.4653 0.999999 12.2375 0.999999 12C0.999999 11.7625 1.10307 11.5347 1.28654 11.3668C1.47001 11.1988 1.71885 11.1045 1.97832 11.1045L12.6615 11.1045L10.4179 9.05072C10.3218 8.96873 10.2447 8.86986 10.1912 8.76001C10.1378 8.65016 10.109 8.53158 10.1067 8.41133C10.1044 8.29109 10.1286 8.17165 10.1778 8.06014C10.227 7.94863 10.3002 7.84734 10.3931 7.7623C10.486 7.67726 10.5967 7.61022 10.7185 7.56518C10.8403 7.52014 10.9708 7.49802 11.1021 7.50014C11.2335 7.50226 11.363 7.52858 11.483 7.57753C11.603 7.62647 11.7111 7.69705 11.8006 7.78503L15.7139 11.3672C15.8971 11.5351 16 11.7627 16 12C16 12.2373 15.8971 12.4649 15.7139 12.6328L11.8006 16.215Z" fill="white"/>
</g>
<defs>
<clipPath id="clip0_2980_4253">
<rect width="24" height="24" fill="white" transform="translate(24 24) rotate(-180)"/>
</clipPath>
</defs>
</svg>
