<svg width="24" height="24" viewBox="0 0 24 24" fill="none" xmlns="http://www.w3.org/2000/svg">
<path d="M14.304 4.84436L17.156 7.69636M7 7.00036H4C3.73478 7.00036 3.48043 7.10572 3.29289 7.29325C3.10536 7.48079 3 7.73514 3 8.00036V18.0004C3 18.2656 3.10536 18.5199 3.29289 18.7075C3.48043 18.895 3.73478 19.0004 4 19.0004H15C15.2652 19.0004 15.5196 18.895 15.7071 18.7075C15.8946 18.5199 16 18.2656 16 18.0004V13.5004M18.409 3.59036C18.5964 3.77767 18.745 4.00005 18.8464 4.24481C18.9478 4.48958 19 4.75192 19 5.01686C19 5.2818 18.9478 5.54414 18.8464 5.78891C18.745 6.03367 18.5964 6.25605 18.409 6.44336L11.565 13.2874L8 14.0004L8.713 10.4354L15.557 3.59136C15.7442 3.4039 15.9664 3.25517 16.2111 3.1537C16.4558 3.05223 16.7181 3 16.983 3C17.2479 3 17.5102 3.05223 17.7549 3.1537C17.9996 3.25517 18.2218 3.4039 18.409 3.59136V3.59036Z" stroke="#374151" stroke-width="2" stroke-linecap="round" stroke-linejoin="round"/>
</svg>
