<svg width="24" height="24" viewBox="0 0 24 24" fill="none" xmlns="http://www.w3.org/2000/svg">
<path d="M18.5806 9.57799H16.4333V4.97243C16.4333 3.71866 15.4133 2.69922 14.1595 2.69922H7.34536C6.09159 2.69922 5.0716 3.71866 5.0716 4.97243V7.52925H2.70312V9.97876H5.0716V17.0951C5.0716 18.3489 6.09159 19.3689 7.34536 19.3689H9.91423V21.3804H14.776V19.3689H18.5806C19.8344 19.3689 20.8543 18.3489 20.8543 17.0951V11.8512C20.8543 10.5974 19.8344 9.57799 18.5806 9.57799ZM19.9783 17.0951C19.9783 17.866 19.3515 18.4935 18.5806 18.4935H7.34536C6.57503 18.4935 5.9476 17.866 5.9476 17.0951V4.97243C5.9476 4.2021 6.57503 3.57522 7.34536 3.57522H14.1595C14.9304 3.57522 15.5573 4.2021 15.5573 4.97243V10.4534H18.5806C19.3515 10.4534 19.9783 11.0809 19.9783 11.8512V17.0951Z" fill="#374151" stroke="#374151" stroke-width="0.5"/>
<rect x="8.23438" y="6.03711" width="2.1412" height="2.1412" fill="#374151"/>
</svg>
