<svg width="24" height="24" viewBox="0 0 24 24" fill="none" xmlns="http://www.w3.org/2000/svg">
<path d="M11.6961 7.88848H16.2161H11.6961ZM11.6961 11.9995H16.2161H11.6961ZM11.6961 16.1105H16.2161H11.6961ZM8.07013 8.50548C8.23376 8.50548 8.3907 8.44048 8.50641 8.32477C8.62212 8.20906 8.68712 8.05212 8.68712 7.88848C8.68712 7.72485 8.62212 7.56791 8.50641 7.4522C8.3907 7.33649 8.23376 7.27148 8.07013 7.27148C7.90649 7.27148 7.74955 7.33649 7.63384 7.4522C7.51813 7.56791 7.45313 7.72485 7.45312 7.88848C7.45313 8.05212 7.51813 8.20906 7.63384 8.32477C7.74955 8.44048 7.90649 8.50548 8.07013 8.50548ZM8.07013 12.6165C8.23376 12.6165 8.3907 12.5515 8.50641 12.4358C8.62212 12.3201 8.68712 12.1631 8.68712 11.9995C8.68712 11.8358 8.62212 11.6789 8.50641 11.5632C8.3907 11.4475 8.23376 11.3825 8.07013 11.3825C7.90649 11.3825 7.74955 11.4475 7.63384 11.5632C7.51813 11.6789 7.45313 11.8358 7.45312 11.9995C7.45313 12.1631 7.51813 12.3201 7.63384 12.4358C7.74955 12.5515 7.90649 12.6165 8.07013 12.6165ZM8.07013 16.7275C8.23376 16.7275 8.3907 16.6625 8.50641 16.5468C8.62212 16.4311 8.68712 16.2741 8.68712 16.1105C8.68712 15.9468 8.62212 15.7899 8.50641 15.6742C8.3907 15.5585 8.23376 15.4935 8.07013 15.4935C7.90649 15.4935 7.74955 15.5585 7.63384 15.6742C7.51813 15.7899 7.45313 15.9468 7.45312 16.1105C7.45313 16.2741 7.51813 16.4311 7.63384 16.5468C7.74955 16.6625 7.90649 16.7275 8.07013 16.7275Z" fill="#3336EB"/>
<path d="M11.6961 7.88848H16.2161M11.6961 11.9995H16.2161M11.6961 16.1105H16.2161M8.07013 8.50548C8.23376 8.50548 8.3907 8.44048 8.50641 8.32477C8.62212 8.20906 8.68712 8.05212 8.68712 7.88848C8.68712 7.72485 8.62212 7.56791 8.50641 7.4522C8.3907 7.33649 8.23376 7.27148 8.07013 7.27148C7.90649 7.27148 7.74955 7.33649 7.63384 7.4522C7.51813 7.56791 7.45313 7.72485 7.45312 7.88848C7.45313 8.05212 7.51813 8.20906 7.63384 8.32477C7.74955 8.44048 7.90649 8.50548 8.07013 8.50548ZM8.07013 12.6165C8.23376 12.6165 8.3907 12.5515 8.50641 12.4358C8.62212 12.3201 8.68712 12.1631 8.68712 11.9995C8.68712 11.8358 8.62212 11.6789 8.50641 11.5632C8.3907 11.4475 8.23376 11.3825 8.07013 11.3825C7.90649 11.3825 7.74955 11.4475 7.63384 11.5632C7.51813 11.6789 7.45313 11.8358 7.45312 11.9995C7.45313 12.1631 7.51813 12.3201 7.63384 12.4358C7.74955 12.5515 7.90649 12.6165 8.07013 12.6165ZM8.07013 16.7275C8.23376 16.7275 8.3907 16.6625 8.50641 16.5468C8.62212 16.4311 8.68712 16.2741 8.68712 16.1105C8.68712 15.9468 8.62212 15.7899 8.50641 15.6742C8.3907 15.5585 8.23376 15.4935 8.07013 15.4935C7.90649 15.4935 7.74955 15.5585 7.63384 15.6742C7.51813 15.7899 7.45313 15.9468 7.45312 16.1105C7.45313 16.2741 7.51813 16.4311 7.63384 16.5468C7.74955 16.6625 7.90649 16.7275 8.07013 16.7275Z" stroke="#3336EB" stroke-width="1.5" stroke-linecap="round" stroke-linejoin="round"/>
<path d="M15.25 2.75H8.75C5.43629 2.75 2.75 5.43629 2.75 8.75V15.25C2.75 18.5637 5.43629 21.25 8.75 21.25H15.25C18.5637 21.25 21.25 18.5637 21.25 15.25V8.75C21.25 5.43629 18.5637 2.75 15.25 2.75Z" stroke="#3336EB" stroke-width="1.5"/>
</svg>
