<?xml version="1.0" encoding="UTF-8"?><svg id="_圖層_1" xmlns="http://www.w3.org/2000/svg" xmlns:xlink="http://www.w3.org/1999/xlink" viewBox="0 0 1510.3 1024"><defs><style>.cls-1{fill:url(#_未命名漸層_8-7);}.cls-2{fill:url(#_未命名漸層_8-6);}.cls-3{fill:url(#_未命名漸層_20);}.cls-4{fill:#020202;}.cls-5{fill:#fff;}.cls-6{fill:url(#_未命名漸層_21);}.cls-7{fill:url(#_未命名漸層_8-2);}.cls-8{fill:url(#_未命名漸層_8-8);}.cls-9{fill:url(#_未命名漸層_8);}.cls-10{fill:url(#_未命名漸層_8-3);}.cls-10,.cls-11{fill-rule:evenodd;}.cls-12{fill:url(#_未命名漸層_8-9);}.cls-13{fill:url(#_未命名漸層_19);}.cls-14{fill:#ff50ad;}.cls-11{fill:#0011fd;}.cls-15{fill:url(#_未命名漸層_8-5);}.cls-16{fill:url(#_未命名漸層_8-10);}.cls-17{fill:#50a8ff;}.cls-18{fill:url(#_未命名漸層_8-4);}.cls-19{fill:#ff5151;}</style><linearGradient id="_未命名漸層_8" x1="1298.6" y1="936.8" x2="1298.6" y2="774.3" gradientUnits="userSpaceOnUse"><stop offset=".2" stop-color="#f8ba33"/><stop offset="1" stop-color="#fff49d"/></linearGradient><linearGradient id="_未命名漸層_8-2" x1="1120.1" y1="936.8" x2="1120.1" y2="774.3" xlink:href="#_未命名漸層_8"/><linearGradient id="_未命名漸層_8-3" x1="964.6" y1="936.8" x2="964.6" y2="774.3" xlink:href="#_未命名漸層_8"/><linearGradient id="_未命名漸層_8-4" x1="263.5" y1="836.1" x2="263.5" y2="243.3" xlink:href="#_未命名漸層_8"/><linearGradient id="_未命名漸層_8-5" x1="596.4" y1="836.1" x2="596.4" y2="243.3" xlink:href="#_未命名漸層_8"/><linearGradient id="_未命名漸層_8-6" x1="562.6" y1="836.1" x2="562.6" y2="243.3" xlink:href="#_未命名漸層_8"/><linearGradient id="_未命名漸層_19" x1="1105.5" y1="715.7" x2="1105.5" y2="195.1" gradientUnits="userSpaceOnUse"><stop offset=".1" stop-color="#f8ba33"/><stop offset="1" stop-color="#fff49d"/></linearGradient><linearGradient id="_未命名漸層_8-7" x1="1224.2" y1="715.7" x2="1224.2" y2="195.1" xlink:href="#_未命名漸層_8"/><linearGradient id="_未命名漸層_8-8" x1="1224.6" y1="715.7" x2="1224.6" y2="195.1" xlink:href="#_未命名漸層_8"/><linearGradient id="_未命名漸層_8-9" x1="968" y1="715.7" x2="968" y2="195.1" xlink:href="#_未命名漸層_8"/><linearGradient id="_未命名漸層_8-10" x1="967.6" y1="715.7" x2="967.6" y2="195.1" xlink:href="#_未命名漸層_8"/><linearGradient id="_未命名漸層_21" x1="950.8" y1="715.7" x2="950.8" y2="195.1" gradientUnits="userSpaceOnUse"><stop offset=".1" stop-color="#f8ba33"/><stop offset="1" stop-color="#fff49d"/></linearGradient><linearGradient id="_未命名漸層_20" x1="1225.2" y1="715.7" x2="1225.2" y2="195.1" gradientUnits="userSpaceOnUse"><stop offset=".1" stop-color="#f8ba33"/><stop offset="1" stop-color="#fff49d"/></linearGradient></defs><polygon class="cls-4" points="844.4 748.7 754.7 559 802.9 559 778.1 356.9 765.6 358.6 765.6 337.4 765.6 197.9 436.4 169.1 434.7 200.8 152.4 173 142.9 388.8 120.4 395.8 120.4 533.6 57.6 549.4 140.7 756.1 284.4 659.9 320.8 665.1 265 739.3 489.3 735.2 484.1 748.7 844.4 748.7"/><polygon class="cls-14" points="152.4 173 145.2 336 341.4 191.6 152.4 173"/><polygon class="cls-4" points="1452.7 177 1329.2 182.1 1329.2 101 872.8 81.1 860.5 200.5 781.6 203 763.6 387.9 755.2 387.9 760.7 417.2 759.6 428.2 762.8 428.2 767.1 451.3 783.1 536 802 533.8 805.8 591.9 745 598.2 784.8 668.2 828.5 745.1 882.7 731.3 881.2 749.7 1040.1 740.4 1040.1 740.4 1191.2 740.4 1190.8 742.5 1406 742.5 1421.5 421.8 1422.8 421.8 1452.7 177"/><path class="cls-4" d="M1436.6,831.9c-9.7-11.7-23.4-19.4-38.7-22l18.7-105.1h-197.7l-18.2-42.2-33.9,42.2h-133.7l-.2,1.2h-160l-4.6,25.4h-77.2v.8h-96c-3.2-.5-6.4-.8-9.7-.8h-129.9c-13.8,0-26.9,4.5-37.8,12.2l2.4-13.9h-71c-1.9-8.5-5.7-16.5-11.2-23.4l3.2-21.7H119.5l-22.8,128.7h79.9s-22.6,127.5-22.6,127.5h143.8l7.1-40.4h47.7c2.2,8,6.1,15.5,11.5,21.9,11.1,13.1,27.5,20.7,45.1,20.7h127.2l.3-1.5h162.4,0s141.6,0,141.6,0l1.1-5.9h174.7c7.8,0,15.4-1.5,22.5-4.3,6.4,2.4,13.2,3.7,20.3,3.7h110.8c8.2,0,16.2-1.7,23.6-4.8,7.5,3.5,15.8,5.4,24.5,5.4h129.6c8.9,4.2,18.8,6.4,29.1,6.4,35.3,0,66.6-25.3,72.9-58.9,3.4-18.4-1.3-37.1-13.1-51.2Z"/><path class="cls-9" d="M1374,898.5h-160c-9.5,0-15.9-7.5-14.2-16.8l13.4-75.3h89.4l3-16.8h-88.8l6.8-38.3h139l-13.6,76.6c-1.7,9.3-10.7,16.8-20.2,16.8h-73.6l-2.7,15.5h128.7c10.8.2,18.1,8.7,16.2,19.2-1.9,10.5-12.1,19-23,19.2h-.3Z"/><path class="cls-7" d="M1041,881c-1.7,9.3,4.7,16.8,14.2,16.8h110.8c9.5,0,18.5-7.5,20.2-16.8l13.3-74.6h-50.2l-10.2,57.1h-44.7l19.9-112.3h-50.2l-23.1,129.8Z"/><path class="cls-10" d="M1012.4,898.5h-134.9l26.2-146h133.5c9.5,0,15.9,7.5,14.2,16.7l-7.2,40c-1.6,9.2-10.7,16.7-20.2,16.7h1.4c9.5,0,15.9,7.5,14.2,16.7l-7,39.3c-1.6,9.2-10.7,16.7-20.2,16.7ZM954.5,845.1h37.2l-2.8,15.3h-54.3l12.5-70h53l-3,16.7h-35.8l-6.8,38Z"/><path class="cls-5" d="M405.2,905.8c-11.1,0-18.6-9.1-16.7-20.3l18.9-109.4h58.9l-15.1,87.5h53.3l-7.3,42.1h-92Z"/><path class="cls-5" d="M681.3,777.9h-129.9c-11.1,0-21.7,8.8-23.7,19.8l-18.9,106.7h58.9l3.4-19h52.5l-3.4,19h58.9l18.9-106.7c1.9-10.9-5.5-19.8-16.7-19.8ZM643,848.3l-23.8,20.5-15.1-17.3-21.3,17.3-16.5-20.5,20.5-16.7-13.9-15.9,23.8-20.5,14.4,16.5,20.3-16.5,16.5,20.5-19.5,15.9,14.6,16.7Z"/><path class="cls-5" d="M822,777.9l-6.3,35.1h-52.4l6.2-34.3h-58.9l-9.8,54.6c-1.9,10.8,5.5,19.5,16.7,19.5h38.7l-10.2,51.5h55.8l9.2-51.5h36.3c11.1,0,21.7-8.7,23.7-19.5l9.9-55.4h-58.9Z"/><path class="cls-19" d="M1185.7,747.5l18.5,42.9h-53l34.5-42.9Z"/><path class="cls-17" d="M1382,855.4c15,0,25.1,11.1,22.6,24.8-2.5,13.7-16.8,24.8-31.8,24.8s-25.1-11.1-22.6-24.8c2.5-13.7,16.8-24.8,31.8-24.8Z"/><path class="cls-5" d="M388.6,731h0s-207.4,0-207.4,0l-8,45.1h49.2l-22.6,127.5h58.9l7.1-40.4h99.3s4.9-.3,10.7-3.9h0c6.3-3.5,11.1-9.7,12.4-16.7l16.3-91.8c1.9-10.7-5.2-19.4-15.9-19.8ZM336.9,818.1h-62.9l7.4-42h62.9l-7.4,42Z"/><path class="cls-14" d="M142.5,776.1l8-45.1h46l-8,45.1h-46Z"/><polygon class="cls-18" points="185.8 211.6 421.9 234.8 421.9 309.5 361.9 326 358.1 360.2 414.3 342.5 414.1 470 343.6 479.7 341.4 514.1 414.9 495.5 414.9 530.2 157.1 702.9 105.2 573.7 241.4 539.5 244.5 495.1 155.5 511 155.5 421.6 255.6 390.6 258.1 352 178.7 374.1 185.8 211.6"/><polygon class="cls-15" points="469.5 207.2 462.3 340.2 730.5 306.5 730.5 230 469.5 207.2"/><polygon class="cls-2" points="441.4 437.8 747.6 396.4 763.2 523.9 688.9 523.9 675.8 616.4 733.6 596.6 789 713.5 535.2 713.5 607.4 525.6 575.3 525.6 490 700 336.3 702.9 468.9 526.5 442.7 526.5 441.4 437.8"/><polygon class="cls-5" points="185.8 211.6 181.4 312.2 421.9 280.5 421.9 234.8 185.8 211.6"/><polygon class="cls-5" points="469.5 207.2 465.8 276.7 730.5 245.9 730.5 230 469.5 207.2"/><polygon class="cls-5" points="155.5 421.6 255.6 390.6 255.6 404.5 155.5 434.9 155.5 421.6"/><polygon class="cls-5" points="358.1 360.2 356.4 373.8 414.3 357.7 414.3 342.5 358.1 360.2"/><polygon class="cls-5" points="105.2 573.7 241.4 539.5 241.4 553.5 110.6 587.1 105.2 573.7"/><polygon class="cls-5" points="341.4 514.1 341.4 528.4 414.9 510 414.9 495.5 341.4 514.1"/><polygon class="cls-5" points="441.4 437.8 747.6 396.4 749.3 410.4 441.4 453 441.4 437.8"/><polygon class="cls-5" points="459 539.6 470.6 539.6 348.1 702.7 336.3 702.9 459 539.6"/><polygon class="cls-5" points="602.8 537.6 609 537.6 542.3 713.5 535.2 713.5 602.8 537.6"/><polygon class="cls-5" points="675.8 616.4 674 629.3 733 610.5 781.9 713.5 789 713.5 733.6 596.6 675.8 616.4"/><polygon class="cls-4" points="860.5 200.5 763.6 200.5 755.4 242 860.5 217 860.5 200.5"/><rect class="cls-4" x="755.4" y="229.7" width="28.6" height="133.6"/><rect class="cls-4" x="749.3" y="543.3" width="66.8" height="61.4"/><rect class="cls-4" x="789" y="524.2" width="37.8" height="37.8"/><rect class="cls-4" x="247.9" y="662.6" width="37.4" height="37.4"/><rect class="cls-4" x="273.9" y="649" width="47.5" height="47.5"/><polygon class="cls-11" points="1078.8 90.1 1419.6 462.6 1421.5 421.8 1422.8 421.8 1452.7 177 1329.2 182.1 1329.2 101 1078.8 90.1"/><polygon class="cls-13" points="1053.4 291.8 896.4 298.5 888.7 386.4 805.7 386.4 819.6 243.6 1056 236.1 1056.2 212.5 900.4 221.6 910.3 124.5 1287.4 141 1287.4 201.8 1119.4 209 1120.2 232.6 1405.3 220.8 1385.8 380 1306.4 380 1322.9 285 1122.8 291.8 1129.9 394.4 1050.2 392.8 1053.4 291.8 1053.4 291.8"/><polygon class="cls-1" points="1166 309.8 1166 337.4 1282.4 342.5 1282.4 303.5 1166 309.8"/><polygon class="cls-8" points="1167.7 366 1167.7 390.8 1278.5 393.6 1281.5 358.2 1167.7 366"/><polygon class="cls-12" points="914 306.2 910.7 340.7 1025.2 333.9 1025.2 307.8 914 306.2"/><polygon class="cls-16" points="909.9 353.6 909.9 391 1025.2 385.9 1025.2 358.1 909.9 353.6"/><path class="cls-6" d="M1047.7,433v-28.3l-60.2,2.1v25.6h-50.9v-24.5l-59.8,4.2v17.5h-71.4l2.6,13.9,8.8,46.4,62.5-7.2v40.5l59.7-4.6v12.9l-94.8,10.1.9,13.2,4,61.5,84.5-12.3v16.5l-120.8,12.5,8.2,14.4,27.9,49.2,80-20.3-2.3,28.7,68.8-4-2.5-38.2,59.8-12.7,5.5-28.6,2.8-14.5-71.8,7.5h-1.1c0,.1,0-18.5,0-18.5l75.8-9.3,11.7-55.2,3.1-14.7-95.9,9.5-.2-11.8,61-3.8.6-39.3,44.3-1.5,4.4-22,3-15.2h-48.4ZM1018,557.8l-3.3,17-29.1,3.4v-29.8l34.8-2.7-2.4,12.1ZM935.7,583.8l-36.7,3.2v-32l38.3-2.9-1.6,31.7ZM987.9,494.9l-48.6,5.1v-19.6l48.6-3.9v18.5Z"/><polygon class="cls-3" points="1131.4 410.2 1069.8 698.6 1159.7 698.6 1191.4 456.2 1310.9 458.8 1310 479.5 1207.4 471.4 1201.5 521.7 1305 533.5 1303.3 552.1 1201.5 541.1 1195.2 600.2 1300.7 602.8 1299.9 618 1253 612.5 1239.5 700.7 1366.2 700.7 1380.6 404.3 1131.4 410.2"/><polygon class="cls-5" points="1287.4 180.4 983.9 216.7 900.4 221.6 910.3 124.5 1287.4 141 1287.4 180.4"/><polygon class="cls-5" points="1405.3 220.8 1120.2 232.6 1120.2 247.2 1403.7 234 1405.3 220.8"/><polygon class="cls-5" points="819.6 243.6 818.2 257.9 1057.1 250.3 1056 236.1 819.6 243.6"/><polygon class="cls-5" points="914 306.2 912.7 320.5 1025.2 322.4 1025.2 307.8 914 306.2"/><polygon class="cls-5" points="1166 309.8 1166 324.3 1282.4 317.4 1282.4 303.5 1166 309.8"/><polygon class="cls-5" points="909.9 353.6 1025.2 358.1 1025.2 373 909.9 367.6 909.9 353.6"/><polygon class="cls-5" points="1167.7 366 1281.5 358.2 1280.3 372.6 1167.7 379.3 1167.7 366"/><polygon class="cls-5" points="805.6 429.6 876.9 429.6 877.9 445.6 808.2 443.6 805.6 429.6"/><polygon class="cls-5" points="876.9 412.1 936.7 407.9 936.7 421.7 876.9 426.6 876.9 412.1"/><polygon class="cls-5" points="937.8 432.4 937.8 445.6 987.9 446.8 987.6 432.4 937.8 432.4"/><polygon class="cls-5" points="987.6 406.8 987.9 422.6 1047.7 418 1047.7 404.7 987.6 406.8"/><polygon class="cls-5" points="1047.7 433 1047.7 447.5 1093.1 448.2 1096.1 433 1047.7 433"/><polygon class="cls-5" points="987.9 494.9 987.9 508.1 939.4 514.3 939.4 499.9 987.9 494.9"/><polygon class="cls-5" points="844.4 541.8 845.3 554.9 939.4 545 939.2 531.6 844.4 541.8"/><polygon class="cls-5" points="982.9 526.5 982.9 540.3 1075.7 531.7 1078.8 517 982.9 526.5"/><polygon class="cls-5" points="935.9 597.9 898.9 601.6 898.9 586.9 935.7 583.8 935.9 597.9"/><polygon class="cls-5" points="1020.3 557.8 1014.4 588.1 985.5 591.3 985.5 578.3 1014.6 574.9 1018 557.8 1020.3 557.8"/><polygon class="cls-5" points="813 633.2 933.7 620.7 933.7 635 821.1 647.6 813 633.2"/><polygon class="cls-5" points="989.3 614.7 989.3 628.6 1058.3 621.7 1061 607.2 989.3 614.7"/><polygon class="cls-5" points="1131.4 410.2 1128.8 422.6 1380 416.4 1380.6 404.3 1131.4 410.2"/><polygon class="cls-5" points="1207.4 471.4 1205.7 485.8 1310.1 493.7 1310 479.5 1207.4 471.4"/><polygon class="cls-5" points="1201.5 541.1 1199.9 556.2 1303.3 566.5 1303.7 547.5 1303.3 552.1 1201.5 541.1"/><path class="cls-5" d="M1299.9,618s.3,14.4,0,14.1-45.4-5.2-45.4-5.2l-13.6,73.8h-1.5l13.5-88.3,46.9,5.5Z"/></svg>