<svg id="i_ghistory" xmlns="http://www.w3.org/2000/svg" xmlns:xlink="http://www.w3.org/1999/xlink" width="28" height="28" viewBox="0 0 28 28">
  <defs>
    <clipPath id="clip-path">
      <rect id="矩形_3417" data-name="矩形 3417" width="26" height="25.997" fill="none"/>
    </clipPath>
  </defs>
  <rect id="矩形_3416" data-name="矩形 3416" width="28" height="28" fill="#fff" opacity="0"/>
  <g id="组_8339" data-name="组 8339" transform="translate(1 1)">
    <g id="组_8338" data-name="组 8338" transform="translate(0 0)" clip-path="url(#clip-path)">
      <path id="路径_5463" data-name="路径 5463" d="M17.37,26H2.444c-.022-.012-.042-.033-.065-.036A2.838,2.838,0,0,1,0,23.058C.018,16.342.007,9.626.008,2.91A2.792,2.792,0,0,1,2.916,0Q8.358,0,13.8,0a1.07,1.07,0,0,1,.814.329q2.425,2.438,4.863,4.863a1.063,1.063,0,0,1,.331.814c-.01,1.108,0,2.216-.007,3.324a.318.318,0,0,0,.209.342,5.334,5.334,0,0,1,2.1,7.791c-.045.067-.087.137-.146.23.081.07.155.127.221.192q1.706,1.7,3.407,3.412a4.948,4.948,0,0,1,.407.537v.355c-.363.7-.882.777-1.444.215q-1.731-1.73-3.459-3.463a1.116,1.116,0,0,1-.139-.209c-.36.207-.644.392-.947.538a.318.318,0,0,0-.209.342c.007,1.217.014,2.434,0,3.651a2.774,2.774,0,0,1-1.949,2.6c-.159.05-.322.089-.483.133M13.207,1.526h-.244q-5.038,0-10.076,0A1.272,1.272,0,0,0,1.531,2.9q0,10.1,0,20.2a1.275,1.275,0,0,0,1.38,1.372q2.284,0,4.568,0,4.721,0,9.442,0a1.273,1.273,0,0,0,1.361-1.365q0-1.548,0-3.1c0-.074-.008-.148-.012-.222a5.36,5.36,0,0,1-5.893-5.06,5.186,5.186,0,0,1,1.26-3.7,5.3,5.3,0,0,1,4.627-1.869V6.6H14.139c-.65,0-.932-.279-.932-.92q0-1.928,0-3.858v-.3m8.3,12.941a3.8,3.8,0,1,0-3.825,3.812A3.8,3.8,0,0,0,21.5,14.468M14.74,5.058h2.322L14.74,2.737Z" transform="translate(0 0)" fill="#fff"/>
      <path id="路径_5464" data-name="路径 5464" d="M9.739,12.414c1.42,0,2.84,0,4.26,0a.763.763,0,1,1-.01,1.523q-2.091,0-4.184,0c-1.445,0-2.891,0-4.336,0a.757.757,0,0,1-.729-1.082.772.772,0,0,1,.764-.441c1.411,0,2.823,0,4.234,0" transform="translate(-1.61 -4.288)" fill="#fff"/>
      <path id="路径_5465" data-name="路径 5465" d="M8.7,18.591H5.558c-.539,0-.887-.3-.892-.755a.778.778,0,0,1,.879-.767q3.207,0,6.414,0a.763.763,0,1,1,.012,1.523q-1.635,0-3.27,0" transform="translate(-1.612 -5.896)" fill="#fff"/>
      <path id="路径_5466" data-name="路径 5466" d="M8.752,21.722h3.169a.767.767,0,1,1,.012,1.523q-3.207,0-6.414,0a.767.767,0,1,1,.014-1.523h3.22" transform="translate(-1.612 -7.503)" fill="#fff"/>
      <path id="路径_5467" data-name="路径 5467" d="M8.723,26.376q1.61,0,3.22,0a.764.764,0,1,1,.016,1.521q-3.245,0-6.49,0a.762.762,0,1,1,.009-1.522q1.623,0,3.245,0" transform="translate(-1.61 -9.111)" fill="#fff"/>
    </g>
  </g>
</svg>
