<svg id="i_more" xmlns="http://www.w3.org/2000/svg" width="28" height="28" viewBox="0 0 28 28">
  <rect id="bg28x28" width="28" height="28" fill="#fff" opacity="0"/>
  <g id="i_more-2" data-name="i_more" transform="translate(13.188 7.488)">
    <path id="li03" d="M-1836.812,1767.5a13.015,13.015,0,0,1-13-13,13.015,13.015,0,0,1,13-13,13.015,13.015,0,0,1,13,13A13.015,13.015,0,0,1-1836.812,1767.5Zm0-24.375a11.387,11.387,0,0,0-11.375,11.375,11.388,11.388,0,0,0,11.375,11.375,11.388,11.388,0,0,0,11.375-11.375A11.387,11.387,0,0,0-1836.812,1743.128Z" transform="translate(1837.625 -1747.991)" fill="#fff"/>
    <path id="li02" d="M-1829.616,1758.128h-11.4a.812.812,0,0,1-.812-.812.812.812,0,0,1,.813-.812h11.4a.812.812,0,0,1,.813.813A.812.812,0,0,1-1829.616,1758.128Z" transform="translate(1836.127 -1750.803)" fill="#fff"/>
    <path id="li01" d="M-1834,1762.511a.813.813,0,0,1-.812-.812v-11.4a.813.813,0,0,1,.813-.812.813.813,0,0,1,.813.813v11.4A.813.813,0,0,1-1834,1762.511Z" transform="translate(1834.812 -1749.488)" fill="#fff"/>
  </g>
</svg>
