<svg id="i_transfer00" xmlns="http://www.w3.org/2000/svg" width="28" height="28" viewBox="0 0 28 28">
  <rect id="bg28x28" width="28" height="28" fill="#fff" opacity="0"/>
  <g id="i_transfer" transform="translate(2546.662 -2118.336)">
    <path id="arr" d="M3.157,20.371A11.627,11.627,0,0,1,.386,15.577.953.953,0,0,1,.993,14.4a.943.943,0,0,1,1.2.635,10.008,10.008,0,0,0,1.116,2.476,10.155,10.155,0,0,0,16.486,1l-1.456-.607a.272.272,0,0,1-.042-.458l4.759-3.973a.239.239,0,0,1,.4.166L24,19.821a.274.274,0,0,1-.355.294l-2.016-.837a12.1,12.1,0,0,1-8.014,4.768A11.908,11.908,0,0,1,3.157,20.371ZM5.4,12.138A6.749,6.749,0,0,1,17.885,8.585l-.017.009H14.814a4.435,4.435,0,1,0,1.615,4.7h-4.2V10.982h6.67v1.156a6.748,6.748,0,0,1-13.5,0ZM.542,10.527,0,4.353a.272.272,0,0,1,.355-.294L2.373,4.9A12.089,12.089,0,0,1,10.386.127,11.958,11.958,0,0,1,20.845,3.8a11.651,11.651,0,0,1,2.769,4.794.944.944,0,1,1-1.81.538,9.99,9.99,0,0,0-1.115-2.476,10.156,10.156,0,0,0-16.488-1l1.456.606a.273.273,0,0,1,.042.46L.94,10.693a.253.253,0,0,1-.163.062A.237.237,0,0,1,.542,10.527Z" transform="translate(-2544.662 2120.336)" fill="#fff" stroke="rgba(0,0,0,0)" stroke-width="1"/>
  </g>
</svg>
