<svg id="btn_mopen2" xmlns="http://www.w3.org/2000/svg" width="28" height="28" viewBox="0 0 28 28">
  <path id="btn_mopen2-2" data-name="btn_mopen2" d="M-2267,8610a13.911,13.911,0,0,1-9.9-4.1,13.91,13.91,0,0,1-4.1-9.9,13.912,13.912,0,0,1,4.1-9.9,13.907,13.907,0,0,1,9.9-4.1,13.907,13.907,0,0,1,9.9,4.1,13.912,13.912,0,0,1,4.1,9.9,13.91,13.91,0,0,1-4.1,9.9A13.911,13.911,0,0,1-2267,8610Zm-4.812-13.736a1.179,1.179,0,0,0-1.068.668,1.182,1.182,0,0,0-.056.908,1.179,1.179,0,0,0,.6.68l4.423,2.156a1.176,1.176,0,0,0,.529.2,1.108,1.108,0,0,0,.177.013,1.2,1.2,0,0,0,.722-.244l4.374-2.133a1.172,1.172,0,0,0,.6-.677,1.173,1.173,0,0,0-.054-.9,1.177,1.177,0,0,0-1.063-.662,1.173,1.173,0,0,0-.517.119l-4.069,1.986-4.08-1.99A1.184,1.184,0,0,0-2271.812,8596.264Zm-.266-4.264a.887.887,0,0,0-.8.5.9.9,0,0,0,.411,1.193l4.678,2.281a.885.885,0,0,0,.27.11.837.837,0,0,0,.216.028.9.9,0,0,0,.532-.175l4.618-2.254a.881.881,0,0,0,.449-.506.877.877,0,0,0-.041-.676.876.876,0,0,0-.792-.5.879.879,0,0,0-.39.092l-4.376,2.132-4.382-2.137A.878.878,0,0,0-2272.078,8592Z" transform="translate(2281 -8582)" fill="#fff"/>
</svg>
