<svg width="64" height="64" viewBox="0 0 64 64" fill="none" xmlns="http://www.w3.org/2000/svg">
<path d="M32 64C25.671 64 19.4841 62.1232 14.2218 58.607C8.95939 55.0908 4.85787 50.0931 2.43587 44.2459C0.013865 38.3986 -0.619842 31.9645 0.614885 25.7571C1.84961 19.5497 4.89732 13.8479 9.3726 9.3726C13.8479 4.89732 19.5497 1.84961 25.7571 0.614885C31.9645 -0.619842 38.3986 0.013865 44.2459 2.43587C50.0931 4.85787 55.0908 8.95939 58.607 14.2218C62.1232 19.4841 64 25.671 64 32C64 40.4869 60.6286 48.6263 54.6274 54.6274C48.6263 60.6286 40.4869 64 32 64ZM32 4.00001C26.4621 4.00001 21.0486 5.64219 16.444 8.71887C11.8395 11.7955 8.25064 16.1685 6.13139 21.2849C4.01213 26.4012 3.45764 32.0311 4.53803 37.4625C5.61841 42.894 8.28515 47.8831 12.201 51.799C16.1169 55.7149 21.106 58.3816 26.5375 59.462C31.969 60.5424 37.5988 59.9879 42.7152 57.8686C47.8315 55.7494 52.2045 52.1606 55.2812 47.556C58.3578 42.9514 60 37.5379 60 32C60 24.574 57.05 17.452 51.799 12.201C46.548 6.95001 39.4261 4.00001 32 4.00001Z" fill="#5D6D8B"/>
<path d="M35.1562 16.1328H30.1562V36.1328H35.1562V16.1328Z" fill="#5D6D8B"/>
<path d="M35.1562 44.5781H30.1562V49.5781H35.1562V44.5781Z" fill="#5D6D8B"/>
</svg>
