<svg width="24" height="24" viewBox="0 0 24 24" fill="none" xmlns="http://www.w3.org/2000/svg">
<g clip-path="url(#clip0_862_22571)">
<path d="M12 22C9.34881 21.9969 6.80711 20.9422 4.93243 19.0675C3.05776 17.1929 2.00318 14.6512 2 12C2.00318 9.34884 3.05776 6.80708 4.93243 4.9324C6.80711 3.05773 9.34881 2.00321 12 2.00003C14.1105 1.99483 16.1678 2.66248 17.873 3.90604C17.9237 3.94273 17.9666 3.98898 17.9993 4.04227C18.0321 4.09555 18.0539 4.15483 18.0638 4.21658C18.0736 4.27834 18.0713 4.34143 18.0567 4.40225C18.0422 4.46307 18.0157 4.52034 17.979 4.57095C17.9422 4.62152 17.8959 4.66441 17.8426 4.69705C17.7893 4.72969 17.73 4.75151 17.6683 4.76126C17.6065 4.77101 17.5434 4.76844 17.4827 4.75381C17.4219 4.73919 17.3646 4.71283 17.314 4.67606C15.7707 3.55173 13.9094 2.9482 12 2.95303C9.60113 2.95568 7.3013 3.90973 5.60504 5.60599C3.90879 7.30224 2.95467 9.60214 2.95203 12.001C2.95467 14.3999 3.90879 16.6998 5.60504 18.396C7.3013 20.0923 9.60113 21.0463 12 21.049C14.3989 21.0463 16.6988 20.0923 18.395 18.396C20.0913 16.6998 21.0454 14.3999 21.048 12.001C21.048 11.5495 21.0146 11.0986 20.948 10.652C20.9294 10.5272 20.9611 10.4002 21.0361 10.2987C21.1111 10.1973 21.2233 10.1298 21.348 10.111C21.4725 10.094 21.5988 10.1262 21.6998 10.201C21.8009 10.2757 21.8688 10.387 21.889 10.511C21.9622 11.004 21.999 11.5017 21.999 12C21.9961 14.6511 20.9417 17.1928 19.0672 19.0675C17.1927 20.9422 14.6511 21.9969 12 22Z" fill="#A759FF"/>
<path d="M11.5641 16.1201C11.5015 16.1202 11.4395 16.1078 11.3817 16.0837C11.3238 16.0597 11.2713 16.0245 11.2272 15.9801L6.39716 11.1501C6.30794 11.0609 6.25781 10.9398 6.25781 10.8136C6.25781 10.6874 6.30794 10.5663 6.39716 10.4771C6.48642 10.3878 6.60744 10.3378 6.73364 10.3378C6.85985 10.3378 6.98087 10.3878 7.07013 10.4771L11.5632 14.9701L20.8862 5.64807C20.9303 5.60378 20.9827 5.56866 21.0405 5.54468C21.0982 5.5207 21.1601 5.5083 21.2227 5.5083C21.2852 5.5083 21.3471 5.5207 21.4048 5.54468C21.4626 5.56866 21.515 5.60378 21.5591 5.64807C21.6481 5.73746 21.6981 5.8585 21.6981 5.98462C21.6981 6.11074 21.6481 6.23178 21.5591 6.32117L11.9001 15.9801C11.8561 16.0244 11.8037 16.0596 11.7461 16.0836C11.6884 16.1076 11.6266 16.12 11.5641 16.1201Z" fill="#A759FF"/>
</g>
<defs>
<clipPath id="clip0_862_22571">
<rect width="24" height="24" fill="white"/>
</clipPath>
</defs>
</svg>
