<svg xmlns="http://www.w3.org/2000/svg" xmlns:xlink="http://www.w3.org/1999/xlink" width="28" height="28" viewBox="0 0 28 28"><defs><style>.a{fill:#fff;opacity:0;}.b{fill:#8a4e00;}.c{fill:url(#a);}.d{fill:url(#b);}.e{fill:url(#c);}.f{fill:url(#d);}.g{fill:#e17f00;}.h{fill:url(#e);}</style><linearGradient id="a" x1="0.576" y1="0.026" x2="0.334" y2="0.962" gradientUnits="objectBoundingBox"><stop offset="0" stop-color="#fff0a2"/><stop offset="0.725" stop-color="#ffcf39"/><stop offset="1" stop-color="#946800"/></linearGradient><linearGradient id="b" x1="0.338" y1="0.022" x2="0.633" y2="1" gradientUnits="objectBoundingBox"><stop offset="0" stop-color="#fff8d2"/><stop offset="0.272" stop-color="#ffc400"/><stop offset="0.502" stop-color="#fff99e"/><stop offset="0.816" stop-color="#ffc800"/><stop offset="1" stop-color="#fa0"/></linearGradient><linearGradient id="c" x1="0.782" y1="0.088" x2="0.231" y2="0.927" gradientUnits="objectBoundingBox"><stop offset="0" stop-color="#c57d00"/><stop offset="0.573" stop-color="#ffc104"/><stop offset="1" stop-color="#fff7ac"/></linearGradient><linearGradient id="d" x1="0.338" y1="0.022" x2="0.633" y2="1" gradientUnits="objectBoundingBox"><stop offset="0" stop-color="#fb0"/><stop offset="1" stop-color="#e58200"/></linearGradient><linearGradient id="e" x1="0.207" x2="0.773" y2="1" gradientUnits="objectBoundingBox"><stop offset="0" stop-color="#ffefb0"/><stop offset="1" stop-color="#ffcc0d"/></linearGradient></defs><rect class="a" width="28" height="28"/><g transform="translate(2.333 2.333)"><circle class="b" cx="11.667" cy="11.667" r="11.667" transform="translate(0 0.243)"/><circle class="c" cx="11.302" cy="11.302" r="11.302" transform="translate(0.243)"/><circle class="d" cx="11.059" cy="11.059" r="11.059" transform="translate(0.486 0.243)"/><circle class="e" cx="9.358" cy="9.358" r="9.358" transform="translate(2.188 1.944)"/><circle class="f" cx="8.872" cy="8.872" r="8.872" transform="translate(2.674 2.431)"/><path class="g" d="M6.621,5.539V8.126h4.088a4.368,4.368,0,0,1-4.02,3.364A4.328,4.328,0,0,1,2.467,8.416,4.7,4.7,0,0,1,4.012,3.25,4.129,4.129,0,0,1,9.14,3.3h2.969A6.378,6.378,0,0,0,3.878.608,7.057,7.057,0,0,0,.221,8.849a6.569,6.569,0,0,0,7.221,4.965,6.82,6.82,0,0,0,5.652-6.869v-1.4Z" transform="translate(4.893 4.293)"/><path class="h" d="M6.5,5.493v2.27h4.013a4.259,4.259,0,0,1-3.947,3.213A4.24,4.24,0,0,1,2.421,8.039,4.421,4.421,0,0,1,3.938,3.1a4.142,4.142,0,0,1,5.035.045h2.915A6.35,6.35,0,0,0,3.807.581,6.679,6.679,0,0,0,.216,8.453,6.443,6.443,0,0,0,7.3,13.2a6.565,6.565,0,0,0,5.549-6.561V5.5Z" transform="translate(4.893 4.611)"/></g></svg>