<svg width="48" height="48" viewBox="0 0 48 48" fill="none" xmlns="http://www.w3.org/2000/svg">
<path d="M2.93873 31.7379C2.34756 31.7379 1.86719 31.2583 1.86719 30.6673V7.48848L1.90052 7.34474C1.91755 7.21366 1.92714 7.1493 1.94777 7.0964C1.96048 7.06534 1.9823 7.03198 2.01012 6.99407L2.10557 6.83767C2.19311 6.72613 2.22884 6.70312 2.27033 6.67553C2.27609 6.67325 2.40632 6.58125 2.40967 6.57781C2.44804 6.55022 2.48234 6.52374 2.50992 6.51111L2.68259 6.47428C2.82217 6.43293 2.86366 6.42024 2.8946 6.41914L34.7043 6.41797C34.8585 6.42258 35.0015 6.45363 35.1363 6.51342L35.2595 6.60079C35.3725 6.66978 35.4312 6.70542 35.4739 6.74913C35.4771 6.75488 35.5843 6.9216 35.5879 6.92621C35.6615 7.03314 35.6845 7.06534 35.696 7.09409C35.7181 7.1493 35.726 7.21596 35.7363 7.29418L35.7665 7.4448L35.7756 30.6673C35.7756 31.2583 35.2953 31.7379 34.7043 31.7379H2.93873ZM4.24146 10.2321C4.21028 10.2321 4.17911 10.2389 4.14937 10.2516C4.06519 10.2884 4.01123 10.37 4.01123 10.462V29.3668C4.01123 29.4934 4.11483 29.5968 4.24146 29.5968H33.4023C33.529 29.5968 33.6328 29.4934 33.6328 29.3668V10.4586C33.6328 10.3677 33.5788 10.285 33.4944 10.2482C33.4656 10.2355 33.4335 10.2286 33.4023 10.2286C33.3448 10.2286 33.2896 10.2504 33.2457 10.2907L19.549 22.9207C19.3529 23.1047 19.0948 23.2047 18.8219 23.2047C18.5478 23.2047 18.2895 23.1036 18.0914 22.9185L4.39831 10.293C4.35466 10.2527 4.29902 10.2321 4.24146 10.2321ZM6.26919 8.559C6.17469 8.559 6.08956 8.61764 6.05502 8.70621C6.02025 8.79358 6.04351 8.89363 6.11258 8.95802L18.6655 20.5325C18.7092 20.5727 18.7655 20.5934 18.8219 20.5934C18.8773 20.5934 18.9337 20.5727 18.9773 20.5325L31.5302 8.95802C31.5993 8.89363 31.6223 8.79358 31.589 8.70621C31.5533 8.61764 31.4679 8.559 31.3736 8.559H6.26919Z" fill="white"/>
<path d="M46.9931 16.6598C46.9943 16.5816 46.9955 16.5137 46.983 16.4574C46.9758 16.4275 46.9573 16.3918 46.901 16.2745C46.8986 16.2699 46.8155 16.0881 46.8131 16.0824C46.7776 16.0329 46.7248 15.9892 46.6243 15.9041L46.5149 15.8006C46.3904 15.72 46.2543 15.6683 46.101 15.6418L35.2342 14.0176C35.2366 14.7446 35.2563 15.4693 35.2999 16.1939L42.489 17.2672C42.5821 17.281 42.6584 17.3511 42.679 17.4443C42.6996 17.5364 42.6627 17.6318 42.5845 17.6848L35.4329 22.539L35.4348 22.5493C35.4396 23.3684 35.609 24.184 35.6378 24.9903L44.0841 19.2572C44.1335 19.2239 44.1911 19.2112 44.2477 19.2192C44.2787 19.2239 44.3087 19.2353 44.3365 19.2526C44.4137 19.3009 44.455 19.3906 44.4413 19.4804L41.6357 38.1877C41.6165 38.3131 41.4987 38.4005 41.3732 38.381L12.5211 34.0708C12.3956 34.0512 12.3081 33.9339 12.3263 33.8085L12.6689 31.5298H10.4997L10.0119 34.7782C9.92452 35.3626 10.3291 35.909 10.9133 35.9964L42.3436 40.6919C42.929 40.7793 43.4756 40.3756 43.5629 39.7912L47 16.8151L46.9931 16.6598Z" fill="white"/>
</svg>
