<svg id="i_geust" xmlns="http://www.w3.org/2000/svg" width="28" height="28" viewBox="0 0 28 28">
  <rect id="矩形_3618" data-name="矩形 3618" width="28" height="28" fill="rgba(0,0,0,0)"/>
  <g id="组_8874" data-name="组 8874" transform="translate(-1018.575 115.951)">
    <g id="组_8873" data-name="组 8873" transform="translate(1022.575 -111.951)">
      <path id="路径_5667" data-name="路径 5667" d="M1032.407-92.287a9.843,9.843,0,0,1-9.832-9.832,9.843,9.843,0,0,1,9.832-9.832,9.843,9.843,0,0,1,9.831,9.832A9.843,9.843,0,0,1,1032.407-92.287Zm0-18.5a8.674,8.674,0,0,0-8.664,8.664,8.673,8.673,0,0,0,8.664,8.664,8.673,8.673,0,0,0,8.663-8.664A8.673,8.673,0,0,0,1032.407-110.783Z" transform="translate(-1022.575 111.951)" fill="#fff"/>
    </g>
    <circle id="椭圆_211" data-name="椭圆 211" cx="1.529" cy="1.529" r="1.529" transform="translate(1027.39 -104.831)" fill="#fff"/>
    <circle id="椭圆_212" data-name="椭圆 212" cx="1.529" cy="1.529" r="1.529" transform="translate(1034.191 -104.831)" fill="#fff"/>
    <path id="路径_5668" data-name="路径 5668" d="M1034.654-90.418a2.536,2.536,0,0,0,2.776,2.192,2.537,2.537,0,0,0,2.776-2.192Z" transform="translate(-5.024 -8.955)" fill="#fff"/>
  </g>
</svg>
