<svg width="48" height="48" viewBox="0 0 48 48" fill="none" xmlns="http://www.w3.org/2000/svg">
<path d="M32.5028 2H14.7887C12.6972 2.00269 11.0023 3.70199 11 5.79936V42.2026C11.0023 44.3002 12.6972 45.9993 14.7887 46.002H32.5028C34.594 45.9993 36.2898 44.3002 36.2926 42.2026V5.79936C36.2898 3.70199 34.594 2.00269 32.5028 2ZM12.5162 8.07898H34.7766V36.8843H12.5162V8.07898ZM34.7766 42.2026C34.7766 43.4617 33.7586 44.4823 32.5028 44.4823H14.7887C13.5334 44.4823 12.5162 43.4617 12.5162 42.2026V38.4042H34.7766V42.2026ZM12.5162 6.55923V5.79936C12.5162 4.54033 13.5334 3.52013 14.7887 3.52013H32.5028C33.7586 3.52013 34.7766 4.54033 34.7766 5.79936V6.55923H12.5162Z" fill="white"/>
<path d="M23.5972 43.7142C24.8185 43.7142 25.8077 42.7247 25.8077 41.5033C25.8077 40.2824 24.8185 39.293 23.5972 39.293C22.3769 39.293 21.3867 40.2824 21.3867 41.5033C21.3867 42.7247 22.3769 43.7142 23.5972 43.7142ZM23.5972 40.7669C24.0045 40.7669 24.3351 41.0964 24.3351 41.5033C24.3351 41.9106 24.0045 42.2401 23.5972 42.2401C23.1903 42.2401 22.8606 41.9106 22.8606 41.5033C22.8606 41.0964 23.1903 40.7669 23.5972 40.7669Z" fill="white"/>
<path d="M24.3206 4.28711H22.8723C22.4722 4.28711 22.1484 4.59412 22.1484 4.97264C22.1484 5.35168 22.4722 5.65921 22.8723 5.65921H24.3206C24.7208 5.65921 25.0446 5.35168 25.0446 4.97264C25.0446 4.59412 24.7208 4.28711 24.3206 4.28711Z" fill="white"/>
</svg>
