<svg height="28" viewBox="0 0 28 28" width="28" xmlns="http://www.w3.org/2000/svg" xmlns:xlink="http://www.w3.org/1999/xlink"><linearGradient id="a" gradientUnits="objectBoundingBox" x1=".368" x2=".629" y1=".988" y2=".023"><stop offset="0" stop-color="#8a8275"/><stop offset=".573" stop-color="#c9c2a9"/><stop offset="1" stop-color="#fffde6"/></linearGradient><linearGradient id="b" gradientUnits="objectBoundingBox" x1=".184" x2=".952" y1=".1" y2="1.08"><stop offset="0" stop-color="#d9d6c9"/><stop offset=".272" stop-color="#fff"/><stop offset=".581" stop-color="#c2c1b6"/><stop offset="1" stop-color="#f6f6f6"/></linearGradient><linearGradient id="c" gradientUnits="objectBoundingBox" x1=".5" x2=".5" y2="1"><stop offset="0" stop-color="#6b655b"/><stop offset=".494" stop-color="#85806f"/><stop offset="1" stop-color="#fffde6"/></linearGradient><linearGradient id="d" gradientUnits="objectBoundingBox" x1=".229" x2=".833" y1=".068" y2=".934"><stop offset="0" stop-color="#c9c8be"/><stop offset="1" stop-color="#8f8e82"/></linearGradient><linearGradient id="e" gradientUnits="objectBoundingBox" x2="1" y1=".5" y2=".5"><stop offset="0" stop-color="#fff"/><stop offset="1" stop-color="#ded7c7"/></linearGradient><path d="m0 0h28v28h-28z" fill="#fff" opacity="0"/><circle cx="14" cy="14.134" fill="#6a6862" r="11.667"/><circle cx="11.302" cy="11.302" fill="url(#a)" r="11.302" transform="translate(2.578 2.224)"/><circle cx="11.059" cy="11.059" fill="url(#b)" r="11.059" transform="translate(2.825 2.467)"/><circle cx="9.358" cy="9.358" fill="url(#c)" r="9.358" transform="translate(4.543 4.168)"/><circle cx="8.871" cy="8.871" fill="url(#d)" r="8.871" transform="translate(5.035 4.655)"/><path d="m-2134.8 4545.865-.629-.138c-1.689-.364-2.715-.647-2.715-1.494 0-1.343 1.358-1.543 2.167-1.543 1.479 0 2.3.666 2.441 1.979l.039.372h2.172l-.017-.439c-.1-2.568-1.763-4.042-4.572-4.042-2.244 0-4.508 1.17-4.508 3.785 0 2.58 2.38 3.107 3.955 3.457l.386.084c1.829.4 2.939.713 2.939 1.757 0 1.382-1.36 1.672-2.5 1.672-1.417 0-2.932-.616-2.932-2.348v-.42h-2.2v.42c0 2.762 1.947 4.479 5.082 4.479 2.4 0 4.826-1.191 4.826-3.85.002-2.823-2.558-3.413-3.934-3.731z" fill="#57534f" transform="translate(2149.817 -4533.398)"/><path d="m-2134.8 4546.96c-.205-.047-.41-.09-.629-.139-1.689-.364-2.715-.646-2.715-1.493 0-1.343 1.358-1.544 2.167-1.544 1.479 0 2.3.666 2.441 1.979l.039.372h2.172l-.017-.439c-.1-2.568-1.763-4.042-4.572-4.042-2.244 0-4.508 1.171-4.508 3.786 0 2.58 2.38 3.106 3.955 3.456l.386.084c1.829.4 2.939.713 2.939 1.757 0 1.381-1.36 1.671-2.5 1.671-1.417 0-2.932-.616-2.932-2.348v-.421h-2.2v.421c0 2.762 1.947 4.478 5.082 4.478 2.4 0 4.826-1.19 4.826-3.85.002-2.819-2.558-3.411-3.934-3.728z" fill="url(#e)" transform="translate(2149.817 -4534.21)"/></svg>