<svg height="28" viewBox="0 0 28 28" width="28" xmlns="http://www.w3.org/2000/svg"><g fill="#afa0be"><path d="m0 0h28v28h-28z" opacity="0"/><g transform="translate(12.296 6.269)"><path d="m-1957.046 1968.163a13.015 13.015 0 0 1 -13-13 13.015 13.015 0 0 1 13-13 13.015 13.015 0 0 1 13 13 13.015 13.015 0 0 1 -13 13zm0-24.333a11.346 11.346 0 0 0 -11.333 11.333 11.346 11.346 0 0 0 11.333 11.333 11.346 11.346 0 0 0 11.333-11.333 11.346 11.346 0 0 0 -11.333-11.334z" transform="translate(1958.75 -1947.431)"/><rect height="11.008" rx="1.704" width="3.409"/><rect height="2.984" rx="1.492" width="3.409" y="12.479"/></g></g></svg>