<svg height="35" viewBox="0 0 35 35" width="35" xmlns="http://www.w3.org/2000/svg"><g transform="translate(-437 -736.333)"><g fill="#15cccc" stroke="#33e8e8"><circle cx="454.5" cy="753.833" r="17.5" stroke="none"/><circle cx="454.5" cy="753.833" fill="none" r="17"/></g><path d="m-467.764 1660.836a2.371 2.371 0 0 1 -1.642-.655l-6.609-6.269a2.39 2.39 0 0 1 -.087-3.373 2.392 2.392 0 0 1 1.731-.742 2.367 2.367 0 0 1 1.64.653l4.734 4.492 8.742-10.834a2.376 2.376 0 0 1 1.857-.888 2.387 2.387 0 0 1 1.5.532 2.35 2.35 0 0 1 .872 1.6 2.368 2.368 0 0 1 -.514 1.752l-10.366 12.846a2.4 2.4 0 0 1 -1.7.882z" fill="#fff" transform="translate(920.552 -898.361)"/></g></svg>