<svg height="44" viewBox="0 0 44 44" width="44" xmlns="http://www.w3.org/2000/svg"><g fill="#e8da7d"><path d="m0 0h44v44h-44z" opacity="0"/><path d="m-2387.234 1948.553h-7.071a5.336 5.336 0 0 0 1.582-3.525 2.91 2.91 0 0 0 -.851-2.141c-1.409-1.375-4.007-.99-5.915.873a6.379 6.379 0 0 0 -.811.971 6.442 6.442 0 0 0 -.81-.971c-1.909-1.864-4.508-2.247-5.917-.873a2.915 2.915 0 0 0 -.85 2.142 5.338 5.338 0 0 0 1.582 3.524h-7.072a.933.933 0 0 0 -.933.933v6.5a.933.933 0 0 0 .933.933h1.487v11.281a.933.933 0 0 0 .933.933h21.294a.933.933 0 0 0 .933-.933v-11.277h1.486a.933.933 0 0 0 .933-.933v-6.5a.933.933 0 0 0 -.933-.937zm-16.039 6.5v-4.635h.86.031.022 4.12.022.031.86v4.635zm5.945 1.867v10.344h-5.945v-10.344zm1.585-12.989a1.216 1.216 0 0 1 .865.291 1.076 1.076 0 0 1 .288.8 3.59 3.59 0 0 1 -1.182 2.362c-1.239 1.207-2.738 1.431-3.308.872a1.077 1.077 0 0 1 -.289-.805 3.583 3.583 0 0 1 1.182-2.36 3.713 3.713 0 0 1 2.444-1.158zm-9.979.291a1.214 1.214 0 0 1 .864-.291 3.714 3.714 0 0 1 2.443 1.164 3.583 3.583 0 0 1 1.18 2.36 1.078 1.078 0 0 1 -.288.805c-.57.559-2.068.335-3.307-.872a3.586 3.586 0 0 1 -1.181-2.361 1.078 1.078 0 0 1 .288-.803zm-6.711 6.2h7.294v4.635h-7.294zm2.42 6.5h4.874v10.344h-4.874zm19.427 10.344h-4.875v-10.344h4.875zm2.419-12.211h-7.294v-4.635h7.294z" transform="translate(2422.301 -1934.063)"/></g></svg>