<svg height="28" viewBox="0 0 28 28" width="28" xmlns="http://www.w3.org/2000/svg"><g fill="#afa0be"><path d="m0 0h28v28h-28z" opacity="0"/><path d="m-2397.077 1946.194h-4.5a3.4 3.4 0 0 0 1.007-2.243 1.852 1.852 0 0 0 -.542-1.363c-.9-.875-2.55-.63-3.764.555a4.065 4.065 0 0 0 -.516.618 4.09 4.09 0 0 0 -.516-.618c-1.215-1.186-2.869-1.43-3.765-.555a1.854 1.854 0 0 0 -.541 1.363 3.4 3.4 0 0 0 1.007 2.243h-4.5a.594.594 0 0 0 -.594.594v4.137a.594.594 0 0 0 .594.594h.946v7.177a.594.594 0 0 0 .594.594h13.551a.594.594 0 0 0 .594-.594v-7.177h.946a.593.593 0 0 0 .594-.594v-4.137a.594.594 0 0 0 -.595-.594zm-10.207 4.137v-2.949h3.783v2.949zm3.783 1.188v6.583h-3.783v-6.583zm1.009-8.266a.775.775 0 0 1 .551.185.685.685 0 0 1 .183.512 2.285 2.285 0 0 1 -.752 1.5c-.788.768-1.742.91-2.1.555a.685.685 0 0 1 -.184-.512 2.28 2.28 0 0 1 .752-1.5 2.363 2.363 0 0 1 1.55-.74zm-6.351.185a.773.773 0 0 1 .55-.185 2.364 2.364 0 0 1 1.555.74 2.28 2.28 0 0 1 .751 1.5.687.687 0 0 1 -.183.512c-.363.356-1.316.213-2.1-.555a2.282 2.282 0 0 1 -.752-1.5.685.685 0 0 1 .18-.512zm-4.271 3.943h4.642v2.949h-4.642zm1.54 4.137h3.1v6.583h-3.1zm12.363 6.583h-3.1v-6.583h3.1zm1.54-7.771h-4.642v-2.949h4.642z" transform="translate(2419.392 -1936.973)"/></g></svg>