<svg id="load201"
      xmlns="http://www.w3.org/2000/svg"
      xmlns:xlink="http://www.w3.org/1999/xlink"
      viewBox="0 0 200 200"
      shape-rendering="geometricPrecision"
      text-rendering="geometricPrecision">
  <defs>
    <linearGradient id="load201-gb-fill"
                    x1="6.430000"
                    y1="96.130000"
                    x2="44.380000"
                    y2="96.130000"
                    spreadMethod="pad"
                    gradientUnits="userSpaceOnUse">
      <stop id="load201-gb-fill-0"
            offset="1%"
            stop-color="rgb(164,0,212)" />
      <stop id="load201-gb-fill-1"
            offset="71%"
            stop-color="rgb(0,156,233)" />
    </linearGradient>
    <linearGradient id="load201-gbr-fill"
                    x1="88.430000"
                    y1="96.130000"
                    x2="126.380000"
                    y2="96.130000"
                    spreadMethod="pad"
                    gradientUnits="userSpaceOnUse">
      <stop id="load201-gbr-fill-0"
            offset="1%"
            stop-color="rgb(164,0,212)" />
      <stop id="load201-gbr-fill-1"
            offset="71%"
            stop-color="rgb(0,156,233)" />
    </linearGradient><linearGradient id="load201-pg-fill"
                                      x1="52.330000"
                                      y1="96.740000"
                                      x2="84.900000"
                                      y2="96.740000"
                                      spreadMethod="pad"
                                      gradientUnits="userSpaceOnUse">
      <stop id="load201-pg-fill-0"
            offset="1%"
            stop-color="rgb(164,0,212)" />
      <stop id="load201-pg-fill-1"
            offset="71%"
            stop-color="rgb(0,156,233)" />
    </linearGradient>
    <linearGradient id="load201-path1-fill"
                    x1="0"
                    y1="28.600000"
                    x2="132.720000"
                    y2="28.600000"
                    spreadMethod="pad"
                    gradientUnits="userSpaceOnUse">
      <stop id="load201-path1-fill-0"
            offset="1%"
            stop-color="rgb(164,0,212)" />
      <stop id="load201-path1-fill-1"
            offset="71%"
            stop-color="rgb(0,156,233)" />
    </linearGradient>
  </defs>
  <g id="load201-2">
    <g id="load201-all">
      <g id="load201-w1">
        <path id="load201-gb"
              d="M44.380000,114.710000Q38.090000,118.340000,28.750000,118.340000Q18.380000,118.340000,12.410000,112.600000Q6.440000,106.860000,6.410000,96.800000Q6.410000,86.680000,12.940000,80.300000Q19.470000,73.920000,30.310000,73.920000C34.389333,73.849393,38.449857,74.488926,42.310000,75.810000L42.310000,84.880000C38.602048,82.867573,34.426972,81.873835,30.210000,82C26.539013,81.856870,22.978854,83.273668,20.410000,85.900000Q16.610000,89.810000,16.620000,96.340000Q16.630000,102.870000,20,106.600000C22.399334,109.067215,25.742479,110.385536,29.180000,110.220000C31.068009,110.298114,32.949848,109.956583,34.690000,109.220000L34.690000,100.830000L26.090000,100.830000L26.090000,93.120000L44.380000,93.120000Z"
              transform="matrix(1 0 0 1 33.65403529500000 40.50000000000000)"
              fill="url(#load201-gb-fill)"
              stroke="none"
              stroke-width="1" />
        <path id="load201-gt"
              d="M44.290000,110.760000Q37.990000,114.370000,28.650000,114.380000Q18.280000,114.380000,12.320000,108.650000Q6.360000,102.920000,6.320000,92.850000Q6.320000,82.730000,12.850000,76.350000Q19.380000,69.970000,30.240000,70C34.318328,69.932229,38.377802,70.568213,42.240000,71.880000L42.240000,80.960000C38.513985,78.938116,34.317067,77.944109,30.080000,78.080000C26.418264,77.961873,22.874603,79.383690,20.310000,82Q16.530000,85.920000,16.520000,92.440000Q16.510000,98.960000,19.920000,102.680000C22.317572,105.150886,25.660948,106.472940,29.100000,106.310000C30.988079,106.389117,32.870136,106.047546,34.610000,105.310000L34.610000,96.890000L26,96.890000L26,89.160000L44.290000,89.160000Z"
              transform="matrix(1 0 0 1 33.65403529500000 38.49999999999997)"
              fill="rgb(255,255,255)"
              stroke="none"
              stroke-width="1" />
      </g>
      <g id="load201-w3">
        <path id="load201-gbr"
              d="M126.380000,114.710000Q120.100000,118.340000,110.750000,118.340000Q100.390000,118.340000,94.410000,112.600000Q88.430000,106.860000,88.410000,96.800000Q88.410000,86.680000,94.940000,80.300000Q101.470000,73.920000,112.310000,73.920000C116.389333,73.849393,120.449857,74.488926,124.310000,75.810000L124.310000,84.880000C120.602048,82.867573,116.426972,81.873835,112.210000,82C108.539013,81.856870,104.978854,83.273668,102.410000,85.900000Q98.610000,89.810000,98.620000,96.340000Q98.630000,102.870000,102,106.600000C104.399334,109.067215,107.742479,110.385536,111.180000,110.220000C113.068009,110.298114,114.949848,109.956583,116.690000,109.220000L116.690000,100.830000L108.090000,100.830000L108.090000,93.120000L126.360000,93.120000Z"
              transform="matrix(1 0 0 1 33.65403529500000 40.50000000000000)"
              fill="url(#load201-gbr-fill)"
              stroke="none"
              stroke-width="1" />
        <path id="load201-gtr"
              d="M126.290000,110.760000Q119.990000,114.370000,110.650000,114.380000Q100.280000,114.380000,94.320000,108.650000Q88.360000,102.920000,88.320000,92.850000Q88.320000,82.730000,94.850000,76.350000Q101.380000,69.970000,112.240000,70C116.318328,69.932229,120.377802,70.568213,124.240000,71.880000L124.240000,80.960000C120.513985,78.938116,116.317067,77.944109,112.080000,78.080000C108.418264,77.961873,104.874603,79.383690,102.310000,82Q98.530000,85.920000,98.520000,92.440000Q98.510000,98.960000,101.920000,102.680000C104.317572,105.150886,107.660948,106.472940,111.100000,106.310000C112.988148,106.390124,114.870425,106.048513,116.610000,105.310000L116.610000,96.890000L108,96.890000L108,89.160000L126.270000,89.160000Z"
              transform="matrix(1 0 0 1 33.65403529500000 39.49999999999997)"
              fill="rgb(255,255,255)"
              stroke="none"
              stroke-width="1" />
      </g>
      <g id="load201-w2">
        <path id="load201-pg"
              d="M62.370000,107.670000L62.370000,119L52.370000,119L52.370000,74.460000L68.050000,74.460000C79.280000,74.460000,84.900000,81.190000,84.900000,90.660000C84.900000,95.130000,84.020000,99.080000,80.480000,102.660000C77.480000,105.660000,73.900000,107.720000,67.150000,107.720000ZM62.370000,82.160000L62.370000,100.050000L66.310000,100.050000C71.660000,100.050000,75.080000,97.760000,75.080000,91.050000C75.080000,85.710000,72.330000,82.180000,66.310000,82.180000Z"
              transform="matrix(1 0 0 1 33.65403529500000 40.50000000000000)"
              fill="url(#load201-pg-fill)"
              stroke="none"
              stroke-width="1" />
        <path id="load201-pt"
              d="M62.270000,103.710000L62.270000,115.060000L52.270000,115.060000L52.270000,70.500000L68,70.500000C79.230000,70.500000,84.840000,77.240000,84.840000,86.700000C84.840000,91.180000,83.960000,95.120000,80.430000,98.700000C77.430000,101.700000,73.840000,103.700000,67.100000,103.700000ZM62.270000,78.210000L62.270000,96.100000L66.220000,96.100000C71.560000,96.100000,74.990000,93.800000,74.990000,87.100000C74.990000,81.760000,72.240000,78.230000,66.220000,78.230000Z"
              transform="matrix(1 0 0 1 33.65403529500000 39.49999999999997)"
              fill="rgb(255,255,255)"
              stroke="none"
              stroke-width="1" />
      </g>
      <g id="load201-maru">
        <path id="load201-path1"
              d="M123.360000,13.570000C111.080000,5.190000,93.410000,1.230000,67.740000,1.100000L66.660000,1.100000L66.660000,1.170000C66.603314,1.141168,66.542648,1.120946,66.480000,1.110000L66.480000,1.110000L66.360000,1.110000L66.470000,1.110000L66.250000,1.110000C66.194306,1.095154,66.135694,1.095154,66.080000,1.110000L66.080000,1.110000L64.890000,1.110000C39.270000,1.240000,21.630000,5.200000,9.340000,13.580000C0.530000,20.220000,-1.280000,29.530000,0.760000,35.360000C0.825546,35.563855,1.015872,35.701538,1.230000,35.700000L1.360000,35.700000C1.505201,35.663011,1.624064,35.559006,1.680000,35.420000L2.680000,36.650000C3.767292,40.162078,6.389991,42.990767,9.810000,44.340000C9.869179,44.354036,9.930821,44.354036,9.990000,44.340000C10.152724,44.332739,10.301712,44.246669,10.389290,44.109330C10.476869,43.971991,10.492059,43.800601,10.430000,43.650000C12.720000,46.160000,16.380000,48.410000,21.350000,50.320000L21.530000,50.320000C21.757591,50.316638,21.954190,50.159983,22.008287,49.938889C22.062385,49.717795,21.960327,49.488066,21.760000,49.380000L24.940000,49.680000C33.940000,53.560000,49.170000,56.060000,66.760000,56.060000C81.260000,56.060000,94.130000,54.360000,103.260000,51.590000L103.260000,51.590000L110.850000,50.180000C110.930164,50.259414,111.037238,50.305813,111.150000,50.310000L111.330000,50.310000C111.620000,50.200000,111.880000,50.080000,112.150000,49.970000L112.150000,49.970000L112.150000,49.970000C116.620000,48.160000,119.970000,46.060000,122.150000,43.730000C122.116435,43.864917,122.134258,44.007496,122.200000,44.130000C122.338130,44.335046,122.601535,44.414486,122.830000,44.320000C126.510686,42.883327,129.248280,39.726866,130.150000,35.880000L130.940000,35.110000L130.940000,30.260000C131.215179,31.864957,131.215179,33.505043,130.940000,35.110000C130.890148,35.368552,131.053548,35.620277,131.310000,35.680000L131.430000,35.680000C131.644128,35.681538,131.834454,35.543855,131.900000,35.340000C134,29.530000,132.190000,20.220000,123.360000,13.570000ZM9.690000,42.920000L9.960000,43.090000L10.110000,43.270000ZM28.940000,31.640000C28.887095,31.630442,28.832905,31.630442,28.780000,31.640000L26.710000,29.800000C36.270000,26.140000,50.490000,23.800000,66.360000,23.800000C82.230000,23.800000,96.720000,26.210000,106.270000,29.930000L103.430000,32C94,34.940000,80.760000,36.610000,66.780000,36.610000C52.210000,36.610000,38.410000,34.800000,28.940000,31.640000ZM123,42.930000L124.730000,41.220000C124.219632,41.853387,123.639279,42.427032,123,42.930000Z"
              transform="matrix(1 0 0 1 33.65403529500000 40.49999999999999)"
              fill="url(#load201-path1-fill)"
              stroke="none"
              stroke-width="1" />
        <path id="load201-path2"
              d="M104.790000,30.520000C95.620000,33.580000,82,35.520000,66.790000,35.520000C51.580000,35.520000,37.960000,33.580000,28.790000,30.520000C21.330000,33.010000,16.790000,36.240000,16.790000,39.770000C16.790000,47.640000,39.170000,54.020000,66.790000,54.020000C94.410000,54.020000,116.790000,47.640000,116.790000,39.770000C116.760000,36.240000,112.250000,33,104.790000,30.520000Z"
              transform="matrix(1 0 0 1 33.65403529500000 40.49999999999999)"
              fill="rgb(255,255,255)"
              stroke="none"
              stroke-width="1" />
        <path id="load201-path3"
              d="M66.610000,16L66.110000,16C33.570000,16.090000,8.110000,24.810000,8.110000,35.560000C8.110000,40.420000,12.600000,44.860000,21.510000,48.290000C16.600000,45.630000,13.760000,42.510000,13.760000,39.170000C13.760000,29.540000,37.270000,21.730000,66.320000,21.690000C95.370000,21.650000,118.880000,29.540000,118.880000,39.170000C118.880000,42.510000,116.050000,45.630000,111.130000,48.290000C120.040000,44.860000,124.530000,40.420000,124.530000,35.560000C124.570000,24.800000,99.150000,16.080000,66.610000,16Z"
              transform="matrix(1 0 0 1 33.65403529500000 40.49999999999999)"
              fill="rgb(255,255,255)"
              stroke="none"
              stroke-width="1" />
        <path id="load201-path4"
              d="M66.610000,7.150000L66.110000,7.150000C31.230000,7.320000,5.760000,16.170000,3,29.620000C2,34.760000,4.330000,39.770000,10,42.270000C8.120000,40.700000,7.340000,40.050000,6.400000,37.900000C5.701174,35.832935,5.919527,33.565704,7,31.670000C12,22.140000,35.230000,13.820000,66.320000,13.670000C97.420000,13.810000,120.690000,22.130000,125.640000,31.670000C126.723801,33.564229,126.945800,35.831524,126.250000,37.900000C125.310000,40.050000,124.530000,40.700000,122.650000,42.270000C128.330000,39.770000,130.710000,34.760000,129.650000,29.620000C127,16.170000,101.490000,7.320000,66.610000,7.150000Z"
              transform="matrix(1 0 0 1 33.65403529500000 40.49999999999999)"
              fill="rgb(255,255,255)"
              stroke="none"
              stroke-width="1" />
        <path id="load201-path5"
              d="M123.080000,12.390000C110.930000,4.100000,93.440000,0.140000,67.740000,0L65,0C39.280000,0.140000,21.790000,4.100000,9.640000,12.390000C1.230000,18.730000,-0.830000,27.710000,1.230000,33.600000C-0.080000,25.690000,4.420000,18.920000,16.790000,12.920000C29.400000,6.800000,44.500000,5.290000,65.390000,5.220000L67.330000,5.220000C88.220000,5.290000,103.330000,6.800000,115.930000,12.920000C128.300000,18.920000,132.810000,25.690000,131.490000,33.600000C133.550000,27.710000,131.490000,18.730000,123.080000,12.390000Z"
              transform="matrix(1 0 0 1 33.65403529500000 40.49999999999999)"
              fill="rgb(255,255,255)"
              stroke="none"
              stroke-width="1" />
      </g>
    </g>
  </g>
</svg>